<?xml version="1.0" encoding="utf-8"?>
<!-- Generator: Adobe Illustrator 16.0.0, SVG Export Plug-In . SVG Version: 6.00 Build 0)  -->
<!DOCTYPE svg PUBLIC "-//W3C//DTD SVG 1.1 Basic//EN" "http://www.w3.org/Graphics/SVG/1.1/DTD/svg11-basic.dtd">
<svg version="1.1" baseProfile="basic" id="Layer_1"
	 xmlns="http://www.w3.org/2000/svg" xmlns:xlink="http://www.w3.org/1999/xlink" x="0px" y="0px" width="500px" height="800px"
	 viewBox="0 0 500 800" xml:space="preserve">
<rect fill="#A40000" width="500" height="801"/>
<path fill="#FFFFFF" d="M52.226,101.131c-3.008-3.436-3.544-7.355-1.611-11.759c0.858-1.825,1.986-3.436,3.383-4.833
	c0.536-0.428,1.127-0.697,1.772-0.806c10.309-2.683,20.833-3.488,31.572-2.416c2.039,0.216,4.833,0.539,8.376,0.966l21.263,2.417
	c9.235,1.505,17.075,5.102,23.519,10.792c4.832,4.405,7.57,10.848,8.215,19.33c0.322,4.619-0.055,8.593-1.127,11.92
	c-0.861,2.472-2.15,4.888-3.866,7.249c-2.794,3.652-5.424,5.424-7.894,5.316l-4.671-0.161c-1.289,0.217-2.577,0.7-3.866,1.45
	c1.717,0.861,4.188,1.022,7.41,0.483c3.005-0.428,5.638,0.7,7.893,3.383c0.428,0.43,0.806,0.914,1.128,1.45
	c3.866,5.371,5.638,11.868,5.315,19.491c-0.107,1.289-0.217,2.738-0.322,4.35c-0.86,9.129-2.738,15.733-5.638,19.813
	c-1.505,2.255-3.383,4.244-5.638,5.96c-6.766,5.155-15.303,7.518-25.613,7.087l-17.558-0.966c-1.075,0-2.041,0.055-2.899,0.161
	l-19.33,1.45c-5.263,0.105-11.92-0.375-19.975-1.45c-1.075-0.214-1.933-0.697-2.577-1.45c-3.866-4.616-4.188-9.826-0.967-15.625
	c1.072-1.933,2.469-3.649,4.188-5.155c0.322-0.322,0.697-0.536,1.127-0.644c5.799-2.147,10.523-1.933,14.175,0.644l1.128,1.128
	v0.322c0.105-4.616-0.431-9.665-1.611-15.142c-0.645-3.436-1.022-7.463-1.128-12.082v-0.322l4.027-52.997
	c0.428,0.43,0.214,0.966-0.645,1.611c-2.363,1.933-7.465,2.041-15.303,0.322C53.514,102.314,52.762,101.884,52.226,101.131z
	 M120.042,163.793c0.214-5.477-1.236-9.718-4.349-12.726c-1.719-1.825-3.813-2.844-6.282-3.061
	c-8.485-0.967-12.942-1.289-13.37-0.967c-1.075,13.64-1.611,21.319-1.611,23.035c0.106,1.289,0.161,2.686,0.161,4.188
	c0.106,3.008,1.825,5.155,5.155,6.443c1.716,0.644,3.544,0.861,5.477,0.644c6.443-0.75,10.898-4.294,13.37-10.631
	C119.451,168.573,119.934,166.265,120.042,163.793z M99.746,101.614c-0.967,10.31-1.236,18.364-0.806,24.163
	c0.214,2.364,0.536,5.263,0.967,8.699c0.536,0.539,3.597-0.483,9.182-3.061c1.072-0.536,2.039-1.02,2.899-1.45
	c3.222-1.502,5.261-2.899,6.122-4.188c0.322-0.428,0.589-0.966,0.805-1.611c1.825-3.758,2.417-7.087,1.772-9.987
	c-0.322-1.289-0.861-2.739-1.611-4.35c-1.505-3.005-4.027-5.26-7.571-6.766c-0.645-0.214-1.289-0.428-1.933-0.644
	c-3.438-1.289-6.068-1.717-7.893-1.289L99.746,101.614z"/>
<path fill="#FFFFFF" d="M207.412,311.991c3.223-1.072,10.148,3.813,20.78,14.659c8.804,8.915,17.181,19.063,25.13,30.445
	c0.75,1.827,0.857,3.169,0.322,4.027l-1.289,1.289c-6.121,4.51-13.104,5.96-20.941,4.349l-9.021-2.577
	c-0.645-0.214-1.183-0.589-1.61-1.128l-35.439-46.231c-5.693,0-8.432-0.053-8.215-0.161c0.106,4.51,0.483,13.748,1.128,27.707
	c-0.431-0.106,0.267-0.267,2.094-0.483c6.549-0.428,11.168,1.827,13.854,6.766c1.825,3.33,1.716,6.604-0.322,9.826
	c-0.861,1.397-2.041,2.686-3.544,3.866c-0.752,0.539-1.505,0.86-2.255,0.966l-21.747,1.772c-7.84,0.322-16.592-0.322-26.257-1.933
	c-0.966-0.105-1.772-0.536-2.416-1.289c-3.975-4.402-4.083-8.913-0.322-13.531c0.966-1.289,2.147-2.469,3.544-3.544
	c0.428-0.214,0.805-0.428,1.127-0.644c6.335-2.255,9.074-2.63,8.215-1.128c-0.108,0.217-0.27,0.378-0.483,0.483l0.806-23.196
	c0-0.105,0-0.214,0-0.322c0.858-13.959,1.127-33.022,0.805-57.185c-0.108-2.683-0.161-3.383-0.161-2.094
	c-0.322,0.108-0.644,0.644-0.966,1.611c-0.967,2.363-4.566,2.899-10.793,1.611c-0.86-0.106-1.611-0.483-2.255-1.127
	c-3.116-3.328-3.652-7.141-1.611-11.438c0.75-1.611,1.825-3.061,3.222-4.349c0.75-0.644,1.611-0.966,2.577-0.966l36.728-1.45
	c0.644,0,1.289,0,1.933,0c13.853,0,24.376,1.558,31.572,4.671c4.725,1.933,9.126,4.671,13.209,8.215
	c4.725,3.974,7.463,9.987,8.216,18.042c0.428,4.51-0.056,8.537-1.45,12.081c-0.86,2.149-1.988,4.188-3.383,6.122
	c-5.155,7.196-12.028,12.62-20.618,16.27H207.412z M180.833,266.082c-0.861,9.665-1.127,17.397-0.805,23.196l0.966,9.182
	c0.858,0.644,3.919-0.053,9.182-2.094c1.289-0.536,2.308-0.966,3.061-1.289c3.327-1.289,5.477-2.683,6.443-4.188
	c0.214-0.322,0.375-0.645,0.483-0.967c2.147-4.188,2.792-7.946,1.933-11.276c-0.322-1.502-0.914-3.167-1.772-4.994
	c-1.505-2.683-3.866-4.671-7.087-5.96c-0.645-0.214-1.505-0.536-2.578-0.967c-3.544-1.072-6.016-1.502-7.41-1.289
	C182.605,265.545,181.8,265.759,180.833,266.082z"/>
<path fill="#FFFFFF" d="M225.797,421.778c-1.183-3.758-0.269-6.927,2.739-9.504c0.321-0.214,0.589-0.375,0.805-0.483l1.934-0.483
	c6.443,0.108,11.598,0.161,15.464,0.161l36.889,1.449c1.18,0.108,2.094,0.539,2.738,1.289c1.18,1.183,1.933,2.524,2.255,4.027
	c0.644,2.899-0.056,5.477-2.095,7.731c-0.43,0.322-0.86,0.645-1.288,0.967c-3.438,2.794-7.731,3.33-12.887,1.611
	c-1.933-0.75-2.686-1.289-2.255-1.611c-0.217,3.761-0.378,6.874-0.483,9.343v22.552l27.224,0.161c3.758,0,10.845-0.053,21.263-0.161
	c0.214-4.079,0.267-8.054,0.161-11.92c0-8.59,0.267-14.442,0.805-17.559c0.215,0.645-0.591,0.967-2.416,0.967
	c-4.51,0.217-8.001-1.395-10.471-4.832l-1.449-2.899c-1.506-3.973-0.806-7.249,2.094-9.826c0.645-0.536,1.45-0.858,2.416-0.967
	c7.41-0.75,12.188-1.181,14.337-1.289c6.122-0.322,15.304,0.431,27.546,2.256c0.967,0.107,1.771,0.482,2.416,1.127
	c0.322,0.322,0.589,0.7,0.806,1.128c1.61,2.363,1.503,5.154-0.322,8.376c-1.505,3.008-3.761,5.103-6.766,6.282l-4.833,1.128
	c-0.216,30.178-0.16,45.804,0.162,46.876c0.213,0.966,0.16,11.814-0.162,32.539c3.113,1.933,5.316,4.243,6.605,6.927
	c0.535,1.074,0.91,2.202,1.127,3.383l0.322,6.765c-0.108,0.645-0.161,1.184-0.161,1.611c-0.322,1.61-1.505,2.472-3.544,2.577
	c-10.848,1.181-16.753,1.825-17.719,1.934l-24.969-0.483c-1.074-0.217-1.827-0.431-2.255-0.645c-1.289-0.536-1.827-1.878-1.61-4.027
	c0-0.214,0-0.483,0-0.806c0.105-4.832,1.232-8.537,3.383-11.114c2.038-2.361,4.776-3.811,8.215-4.35l4.672-0.161l0.966-11.114
	c0-0.214,0-8.43,0-24.646c-5.799-0.214-9.182-0.483-10.148-0.806l-0.321-0.322l-38.017,0.483
	c0.967,14.929,1.342,22.499,1.128,22.713l-0.483-1.288c-0.322,0-0.27,4.671,0.161,14.015c0,0.107,0.428,0.16,1.289,0.16
	c7.623-0.321,12.508,1.667,14.658,5.961c0.536,0.966,0.911,1.988,1.127,3.061c0.645,3.974-0.752,7.143-4.188,9.504
	c-0.753,0.538-1.559,0.806-2.416,0.806c-7.627,0.107-16.27,0.43-25.935,0.966c-2.042,0.108-10.954-0.697-26.74-2.416
	c-0.753-0.105-1.45-0.375-2.095-0.806c-1.288-0.966-2.255-2.146-2.899-3.544c-1.827-3.436-1.558-6.604,0.806-9.504
	c0.75-0.858,1.611-1.556,2.577-2.094c3.436-1.934,7.193-1.986,11.276-0.161c1.61,0.753,2.199,1.344,1.771,1.771
	c-0.322-16-0.216-26.632,0.322-31.895c1.289-12.564,2.147-30.767,2.577-54.607c0.322,0.431-0.538,0.806-2.577,1.127
	c-5.263,0.753-9.182-0.589-11.759-4.026C226.708,424.089,226.119,422.961,225.797,421.778z"/>
<path fill="#FFFFFF" d="M449.987,678.542c-7.196,9.773-19.277,15.786-36.244,18.041c-4.833,0.645-12.351,1.233-22.552,1.772
	c-6.551,0.322-12.564-0.483-18.041-2.417c-2.256-0.857-4.727-1.933-7.41-3.222c-10.203-5.26-18.098-11.65-23.68-19.169
	c-1.396-1.824-2.738-3.811-4.027-5.96c-5.263-8.59-7.731-17.342-7.41-26.257c0.106-0.645,0.162-1.288,0.162-1.933
	c0.75-10.954,4.402-21.208,10.953-30.768c1.395-2.038,3.006-4.241,4.833-6.604c6.871-8.804,14.55-15.408,23.034-19.813
	c2.256-1.18,4.777-2.36,7.572-3.544c5.368-2.146,12.295-3.274,20.779-3.383c2.256,0,3.811,0,4.672,0
	c8.482-0.105,14.98,0.27,19.49,1.128c2.039,0.431,4.08,0.914,6.122,1.45c5.69,1.719,11.812,4.727,18.363,9.021
	c-1.183-0.75-0.269-0.161,2.739,1.771c0.213,0.108,0.375,0.217,0.482,0.322c0.75,0.539,1.289,1.184,1.611,1.934
	c2.791,8.271,3.005,15.733,0.645,22.391l-3.867,8.537c-0.216,0.539-0.538,1.128-0.966,1.772c-1.505,1.827-2.847,2.633-4.027,2.416
	c-0.431-0.214-1.021-0.483-1.772-0.806c-4.939-2.899-7.679-7.141-8.215-12.726c-0.217-2.039-0.482-3.222-0.805-3.544
	c-6.553-6.443-12.564-10.576-18.042-12.403c-2.363-0.858-5.103-1.45-8.216-1.772c-6.873-0.966-12.512-0.536-16.914,1.289
	c-2.471,0.967-4.993,2.416-7.57,4.35c-8.271,6.229-13.586,13.639-15.947,22.229c-0.752,3.008-1.344,6.499-1.771,10.471
	c-0.861,8.376,0,15.25,2.576,20.618c1.395,2.9,3.437,5.961,6.122,9.183c5.261,6.121,11.542,10.042,18.847,11.759
	c2.146,0.431,4.616,0.806,7.41,1.128c7.301,0.966,13.476,0.483,18.524-1.45c1.825-0.75,3.327-1.61,4.511-2.577
	c0.105-9.557,0.214-14.337,0.322-14.337l-1.289-5.315c-0.108-0.536-1.666-0.858-4.672-0.967l-5.315-0.483
	c-3.116-0.75-5.532-2.416-7.249-4.993c-1.719-2.577-1.933-4.994-0.645-7.249c0.322-0.536,0.697-1.02,1.128-1.449
	c0.75-0.645,1.61-1.02,2.577-1.128c21.047-1.181,36.672-2.039,46.876-2.577l2.095,0.483c0.321,0.216,0.644,0.43,0.966,0.644
	c2.792,2.686,3.383,5.96,1.772,9.826l-1.934,3.061l-0.161,0.161c-1.183,1.289-3.008,0.967-5.477-0.966
	c5.046,3.222,6.496,9.665,4.349,19.33C454.12,670.971,452.348,675.215,449.987,678.542z"/>
<g>
</g>
<g>
</g>
<g>
</g>
<g>
</g>
<g>
</g>
<g>
</g>
<g>
</g>
<g>
</g>
<g>
</g>
<g>
</g>
<g>
</g>
<g>
</g>
<g>
</g>
<g>
</g>
<g>
</g>
</svg>
