<?xml version="1.0" encoding="utf-8"?>
<!-- Generator: Adobe Illustrator 16.0.0, SVG Export Plug-In . SVG Version: 6.00 Build 0)  -->
<!DOCTYPE svg PUBLIC "-//W3C//DTD SVG 1.1//EN" "http://www.w3.org/Graphics/SVG/1.1/DTD/svg11.dtd">
<svg version="1.1" xmlns="http://www.w3.org/2000/svg" xmlns:xlink="http://www.w3.org/1999/xlink" x="0px" y="0px" width="333px"
	 height="53px" viewBox="-197.833 -11 333 53" enable-background="new -197.833 -11 333 53" xml:space="preserve">
<g id="Layer_1">
	<path fill="#253B80" d="M42.211,6.749h-6.839c-0.468,0-0.866,0.34-0.939,0.802l-2.766,17.537c-0.055,0.346,0.213,0.658,0.564,0.658
		h3.265c0.468,0,0.866-0.34,0.939-0.803l0.746-4.73c0.072-0.463,0.471-0.803,0.938-0.803h2.165c4.505,0,7.105-2.18,7.784-6.5
		c0.306-1.89,0.013-3.375-0.872-4.415C46.224,7.353,44.5,6.749,42.211,6.749z M43,13.154c-0.374,2.454-2.249,2.454-4.062,2.454
		h-1.032l0.724-4.583c0.043-0.277,0.283-0.481,0.563-0.481h0.473c1.235,0,2.4,0,3.002,0.704C43.027,11.668,43.137,12.292,43,13.154z
		"/>
	<path fill="#253B80" d="M62.654,13.075h-3.275c-0.279,0-0.52,0.204-0.563,0.481l-0.146,0.916l-0.229-0.332
		c-0.709-1.029-2.29-1.373-3.868-1.373c-3.619,0-6.71,2.741-7.312,6.586c-0.313,1.918,0.132,3.752,1.22,5.03
		c0.998,1.177,2.426,1.666,4.125,1.666c2.916,0,4.533-1.875,4.533-1.875l-0.146,0.91c-0.055,0.349,0.213,0.66,0.562,0.66h2.95
		c0.469,0,0.865-0.341,0.939-0.804l1.77-11.208C63.271,13.388,63.004,13.075,62.654,13.075z M58.089,19.449
		c-0.316,1.871-1.801,3.127-3.695,3.127c-0.951,0-1.711-0.305-2.199-0.883c-0.484-0.574-0.668-1.391-0.514-2.301
		c0.295-1.855,1.805-3.153,3.67-3.153c0.93,0,1.686,0.309,2.184,0.892C58.034,17.721,58.232,18.543,58.089,19.449z"/>
	<path fill="#253B80" d="M80.096,13.075h-3.291c-0.313,0-0.609,0.156-0.787,0.417l-4.539,6.686l-1.924-6.425
		c-0.121-0.402-0.492-0.678-0.912-0.678h-3.233c-0.394,0-0.666,0.384-0.541,0.754l3.625,10.638l-3.408,4.811
		c-0.269,0.379,0.002,0.9,0.465,0.9h3.287c0.312,0,0.604-0.152,0.781-0.408L80.564,13.97C80.826,13.592,80.557,13.075,80.096,13.075
		z"/>
	<path fill="#179BD7" d="M90.992,6.749h-6.84c-0.467,0-0.865,0.34-0.938,0.802l-2.767,17.537c-0.055,0.346,0.214,0.658,0.563,0.658
		h3.51c0.326,0,0.605-0.238,0.656-0.563l0.785-4.971c0.072-0.463,0.471-0.803,0.938-0.803h2.164c4.506,0,7.105-2.18,7.785-6.5
		c0.307-1.89,0.012-3.375-0.873-4.415C95.004,7.353,93.281,6.749,90.992,6.749z M91.781,13.154
		c-0.373,2.454-2.248,2.454-4.063,2.454h-1.031l0.726-4.583c0.043-0.277,0.28-0.481,0.562-0.481h0.474c1.233,0,2.399,0,3.002,0.704
		C91.809,11.668,91.918,12.292,91.781,13.154z"/>
	<path fill="#179BD7" d="M111.434,13.075h-3.272c-0.281,0-0.521,0.204-0.562,0.481l-0.146,0.916l-0.229-0.332
		c-0.709-1.029-2.289-1.373-3.867-1.373c-3.619,0-6.709,2.741-7.312,6.586c-0.312,1.918,0.131,3.752,1.22,5.03
		c1,1.177,2.426,1.666,4.125,1.666c2.916,0,4.532-1.875,4.532-1.875l-0.146,0.91c-0.055,0.349,0.213,0.66,0.563,0.66h2.949
		c0.467,0,0.864-0.341,0.938-0.804l1.771-11.208C112.053,13.388,111.785,13.075,111.434,13.075z M106.869,19.449
		c-0.314,1.871-1.801,3.127-3.695,3.127c-0.949,0-1.711-0.305-2.199-0.883c-0.483-0.574-0.666-1.391-0.514-2.301
		c0.297-1.855,1.805-3.153,3.67-3.153c0.93,0,1.686,0.309,2.184,0.892C106.816,17.721,107.014,18.543,106.869,19.449z"/>
	<path fill="#179BD7" d="M115.295,7.23l-2.807,17.858c-0.055,0.346,0.213,0.658,0.562,0.658h2.822c0.469,0,0.866-0.34,0.938-0.803
		l2.769-17.537c0.055-0.346-0.213-0.659-0.562-0.659h-3.16C115.578,6.749,115.338,6.953,115.295,7.23z"/>
	<path fill="#253B80" d="M3.266,29.154l0.523-3.322l-1.165-0.027h-5.563L0.927,1.292C0.939,1.218,0.978,1.149,1.035,1.1
		c0.057-0.049,0.13-0.076,0.206-0.076h9.38c3.114,0,5.263,0.648,6.385,1.927c0.526,0.6,0.861,1.227,1.023,1.917
		c0.17,0.724,0.173,1.589,0.007,2.644l-0.012,0.077v0.676l0.526,0.298c0.443,0.235,0.795,0.504,1.065,0.812
		c0.45,0.513,0.741,1.165,0.864,1.938c0.127,0.795,0.085,1.741-0.123,2.812c-0.24,1.232-0.628,2.305-1.152,3.184
		c-0.482,0.809-1.096,1.479-1.825,2c-0.696,0.494-1.523,0.869-2.458,1.108c-0.906,0.235-1.939,0.354-3.072,0.354h-0.73
		c-0.522,0-1.029,0.188-1.427,0.525c-0.399,0.344-0.663,0.814-0.744,1.328l-0.055,0.299l-0.924,5.855l-0.042,0.215
		c-0.011,0.068-0.03,0.102-0.058,0.125c-0.025,0.021-0.061,0.035-0.096,0.035H3.266z"/>
	<path fill="#179BD7" d="M19.048,7.667L19.048,7.667L19.048,7.667c-0.028,0.179-0.06,0.362-0.096,0.55
		c-1.237,6.351-5.469,8.545-10.874,8.545H5.326c-0.661,0-1.218,0.48-1.321,1.132l0,0l0,0L2.596,26.83l-0.399,2.533
		c-0.067,0.428,0.263,0.814,0.695,0.814h4.881c0.578,0,1.069-0.421,1.16-0.99l0.048-0.248L9.9,23.107l0.059-0.32
		c0.09-0.572,0.582-0.992,1.16-0.992h0.73c4.729,0,8.431-1.92,9.513-7.476c0.452-2.321,0.218-4.259-0.978-5.622
		C20.022,8.286,19.573,7.945,19.048,7.667z"/>
	<path fill="#222D65" d="M17.754,7.151c-0.189-0.055-0.384-0.105-0.584-0.15c-0.201-0.044-0.407-0.083-0.619-0.117
		c-0.742-0.12-1.555-0.177-2.426-0.177H6.773c-0.181,0-0.353,0.041-0.507,0.115C5.927,6.985,5.675,7.306,5.614,7.699L4.05,17.605
		l-0.045,0.289c0.103-0.652,0.66-1.132,1.321-1.132h2.752c5.405,0,9.637-2.195,10.874-8.545c0.037-0.188,0.068-0.371,0.096-0.55
		c-0.313-0.166-0.652-0.308-1.017-0.429C17.941,7.208,17.848,7.179,17.754,7.151z"/>
	<path fill="#253B80" d="M5.614,7.699c0.061-0.393,0.313-0.714,0.652-0.876c0.155-0.074,0.326-0.115,0.507-0.115h7.352
		c0.871,0,1.684,0.057,2.426,0.177c0.212,0.034,0.418,0.073,0.619,0.117c0.2,0.045,0.395,0.095,0.584,0.15
		c0.094,0.028,0.187,0.057,0.278,0.086c0.365,0.121,0.704,0.264,1.017,0.429c0.368-2.347-0.003-3.945-1.272-5.392
		C16.378,0.682,13.853,0,10.622,0h-9.38c-0.66,0-1.223,0.48-1.325,1.133L-3.99,25.898c-0.077,0.49,0.301,0.932,0.795,0.932h5.791
		l1.454-9.225L5.614,7.699z"/>
	<g>
		<path fill="#253B80" d="M-170.615,24.711c-1.278,0.618-2.946,0.928-5.005,0.928c-2.686,0-4.797-0.789-6.335-2.369
			c-1.538-1.578-2.307-3.682-2.307-6.311c0-2.799,0.865-5.07,2.594-6.812c1.729-1.741,3.974-2.612,6.732-2.612
			c1.709,0,3.149,0.216,4.321,0.647v3.796c-1.172-0.7-2.507-1.05-4.004-1.05c-1.644,0-2.971,0.517-3.979,1.55
			c-1.009,1.034-1.514,2.434-1.514,4.199c0,1.693,0.476,3.042,1.428,4.046c0.952,1.006,2.234,1.508,3.845,1.508
			c1.538,0,2.946-0.374,4.224-1.123V24.711z"/>
		<path fill="#253B80" d="M-155.942,25.333h-3.845v-7.104c0-1.831-0.667-2.747-2.002-2.747c-0.684,0-1.237,0.256-1.66,0.769
			c-0.423,0.513-0.635,1.164-0.635,1.953v7.129h-3.857V6.827h3.857v7.861h0.049c0.944-1.44,2.226-2.161,3.845-2.161
			c2.832,0,4.248,1.709,4.248,5.126V25.333z"/>
		<path fill="#253B80" d="M-141.66,20.182h-8.154c0.13,1.814,1.273,2.723,3.43,2.723c1.375,0,2.583-0.326,3.625-0.977v2.783
			c-1.156,0.618-2.657,0.928-4.504,0.928c-2.019,0-3.585-0.561-4.7-1.679c-1.115-1.119-1.672-2.68-1.672-4.682
			c0-2.075,0.602-3.719,1.807-4.932c1.204-1.212,2.686-1.819,4.443-1.819c1.823,0,3.233,0.542,4.229,1.624
			c0.997,1.083,1.496,2.551,1.496,4.407V20.182z M-145.237,17.813c0-1.79-0.725-2.686-2.173-2.686c-0.619,0-1.153,0.256-1.605,0.769
			c-0.451,0.513-0.726,1.152-0.824,1.917H-145.237z"/>
		<path fill="#253B80" d="M-129.893,24.881c-0.871,0.505-2.128,0.758-3.772,0.758c-1.921,0-3.475-0.582-4.663-1.746
			c-1.188-1.164-1.782-2.665-1.782-4.504c0-2.125,0.637-3.799,1.91-5.023c1.274-1.225,2.977-1.837,5.109-1.837
			c1.473,0,2.539,0.195,3.198,0.586v3.271c-0.806-0.602-1.705-0.903-2.698-0.903c-1.107,0-1.983,0.324-2.631,0.97
			c-0.646,0.647-0.97,1.54-0.97,2.68c0,1.106,0.309,1.976,0.928,2.606c0.618,0.631,1.469,0.945,2.551,0.945
			c0.96,0,1.9-0.301,2.82-0.902V24.881z"/>
		<path fill="#253B80" d="M-114.841,25.333h-4.626l-3.992-6.201h-0.049v6.201h-3.857V6.827h3.857v11.78h0.049l3.723-5.774h4.578
			l-4.48,5.872L-114.841,25.333z"/>
		<path fill="#253B80" d="M-107.786,25.639c-2.083,0-3.721-0.584-4.914-1.752c-1.192-1.168-1.788-2.753-1.788-4.755
			c0-2.067,0.618-3.685,1.855-4.853c1.237-1.167,2.909-1.751,5.017-1.751c2.075,0,3.703,0.584,4.883,1.751
			c1.18,1.168,1.77,2.712,1.77,4.633c0,2.075-0.608,3.715-1.825,4.92C-104.003,25.036-105.67,25.639-107.786,25.639z
			 M-107.688,15.482c-0.912,0-1.62,0.313-2.124,0.94c-0.505,0.627-0.757,1.514-0.757,2.661c0,2.401,0.968,3.601,2.905,3.601
			c1.847,0,2.771-1.232,2.771-3.698C-104.893,16.65-105.825,15.482-107.688,15.482z"/>
		<path fill="#253B80" d="M-86.582,25.333h-3.845v-1.904h-0.061c-0.952,1.474-2.226,2.21-3.821,2.21
			c-2.897,0-4.346-1.754-4.346-5.262v-7.544h3.845v7.202c0,1.766,0.7,2.648,2.1,2.648c0.691,0,1.245-0.242,1.66-0.726
			c0.415-0.484,0.623-1.142,0.623-1.972v-7.153h3.845V25.333z"/>
		<path fill="#253B80" d="M-75.779,25.187c-0.57,0.301-1.428,0.452-2.576,0.452c-2.718,0-4.077-1.412-4.077-4.236v-5.725h-2.026
			v-2.844h2.026v-2.698l3.845-1.099v3.796h2.808v2.844h-2.808v5.053c0,1.303,0.517,1.953,1.55,1.953
			c0.407,0,0.826-0.117,1.257-0.354V25.187z"/>
		<path fill="#253B80" d="M-48.606,12.833l-3.601,12.5h-4.053l-1.843-7.324c-0.122-0.488-0.191-1.021-0.208-1.599h-0.073
			c-0.057,0.635-0.139,1.152-0.244,1.55l-1.978,7.373h-4.004l-3.528-12.5h3.931l1.721,8.154c0.081,0.383,0.142,0.847,0.183,1.392
			h0.073c0.041-0.569,0.114-1.05,0.22-1.44l2.148-8.105h3.674l1.929,8.154c0.049,0.204,0.105,0.676,0.171,1.416h0.085
			c0.041-0.472,0.105-0.944,0.195-1.416l1.624-8.154H-48.606z"/>
		<path fill="#253B80" d="M-44.822,10.855c-0.651,0-1.184-0.193-1.599-0.58c-0.415-0.386-0.623-0.86-0.623-1.422
			c0-0.578,0.208-1.05,0.623-1.416s0.948-0.549,1.599-0.549c0.659,0,1.194,0.183,1.605,0.549c0.411,0.366,0.617,0.838,0.617,1.416
			c0,0.586-0.206,1.066-0.617,1.44C-43.627,10.668-44.163,10.855-44.822,10.855z M-42.917,25.333h-3.857v-12.5h3.857V25.333z"/>
		<path fill="#253B80" d="M-32.114,25.187c-0.57,0.301-1.428,0.452-2.576,0.452c-2.718,0-4.077-1.412-4.077-4.236v-5.725h-2.026
			v-2.844h2.026v-2.698l3.845-1.099v3.796h2.808v2.844h-2.808v5.053c0,1.303,0.517,1.953,1.55,1.953
			c0.407,0,0.826-0.117,1.257-0.354V25.187z"/>
		<path fill="#253B80" d="M-17.942,25.333h-3.845v-7.104c0-1.831-0.667-2.747-2.002-2.747c-0.684,0-1.237,0.256-1.66,0.769
			c-0.423,0.513-0.635,1.164-0.635,1.953v7.129h-3.857V6.827h3.857v7.861h0.049c0.944-1.44,2.226-2.161,3.845-2.161
			c2.832,0,4.248,1.709,4.248,5.126V25.333z"/>
	</g>
</g>
<g id="Layer_2">
	<g>
		<path fill="#EDA304" d="M120.58-8c6.399,0,11.587,4.051,11.587,9.048v28.904c0,4.998-5.188,9.049-11.587,9.049h-303.493
			c-6.399,0-11.586-4.051-11.586-9.049V1.048c0-4.997,5.187-9.048,11.586-9.048H120.58 M120.58-10.968h-303.493
			c-8.025,0-14.555,5.39-14.555,12.016v28.904c0,6.626,6.529,12.018,14.555,12.018H120.58c8.025,0,14.556-5.392,14.556-12.018V1.048
			C135.136-5.578,128.605-10.968,120.58-10.968L120.58-10.968z"/>
	</g>
</g>
</svg>
