<?xml version="1.0" encoding="utf-8"?>
<!-- Generator: Adobe Illustrator 16.0.0, SVG Export Plug-In . SVG Version: 6.00 Build 0)  -->
<!DOCTYPE svg PUBLIC "-//W3C//DTD SVG 1.1//EN" "http://www.w3.org/Graphics/SVG/1.1/DTD/svg11.dtd">
<svg version="1.1" id="extra-frame-3_xA0_Image_1_" xmlns="http://www.w3.org/2000/svg" xmlns:xlink="http://www.w3.org/1999/xlink"
	 x="0px" y="0px" width="197px" height="252px" viewBox="0 0 197 252">
<g>
	<path fill="#FFFFFF" d="M169.6,62.6c-4.6-0.6-5,6.1-5,6.1l3.101,5.1l7.6,0.3C175.4,74.1,174.3,63.3,169.6,62.6z"/>
	<path fill="#FFFFFF" d="M107.6,53c0,0,1.801,16.6,3,16.6l17.301,3.3c0,0,4.3-2.5,5.1-3s1.4-4.8,1.4-4.8s3-1.6,3.1-5.2
		c0-1.3,0.1-2.4,0.1-2.4l0.4-5.4l2.8-9l-13.1-0.6L107.6,53z"/>
	<path fill="#FFFFFF" d="M95.5,69.9c-6,0.2-9.4,1.5-11.5,3.5s-18.7,20-18.9,21c-0.2,1-5.6,2.6-5.8,5.4c-0.2,2.8-4.4,9.1-5.1,11.3
		c-0.7,2.2-3.9,8.9-4.4,10s-1.3,6.8-2.8,8.3s-1.8,4-2,5.8s3.3,6.399,3.6,6.399l1.3,0.4l2.3-1.1l3.5,2.899l2.1-1.5l0.8-3.399
		l-0.1-4.601l2.7-4.1L68,123l12.4-13.4c0,0,6.6-8,6.4-8c-0.2,0-0.3-5.6-0.3-5.6l7-14.8C93.5,81,101.4,69.7,95.5,69.9z"/>
	<path fill="#FFFFFF" d="M67.9,72.8L65.7,71c0,0-2.3-4.1-2.8-6.2c-0.4-1.6-1.9-2.6-2.9-4.2s-13-2.5-13-2.5s-0.8-0.2-1.5,0
		c-0.7,0.2-6.7,4.3-6.7,4.3l16.8,16.5l8.3,2.5l6.3,0.3l2.6-5.1l-3-2.3L67.9,72.8z"/>
	<path fill="#FFFFFF" d="M113.3,151.5l-6.5-6l-19.3-1.8l-7.8,12.5l3.3,11.7l14.8,17.3c0,0,10.5,3,11.5,3.2
		c1,0.199,6.8-1.101,8.601-3.4c1.8-2.3,0.899-9.1,0.699-10.2c-0.199-1.1-0.3-2-0.899-4.1c-0.601-2.101,2-10.2,2-10.2L113.3,151.5z"
		/>
	<path d="M142.2,66l0.2,2.1c1.899,2,4.6,4.6,4.699,6.9c0.2,3.2,2.101,5.8-3,5.1c-1.1-0.1-2.6-0.2-3.5-0.6l-0.199,0.6
		c0,0,4.3,1.7,7.5,0.1c3.199-1.6,0.1-6.7-0.601-8.9C146.6,69.1,142.2,66,142.2,66z"/>
	<path fill="#FEFEFE" d="M173.2,75.2c-5.9-1.3-12.4-0.8-17.5-5c-7.2-1.6-5.4-1.5-6.8,5.7c-0.2,1.1-0.7,3.4-1.101,4.4
		c-4.1,3.2-9.7,0.9-11.2-4.2c-0.6-2.1-0.8-4.3-3.899-3.4c-2.7,2.2-2.9,5.3-2.101,8.2c1.5,5.4,1.301,10.4-1.1,15.4
		c-0.3,4.3,2,4.5,5.3,3.3c6.2-2.1,6.8-1.9,9.8,2.6c0.301,0.7,0.601,1.4,0.801,2.1c3.3,4.7,4.6,9.9,3.699,15.6
		c-0.399,3.3-0.699,6.7-1.699,10c-2.2,5.199-6.2,3.1-9.801,2.3c-0.699-0.3-1.3-0.4-2.1-0.5c-3.6,2.2-3.7,3.3-0.1,7.1
		c2.1,2.3,3.6,4,0,6.2c-1.9,1.1-2.101,3.4-2.5,5.3c-0.601,2.9,0.6,4.3,3.5,2.8c3.8-1.899,6.6-0.5,9,2.5
		c4.5,4,9.3,7.601,14.399,10.801c2.8,2.6,4.3,6.899,9.399,6.3c4.5-0.601,8-2.2,9.201-7c1.1-4.4,3.699-6.101,8.399-5.8
		c3.3,0.199,6.601,0.199,10,0.1V75.2C189.1,75.1,181.1,74.7,173.2,75.2z"/>
	<path fill="#020202" d="M187.2,158c-1,0-2.3,0.2-2.8-0.3c-1.7-1.5-2.9,0.2-4.301,0.2c-3.1-0.101-1.6,2.1-2,3.399
		c-0.6,2.101-1,4.3-2.1,6.101c-1.1,1.899-3.1,3.1-5.4,3.6c-3.3,0.7-5.3-1.5-6.399-3.6c-1.2-2.4-3-2.9-5.2-3.4
		c-0.8-0.1-1.5-0.7-2.2-1c-4.3-1.3-7-5.1-10.8-7c0,0.3,0,0.7,0,1c0,1.6,0,3.2,0,4.8c0,1.7-0.5,3.2-2,4.2c-0.3,0.4-0.4,0.8-0.2,1.3
		c1.2,1.601,3,1.101,4.5,1.2c2.4,0.2,4.9-0.4,7.3,0.8c0.101,0.3,0.101,0.601,0.2,0.8c0.101,0-0.2,0.4-0.2,0.4
		c-1.5,1.8-3.6,0.4-5.5,1.1c-4.8,1.7-9.3,1.2-12.8-3.1c-0.5-0.1-0.899,0-1.399,0.2c-0.101,0-0.2,0.1-0.2,0.399
		c-0.101,0.301,0.1,0.5,0.3,0.801c-0.2,2.899,2.4,3.899,4,5.3c1.3,1.1,2.8,2.5,5.5,1.1c2.6-1.3,6.3-1.1,9.2,0
		c2.2,0.8,4.5,1.101,6.2,0.5c3.1-1.2,6.1-0.7,9.1-0.8c2.4,0,4.2-1,6-2.5c3.2-2.7,5.2-6,6-10c0.3-1.3,0.6-1.7,1.8-1.6
		c1.2,0.1,2.3,0,3.5,0c3.3,0,6.5,0,9.8,0v-4C193.7,158,190.4,158,187.2,158z"/>
	<path fill="#020202" d="M189.1,73c-3.3,0-6.699,0-10,0c-2.3,0-2.3,0-4.1-2c-0.1,0.6,0.4,1.5-0.4,1.8c-1.5,0.7-1.899,0.8-2.1,1.2
		c-1.5-1,0.7-3.4-1.5-4c-1-0.3-1.6,0.3-2,1c-0.7,2.2-0.1,3.9,2,5c1.5,1.3,3.3,1,5.1,1c3.301,0,6.7,0,10,0c3.301,0,6.7,0,10,0
		c0.301,0,0.601,0,0.9,0v-4C194.4,73,191.7,73,189.1,73z"/>
	<path d="M76.9,72.6c-1.6,0.6-3,1.7-4.9,1.4c-0.5,0.9-2.6,0.1-2,2c2.5,5.1-2.9,2.5-4,4c-0.7,0-1.3,0-2,0c-1.1-1.6-2.8-2.6-4-4
		c-1.6-0.3-1-2.7-2.6-2.8c-0.5,0-1.2,1.7-1.3-0.2c-0.1-1.4-0.2-2.2-1.8-2c-1.2,0.2-1.6-0.9-1.1-1.5c1.8-2-0.1-2.1-1.1-2.5
		c-2.6-1-2.5-0.8-0.8-2.8c0.7-0.9,2.4-0.5,2.4-2.1c-1.5-0.3-3-0.3-4.4,0.6c-3.1-1.8-6.2-0.4-9.2,0.3c-0.1,0.2-0.3,0.3-0.4,0.5
		c-0.2,0.6,0,1.2,0.3,1.7c-0.5-0.4-1-0.8-1.6-0.8c-0.5,0.1-0.9,0.2-1.3,0.5c-0.5,0.5-0.9,1-1.3,1.6c-0.2,0.4-0.4,0.8-0.6,1.2
		c-2.1,1.3-3.9,4.9-6.7,1c-0.2-0.2-0.3-0.3-0.5-0.5c-1.8,0.5-5,2.8-7,5c-0.1,0.2-0.2,0.4-0.3,0.6c-1.4,1.5-3.3,2.2-4.8,3.5
		c-0.4,0.3-0.7,0.6-1,1c-0.4,0.5-0.9,1-1.3,1.6c-0.6,0.9-1.8,1.8-1,3.1c1.1,1.6,2.4,0.2,3.5-0.1c2.3-0.6,3.4-2.9,4.9-3.6
		c-1.9,2.2-4.8,4.2-8,5.2c-3.2,0.8-5,4.8-9,4.5c-1.6,0-0.8,1.9-1.8,2.5c-0.7,0.4,0.2,1.4,0.8,2c0.7,0.7,1.6,0.9,2,0
		c1.4-2.9,4.9-0.2,6.5-2.4c0.2,0.3,0.5,0.5,0.5,0.8c0.1,1.5,0.9,1.7,1.9,0.8c2.1-1.8,4.1-1.7,6.2,0c0.1,0.1,0.2,0.3,0.4,0.3
		c1.7,0,3.3,0.3,5.1-0.7c1.3-0.7,3.5,1.8,5.3,0.4c1.3-1,2.5-0.3,3.8-0.6c1.2-0.3,1.5,1.2,2.6,1c0.9-0.1,1.3-1.7,2.8-0.6
		c0,0.9,0,2,0,3.1c0,1.9,0.9,1.9,2.1,0.9c0.6-0.5,1.3-0.7,1.7-0.1c1.3,2.1,3.4,1.7,5.3,1.7c2.6-0.1,4.9,1.6,7.5,1.1
		c0.3,1.3,2.4,0.3,2.4,1.9c-0.4,1.1,0.1,1.2,1,1c0.7-2,1.7-4.1,3.6-4.9c3.1-1.3,5-3.7,6.7-6.1c1.5-2,4.4-3,4.6-5.9
		c0.1-1.3,0.8-2,1.3-3c1.9-3.5,5.2-5.7,7.8-8.8C81.9,71.2,79.4,71.7,76.9,72.6z"/>
	<g>
		<path d="M128.9,69.1L128.9,69.1C128.9,69.1,128.8,69.1,128.9,69.1C128.8,69.1,128.8,69.1,128.9,69.1z"/>
		<path d="M147,101c-0.1-0.6,0.2-1.2-0.3-1.9c-2.8-3.1-6.4-4.3-10.7-2.1c-1.2,0.6-2.4,1.4-3.7,1.9c-0.6,0.2-1.3,0-1.3-1
			c0-0.7,0-1.3,0-2c-0.2-0.1-0.4-0.2-0.6-0.3c-2.4,0.5-2.101,3.6-4.301,4.4c-0.199,0.3-0.3,0.6-0.399,1c0,0.2-0.101,0.4-0.101,0.7
			c0,0.1-0.199-0.1-0.199,0c-3.601-1-5.2,0.4-5.7,4.2c-0.5,3.9,2.1,5.4,4.7,7.1c0.399,0.2,0.8,0.3,1.3,0.4
			c0.6,0.1,1.3,0.2,1.899,0.3c0.4,0.1,0.801,0.2,1.2,0.3c1,0.4,1.601,1.1,2,2.1c0.3,1.2,0.8,2.4-0.3,3.5c-1.2,1.2-3,1.9-3.8,3.5
			c-0.2,0.4-0.3,0.8-0.4,1.2c-0.1,0.6-0.1,1.1-0.1,1.7c-0.101,0.3-0.101,0.7-0.2,1c-0.2,0.3-0.4,0.6-0.6,0.9
			c-1.801,4.899-4.2,9.3-9.801,10.8c-1,0.3-1.399,1.3-1.6,2.399c-0.1,0.4,0,0.801-0.4,1c-0.8-0.3-1.399-1-2.199-1.6
			c-0.801-0.4-1.301-1.1-2.101-1.6c-0.2-0.101-0.399-0.301-0.7-0.301c-0.1,0,0-0.199-0.1-0.199c1.1-2.301,0.6-3.5-2.2-3.301
			c-0.1,0.101-0.1-0.1-0.2,0c0.4-0.899,1.4-1.5,1.7-2.6c0.2-0.8,0-1.6-0.2-2.4c0-0.6,0-1.199,0.101-1.699
			c0.2-0.601,0.2-1.2,0.1-1.801c-0.2-0.6-0.399-1.2-0.5-1.8c-0.1-0.6-0.1-1.3-0.2-1.9c-0.399-1.6-1.399-2.6-3.8-3.2
			c3,0.8,4.601,0.3,5.2-2.2c0-0.8-0.2-1.4-0.9-1.9c0,0-0.1-0.1-0.199-0.1c-0.101,0-0.301-0.1-0.4-0.1c0.1,0,0.3-0.1,0.3,0l0.101,0.1
			c0.1,0,0.199,0,0.3,0.1c0.5,0.2,1.1,0.2,1.6,0.1c2.3-0.9,4.7-1.7,7-2.6c0.8-0.6,1.7-0.9,2.3-1.7c1.7-4,1.301-7.4-3-9.6
			c-0.699-0.5-1.5-0.5-2.399-0.6c-0.101,0,0.1-0.2,0-0.2c2.3-5.2,2.1-5.8-2-7.5c-1.3,0.3-2.101,1.2-3,2.1c0.5-0.5,0.899-1.2,1.1-2
			c-0.1-0.7-0.5-1.1-1-1.4l0,0c-0.1-0.1-0.1-0.1-0.2-0.2c0.101,0.1,0.2,0.1,0.301,0.2c3,0.4,5.399,1.9,7.699,3.8
			c0.5,0.1,0.9,0.2,1.4,0.2s0.9,0,1.4-0.1c0.399-0.2,0.8-0.4,1.199-0.7c2.601-1.2,3.801-3.4,4-6.2c2.301-5.9,3.2-12.4,8.4-16.8
			c0.1-0.2,0.3-0.4,0.4-0.6c0-0.7,0-1.3,0-2c-0.301,0.1-0.601,0.2-0.801,0.3c-1.1,1-1.899,1.3-2.199-0.6c-0.101-0.5-0.301-0.8-1-0.7
			c0,0-0.101,0.1-0.2,0.1c0,0.1-0.101,0.1-0.2,0.1s-0.1,0.1-0.2,0.1c-0.2,0.1-0.399,0.2-0.6,0.3c0.2-0.1,0.399-0.2,0.6-0.3
			c0.101-0.1,0.2-0.1,0.4-0.2c0-0.1,0.1-0.2,0.1-0.3s0-0.1,0,0c0.4-1,1.4-1.4,1.8-2.1c0.4-0.6,0.4-1.3-0.199-1.7
			c-0.601-0.3-1.4-0.2-1.5,0.7c-0.2,1.4-1,1.9-1.801,0.8c-0.899-1.2-1.3,0.9-2.199,0c-0.7-0.7-0.7-1.9-2.2-3
			c0.6,1.8-0.7,2.3-0.7,3.1c0.1,1.5-0.5,2.9-1.699,3.2c-1.101,0.2-2.301-0.6-3.701,0c-1.1,0.5-0.199-2.2-1.5-1.8
			c-3.1,0.8-2.699-3.2-5-3.5c-0.399,0-0.299-1.4,0.4-1.5c1-0.1,1.4-0.3,1.5-1.4c0-1.2-0.4-2.5,0.4-3.7c0.6,0.5,1.199,1.4,1.699,1
			c1-1,2.4,0.3,3.4-0.9c0.301-0.4,1.301-0.2,1.5,0.7c0.1,0.5,0,1-0.5,1.2c-0.4,0.2-1.1-0.2-1.3,0.4c-0.101,0.5,0.601,0.4,0.899,0.7
			c1.301,0.9,2.301,1.4,3.701-0.2c1.799-2.1,1.899-1.9,2.799-4.9c0.4,0.7,0.701,1.3,1.101,2c1.399-1.7,4.2-2.4,4.399-5.1
			c0.301-3.7,2.701-6,5-8.4c1-1,1.701-0.3,2.4,0.4c0.801,0.7,0.9,1.9,0.5,2.2c-1.199,1-0.1,2.3-0.699,3.4
			c-0.601,1.1-0.101,2.8-0.101,4.5c-2,0-3.601-0.1-5.2,0c-1.6,0.2-2.199,2-1,3.2c0.801,0.8,1,2,1.7,2.8c1.7-1.6,1.7-1.6,3.8-1.2
			c2.5,0.5,4.1-1.3,3.301-3.7c-1-3.1-0.9-4.1,1.699-5.8c1-0.7,2.4-0.9,2.7-2.3c1.2-1.8,2.101-3.7,2-6c0-0.8-0.101-1.6,0-2.4
			c0.399-2.6-0.5-4.6-3-5.6c-1-0.5-3.5,0-2.7-1.7c1.6-3.4-0.6-7.2,1.7-10.3c-1.101-0.1-1.7-1.5-3-1s-1.899-0.9-3-1
			c-3.899,0-7-1.6-9.101-5c-2.699,0-5.3,0.3-7.899,1c-0.2,0-0.4,0.1-0.5,0c-3.4-2.8-3.7-2.8-6.7,0.7c-0.5,0.6-1.199,0.2-1.8,0.3
			c-0.8,1.7-2.2,2.6-4,3c-1.601,0.1-0.8,1.4-1,2.2c-0.5,1.4-1.4,1.6-3,0.8c-1,0.3-2-0.8-3,0c-0.5,0-1.1-0.2-1.5,0
			c-0.8,0.6-1.4,1.4-2.1,2.1c-0.8,0.8-1.6,1.7-2.5,2.5c-0.9,0.7-1.4-1.2-2.4-0.6c-0.1,0.1-0.3,0.2-0.3,0.3c0,2.8-3.2,2.3-4.1,4.2
			c0.6,1.2,1.9,1.4,3.1,2.1c-2.9,1.7-3.5,4-3.2,6.9c0.2,2.6,0,5.3,0.1,8c0,0.8-0.2,1.6,0.3,2.4c1.8,2.9,3.1,6.2,5.7,8.6
			c1.3,1.2,2.1,3,4.5,2.6c0.4-0.1,1.3,0.8,1.3,1.3c0.1,0.8-0.8,1.2-1.4,1.6c-0.1,0.1-0.3,0-0.5,0c-0.6,0-1.5-0.3-1.7,0.5
			c-0.2,0.7-0.5,1.8,0.3,2.3c1,0.5,0.1,2.4,2,2.3c0.9,0,1,1.2,0.2,1.8c-3.1,2.7-4.8,6.7-8.1,9.1c-2.5,1.8-2.9,4.8-4.3,7.2
			c-0.6,1.1-1.3,2.4-1.7,3.8c-0.5,1.6-1,3.2,0.6,4.4c1.2,0.9,0.5,1.3,0.1,2.2c-0.8,1.8,1.8,0.9,1.9,2.1c0,0.2,0.1,0.4,0,0.5
			c-1.4,1.5-2.3,4.2-4.7,3.7c-2.8-0.6-4.1,2.6-6.7,2.2c-0.7-0.1-0.4,1-0.6,1.6c-0.3,1.1,1,2.7-1,3.3c-0.6,2-1.1,4.1-2,6
			c-1.6,0.4-1.3,2.3-2.5,3.2c-1.8,1.3-3.3,3-4.3,5.1c-1.1,2.2-2.5,4.4-5.4,4.7c-0.9,0.1-1,1-0.7,1.5c1.9,2.399,0.6,5.1,0.9,7.6
			c0.1,1-1,1.2-1.5,2c-1.4-1.7-3.3-2.8-4-5.2c-1.5,1.5-2.7,2.801-4,4.2c-1.9-1.6-2-3.8-2.5-6c-0.1-0.6,0.4-1.6,0.7-2.3
			c1.3-2.8,4.5-4.8,3.3-8.6c-0.1-0.3,0.5-0.8,0.5-1.2c0.2-2.5,2.4-4.3,2.5-6.9c0.6-0.7,0.6-1.3,0-2c-2.3-3.9-2.5-5.4-1.4-9.1
			c0.4-1.4,0.8-2.8-0.3-4.1c-1-1.1-1.6-1-2.4,0.3c-0.7,1.1-1,2.3-1,3.6c-0.2,3,0.8,5.7,1,8.6c0.3,4,0.4,8.1-0.8,12.1
			c-0.4,1.2-0.3,2.399-1.4,3.5c-2.1,2.3-3.3,5.1-2.7,8.3c0.1,0.8,0.1,1.7,0,2.5c-0.4,2.7,0.4,4.9,2.7,6.4
			c1.7,1.199,1.9,3.199,1.2,4.3c-1.4,1.899-0.5,3.8-0.8,5.7c-0.3,1.899-1.2,3.6-1.1,5.6c0.2,4.5,0.2,9,0,13.5
			c-0.1,2.4,0.4,4.2,2.4,5.5c0.9,0.6,0.7,1.4,0.7,2.2c0.2,0,0.4-0.101,0.5,0c0.9,0.399,0,2.3,1.6,2c1.4-0.3,2-1.4,2-2.9
			c-0.1-2.2-0.1-4.3,0-6.5c0.1-1.8,0.7-2.3,3.1-1.899c0.7,0.1,0.9,0,0.9-0.4c0.1-0.8-0.1-1.7,0.1-2.5c0.4-2.2-1.5-3.8-1.1-6.1
			c0.3-1.801,0.4-3.801-0.8-5.601c-0.4-0.7-0.1-1.899-0.1-3.6c1.5,1.5,2.5,2.5,4.1,4.1c-0.1-3-1.7-4.3-2.8-5.6
			c-2.4-2.8-3.2-6.4-5.2-9.4c-0.3-0.5-0.1-1.3-0.1-1.899c0-0.2,0.4-0.5,0.7-0.601c0.5-0.1,1.1,0,1.2,0.5c0.2,0.8,0.1,1.7,0,2.5
			c0,1,1,1.2,1.6,2.4c0.5-0.7,0.7-1.3,1.2-1.7c2.6-1.9,3.7-4.5,3.1-7.7c-0.4-2.5,0.4-4.5,2.5-6c1.4-1.1,2.6-2.5,3.1-4.2
			c0.7-2,2.1-3.6,3.6-4.399c3-1.6,5.1-3.9,6.5-6.8c1.7-3.3,4.5-5.4,7.5-7.2l5.1-0.4c1.5,1.4,0.3,2.5-0.6,3.8
			c-3.4,4.7-7.7,8.5-11.7,12.6c-3.2,3.3-4.7,7.399-5.1,11.899c-0.1,1.101-0.3,2.101-0.8,3.2c-1.3,2.8-1.8,6-1.1,9
			c0.7,3.3,0.9,7.101,3.1,9.601c1.9,2.199,2.5,5.1,4.5,7.1c0.7,0.7,0.7,1.6-0.5,1.8c-0.5,0.101-1,0.2-1.2,0.601
			c-1.9,3-4.8,4.5-8.2,5.5c-1.2,0.399-2,1.5-3.3,0c-0.5-0.601-3.1,1.199-3.4,2.8c-0.3,2-1.8,3.899-1.1,6.1
			c0.5,1.101,1.1,2.101,1.1,3.5c-0.2,3.101-0.1,6.2-0.1,9.3c0,0.7,0.1,1.301,1.4,1l0,0c0,0,0,0-0.1,0c0,0,0.1,0,0.1-0.1
			c0.5-0.4,0.6-0.5,0.7-0.4c-0.2,0.101-0.5,0.2-0.7,0.4c0,0,0,0-0.1,0c0.1,0,0.2-0.1,0,0c-1.1,4.9,2.2,7.3,4.9,10
			c0.6,0.6,1.6,0.4,2.3,0.1c0.8-0.3,0.4-1.199,0.4-1.8c0-2.3,0-4.7,0-7c0-0.6-0.3-1.3,0.3-1.899c2.1-2.2,3.3-4.801,4-7.801
			c0.1-0.399,0.8-2,2.1-0.6c0.3,0.4,1.5,0.5,1.8,0.2c1.7-1.4,3.7-0.8,5.6-0.9c2.1-0.2,4.2,0.5,6.1-1c0.7-0.5,1.7,0.8,1,1.5
			c-1.5,1.601-0.4,3.5-0.9,5.101c-0.5,1.699-1,3.3-1,5.1c0,1.7,1.2,2.9,1.2,4.6c0,3.7-0.3,7.301-1.7,10.801
			c-1.1,2.699-0.3,5.1,1.4,7.1c1.6,2,3,4,4.3,6.2c1.6,2.399,3.2,4.8,5.4,6.8c1.4,1.2,3.301,0.9,4.7,1.9
			c1.101,0.699,2.3,1.699,3.399,0.699c1.4-1.3,2.101,0.801,3.301,0.301c1.4-0.601,2.1-1.601,1.4-3.2c-0.5-1-0.9-1.9-1.4-2.9
			c-1.9-1.1-3.801-2-6-2.1c-3.301-0.101-4.9-2.5-6-5.2c-1-2.5-1-4.7,2.6-4.7c2,0,2.9-1.3,3.4-3c-0.301-4.399,1.8-7.899,4.6-11.1
			c0.801-0.9,1.801-1.601,1.4-2.9c-1.4-2.7,1.4-1.3,2-2c1.3-4.1,2.8-8.1,5.1-11.8c1.2-1.9,3.5-3.4,2.9-6.2c-0.7-0.6-1.301-0.6-2,0
			c-0.2,0.9,0.4,2-0.301,2.9c-0.699,0.8-1.399,1.1-2.5,1.2c-1.5,0.199-2.899,0.899-4.299,1.6c-1,0.5-2.301,0.6-2.801,0.2
			c-2.1-1.5-4.5-2-6.699-3.101c-0.9-0.5,1.399-1.199,0.199-1.6c-0.8-0.3-1.5-0.5-2-1.1c-0.1-0.101-4.4-2.801-4.5-2.9
			c-1.1-2.2-2.9-3.9-5-5.1c-0.8-0.4-1.1-0.4-0.4-1.101c0.6-0.5,0.7-1.399,0.1-1.6c-3.2-1.101-1.9-6.5-6.2-6.3
			c-0.2,0-0.5-0.601-0.5-0.7c0.8-2.101-2.1-4.5,0.6-6.4c0.4-0.3,0.3-0.399,0-0.7c-1.6-1.899,0.3-2.3,1.4-3.1c0.5-0.6,0.1-1.6,1-2
			c0.3-0.1,0.8-0.3,0.8-0.3c-0.3-3.601,3.7-2.5,4.9-4.5c1.3,1.8,2.2,0.5,3.1-0.5c0.4-0.4,1.5-0.8,2.3-0.7c1.9,0.2,3.701,0,5.6,0.8
			c3.5,1.4,5.601,4.3,8.2,6.601c0,2.199,2,2.899,3.199,4.1c1.701,1.6,0.601,3.7,1.201,5.5c0.899,3,2.399,5.7,2.899,8.8
			c2.601-2.399,5.7-6.899,7.101-11c1.1-3.2,1.699-6.399,1.6-9.899c-0.2-4.301,1.1-8.2,4.5-11.101c1-0.8,1.5-1.899,2.4-3.2
			c-0.5,1.7,0.799,2.2,1.5,3c0.799,0.801,1.699,1.601,2.399,2.5c0.399,0.5,0.3,1.5-0.399,1.601c-3.101,0.399-3.101,3.5-4,5.399
			c-1.301,2.601-0.601,5.7,1.399,8c1.101,1.301,2.7,0.9,3.101-0.699c0.199-0.801,0.199-1.2,1.1-1.7c1.8-1,3-0.601,4.8-0.101
			c2,0.601,1.399,2.9,3.101,3.2c0.299-0.3,0.5-0.6,0.6-1c0-0.399-0.2-0.7-0.6-1c-1.801-3.6-4.801-4.3-8.5-4.1
			c-1.601,0.1-1.9,2-3.301,1.899c-0.699-2.399,1.6-4.1,0.801-6.3c1.699-1.1,3.5-2.1,5.1-3.2c0.5-0.3,0.9-0.199,1.4-0.3
			c0.5-0.2,0.6-0.8,0.5-1.2c-0.101-0.3-0.301-0.699-0.5-0.699c-4.101-0.2-5.5-3.601-7.201-6.4c-1.1-1.8,0.601-1.6,1.701-1.7
			c1.1-0.399,2.1-0.899,2.5-2.1c2.899-8.4,5.5-16.9,5.899-25.8c0.101-1.6-0.101-3-1.7-3.7c-0.1-0.1-0.3-0.2-0.4-0.3
			c-0.1,0-0.199-0.1-0.299-0.1c-0.201-0.1-0.4-0.3-0.601-0.3c-1.3-0.4-2.5,0.1-4.101,1.7c1.5-2.1,2.801-2.3,4.101-1.7
			c0.3,0.1,0.601,0.2,0.899,0.4C143.8,101.5,145.4,102.6,147,101z M107.5,91.9c0.1,0,0.2,0,0.4,0c0.1,0,0.1,0.1,0.199,0.1
			C107.8,91.9,107.6,91.9,107.5,91.9c-0.5,0-0.9,0.2-1.2,0.5C106.6,92,107,91.9,107.5,91.9z M105.9,97.5
			C106,97.5,106,97.5,105.9,97.5c0.199-0.1,0.3-0.1,0.399-0.1c0.2-0.1,0.4-0.2,0.601-0.3c0.1-0.1,0.3-0.2,0.399-0.3
			c0.3-0.2,0.5-0.4,0.7-0.5c-0.1,0.1-0.2,0.2-0.3,0.3c-0.3,0.2-0.5,0.4-0.8,0.5c-0.2,0.1-0.4,0.3-0.601,0.3l0,0
			C106.2,97.5,106.1,97.5,105.9,97.5c-0.101,0.1-0.301,0.2-0.301,0.1c0,0-0.199-0.3-0.1-0.4C105.7,97.4,105.8,97.5,105.9,97.5z"/>
		<path d="M128.9,68.9c0,0.1,0,0.2,0,0.2h0.1V69C129,68.9,128.9,68.9,128.9,68.9z"/>
		<path d="M128.9,68.8C128.9,68.8,128.9,68.9,128.9,68.8C128.9,68.9,128.9,68.8,128.9,68.8L128.9,68.8z"/>
	</g>
	<path fill="#E5E5E5" d="M108.6,229.2c-1.8-1.601-2.8-3.2-2.8-5.9c0-2.899-0.7-5.899-2.899-8.2c-1.301,0.4-2.301,1.601-3.9,0.7
		c-1.6-1-3.5-1.7-4.5,1.101c-0.2,0.6-1.5,0.5-1.6-0.7c0-0.5,0-1-0.7-0.8c-0.2,0-0.3,0.5-0.3,0.8c0,0.6-0.3,1.399,0.4,1.8
		c1.6,1,1.5,2.6,1.7,4.3c0.2,1.8,0.4,4,1.8,5.101c2.5,2,4.601,4.6,7.8,5.5c0.9-1.101-0.399-1.601-0.6-2.801c2,0,3.9,0,5.9,0
		C108.9,229.7,108.8,229.3,108.6,229.2z"/>
	<path fill="#656565" d="M156.9,67.3c-0.4,0.1-0.801,0.1-1.301,0.2C156.1,67.5,156.5,67.4,156.9,67.3z"/>
	<path fill="#656565" d="M169,67c-2.6-3.7-5.2-4.1-9-1.4c-0.9,1-1.9,1.5-3,1.7c-0.4,0.1-0.8,0.2-1.3,0.2c-0.601,0-1.101,0-1.7,0
		c0.5,0,1.1,0,1.7,0c0.399,0,0.8-0.1,1.3-0.2c0.7-0.2,1.3-0.6,1.7-1.4c0.2-0.8,0.1-1.5-0.4-2.1c-0.899-0.8-2-0.6-3-0.4
		c-3.5,0-6.899,0.5-10.2,1.6c-0.699,0.5-1.1,1.2-1.1,2c0.1,0.3,0.1,0.7,0.4,0.8c0.5,0.4,1.699-0.1,1.699,1.2c-0.1,1.3,3,10,3,8.6
		c0-1.1-0.3-2.7,0.301-3.3c1.399-1.4-1.301-1.8-0.4-2.9c0.3-0.3-0.2-1.8,0.7-1.1c1.7,1.2,3.899,0.1,5.3,1.7c2.8-0.1,5.4,0.8,8,1.6
		c3,1,5.5,0.6,7-2.6c0-0.7,0.3-1,1-1C170,69.2,170.7,67.3,169,67z"/>
	<path fill="#E8E8E8" d="M13.1,83.1C12.8,80.3,15.7,80,16,78c-0.7-0.6-1.3-0.6-2,0c-0.6-0.1-0.9,0.3-1,0.7c-0.1,1.3-0.9,1.9-2,2.3
		c-3.2,1.9-5,5-7,8c0,1.1-0.2,2.8,1.7,1.7c1.6-0.9,3.9-0.7,4.9-2.7c3.1-0.6,4.4-4.7,8.2-4.2c0.3,0,0.9-0.6,1-1
		c0.4-1.7,1.5-2.6,3.1-3.1c0.6-0.2,1-0.9,1.4-1.4c0.6-0.6,1.2-1.1,1.7-1.8c0.3-0.4,1.3-0.5,0.5-1.6C21.6,76.7,17.5,80,13.1,83.1z"/>
	<path fill="#D1D1D1" d="M144.9,26.8c-0.801-1.6-1.101-3.7-2.9-4.8c0.1,1-0.9,1.3-1.2,1c-1.3-1.5-2.399-0.8-3.7,0
		c-0.899,0.6-2,1-3.3,1.6c4.7,1.2,5.8,2.6,5.2,6.5c-0.3,2.1,0.6,3.7,1.8,5.2c1.101,1.4,2.4,2.5,3.8,3.9c0.2-2.8,0.2-2.8-0.3-3.4
		c-0.7-0.7-1.5-1.3-2.1-2.1c-0.4-0.5,0.3-0.7,0.8-0.7c0.1-0.6-0.3-0.9-0.8-1c-0.7-0.1-1.3-0.1-1.2-1c0.6-0.5,1.2-0.8,2-1
		C145.3,30.4,145.5,28.3,144.9,26.8z"/>
	<path fill="#1E1E1E" d="M148.7,60c-1.4,0-2.8,0.5-4.2-0.8c-0.7-0.6-3-0.5-3.1,0.1c-0.2,1.9-2.801,2.4-2.5,4.5c0.1,0.7,0,1.3,1,1.3
		c0.399,0.3,0.8,0.6,1.3,0.8c1.7,0.5,3.399-0.3,5.1-0.3c2.5-0.8,4.9-3.4,7.8-0.9c0.601,0.3,1.2,0.4,1.9,0.4c0.7-0.3,1.3-0.7,2-1
		c2.9-0.4,5.9-0.3,8.4-2c0.6-0.6,0.899-1.2,0.6-2C160.9,60,154.8,60,148.7,60z"/>
	<path fill="#0F0F0F" d="M143.5,80c-4-0.6-5.9-1.4-4.5-6.5c0.1-0.4,0.2-1.1-0.4-1.3c-1.8-0.7-3.699-2.1-5.6-0.1
		c-0.1,0.2-0.3,0.3-0.4,0.5c0.101,0.2,0.301,0.3,0.4,0.5c0.9,0.1,2.1-0.4,2,1.3c0,1.1-0.3,2.6,0.2,3.3c1.3,1.7,2.8,3.7,4.6,4.2
		c2.4,0.7,5.3,0.8,7.2-1.8c-0.7,0-1.3,0-2,0C144.5,80,144,80.1,143.5,80z"/>
	<path fill="#D6D6D6" d="M134,17c-2.3-0.4-4.3-3-7-1c-0.4,1.2-1,1.9-2.4,2c-0.5,0-0.699,0.6-0.699,1.1C124,20,124.7,20,125.3,20
		c3.4-0.1,3.9,0,4.5,0.4c1.4,0.8,0.9,3,2.8,3.4c0.2-0.6,0.301-1.3,0.7-1.7c0.8-0.8,1.3-1.9,2.601-2.1C136,17.2,136,17.2,134,17z"/>
	<path fill="#494949" d="M131.6,15c-2,0.1-3.5-1.2-5.199-1.9c-1.7-0.6-3.101,2-5.101,1.9c-0.6,0-1.3,0-1.899,0.2
		c-0.2,0-0.2,0.5-0.4,0.8c1.4,0.3,2.7-0.2,4.2,0.5c0.899,0.4,2.399-0.7,3.8-0.5c2.1-0.1,4-0.1,5.4,1.8c0.399,0.5,1.5,0.4,1.6-0.8
		C133.6,15.8,133,14.9,131.6,15z"/>
	<path fill="#141414" d="M68.3,71.8c-3.1-1-4.2-3.6-5.2-6.3c-0.4-1.1-0.7-2-2.3-2.5c1.1,3.3,0.1,7.2,4.4,8.8c0.7,0.3,1.7,1,1.8,2.2
		c0.4,0.8,1.1,1.4,1.8,1c0.8-0.4,0.8-1.3,0.2-2C69.2,72.4,68.7,72,68.3,71.8z"/>
	<path fill="#080808" d="M164.4,61.5c-2.4,0-4.5,0.4-4.601,3.4c0.101,0.9,0.5,1.6,1.3,2.1c0.301-0.1,0.801-0.2,0.801-0.3
		c0.3-1.1,0.3-2.4,1.8-0.7c0.3,0.3,1.6,0.4,2.2-0.2c0.5-0.5,0.8-0.7,1.399-0.1c0.5,0.5,0.8,1.4,1.8,1.4c0-0.7,0-1.3,0-2
		C168.8,62,166.4,62,164.4,61.5z"/>
	<path fill="#D3D3D3" d="M110,197.7c-0.1-0.5-0.5-1-1-0.7c-1.4,0.9-3.9,0.9-3.8,2.9c0,1.8-1.601,2.5-2.3,4.1c1-0.2,1.5-0.1,1.8-0.3
		c1.5-0.9,2.899-1.8,4.3-2.8c-0.1-0.9,0.6-0.9,1.2-1c0.5-0.101,0.899-0.4,0.8-1C110,199.1,110.1,198.4,110,197.7z"/>
	<path fill="#131313" d="M38,63c-0.9,0-1.9,0-2.8,0c-0.7,0-1.2,0.1-1.2,1c-0.1,0.2-0.2,0.4-0.2,0.6c-1,1.6-2.9,2.2-4.2,3.5
		c-0.7,0.7-1.3,1.7-0.7,2.7c0.6,1.1,1.6,1,2.6,0.3c1.7-1.3,4.2-1.2,5.6-3.1c0-0.3,0-0.7,0-1c0.2-0.7,0.5-1.4,1-2
		c0.6-0.4,0.6-1,0.4-1.6C38.3,63.3,38.1,63.1,38,63z"/>
	<path fill="#606060" d="M59,101c-3.3,3.3-4.9,7.4-5.4,12c2.1-3.7,4.2-7.4,6.4-11C59.3,102,59,101.7,59,101z"/>
	<path fill="#C5C5C5" d="M72.8,76.6c0.4-0.4-0.3-0.7-0.8-0.6c-0.7,0-1.3,0-2,0c0.2,1.7-0.7,2.7-2.3,3C67,79.1,66,78.7,66,80
		c0.7,0,1.4-0.2,2,0c1,0.4,2,0.3,2.9,0.5c2,0.4,1.9-1.6,3-2C74.3,77.4,70.6,79,72.8,76.6z"/>
	<path fill="#9D9D9D" d="M63.1,76.5C62,75.8,61,76.2,60,76c0.5,1.1-1,2.5-0.7,2.6c1.1,0.4,1.9,1.6,3.2,1.4c0.5-0.1,0.9,0,1.4,0
		C65.3,77.6,65.2,77.8,63.1,76.5z"/>
	<path fill="#2F2F2F" d="M57.8,58.9c-3.6-1.8-7.2-0.6-10.8-0.8c0,0.5,0,0.7,0,0.9c0.8,0,1.6,0,2.5,0c4.8,0,4.8,0,9.7,2.7
		c0.3,0.2,0.5,0.2,0.7-0.2c0.1-0.3,0.2-0.8,0.1-0.9C59.4,59.9,58.7,59.4,57.8,58.9z"/>
	<path fill="#727272" d="M168.5,61c-0.5-0.3-0.7-1.1-1.5-1c0,0.7-0.3,1-1,1c-0.3,0.4-0.9,0.4-1,1c1.3,1,2.7,2,4,3
		C170.9,62.3,170.9,62.3,168.5,61z"/>
	<path fill="#323232" d="M4,89c3.1-2,4.5-5.5,7-8C7.6,82,5.1,84.8,4,89z"/>
	<path fill="#545454" d="M45.5,58.1c-2.6,1.5-6.2,1.4-7.5,4.9c0.7,0.6,1.3,0.6,2,0c0.4-1.4,1.3-2.1,2.8-2c1.7,0.1,3.3-0.4,4.2-2
		C46.2,59.1,45.8,57.9,45.5,58.1z"/>
	<path fill="#7D7D7D" d="M146,42c-2,1.7-2,1.7-2,4.5c0,0.5,0,1,0,1.5c1-0.6,2.8-1.2,2.8-1.8C146.9,44.9,148.1,43,146,42z"/>
	<path fill="#848484" d="M110,17c-2.2-0.2-3.1,1.4-4,3c1-0.1,1.5,1.8,2.5,0.9c0.8-0.7,1.9-0.6,2.4-1.4C111.7,18.4,109.9,18,110,17z"
		/>
	<path fill="#B3B3B3" d="M70,118c2.9-2.5,3.3-3.6,2-6C70,113.7,69.2,116.2,70,118z"/>
	<path fill="#C5C5C5" d="M69,73c-0.1,0.6,0.1,1.4-0.3,1.7C68,75.3,68,74.1,67.4,74c-0.1,0-0.3,0-0.5,0c-0.6,1.2-2,2.6,0.1,3.6
		c1.6,0.7,0.4-1.5,1.4-1.6c0.5,0,1,0,1.5,0c-0.1-0.6,0.3-0.9,0.8-1c0.7-0.1,1.3-0.1,1.2-1C70.7,74.5,70.1,73.1,69,73z"/>
	<path fill="#616161" d="M135.2,169.6c0,0.101,0.2,0.301,0.3,0.301c0.1,0.1,0.3,0,0.5,0c0-0.301,0-0.7,0-1c2.4-1.7,5.9,1.1,8-2
		c0-0.301,0-0.7,0-1c-2.9,0-5.9,0-9,0C135,167.4,135.1,168.5,135.2,169.6z"/>
	<path fill="#646464" d="M14,78c0.7,0,1.3,0,2,0c1.4-1.9,4.9-1.8,5-5C17.7,73.4,15.6,75.3,14,78z"/>
	<path fill="#999999" d="M118.6,174.8c-1.6,2.101-1.8,4.101-1.6,6.2c0.7,0,1.3,0,2,0C118.9,179,119.3,177,118.6,174.8z"/>
	<path fill="#575757" d="M28,68c3.2,0.5,5.3-0.7,6-4C32.3,64.4,29.4,66.3,28,68z"/>
	<path fill="#1D1D1D" d="M133,70.1c2.4-1.2,2.3-3,1.4-5C134.4,66.9,132.8,68.2,133,70.1z"/>
	<path fill="#131313" d="M141,65c-0.3,0-0.7,0-1,0c-0.1,1.2-0.1,2.3,1.6,2c0.801-0.1,1.601,0,2.4,0c0.7,0,1-0.3,1-1
		C143.9,64.9,142.1,66.1,141,65z"/>
	<path fill="#9B9B9B" d="M85,151c-0.1-1.2-0.9-1.1-1.6-0.8c-0.6,0.2-0.4,0.899-0.3,1.3c0.2,0.6,1.1,0.7,1,1.5
		C85.5,152.9,84.8,151.8,85,151z"/>
	<path fill="#5A5A5A" d="M99,23c0.4,0.2,0.8,0.4,1.1,0.6c0.9,0.6,1.601,0.8,1.9-0.6C101,21.6,100,21.6,99,23z"/>
	<path fill="#2F2F2F" d="M142.4,30.2C141.8,30.6,141,31,141,32c0.8-0.2,1.9,0.5,2-1C143,30.5,142.8,29.9,142.4,30.2z"/>
	<path fill="#313131" d="M174,68c0.4,1-0.9,2.5,1,3C174.6,70,175.9,68.5,174,68z"/>
	<path fill="#1D1D1D" d="M173,66c0.2,0.8-0.5,1.9,1,2C173.8,67.2,174.5,66.1,173,66z"/>
	<path fill="#272727" d="M172.7,64.2c-0.601-0.1-0.7,0.3-0.7,0.8c0,0.3,0,0.7,0,1c0.3,0,0.7,0,1,0c0-0.3,0-0.7,0-1
		C172.9,64.7,172.8,64.2,172.7,64.2z"/>
	<path fill="#434343" d="M171.5,66c-0.2,0-0.5,0.4-0.5,0.7c0,0.4,0.2,0.8,0.4,1.2c0.5-0.2,0.699-0.5,0.6-1
		C171.8,66.7,172.5,65.9,171.5,66z"/>
	<path fill="#A40000" d="M148,102c0-0.7-0.3-1-1-1c-0.6,0.1-0.9-0.3-1.1-0.7c-0.9-1.4-1.801-1.4-2.7,0c-0.2,0.4-0.5,0.8-1.101,0.7
		c-0.199,0.8,1.101,1.1,0.9,1.5c-1.6,3.7-2,7.6-1.9,11.6c0,0.5,0.101,1-0.1,1.4c-1.5,3.7-2,7.8-4.2,11.1
		c-0.7,1.101-1.2,2.301-0.399,3c1.699,1.5-0.301,2.2-0.301,3.301c0.7,0,1,0.3,1,1c4.2,0.199,8.601,0.699,11-4c1-2.5,1.9-5.101,2-7.9
		C149.6,115.4,151.3,108.4,148,102z"/>
	<path fill="#AAAAAA" d="M163.9,70.3c-0.4-0.2-0.4-0.3-0.7,0c-1.4,1.4-3.101,0.7-4.601,0.6c-1.399-0.1-2.399,0.6-3.5,1.1
		c0.601,2,2.601,0.8,3.9,1.8c1.1,0.9,2.1,2.1,3.8,2.6c1.101,0.3,2.2,0.3,3.2,0.6c0.9,0.3,1.2-1.8,2.3-0.4c1.3,1.6,1.8-0.8,2.8-0.6
		c0.5-1.8-1.199-3.2-1-5C167.1,72.4,167.1,72.4,163.9,70.3z"/>
	<path fill="#4D4D4D" d="M147.9,154.4c-0.9-0.9-1.101,1.1-1.9,0.6c0,0.3,0,0.7,0,1c0.6-0.1,1.1,0.3,1,0.8
		c-0.5,2.601,0.8,4.5,2,6.601c0.5,0.899,1.6,1,1.8,0.3c0.5-1.9,0.9-1.9,2.5-0.9c1.3,0.8,2.9,0.7,4.101,2.101
		c0.399,0.6,1.5,0.5,1.6-0.801c-0.1-0.3-0.2-0.699-0.4-0.8C154.7,160.7,151.2,157.7,147.9,154.4z"/>
	<path d="M134.8,85.3c-2.3-3-4.2-6-1.899-9.9c0.399-0.6,0.1-1.6,0.1-2.5c-3.6,0.5-4.6,3.3-4.2,6.1c0.601,5,1.2,10,0.8,15.1
		c0.301,0.7,0.801,1.3,1.4,1.8c2-0.5,0.6-2.8,2.1-3.9c1.2-0.9,2.5-2.1,3.601-3.3c0.5-0.6,0.5-1.2-0.101-1.7
		C136,86.5,135.4,86,134.8,85.3z"/>
	<path fill="#616161" d="M148,102c1.7,6.9,0.8,14,1,21c2.6,0.3,0.7-2.4,2-3c0-3.4,0.1-6.8,0-10.3C150.8,106.9,150.2,104.1,148,102z"
		/>
	<path fill="#525252" d="M147,130c-0.6-0.2-0.9,0.3-1.2,0.7c-1.899,2.399-4.2,3.2-7,1.7c-1.1-0.601-0.7,0.5-0.8,0.899
		c-0.2,0.5-0.4,0.9-1,0.7c0.2,1.1,0.9,1.7,1.9,2c1.199,0.3,1-0.9,1.3-1.5c0.399-0.8,0.899-0.1,0.8,0.3c0,2.2,2.1,1.5,2.4,1.2
		c1.699-1.9,4.8-2.2,5.6-4.9C148.6,130.2,148.1,129.4,147,130z"/>
	<path fill="#181818" d="M151,120c-1.3,0-0.9,1-1,1.7c0,0.7-0.1,1.3-1,1.3c-0.1,1.2,0,2.4-0.9,3.6c-0.5,0.801-1.6,2-1.1,3.4
		c0.7,0.3,1.3,0.7,2,1c-0.1-0.8,1-1,1-1.5C149.5,126.2,151.7,123.3,151,120z"/>
	<path fill="#EDEDED" d="M128,114c-1.5-1.3-3.5-0.6-5.1-1.2c-0.2-0.1-0.301-0.3-0.5-0.4c-1.101-1.3-2.301-1.9-3.9-1.1
		c-0.6,0.3-1.1,0.6-1.8,0.7c-0.2,0-0.4,0-0.601,0c-1.1,0.1-2.199-0.2-3.3,0.6c-0.6,0.5-1.6,1.4-2.7,0.9c-0.399-0.2-0.8-0.6-1,0
		c-0.199,0.4,0,1,0,1.5v0.3l-0.1,0.3l-0.2,0.3c-0.2,0.1-0.399,0.4-0.6,0.6c0,0.2-0.101,0.3-0.101,0.5c-1.3,1-2.6,2-4,3
		c-0.3,0.2-1,0.1-0.8,0.7c0.101,0.6,3.101-0.1,0.9,1.8c-0.101,0.1,0.6,0.5,1.1,0.5s0.9,0.3,0.8,1l-0.1,0.5c-0.1,0.5-0.1,0.9,0.2,1.4
		c0.2,0.2,0.399,0.4,0.7,0.6l0.399,0.2l0.3,0.2l0.2,0.3c0,0,0,0.399,0,0.3l-0.1,0.3c-0.101,0.2-0.2,0.5-0.4,0.7
		c-0.1,0.2-0.3,0.5-0.3,0.8s0,0.601,0.1,1c0,0.3,0.101,0.7,0.2,1c0.101,0.3,0.3,0.7,0.4,1c0.1,0.3,0.2,0.7,0.2,1.101
		c0.1,0.6,0.3,1.1,0.8,1.5c0.399,0.199,0.7,0.399,1.1,0.6c0.8,0.7,1.601,1.5,2.7,1.8c0.4,0.101,0.9,0.2,1.3,0.3c0.5,0,0.9,0,1.4,0
		c0.399-0.1,0.899-0.3,1.2-0.6c0.8-1,1.699-1.9,2.5-2.9c0.3-0.3,0.6-0.6,0.899-0.8c0.5-0.399,1-0.7,1.5-0.899
		c1.3-0.4,2.5-0.801,3.2-2c0.4-2.301,3.9-2.4,3.7-5.2c0-0.3,0-0.7,0-1C126.1,120.7,129.9,117.3,128,114z"/>
	<path fill="#FAFAFA" d="M122,26c0,0,0-0.1-0.1-0.1c0,0.1,0,0.2-0.101,0.2C121.9,26.1,122,26,122,26z"/>
	<path fill="#FAFAFA" d="M121.9,25.9C121.9,25.7,121.8,25.7,121.9,25.9L121.9,25.9z"/>
	<path fill="#FAFAFA" d="M121.8,26.1L121.8,26.1L121.8,26.1L121.8,26.1z"/>
	<path fill="#FAFAFA" d="M129.4,35.1c-1.801-0.2-2.301-2-4-2.4c-2.2-0.5-0.601-3.4-1.801-4.6c-0.699-0.6,0-2.2-1.699-2
		c0,0-0.101,0.1-0.2,0.1c-0.2,0.1-0.4,0.1-0.4,0.2c-0.1,0,0,0,0.601-0.3c-0.301-0.5,1.1-2.5-0.801-1.6c-1.199,0.6-1.5-0.5-1.699-0.8
		c-0.5-1.1,0.6-0.5,1-0.7c0.399-0.2,0.6-0.4,0.199-1c-1.3-2-2.399-0.5-3.6,0c-0.9,0.6-2.3-0.1-3,1c-0.6,2.3-3.1,0-4,1.6
		c1,0.9,2.2,0.2,3.3,0.5c0.3,0.1,0.601,0.4,0.601,0.6c0.1,0.5,0,1.3-0.4,1.2c-1.2-0.3-1.5,1.2-2.6,1.1c-1-0.1-0.801,0.6-1,1.3
		c-0.5,1.4,2.5,2.8,0.1,4.2c1.3,1.2,2.2,3.1,3.9,3.5c1.199,0.3,2.1,0.2,2.199,1.7c0.101,0.8,2.101-1.9,1.801,0.7
		c0,0.1,0.6,0.5,0.6,0.5c1.5-1.8,2.8-0.5,4.3,0.1c0.601,0.3,1.601-0.3,2.2-0.4c1.9-0.3,2.5-2.5,4.4-2.7
		C130.3,36.8,130.3,35.2,129.4,35.1z"/>
	<path fill="#FBFBFB" d="M134.2,86.8c-4.2-3.2-3.2-7.7-3.2-11.9c0-0.9,0.9-1.7,1.9-1.8c0-0.3,0-0.7,0-1c-2.301-0.2-3.5,1.9-5.2,2.8
		c-1.7,1-3,2.5-3,5.1c0,1.9-1.2,4.1-2.3,5.8c-0.7,1.1-0.4,2.1-0.601,3.2c0.2,1.5,1.2,2.7,1.8,4c1.601,4,3.801,4.2,7.2,1
		c0.2-2.1,0.7-4.1,2.9-4.9C135.8,88.4,135.3,87.6,134.2,86.8z"/>
	<path fill="#D5D5D5" d="M126.8,127.2c-1.399,0.3-2.8,0.7-3.8,1.8c-0.8-0.2-1.5,1.8-2.5,0.1c-0.3-0.399-1.5-0.3-1.5,0.9
		c-0.5,0.6-0.2,1.6-1,2c-0.8,1.5-1.1,3.4-3,4c-0.7,0.6-1.3,0.8-2,0c-1-0.7-1.9-1.4-3-2c-0.3,0-0.7,0-1,0c-0.6-0.5-0.4-1.5-1-2
		c-0.3-0.4-0.7-0.4-1,0c-0.3,1.2-1,1.8-2.3,2c-1.2,0.2-0.5,0.8,0,1.2c0.6,0.5,0.2,1.2,0.3,1.8c1.4,0.5,2.6-1.7,3.4-0.9
		c1.199,1.301-1.801,1.4-1.4,2.9c0.1,0.3,0,0.7,0,1c0.7,0,1.3,0,2,0c1.2,0.5,2.4,0.9,3.2,2.1c0.3,0.301,0.7,0.601,1.1,0.7
		c0.4,0,0.9-0.1,1.3-0.3c0.101-0.2,0.301-0.3,0.4-0.5c0.2-1.1,0.9-1.9,1.9-1.9c2.3-0.1,3.6-1.6,5.399-2.699
		c2-1.2,2.7-3.7,5.101-4.301c0.899-0.199,0.399-0.8-0.101-1.399c-0.399-0.4-0.5-1.101-0.7-1.7c-0.399-0.9-0.399-0.9,1.5-1
		c0.301-0.4,0.301-0.8,0.101-1.3C127.7,127.4,127.3,127.2,126.8,127.2z"/>
	<path fill="#BFBFBF" d="M69.2,176.1c-0.2-0.6-2,0.801-2.1,1.5c-0.3,1.301-0.3,1.801-1.5,0.601c-1.6-1.5-1.6-1.3-2.7,1
		c-0.4,0.899-0.6,2-1.3,2.6c-1.8,1.5-2.3,2.7-0.1,4.2c0.6,0.4,0.1,0.7-0.1,1.1c-0.7,1.9-0.7,3.9,0.2,5.801C62,192,62,191,62,190.1
		c0-0.5,0.4-1.199,0.6-0.8c1.1,1.601,2.2-1.2,3.1,0.101c0.3,0.5,0.4,1.1,0.6,1.8c0.9-0.7,0.8-1.7,0.5-2.3c-0.5-1-1.3-1.9-0.9-3.101
		c0.3-0.899-0.8-2.2,1-2.8c1.4-0.5,2.5-1.5,3.6,0.3c0.9,1.4,2.4,0.7,3.6,0.8c0.5,0,1-0.699,0.6-1c-1.7-1.5-0.1-3.1,0.1-4.6
		C73,177.4,70.3,179.1,69.2,176.1z"/>
	<path fill="#DBDBDB" d="M78.3,143.8c-0.4-0.899-0.6-1.899,0.2-2.7c0.7-0.699,1-1.5,0.1-2s-1.5,0.4-2,0.9c-0.3,0.3-0.7,0.6-1,0.9
		c0.9-1.5-1.6-1.5-1.1-2.801c0.1-0.3,1-0.5,0.3-1c-0.2-0.199-0.7-0.199-0.9-0.1c-2.3,1.5-2.6,4.1-3.7,6.3c1.9,1.4-0.5,2.601-0.2,4.2
		c0.3,1.4,1,2.9,0.3,4.7c-0.7,1.7-0.2,1.899,2.6,1.8c0.5,0,1.1,0.1,1.2,0.6c0.1,0.801,0,1.7,0,2.5c0,1,0.7,1,1.3,0.9
		c0.5,0,1.1,0,1.4-0.3c0.6-0.5,0.4-1.101-0.1-1.7c-0.6-0.7-1.6-1.1-1.6-2.3c0-0.5-0.7-1.101-1.2-1.5c-1.3-1.101-1.4-1.101-0.3-2.2
		c0.5-0.5,0.9-1,1.4-1.4c1.2-1,1.8-1.899,0.3-3.199c-0.2-0.101-0.1-1,0.2-1.301c0.3-0.199,0.9-0.199,1.3-0.1
		c0.4,0.1,0.7,0.7,1.1,0.8c0.6,0.101,1.7,0.101,1.8-0.2C80.1,143.4,78.5,144.4,78.3,143.8z"/>
	<path fill="#C2C2C2" d="M134.7,27.2c-0.601-0.4-1.601,1.5-1.601,0.2c0-1.9-1-2.4-2.3-3c-1-0.5-0.6-2.3-1.399-2.2
		c-0.7,0.1-1.301,1.4-2.4,0.4c-1.7-1.5-2.9-0.4-3.9,0.9c1.601,1.9,3.4,3.5,5.5,4.7c0.601,0.3,0.4,0.9,0.301,1.3
		c-0.301,0.7-0.7,0.2-1-0.1c-0.7-0.6-1.2-1.7-3.301-1.3c1.601,1.6,2.9,2.8,4.101,4.1c0.8,0.9,1.399,0.9,2.5,0.2
		c1.5-1.1,2.899-0.9,3.2,1.4c0.1,0.4,0.8,1.1,1,1c0.5-0.2,1.199-0.7,1.399-1.2C137.5,31.9,136.3,28.4,134.7,27.2z"/>
	<path fill="#BDBDBD" d="M127,102c-0.7-2.1-1.7-3.8-4.4-3.7c-1.399,0.1-2.399-0.9-3.199-1.9c-0.5-0.5-1-0.9-1.4-1.4
		c-0.3,0-0.7,0-1,0c-2.5,0.3-2.7,1.9-2.3,3.9c0.3,0.8,1,1.3,1.7,1.7c0,0,0,0,0.1,0c-0.6-0.2-1.1-0.3-1.6,0.1
		c-0.601,0.8-0.2,1.5,0.199,2.3c-0.3,1.8-0.1,2.1,1.9,2c1,0,1.3,0.9,1.9,1.4c0,0-0.2,0.5-0.301,0.7c-0.699,1-1,2.9-0.5,4
		c1.4,0.8,3.4,0,4.7,1.9c0.9,1.3,2.8,1.6,3.3-0.9c-1.699-0.4-2.3-2.2-3.699-3c-0.9-0.5-0.801-2.2,0.1-3c0.9-0.7,0.5-0.9-0.4-1
		c-0.8-0.1-1.1-0.1-0.6-1c0.7-1.1,2-0.8,2.8-1.7c0.4-0.5,0.601,0.3,0.7,0.7c0.3,0.7,0.6,1.4,1,2.1c1.1,0,2.8,0.3,1-1.6
		C126.8,103.1,127,102.5,127,102z"/>
	<path fill="#BDBDBD" d="M133.9,114c-1,0-0.9-0.7-0.9-1.4c0.1-1.6-0.9-2.5-2.1-2c-1,0.4-1.9,0.9-2.9,1.4c-1.4,0.6-2,1.6-1,3
		c0.2,0,0.4,0,0.5,0s0.2,0.2,0.4,0.3c-1.9,1.4-1.4,4.2-3.2,5.5c-0.3,0.2-0.7,1.1-0.2,1c2.1-0.6,1.2,3.5,3.6,2.1c1.301-1,3.5-0.9,4-3
		c-0.399-1.8-0.1-3.5,1-5c0.601-0.1,1.5,0.4,1.801-0.4C135.2,114.8,135.2,114,133.9,114z"/>
	<path fill="#959595" d="M127.3,94.2c-1.1-0.9-1.399-0.4-2.399-1.7c-1-1.2-0.9-3.2-2.9-3.5c-0.6,0.1-1.3-0.3-2,0.5
		c0.9,1,2.1,2,3.1,3.2c-2,0.8-2.399-0.7-3.199-1.4c-0.9-0.7-1.4-0.3-2.101,0.3c-1,0.8-0.5,1.2,0.101,1.8
		c0.399,0.4,1.199,0.7,1.1,1.5c1.1,4,6.4,2.5,8,6c2-0.7,3.6-1.7,3-4.2c-0.1-0.4,0.4-0.9,1-0.8c0-0.7,0-1.3,0-2
		C129.8,94.6,128.9,95.5,127.3,94.2z"/>
	<path fill="#ABABAB" d="M140.3,98.8c-0.6-0.7,1.4-1.1,0.2-1.7c-0.9-0.5-1.5,0.3-2,1c-0.8,1.2-2,1.1-3.1,0.9
		c-1.301-0.2-1.801,0.8-2.301,1.5c-1.199,1.6,2.4,3.4-0.1,5c1.1,1,2.7,0.1,3.7,1.3c-0.2-2.8,3-1,3.8-2.7c0.4-0.8,0.5-1.2,0.1-2.1
		c-0.899-2,1.101-0.4,1.4-1.2C141.9,99.9,140.9,99.5,140.3,98.8z"/>
	<path fill="#1B1B1B" d="M126.7,98.7c0.3-0.2,0.2-0.8,0.2-1.3c-1.7-0.1-2.7-2.7-3.801-2.3c-1.699,0.7-2.8-0.4-4.1-0.2
		c-0.6,0.5-0.2,1.6-1,2c-0.2,0-0.3,0-0.5,0c-0.1,0.1-0.4,0.2-0.3,0.3c0.3,2.1,2.3,2.5,3.399,3.8c1,1.1,1.9,1.2,2.7,0
		c1-1.5,1.7-0.7,2.5,0.2c0.3,0.3,0.601,0.9,1.2,0.7c0-0.3,0-0.7,0-1C127.5,100.2,125.1,99.8,126.7,98.7z"/>
	<path fill="#868686" d="M115.2,93.6c-0.2-1.5-1.5-1.2-2.101-1.7c-1.899-1.6-3.399,0.3-5.1,0.1c0.3,0.7,0.7,1.3,1,2
		c-0.2,2.1,1.2,0.9,2,1c1-0.1,1.9,0.1,2.5,1c0.4,0.5,0.4,1-0.1,1c-1.5,0-1.4,0.2-0.7,1.5c0.899,1.7,0.3,2.2-1.8,2.6
		c1,1.3,2.3,2.1,4,2c0.5-0.1,1.199,0,0.6-0.9c-0.2-0.3-0.4-0.7-0.6-1.1c0.6-0.5,0.399-1.5,1-2c0-0.5,0.199-1.2,0-1.4
		c-1.5-1.4-0.601-1.6,0.699-1.8c0.2,0,0.2-0.5,0.301-0.8C116,95,115.3,94.1,115.2,93.6z"/>
	<path fill="#E9E9E9" d="M53.7,159c-0.4-1.8-0.6-3.9-1.5-5.8c-0.7-1.5-0.4-3.601-2.1-5c-0.7,3.399,0.7,6.399,1.3,9.399
		c0.6,3.4,1.9,6.7,1.6,10.2c-0.1,1,0,1.9,0,2.9c1-1.9,2.2-3.601,2-5.8C54.8,163,54.2,160.9,53.7,159z"/>
	<path fill="#A6A6A6" d="M81.9,127.7c-0.6,0.5-2-0.101-2,1.6c0,1.2-0.8,0.2-1.2-0.1c-0.6-0.4-0.8-1-0.7-1.7c0.1-0.9,0-1.7-1.2-1.5
		c-0.9,0.1-0.8,0.9-0.8,1.5c0,0.8,0,1.7,0,2.5c0,0.2-0.1,0.4-0.1,0.6c-0.2,0.801-0.1,1.601,0.5,2.2c0.2,0.101,0.4,0.2,0.5,0.2
		c0.8-0.7,1.1,2.1,2,0.2c0.2-0.4,0.3-0.8,0.5-1.2c0.2,0.4,0.3,0.8,0.5,1.2c0.2,0.5,0.4,0.899,1,0.7c0.2-0.101,0.4-0.2,0.5-0.2
		c0.6-0.601,1-1.3,1.6-1.8c0.3-0.301,0.6-0.601,0.8-0.9c0.3-0.5,0.6-1,0.9-1.5c0.1-0.2,0.1-0.4,0.2-0.6
		C84.2,125.9,84.2,125.9,81.9,127.7z"/>
	<path fill="#333333" d="M126,112c0.1,1-0.7,1.2-1.2,0.9c-0.899-0.6-1.8-1.4-2.5-2.2c-0.8-0.9-1.6-1-2.399,0
		c-0.5,0.6-1.2,0.2-1.801,0.3c-0.8,0.2-1.899-0.5-2,1c0.7,0.6,1.301,0.6,2,0c0.301,0,0.601,0,0.9,0c0.6,0.1,1.4-0.1,1.7,0.2
		c0.7,0.8-1.101,0.9-0.7,1.7c0,0.2,0,0.3-0.1,0.5c0,0.3,0,0.7,0,1c0,0.2,0,0.3,0.1,0.5c0.1,0.6-0.4,1.4,0.4,1.8
		c0.8,0.4,1.199,0.2,1.699-0.8c1.301-2.4,2.9-2.9,4.9-2c-0.5-1.3,0.9-1.9,1-3C127.3,111.4,126.7,111.4,126,112z"/>
	<path fill="#797979" d="M107,105c-0.1-2.3-0.1-2.4-2.4-2.8c-0.899-0.2-2.3-1-2.6,0.8c1-0.1,1.1,0.6,1,1.3c-0.3,1.4,0.8,2,1.6,2.7
		c0.301,0.3,1.5-0.4,1.101,0.7c-0.101,0.4-1.101,0.4-2,0.7c1.399,0.6,2.399,1.2,3.5,1.5c0.399,0.1,0.899-0.3,0.8-1
		C110.9,106.9,108.3,106.1,107,105z"/>
	<path fill="#4A4A4A" d="M133,116c-0.7,0.3-1.3,0.8-2,1c-1.6,0.3-0.8,2.1-1.8,2.7c0.7,0.9,1.5,1.6,2.8,1.3c1-0.5,1.9-0.9,2.9-1.4
		C134.3,118.4,132.4,117.8,133,116z"/>
	<path fill="#C1C1C1" d="M110,105.7c-0.1-0.3-0.3-0.7-0.6-0.7c-0.801-0.1-1.601,0-2.4,0c-0.1,0.6,0.3,0.9,0.7,1.1
		c1.6,0.8,1.1,1.8,0.3,2.9c0.9,0.2,1.9-0.3,2.8,0.3c0.7,0.5,1,1.5,2,1.5C113.3,108.2,110.7,107.5,110,105.7z"/>
	<path fill="#6F6F6F" d="M113.6,140.3c-1.3-0.399-2.5-1-3.899-1.2c-0.4-0.1-0.9,0.4-0.7,1c0,0.301,0,0.601,0,0.9
		c0.1,0.6-0.1,1.4,0.2,1.7c0.8,0.7,0.899-1.101,1.7-0.7c0.699,0.6,1.3,0.6,2,0C112.5,141.1,114.6,140.6,113.6,140.3z"/>
	<path fill="#B5B5B5" d="M122.5,72c-2.8-0.6-0.3,3.1-2.5,3c0.1,0.3,0.2,0.7,0.4,0.8C120.6,76,121.1,76.1,121.3,76
		c0.5-0.3,1.4-0.8,1.4-1.2c0-2.4,2-1.5,3.8-2.3C124.8,72.3,123.9,70.4,122.5,72z"/>
	<path fill="#696969" d="M128,125c-1.6,0.3-2.2,2.6-4.4,2.1c-0.899-0.199-0.5,1.2-0.6,1.9c0.6-0.1,1.4,0.3,1.8-0.3
		c0.601-0.8,1.4-0.7,2.2-0.7c0.7-0.7,2-0.7,2-2C129,125.3,128.7,125,128,125z"/>
	<path fill="#AAAAAA" d="M85.3,140.6c-1.2-1.199-2.7-2.699-4-4C81.7,138.8,83.3,140.4,85.3,140.6z"/>
	<path fill="#7C7C7C" d="M105,92.6c-0.9,0.7-2.4,0.7-3.2,2.9c1.8-0.8,3-1.1,3.9-1.8c0.8-0.6,2.5-1.6,1.8-2.4
		C106.5,90.1,105.8,91.9,105,92.6z"/>
	<path fill="#A1A1A1" d="M110,94.5c-0.8,0.7-1,0.3-1-0.5c-0.7,0.1-2,0.4-1.9,0.5c1.7,1-0.3,1.7-0.1,2.5c1.7,0.1,3-0.7,4-2
		C111,94.2,110.8,93.8,110,94.5z"/>
	<path fill="#B7B7B7" d="M74.7,131.9c-0.2,0-0.4,0.1-0.7,0.1c-1-0.1-1.2,0.7-1,1.2c0.4,1,1,1.8,1.5,2.7c0.7-1.101,2.2-1.5,2.4-3
		C76.4,132.3,75.7,131.7,74.7,131.9z"/>
	<path fill="#838383" d="M106.1,139.7c-0.199-0.3-3,0.399-3,0.7c0.101,0.899,1,0.399,1.4,0.699c0.7,0.4,0.1,0.801-0.2,1
		c-0.399,0.301-0.5,0.5-0.1,0.7c0.3,0.101,0.6,0.3,0.899,0.2c1.301-0.3,0.601-2.1,1.801-2.5C107.2,139.7,106.4,140.1,106.1,139.7z"
		/>
	<path fill="#828282" d="M107.1,100.7c1.9,0.5,3.7,0.9,5-1.6C110.1,99,108.3,98.3,107.1,100.7z"/>
	<path fill="#B4B4B4" d="M116.5,142c-0.5,0-1,0-1.5,0c-0.5,0.6-1.3,0.9-1.8,1.5c-0.101,0.2-0.101,0.4-0.2,0.5c0,1,1,1.2,1.4,1.9
		c0.5-0.4,1-0.801,1.399-1.2c0.5-0.5-0.2-1.8,1.2-1.7c0.5,0,1-0.1,0.8-0.7C117.6,141.8,116.9,142,116.5,142z"/>
	<path fill="#AAAAAA" d="M114.4,52c2.8,2.2,2.8,2.2,5.399,1.4C118.7,51.2,116.9,52.1,114.4,52z"/>
	<path fill="#919191" d="M99,104c-1,0-1.1,0.6-1,1.3c0.2,1.2,1.3,0.6,2,0.7c0.7-1,1.3-2,2-3C100.7,102.5,100.1,103.9,99,104z"/>
	<path fill="#D9D9D9" d="M129,126c-1.1,0.2-1.8,0.9-2,2c0.3,0,0.7,0,1,0c0.3,0.3,0.4,0.9,1,1C131.5,127.3,131.5,127.7,129,126z"/>
	<path fill="#808080" d="M92.3,129.1c-0.4,0.301-0.5,0.5,0,0.7c0.3,0.101,0.7,0.3,0.9,0.101c1-0.801,1.8-1.601,3.2-2.9
		C93.8,126.8,93.4,128.5,92.3,129.1z"/>
	<path fill="#E9E9E9" d="M85,129c-0.8,0.5-1.5,1.2-2,2c-0.5,0.5-0.6,1-0.4,1.6c0.1,0.101,0.3,0.301,0.4,0.4c1.4-0.3,2-1.5,2.8-2.4
		C86.3,130,86.2,129.1,85,129z"/>
	<path fill="#5D5D5D" d="M117,22c-2.6-1.5-2.8-1.5-3,1c0.5,0,1.1-0.2,1.4,0C117.3,24.8,117,23.1,117,22z"/>
	<path fill="#C1C1C1" d="M111.2,55.3c-0.101,0,0,0.2,0,0.3c1.2,0.2,2.5,2.2,4.2-0.9C113.6,55.3,112.4,54.6,111.2,55.3z"/>
	<path fill="#ABABAB" d="M104.7,112.8c-1.601,1,0.8,1.4,0.3,2.2c0.7,0,1.3,0,2,0c-0.3-0.7-0.8-1.3-1-2
		C105.7,111.4,105.2,112.4,104.7,112.8z"/>
	<path fill="#A1A1A1" d="M88.6,137c-0.5,0.3-0.6,0.7-0.5,1.2c0.1,0.7-1.6,0.899-0.5,1.7c0.2,0.199,0.7,0.199,0.9,0
		c0.5-0.5,1.2-1,1.3-1.7C89.8,138,89,137.4,88.6,137z"/>
	<path fill="#8A8A8A" d="M113.5,73c-0.2,0.3-0.4,0.5-0.5,0.8c-0.2,1.2,1,1.5,1.5,2.2c0.2-0.3,0.4-0.5,0.5-0.8
		C115.2,74.1,114,73.7,113.5,73z"/>
	<path fill="#ADADAD" d="M126,105c-0.8,0-1.1,0.5-1,1.2c0.1,0.7-1.5,0.8-0.6,1.8c0.1,0.1,0.3,0,0.399,0.1
		c1.2,0.1,1.101-0.8,1.101-1.6C126,105.9,126,105.5,126,105z"/>
	<path fill="#D5D5D5" d="M107,115c-1,1.8-1,1.9,1,2c0.6-0.6,1.6-0.9,1-2C108.3,115,107.7,115,107,115z"/>
	<path fill="#BDBDBD" d="M102.4,138c-0.301,0.3-0.5,0.5-0.2,0.7s0.6,0.3,0.899,0.2c0.9-0.301,1.601-0.9,1.9-2
		C103.9,136.8,103.1,137.2,102.4,138z"/>
	<path fill="#CCCCCC" d="M104.2,124.3c-0.3,0.5-1.3,0.7-1,1.3c0.3,0.7,1.2,0.2,1.8,0.3c0.2-0.1,0.4-0.2,0.6-0.2
		c0.5-0.5,0.801-1,0.4-1.8C105.4,124.1,104.7,123.7,104.2,124.3z"/>
	<path fill="#868686" d="M119,95.5c0-0.1,0-0.3,0-0.5c-0.3,0-0.7,0-1,0c0,0.7,0,1.3,0,2c0.6-0.1,1.4,0.1,1.7-0.3
		C120.3,96.1,119.1,96,119,95.5z"/>
	<path fill="#DADADA" d="M106,129c0-0.3,0-0.7,0-1c-1,0.2-1.8,0.8-1.7,1.7c0.101,0.6,1.101,0.2,1.7,0.3
		C106.7,129.7,106.7,129.3,106,129z"/>
	<path fill="#959595" d="M128,128c0,0.3,0,0.7,0,1s0,0.7,0,1c0.1,0.3,0.2,0.8,0.3,0.8c0.601,0.101,0.7-0.3,0.7-0.8c0-0.3,0-0.7,0-1
		C129,128.3,128.7,128,128,128z"/>
	<path fill="#9C9C9C" d="M74,132c1.6,0.3,2.3-0.3,2-2C74.4,129.7,73.7,130.4,74,132z"/>
	<path fill="#EEEEEE" d="M111,142c0.2,1.1,0.9,1.8,2,2c0.6-0.7,0.6-1.3,0-2C112.3,142,111.7,142,111,142z"/>
	<path fill="#DBDBDB" d="M83,133c-1.1-0.6-1.4,0.4-2,1c-0.1,1,0.6,1.1,1.3,1C83.5,134.7,82.9,133.7,83,133z"/>
	<path fill="#DBDBDB" d="M77,136c-0.1,0.9,0.5,1.1,1.2,1c0.3,0,0.5-0.3,0.9-0.5c-0.6-0.5-1.2-0.9-1.7-1.3
		C77.2,135.4,77,135.7,77,136z"/>
	<path fill="#ABABAB" d="M118.7,73.2c-0.5-0.4-0.601,0.2-0.7,0.7c-0.1,0.8,0.3,1.1,1.2,1.1c0.1,0,0.7,0,0.7,0
		C120.1,74.1,119.2,73.7,118.7,73.2z"/>
	<path fill="#FEFEFE" d="M128.5,69c-0.4,0.1-0.9,0.1-1.3,0.3c-0.3,0.1-0.2,0.5,0.2,0.6c0.6,0.2,1.199,0.2,1.6-0.5
		C129.2,69,129,68.9,128.5,69z"/>
	<path fill="#AFAFAF" d="M126.7,53.2c-0.601-0.1-0.7,0.3-0.601,0.8c0,0.3,0.2,0.8,0.301,0.8c0.6,0.1,0.699-0.3,0.699-0.8
		C126.9,53.7,126.8,53.2,126.7,53.2z"/>
	<path fill="#ADADAD" d="M125.3,49.2c-0.2,0-0.3,0.5-0.3,0.8c-0.1,0.5,0.1,0.9,0.6,0.8c0.2,0,0.2-0.5,0.301-0.8
		C126,49.5,125.9,49.1,125.3,49.2z"/>
	<path fill="#A0A0A0" d="M114.6,49.1c-0.199,0.1-0.6,0.2-0.6,0.4c0,0.4-0.3,1,0.3,1.3c0.101,0.1,0.601-0.2,0.601-0.3
		C115,50,115.2,49.5,114.6,49.1z"/>
	<path fill="#C3C3C3" d="M72,155.5c0.1,0.5-0.2,1.2,0.6,1.4c0.1,0,0.3-0.5,0.5-0.9c-0.2-0.3-0.3-0.8-0.6-1
		C72.1,154.8,71.9,155,72,155.5z"/>
	<path fill="#D4D4D4" d="M107,126c-0.7-0.6-1.3-0.6-2,0c0.1,1.5,1.2,0.8,2,1c0.1,0,0.2-0.1,0.4-0.3C107.5,126.4,107.4,126.2,107,126
		z"/>
	<path fill="#9B9B9B" d="M75.7,159.2c-0.6-0.101-0.7,0.3-0.6,0.8c0,0.3,0.2,0.8,0.3,0.8c0.6,0.101,0.7-0.3,0.7-0.8
		C75.9,159.7,75.8,159.2,75.7,159.2z"/>
	<path fill="#D4D4D4" d="M104.5,115c-0.2,0-0.5,0.4-0.5,0.7c0,0.4,0.2,0.8,0.4,1.2c0.5-0.2,0.699-0.5,0.6-1
		C104.8,115.7,105.5,114.9,104.5,115z"/>
	<path fill="#878787" d="M100.5,106c-0.4-0.2-0.6,0-0.5,0.5s-0.2,1.2,0.6,1.4c0.101,0,0.301-0.5,0.301-0.5
		C101.1,106.6,100.9,106.2,100.5,106z"/>
	<path fill="#8B8B8B" d="M79.9,142.1c0.2,0.4,0.4,0.601,0.6,0.9c0.2-0.4,0.4-0.8,0.5-1.2c0-0.2-0.3-0.5-0.5-0.8
		C80.3,141.4,80.1,141.8,79.9,142.1z"/>
	<path fill="#484848" d="M159,170c-0.4-0.5-0.7-1.4-1.3-1.4c-6.9-0.6-13.8-1-20.7,0.4c0,2.7,2.1,4,4,4.9c3.3,1.6,6.9,1.1,10.5,1
		c0.1,0,0.2-0.2,0.4-0.301c1.3-0.8,1.399-0.899,1.8-0.5c0.899,1.2,2.1,0.7,3.2,0.801c0.5,0,0.899-0.101,1.5-1.301
		c-0.601-0.3-1.5-0.699-2.5-1.1c1.3-0.9,2.3-0.5,3.199-0.6c0.601,0,0.7-0.601,1-1C160,170.3,159.7,170,159,170z"/>
	<path fill="#F9F9F9" d="M156.3,167c-4.1,0-8.2,0-12.3,0c-2.3,0-4.5,0-6.8,0c-1.7,0-1.101,1.2-1.2,2c0.3,0,0.7,0,1,0
		c2-0.5,4.2,2,5.4,0.8c1.899-2,3.899,1.601,5.3-0.7c0.6,0.601,1.1,1,2.1,0.7c2.601-0.8,2.601-0.7,5.7,1.101
		c0.6,0.3,1.5,0.199,1.5-0.601c0.2-3.2,1.5,0.601,2-0.3C158.9,167,158.9,167,156.3,167z"/>
	<path fill="#7E7E7E" d="M168.6,173.9c-0.199,0.199-0.3,0.5-0.399,0.699c0.3,0.101,0.7,0.4,0.8,0.301c1.5-1.5,3.8-0.301,5.3-1.7
		c0.2-0.2,0.5-0.5,0.7-0.7c-0.2-0.2-0.5-0.4-0.9-0.7C172.4,172.7,170.2,172.5,168.6,173.9z"/>
	<path fill="#5F5F5F" d="M192,159c-0.9,0-1.9-0.3-2.8,0.3c0.5,1.4,1.5,1.9,2.899,1.7c0.7-0.1,1.801,0.5,1.9-0.8
		C194.1,158.5,192.8,159,192,159z"/>
	<path fill="#6E6E6E" d="M184,159.8c-0.1,0.3,0.2,1.101,0.5,1.2c1.3,0.3,1.8-0.7,2.4-1.6C185.8,158.9,184.7,158.4,184,159.8z"/>
	<path fill="#FEFEFE" d="M178.4,166.2c-0.801,0.5,0.1,0.7,0.399,0.8c0.5,0.1,1.101-0.1,1.2-0.5c0-1.1,0.4-2.2-0.4-3.5
		C178.5,164,179.5,165.4,178.4,166.2z"/>
	<path fill="#B0B0B0" d="M160,171c-0.7,0-1,0.3-1,1c-0.1,0.6,0.3,0.8,0.7,1.2c0.3,0.3,0.899,0.7,1,0.6c0.6-0.5,0.5-1.1,0-1.6
		C160.4,171.8,159.9,171.6,160,171z"/>
	<path fill="#626262" d="M187.2,75c3.3,0,6.6,0,9.8,0v-1C193.7,74.1,190.4,73.7,187.2,75z"/>
	<path fill="#FEFEFE" d="M37,68c-1.9-0.1-3.1,1.6-4.6,1.8c-1.2,0.2-1.9,2.4-3.3,0.7c1.7-2.6,5.3-3.3,6.8-6.2
		c-0.5-0.6-1.2-0.2-1.9-0.3c-1.3,2.4-3.3,3.8-6,4c-0.8,1.9-2.7,2.8-3.8,4.4c-0.2,0.3-0.2,1,0,1.3c0.5,0.7,0.7-0.2,1-0.4
		c0.6-0.4,1.1-0.2,1.7,0.1c1,0.5,2.2,0,3.4,0.5c0.4,0.2,1.6-0.9,1.6-2c0-0.5,0.3-0.9,0.9-0.8c1,0.1,2,0,2.6-1c0.7,1.3,1.3,0.6,2.2,0
		c0.6-0.4,1.2,0.2,1.6,0.7c0.2,0.2,0.6,0.2,0.7-0.3c0.1-0.4,0.2-0.9-0.3-1.3C38.9,68.5,37.2,69.9,37,68z"/>
	<path fill="#E1E1E1" d="M41,64.4c-2,0.9-0.5-1-1-1.4c-0.7,0-1.3,0-2,0c0,0.7,0,1.3,0,2c3.6,1.6,5.8,1.4,8.1-1.2
		C44.2,64.3,42.6,63.7,41,64.4z"/>
	<path fill="#E6E6E6" d="M21,73c-0.1,1.1-0.9,1.7-1.8,2c-1.6,0.5-2.5,1.6-3.2,3c2.5-0.1,4-2.1,5.8-3.4C22.3,74.2,22.2,73.1,21,73z"
		/>
	<path fill="#8D8D8D" d="M52,72c-0.6,0-0.9,0.3-1,0.8c-0.1,0.7,0.1,1.3,1,1.2c0.6,0.1,0.9-0.3,0.9-0.8C53.1,72.5,52.9,72,52,72z"/>
	<path fill="#818181" d="M48,71c-0.9,0-1.1,0.6-1,1.3c0.1,0.5,0.4,0.8,1,0.8c0.9,0,1-0.6,1-1.2C48.9,71.3,48.6,71,48,71z"/>
	<path fill="#E9E9E9" d="M44.2,68.7c0,0,0.5,0.3,0.8,0.3c0.9-0.2,1.5-0.8,1.8-1.7C46.5,67.2,46.2,67,46,67
		C45,67.2,44.5,67.8,44.2,68.7z"/>
	<path fill="#FEFEFE" d="M38,65c-1,0-1.4,0.8-1.8,1.4C35.9,66.8,36.5,67,37,67C38.5,66.9,37.8,65.8,38,65z"/>
	<path fill="#F7F7F7" d="M155,64c-2.8-0.6-5.6-1.8-8,1c-2,0-4,0-6,0c-0.1,0.9,0.5,1,1.2,1c0.899,0,1.899,0,2.8,0c3.3,0,6.5,0,9.8,0
		c0.7,0,1.3-0.1,1.2-1C156,64.3,155.7,64,155,64z"/>
	<path fill="#1E1E1E" d="M158,66c-1.2,0.9-2.6,1-4,1c-2,0-4-0.3-5.9,0.6C152.2,68,156.2,68,160.2,67.9c0.5,0,0.899-0.4,0.8-1
		c0-0.7,0-1.3,0-2C159.6,64.2,158.8,65.2,158,66z"/>
	<path fill="#FCFCFC" d="M163.6,61c-2.6-0.4-4.6,0.5-5.6,3c0,0.7,0,1.3,0,2c1.3,0.5,1.9-0.9,3-1c0.4-2.8,0.7-3,4-3c0.7,0,1-0.3,1-1
		C165.2,61,164.4,61.1,163.6,61z"/>
	<path fill="#6B6B6B" d="M147,65c0.8,0.5,0.9-1.4,2.3-0.4c1.601,1.1,3.9,0.7,5.7-0.6c-0.2-1.6,1.7-0.5,2-1.8c-4,0-8,0-12,0
		C145.5,63.4,146.9,63.8,147,65z"/>
	<path fill="#0A0A0A" d="M118.8,134c-1.2-0.4-0.6-1.3-0.8-2c-2.1,0.5-2,2.7-3,4c1.4-0.5,2.7,0.6,3.4,1.2c1.5,1.3,2.199,0,2.5-0.7
		c0.3-1,0.6-2.4-0.2-3.2C120.2,132.8,119.7,134.3,118.8,134z"/>
	<path fill="#3A3A3A" d="M115.5,122c-0.1,0.2-0.2,0.5-0.3,0.7c0.3,0.1,0.6,0.4,0.8,0.3c1-0.4,2-1,3.1-1.5
		C117.5,120.7,116.4,120.8,115.5,122z"/>
	<path fill="#121212" d="M108,117c1.7,0.1,3-0.7,4-2c-1,0-2,0-3,0C108.7,115.7,108.3,116.3,108,117z"/>
	<path fill="#505050" d="M112.1,134.5c0-3-1.5-0.1-2.1-0.5c0.4,1.6,1.4,2.2,3,2C113.1,135.2,112.1,135,112.1,134.5z"/>
	<path d="M118,114.8c-0.2,1.7,1.1,1.2,2,1.2c0.6-0.7,0.6-1.3,0-2C119.3,114.1,118.2,113.5,118,114.8z"/>
	<path d="M113,136c0.5,0.9-1.5,1-0.6,1.8c0.699,0.7,1.399,0,2-0.6c0.3-0.3,0.8-0.601,0.699-1.2C114.3,136,113.7,136,113,136z"/>
	<path d="M112,121.5c0.3,0.2,0.5,0.4,0.8,0.5c0.7,0.1,1.3-0.1,1.2-1c-0.1-0.3-0.2-0.8-0.3-0.8C112.8,120.2,112.6,121.1,112,121.5z"
		/>
	<path fill="#0E0E0E" d="M106,124c-0.3,0.7-0.7,1.3-1,2c0.7,0,1.3,0,2,0C106.8,125.2,107.5,124.1,106,124z"/>
	<path fill="#4F4F4F" d="M119,130.5c0-0.1,0-0.3,0-0.5c-1.5,0.1-0.8,1.2-1,2c0.6-0.1,1.4,0.1,1.7-0.3
		C120.3,131.1,119.1,131,119,130.5z"/>
	<path fill="#030303" d="M112.2,117.7c0.3,0.1,0.6,0.3,0.8,0.3c0.9,0.1,1-0.6,1-1.2c-0.2-0.3-0.3-0.5-0.5-0.8
		C113.1,116.6,112.6,117.1,112.2,117.7z"/>
	<path d="M116.8,113c0.7,0.1,1.3,0,1.2-1c-0.7,0-1.3,0-2,0C115.9,112.6,116.3,112.9,116.8,113z"/>
	<path fill="#444444" d="M108,132c0.2,0.8-0.5,1.9,1,2C108.8,133.2,109.5,132.1,108,132z"/>
	<path d="M106,130c0.7,0,1.3,0,2,0c0-0.3,0-0.7,0-1c-0.7,0-1.3,0-2,0C106,129.3,106,129.7,106,130z"/>
	<path d="M110,127c-0.3,0-0.7,0-1,0c0,0.3,0,0.7,0,1c0.3,0,0.7,0,1,0s0.8-0.2,0.8-0.3C110.9,127.1,110.5,127,110,127z"/>
	<path d="M113.4,114.1c-0.801-0.3-1.101,0-1.4,0.4c-0.2,0.4,0,0.6,0.5,0.5s1.2,0.2,1.4-0.6C113.9,114.3,113.4,114.1,113.4,114.1z"/>
	<path fill="#0B0B0B" d="M121,26c-0.6-0.1-1.2,0-2.5,0c1.1,1.3,2,0.9,2.7,1c0.2,0,0.7-0.3,0.7-0.5C122.1,25.5,121.4,26.1,121,26z"/>
	<path fill="#1D1D1D" d="M113,142c0,0.7,0,1.3,0,2c1.6,0.3,2.3-0.4,2-2C114.3,142,113.7,142,113,142z"/>
	<path fill="#252525" d="M134.7,29.1c-1-0.2-1.5,0-1.7,0.5c-0.5,1.1,1,1.4,1.1,2.4c0,0.1,0.9-0.3,0.9-0.7
		C134.8,30.5,135.7,29.3,134.7,29.1z"/>
	<path fill="#0B0B0B" d="M117,101c0.2,1,1,1.6,1.9,2c0.199,0.1,0.6-0.1,0.899-0.2c0.3-0.2,0.101-0.4-0.2-0.7
		C118.9,101.2,118.1,100.8,117,101z"/>
	<path fill="#080808" d="M114.3,99.3c-0.6,0.7,0.601,0.8,0.7,1.3c0,0.1,0,0.3,0,0.5c0.7,0,1.3,0,2,0c-0.3-0.7-0.7-1.3-1-2
		C115.4,99.1,114.6,98.9,114.3,99.3z"/>
	<path fill="#111111" d="M76,130c-0.2,1.1-0.9,1.8-2,2c0.5,1.9,2,0.6,3,1c0-0.5-0.2-1.1,0-1.4C78.8,129.7,77.1,130,76,130z"/>
	<path fill="#050505" d="M81,134c0.7-0.3,1.3-0.7,2-1c0-0.7,0-1.3,0-2C81.4,131.4,80.8,132.4,81,134z"/>
	<path fill="#171717" d="M83,131c1.1-0.2,1.8-0.9,2-2C83.4,128.7,82.7,129.4,83,131z"/>
	<path fill="#EDEDED" d="M120,114c0,0.7,0,1.3,0,2c1-0.2,1.8-0.8,1.7-1.7C121.7,113.7,120.6,114.1,120,114z"/>
</g>
</svg>
