<?xml version="1.0" encoding="utf-8"?>
<!-- Generator: Adobe Illustrator 16.0.0, SVG Export Plug-In . SVG Version: 6.00 Build 0)  -->
<!DOCTYPE svg PUBLIC "-//W3C//DTD SVG 1.1//EN" "http://www.w3.org/Graphics/SVG/1.1/DTD/svg11.dtd">
<svg version="1.1" id="Layer_1" xmlns="http://www.w3.org/2000/svg" xmlns:xlink="http://www.w3.org/1999/xlink" x="0px" y="0px"
	 width="24.1px" height="90px" viewBox="0 73 24.1 90" preserveAspectRatio="none">
<g id="Layer_2">
	<rect y="74" fill="#FFFFFF" width="24" height="87.6"/>
	<path d="M0,73c0,0,7.9,0,12.5,0.5C17.1,74,24,74,24,74v4c0,0-11.8-0.4-16.3-0.8C3.2,76.8,0,77,0,77V73z"/>
	<path fill="#626262" d="M0.1,74c0,0,8.6,0.4,9,0.5s9.4,0.6,10.1,0.7c0.7,0.101,4,0.3,4.3,0.3s-0.4,0.6-0.9,0.6s-10.7-0.4-11.1-0.7
		S7,74.7,6.4,74.7s-3.5,0-4.2,0C1.5,74.7,0,75,0,75L0.1,74z"/>
	<path d="M0,158c0,0,9.3,0,12.7,0.301C16.1,158.6,24,159,24,159v4c0,0-13.1-0.5-14.6-0.5S0,162,0,162V158z"/>
	<path fill="#727272" d="M23.9,161c0,0-8-0.9-8.801-1s-5.301,0.5-5.301,0.5s4.4,0.199,5.4,0.4c1,0.199,4.8,0.1,6.1,0.299
		c0.2,0,2.801,0.602,2.801,0.602V161H23.9z"/>
</g>
</svg>
