<?xml version="1.0" encoding="utf-8"?>
<!-- Generator: Adobe Illustrator 16.0.0, SVG Export Plug-In . SVG Version: 6.00 Build 0)  -->
<!DOCTYPE svg PUBLIC "-//W3C//DTD SVG 1.1//EN" "http://www.w3.org/Graphics/SVG/1.1/DTD/svg11.dtd">
<svg version="1.1" id="extra-frame-3_xA0_Image_1_" xmlns="http://www.w3.org/2000/svg" xmlns:xlink="http://www.w3.org/1999/xlink"
	 x="0px" y="0px" width="208px" height="252px" viewBox="0 0 208 252" >
<g>
	<path fill="#FFFFFF" d="M149,232.2c-0.3,0.2-0.4-6-0.3-5.8c0.1,0.199-1.2-3.5-1.2-3.5l-2.2-5.301c0,0-1.3-6.399-1.399-7.699
		c-0.101-1.301-0.9-8.4-1.801-10.101c-0.899-1.7-3.8-4.899-4.3-7.7c-0.5-2.8,5.101-18.8,5.101-18.8l3.3-8c0,0,1-6.2,0.399-13.1
		c-0.6-6.9-15.6-16.601-15.5-16.3c0.101,0.3-9.1-7.9-9.1-7.9s-0.6-3.1,0.1-4.9c0.7-1.8,1.9-4.3,1.9-4.3s2.3-5.2,1.8-6.3
		s-4-15.8-5.7-17.1c-1.699-1.3-5.699-5.2-9-7.7c2.801-2.7,18.7-12.9,18.7-12.9L127,66l-11.3-9.5l-11.8,4.1L87.3,77.9
		c0,0-13.5-10.2-15.6-11.2c-2.1-1-4.8-3.8-9.8-2.9c-5,0.9-15.3,0.9-15.3,0.9l-10.3,6.1c0,0,6.8,14.8,6.3,14.9
		c-0.5,0.1,10.9,4.4,11.3,4.3s5.4,6.8,5.4,6.8s11.7,10.1,11.3,10.5c-0.4,0.4,8.1,5.6,8.1,5.6l10.1,3.6l13.3,33.7l2.1,28.5l3.6,15.2
		c0,0,1.7,6.1,2.601,5.899c0.899-0.2,10.199,3.3,10.199,3.3l4.2,7.7l8.2,10.8l3.6,5.301l1.7,12.8l-0.899,4l1,2.8c0,0,0.8,3.5,3.1,3
		s3.3-2.2,3.3-2.2l2.9-4.6C147.6,242.8,149.2,232,149,232.2z"/>
	<path fill="#FFFFFF" d="M87.4,43.9c0,0,0.5-2.2-0.4-2.8s0.4-3.5,0.7-4.2c0.3-0.7,0.2-4.8,0.6-6.1c0.4-1.3,1.6-5.6,0.8-7.3
		c-0.8-1.7-0.5-2.8-0.5-4.5s-3.3-10.4-4-15C84.1,5.4,75,24.2,75,24.2s-4.5,9.5-6,19.2c-1.5,9.7,0.7,12.4,3.2,15.7
		c2.5,3.3,7.2,9.8,7.2,9.8l7.3,4.3l5.8-9.8L93.7,51l-6.2-4.5L87.4,43.9z"/>
	<path fill="#FEFEFE" d="M32.8,166.3c2.1-0.1,4.5,0.9,5.8-1.6c0.3-1.9-0.8-3.9,0.4-5.7c0.6-0.5,0.4-1.5,1-2c0.7,0,1-0.3,1-1
		c6.1-2,7.7-1.2,9.9,4.8c1.1,3,2.3,3,5.1,0.2c0.8-2.3,0.8-4.7,0-7c-0.6-0.5-0.4-1.5-1-2c-0.4-1.8-3.7-2.4-2-5
		c-0.1-0.6,0.3-0.9,0.8-1c0.7-0.1,1.3-0.1,1.2-1c0.6-0.5,0.4-1.5,1-2c0.5-0.5,0.4-1.2,0.5-1.8c0.6-6.3,0.6-6.3-5.5-4.3
		c-4.6,1.399-9,0.1-10.6-4.5c-3.1-8.4-4.6-17,0.6-25.3c0.7,0,1-0.3,1-1c2.3-2.1,5.2-1.9,8-2.3c1.7-1.1,1.3-3.3,2.5-4.6
		c0-2.9-3.7-2.9-4.1-5.5c1.6-3.2,4.4-5.7,5.6-9.1c-0.6-2.5-1.9-2.5-4-1.4c-2.7,1.5-5,1.1-6.5-2c-0.3-0.6-1.1-1.5-2.1-1.7
		c-5.7-2-9.5-6.7-14.5-9.6c-0.4-0.3-0.7-0.7-1-1.1c-2.6-3.4-5.4-6.6-10.3-5.6c-5,1.1-7.5,4.7-8.4,9.4c-0.7,3.8-3.5,3.5-6,3.5
		c-1,0-2,0-3.1,0v84.6c5.4,0.1,10.9,0.1,16.3,0.2C20.6,162.2,27.4,161.7,32.8,166.3z"/>
	<path fill="#020202" d="M11.2,163c1.3,0.2,0.6,1.3,0.8,2c3.6,1.5,3.6,5.9,6.3,8.1c0.9,0.5,1.8,1.101,2.7,1.4
		c3.8,1.1,6.4,0.1,7.3-4.1c0-0.5-0.1-1-0.3-1.5c-1-1.7-2.6-1.801-4.3-1.9c-2.7-0.1-4.4-1.4-4.5-4.3c-0.4-1.7-2.1-1.9-3.3-2.8
		c-0.8-2.101-2.6-0.9-3.8-0.9c-4.7,0-9.5,0-14.2,0v4c3.9,0,7.8,0,11.7,0C10.2,163,10.7,162.9,11.2,163z"/>
	<path fill="#010101" d="M3.6,78.9c1.5,1.2,3.1-1.1,5-1.1c1,0,0.4-2,0.4-3.1c0.3-3.9,1.6-7,5.4-8.7c2.9-1.3,6.3-1,7.4,1.6
		C23,70,24.9,71,27,72c5.3,1.6,10,4.1,13,9c1.4,0.3,2,1.6,2.9,2.4c2.2,2,6.3,2.2,8.7,0.4c0.4-0.3,0.7-1.3,1.3-0.3c0.2,0.4,0,1,0,1.5
		c-1.1,2.5-4,5.3,1,7c2.6,3.9,4.8,8.1,8.1,11.6c1.7,1.8,3.8,3,5.8,4.3c1.8,1.2,3.6,1.8,2.2,4.4c-0.1,0.1,0.4,0.5,0.5,0.8
		c0.8,2.7,1.8,5.3,2.3,8c0.4,2,1.3,3.9,1.2,6c-0.1,2.301,0.7,4.4,0.9,6.601c0.3,3.5,1.2,6.8,2.2,10.1c1.3,4.2,2.7,8.4,6.5,11.3
		c1.3,1,2.1,2.5,2.4,4c0.8,3.301,2.4,6.301,3.8,9.4c1.3,3,3.7,5.4,4.7,8.5c0.8,2.4,2.6,4.4,4.6,5.4c2.4,1.199,4,3.1,5.9,4.699
		c0.9,1.7,0.4,3.601,1,5.301c1,2.899,2.2,3.199,4,0.699c0.2,0,0.5,0,0.5,0c0.3-0.8-0.2-3.6-0.7-4c-0.3-0.199-1.2-0.3-0.399-0.8
		c1.3-0.899-0.101-2.6,1.3-3.5c0.5-0.3-0.3-0.6-0.7-0.7c-0.6-0.1-1.3,0.301-1.9-0.3c0.5-1.6,2.5-2,2.801-3.7
		c0.6-1.3,0.399-2.699,1-4c0.3-2,2-4,0-6c-0.5,0-1.101-0.199-0.801-0.6c0.601-1,1.5-1.7,2.801-1.4c1.5-2.5-0.4-6.1,3-8.199
		c0.8-0.5-0.7-1.601-2-0.801c-0.801,0-1.5-0.1-2.2,0.601c-0.5,0.6-0.8,1.399-1.8,1.399c-1.101-1.899-2.4-2.5-4.4-1.199
		c-1.9,1.1-3.8,1.8-5.6-0.301c-0.4-0.699-0.5-1.5-0.7-2.3c-0.2-0.6-0.5-1.1-1-1.5c-0.1,0,0.1-0.1,0-0.2c1.6,0.601,3.3,0,3.2-1.699
		c-0.1-2,0.6-4.801-2.6-5.4c-0.3,0-0.5,0.2-0.6,0.5c-0.1,0-0.1-0.2-0.2-0.1c0.2,0,0.3-0.2,0.4-0.301c3.2-3.1,8.3-4.6,8.6-10.199
		c-2.1-2.7-4.9-5.601-8.2-3.9c-2.1,1.1-4.8,3.1-5.6,6.2c-0.1,0.3,0,0.7-0.2,1c0,0.1,0,0.2,0,0.3l-0.3-0.1c0.1,0,0.2-0.101,0.3-0.2
		c0-0.101,0-0.3,0-0.4c-1.6-1.8,0.6-3.3,0.5-5.1c-0.4-6.5,0.4-7.4,6.6-9c1.7-1.5,3.9-2.7,4.8-5c0-0.7,0-1.3,0-2c0.399-1.9-0.7-3-2-4
		c-1.5,0-2-2.6-3.1-1.9c-1.4,1-2.2-0.1-3.3-0.1c-1.3,0-2.8-0.4-4,0.1c-1.5,0.6-2.8-1.9-4.2-0.1c-1.3-2-3.4-2.2-5.8-2.1
		c0.7-0.7,1.2-1.1,1.3-1.5c0.1-0.4,0.5-1.4-0.7-1.2c-2.1,0.3-4.8-0.1-7.5-0.9c-1.4-0.5-2.8-0.6-3.5-2.4c-0.3-0.8-1.3-1.7-2.1-1.9
		c-1.8-0.4-3.3-0.6-4.5-2.6c-0.8-1.4-3.3-1.7-3.7-3.9c-0.2-1-2.1,0-2-1.6c0.1-1-1.1-1.4-1.1-2.6c0-0.8-2,0-1.9-1.6
		c0.1-1.4-1.7-0.6-2.2-2c-0.7-1.8-0.8-3.4-0.8-5.2c0-2-0.5-3.8-2-5.2c-1-0.9-2.3-0.8-3,0.6c-0.6,1.1-1.5,1.7-2.2,2.6
		c-0.5,0.6-1.4,0.6-1.6,0c-0.6-2.1-2.6-3.7-2.2-6.1c0.4-2.4-1.1-3.4-3.1-4c1.2-0.6,2.1-1,3.1-1.5c0.6-1.1,0.3-2-0.5-2.8
		c-4-1.9-8.5,0.5-12.6-1.5c-0.1-0.3-0.2-0.5-0.3-0.8c-0.1,0,0.1-0.3,0.1-0.3c3.4-1.8,6.9-3.3,10.9-2.3c2.8,0.7,5.7,1.2,7.5,3.8
		c0.4,0.2,0.9,0.4,1.3,0.3c0.2-0.1,0.4-0.3,0.6-0.4c0.4-3.2-1.7-4.7-4.1-5.9c-1.4-0.8-2.9-2.7-4.5-1.8c-1.7,1-3.2,0.4-4.7,0.7
		c-3.6,0.7-7-1.5-10.6-1c-3.2,0.4-6.3,1.1-9.6,1.1c-4,0-7.3,1.4-9.8,5.3c-1.5,2.7-2,5.6-2.9,8.5c-2.2,0-4.4,0-6.6,0v4
		c0.3,0,0.6,0,0.9,0C0.4,78,2,77.6,3.6,78.9z"/>
	<path fill="#010101" d="M93.9,141.7l0.3,0.1c0-0.1,0-0.2,0-0.3C94.1,141.6,94,141.7,93.9,141.7z"/>
	<path d="M134.2,70.4c-3.2,0.7-0.101,4.4-2.5,5.4c1.399-3.5,1.2-4.4-2.101-9c-1.3-1.7-5.5-1.5-3.6-5.4c0.8-1.1,2.3-1.3,3.2-2.4
		c1.1-1.1,0.899-2.4,0.2-3.6c-1.7-3.1-0.5-4.8,2.6-5.8c0.8-0.5,1.7-0.7,2.1-1.7c-0.199-2.9-2.1-5.6-4.5-7.1c-1-0.6-1.6-1.5-2.8-0.2
		c-0.6,0.6-1.399,0.6-1.7-0.6c-0.199-0.7-0.6-1.4-1-2.1c-1.399-0.5-3.1-0.6-4-2c-0.8,0-1.8,0.3-2.5-0.1c-1.199-0.6,0.9-1.1,0.2-1.7
		c-0.3-0.3-3.5-0.4-4.1-0.4c-1.601,0.1-3.8,0.8-4.9,0c-2.8-2-4.7-0.2-7,0.8c-1.6,0.7-3.4,1.6-3.6,2.9c-0.5,2.7-3.5,0.6-4,2.7
		c-0.2,0.8-0.9,1.6-1.2,2.5c-0.7,1.7-0.5,3.8-2.2,5.1c-1.3-0.6-2-2.1-3.4-2.8c-0.6,1.8-0.2,3.3,1.1,3.6c1.8,0.5,1.8,1.5,1.7,2.8
		c-0.1,0.8,0,1.7,0,2.5c-0.5,0.6-0.8,1.7-2,1c-1.9,0.5-0.6,2-1,3c-1.2,0.7-1.9,1.6-1.4,3.1c0.4,1.3,0.9,2.3,2.6,1.9
		c0.8-0.2,1,1.2,0.7,1.4c-2,1.4-2.3,4-3.6,5.7c-1.8-0.6-2.4-2.1-3.9-2.5c-1.2-0.3-3-1.2-2.4-3.3c-1.9-1.6-1.2-5.1-4.5-5.5
		c-0.6-2.6-4.4-3.7-4-6.2c0.3-2.6-1.6-4.4-1.4-6.7c-2-0.6-1.1,1.5-2,2c0.2,3.6-0.5,7.2,1.8,10.7c1.2,1.8,3.2,2.9,4.4,6.2
		c-6.6-3.1-12,0.1-17.6-0.2c1.7,0.6,3.4,1.1,4.9,2.2c-0.7,0.7-1.4,1.4-2.1,2.1c-0.2,0.2-0.6,0.2-0.9,0.3c-0.8,0-1.1-1.3-2.1-1
		c-0.5,0.1-0.9,0.4-0.8,1c-0.7,1.2,0.4,1.4,1,2c0.6,0.8,2,4.1,1.8,4.7c0,0.2-0.5,0.2-0.8,0.3c-0.6,0.7-0.6,1.3,0,2
		c2.3-0.3,4.2,0.1,5.7,2.1c0.6,0.8,1.8,1.4,2.5,2.1c2.1,1.9,4.7,2.4,7,3.6c2.9,1.6,5,4.1,7.4,6.3c1.4,1.3,2.1,1.2,4.4-0.1
		c-0.2-0.4-0.4-0.9-0.6-1.3c-0.3-0.4-0.4-1-0.4-1.5c-0.1-0.8-0.2-1.6-0.1-2.4c0.1,0.7,0,1.6,0.1,2.4c0.1,0.5,0.2,1,0.4,1.5
		c0.3,0.4,0.8,0.7,1.5,0.8c2.6,0.2,5.5,1.2,8.1-0.4c1.5,0.5,2.5-1.4,4-1c1.9,0.4,3.4-0.4,4.9-1.6c-0.8-0.7-1.3-1.7-2.5-1.4
		c-1.5,0.4-2.3-0.2-2.7-1.7c-0.2-0.9-1.6-1.1-1.7-2.3c0-0.3,0-0.6,0.1-0.9c0.1-0.3,0.3-0.5,0.5-0.8c0.3-0.4,0.6-0.9,0.7-1.4
		c0.3-1.7,0.7-3.3,1.5-4.9c0.4-2.2,1-4.4,2.6-6.1c0.9,1.6,1.2,3.6,2.6,5.1c0.1,1.3,1,1.3,1.6,0.8c1.2-0.9,2-2.3,3.2-3
		c1.3-0.7,1.899-2.1,3.2-2.8c3.199-6.7,3.199-6.7,8-5c0.199,1.3-2.101,1.4-1.7,2.9c0.899,0.3,1.399,0,1.899-0.6s1.301-0.6,1.7,0.1
		c1.601,2.8,4.101,3.9,6.9,3.8c-1.601,3.5-4.2,6.1-6.9,8.3c-1.899,1.5-3.1,3.5-5.399,5.5c1.6,0,2.199,0,2.899,0
		c0.601,0,1.2-0.2,1.8-0.5c2.101-0.9,3.801-0.9,5.9-0.5c1.9,0.8,3.2-1.2,5-1c0.7-0.3,1.3-0.7,2-1c2.6-2.5,4.3-5.3,3.8-9.1
		C136.2,70.9,135.5,70.4,134.2,70.4z"/>
	<path d="M83.4,90.7c-0.2-0.5-0.3-1-0.4-1.5C83,89.7,83.1,90.3,83.4,90.7z"/>
	<path fill="#F0F0F0" d="M176.1,90.7C176.1,90.6,176.1,90.7,176.1,90.7L176.1,90.7z"/>
	<path fill="#F0F0F0" d="M187.9,112.8c-0.101-0.1-0.101-0.3-0.301-0.3c0.4,0.6-0.1-0.1,0.301,0.4c0.199,0.1,0.3,0.2,0.5,0.3
		C188.2,113.1,188.1,113,187.9,112.8z"/>
	<path fill="#F0F0F0" d="M187.6,101c-0.1-0.3-0.199-0.6-0.399-0.8c0-0.3-0.101-0.6-0.2-0.9c-1.5-4.1-4.7-6.7-8-9.2
		c-0.5-0.7-1-1.5-2-1.6c-0.4,0-0.9,0.2-1.2,0.5c-0.2,0.4-0.2,0.8,0,1.3c0.2,0.3,0.4,0.5,0.5,0.7c-0.1-0.1-0.1-0.1-0.2-0.1
		c0,0-0.1-0.1,0,0c0,0,0-0.1-0.199-0.2c-1.801-2.2-5.5-2-6.5-5.1c-0.5-0.6-1.101-0.8-1.9-0.8c-0.699,0-1.5,0-2.199,0
		c-3.601-0.4-7,0.3-9.801,2.9c-1.699,2.5-5.3,3.2-6.6,5.8c-2.9,6-7.5,7.8-13.7,6.7c-3.601-0.6-5,1-3.8,4.6
		c0.699,1.7,2.699,2,3.5,3.5c5,2.3,10.899,2.6,14.5,7.5c1.199,0.5,2.3,0.4,3.3-0.7c0.601-0.8,0.5-1.9,1.101-2.7
		c0.1-0.1,0.199-0.2,0.399-0.4c0.5-0.3,1-0.4,1.5-0.6c3.2-2.1,5.601-0.4,7.899,1.8c2.4,2,4,4.8,6.101,7c0.601,1.2,3,0.1,3,2.2
		c0,0.9,0.8,1,1.399,0.8c0.801-0.2,0.7-0.9,0.601-1.5c0-0.5,0-1,0-1.4c0-0.4,0.101-0.8,0.2-1.1c0.199-0.3,0.5-0.6,0.8-0.9
		c0.399-1-0.899-2.5,1-3c1.899,0.5,2.5,3.4,5,3c0.2-1.1,0.899-1.8,2-2c2.5-0.1,2.8,2.4,4.3,3.5c1.2,0.9,1.5,3.1,3.7,2.5
		c0.601-0.7,0.601-1.3,0-2c-0.7-1.3-0.899-2.9-2-4c-0.7-0.8-0.8-2-1.601-2.8c-0.199-0.1-0.3-0.2-0.5-0.3
		c-0.399-0.6,0.101,0.1-0.3-0.4c0.101,0,0.101,0.2,0.3,0.3c0.2,0.1,0.4,0.3,0.5,0.4c0.301,0.2,0.7,0.2,1.101,0.1
		c0.2,0,0.399-0.1,0.5-0.1c0.8,0.2,1.399,0.8,2,1.3c2.601,1.3,2.2,6.1,6.399,5.5c0.5-0.6,0.801-1.2,0.801-2
		c-2.601-5.9-6.601-10.9-10.601-15.9C188.2,101.8,188,101.4,187.6,101z"/>
	<path fill="#010101" d="M158,126c-3.3-1.4-2.3-5.2-4.2-7.5c-0.3-0.3-0.7-0.6-1-0.9c-1.2-1-3.1-1.5-2.8-3.6
		c-1.4-1.6-2.9-3.3-4.4-4.8c-1-1-6.399-2.7-7.3-1.8c-1.3,1.3-1.5-0.8-2.3-0.4c-2-0.2-3.6-1.9-5.7-1.3c0.601-0.2,1.3-0.1,1.9-0.5
		c0.399-0.3,0.7-0.7,0.899-1.2c-0.8-1.6-0.399-2.9,1-3c1.801-0.1,4.2-0.7,5.4,0.1c3.3,2.3,5.4-0.4,7.8-1.3
		c1.601-0.6,2.601-2.9,3.7-4.5c0.1-0.1-1.2-1.3-0.2-2.4c0.8-0.9,2.2-0.6,2.5-1c1-1.3,3.2-1.7,3-3.9c0.3-0.9,0-1.4-1-1
		c-4,2.6-7.7,5.6-10.6,9.2c-2.101,2.6-4.5,3-7.4,2.7c-0.6-0.1-1.2,0.1-1.899-0.3c-1.801-1-3.601-1.1-5.4,0.1c-1,0.6-2.2,0.6-3-0.6
		c-1.9-2.8-5.4-2.3-7.9-3.9c-0.3-0.2-0.5-0.3-0.699,0.2c-0.101,0.3-0.2,0.8-0.101,0.9c2.101,2,2.3,4.7,3.2,7.2c0.8,2,1,3.7,0.2,5.5
		c-0.601,1.3-0.9,2.7-0.101,3.7c2.301,2.9,1.601,6.1,1.7,9.3c0.601,0.1,1.601-0.4,1.8,0.4c0.4,2,2.101,2.8,3.2,4.1
		c0.601,0.7,1.2,2,2.3,1.5c1.5-0.7-0.8-1.2-0.399-2.2c0.6-1.4,2.1-1,2.5-0.7c1.1,1,2.5,1.6,3.399,0.5c1.4-1.7,2.601-1,3.9-0.3
		c0.5,0.3,1.2,1.2,1.6,0.7c1.801-2.2,3.2-0.1,4.5,0.4c3,1.2,6.2,1.7,9,3.5c0.601,0.399,2.101,0.3,2.801-0.2
		C158.5,128.2,157.7,126.9,158,126z"/>
	<path fill="#020202" d="M168.5,200c0-0.5-0.1-0.9-0.2-1.4c-0.399-0.8-1.1-1.399-1.6-2.1c-0.4-0.5-0.7-1.1-1.101-1.6
		c-0.199-0.4-0.399-0.7-0.699-1.101c-0.601-0.6-1.101-1.3-1.601-2c-0.7-1.1-1.899-2-1-3.6c0-0.101,0.3,0.1,0.3-0.101
		c0.7,0.601,1.101,1.5,1.601,2.301c0.6,1.1,1.2,2.199,2.7,2.199c0.8-0.199,1.399-0.6,1.1-1.6c-1-2.9-1.1-6-2.9-8.7
		c-1.1-1.6-2.1-2.7-4.1-3.5c-1.8-0.7-4,0.101-5.3-1.6c-0.8-1-1.9-0.9-3-1.2c-2.5-0.8-5.2-0.8-7.5-2.3c-0.9-0.601-1.601-1.2-0.8-2.8
		c1-1.9,2.699-3.5,2.6-5.9c0.4-1.8,1.6-3.8-1-5c-0.3,1.4-0.1,2.8-0.5,4.2c-1.3,4.5-3.8,8.399-5,12.899
		c-1.5,5.301-4.2,9.5-9.1,12.101c-2.2,1.2-2.101,3.8-3.2,5.6c-0.5,0.8,0.6,1.5,1.3,1.9c0.7,0.399,1.1-0.5,1.3-0.9
		c0.7-1.2,1.2-2.5,1.8-3.8c0.801,0.7,1.4,1.4,2.2,2c0.9,0.7,1.4-1.4,2.4-0.5c1.2,1,2.5,0.5,3.8,0.5c1.4,0,2.9,0.5,4.3-0.5
		c1-0.7,1.8,1.3,3.2,0c1.5-1.3,3.8-0.4,5.7,0.1c0.2,0,0.6-0.5,0.7-0.5c0.699,0.7,1.399,1.4,2.1,2.101c2.1,1.8,3.6,4.2,6.2,5.399
		c0.899,0.4,1.899,1.2,2.1,2.601c0.2,1,0.9,1.7,2,1.899c0.4-0.199,0.8-0.5,1.101-0.899C168.6,202.8,168.4,201.4,168.5,200z"/>
	<path fill="#0A0A0A" d="M148,238c0.2,2.7-2,3.9-3.6,4.8c-1.5,0.8-1.801,1-0.801,2.3c0.2,0.2,0.301,0.5,0.4,0.801
		c0.1,0.6-0.2,1-0.7,1c-0.399,0-1.1-0.2-1.2-0.5c-0.199-0.4-0.1-1-0.1-1.5c0.1-1-0.6-1.101-1.3-1c-0.9,0.1-1,1.199-0.601,1.5
		c1.801,1.399-0.199,1.699-0.6,2.6c-0.301-1.9-3-3.5-0.5-5.5c-0.4-3.2,0.9-6.6-0.7-9.7c-0.3-0.5-0.399-1.2-0.2-1.3
		c2.5-1.6-0.699-3-0.1-4.7c0.8-2.5-2.1-2.3-3.2-3.5c-0.2-0.3-1.101-0.399-0.399-1c1.399-1.2,0.399-2-0.4-2.8
		c-1.2-1.1-1.5-2.8-2.8-3.9c-0.8-0.699,0.7-4.3-2.5-1.699c-0.4,0.399-0.601-0.301-0.7-0.801c-0.1-0.6,0.3-1.3-0.4-1.8
		c-2.3-1.899-2.8-4.899-3.5-7.5c-0.3-1-1.1-1.6-1.1-2.5c0-0.899-0.5-1.1-1.2-1.1c-2.3,0.2-4.6-0.601-6.8,0.5c-0.5,0.3-1,0.3-1-0.101
		c-0.3-1.899-3.6-2.6-2-5.399c0.8-1.5-2.3-0.4-1.9-2c-0.6-0.2-0.8,0.399-1.199,0.7c-0.801,0.5-1.7,0.6-1.801-0.5
		c0-1.9-1.699-3.4-1.1-5.5c0.1-0.4-0.3-0.9-1-0.7c0,2.2,0.3,4.399-0.1,6.5c-0.301,1.7,0.6,3.1,1.199,4
		c1.801,2.399,3.9,4.7,6.301,6.3c1.6,1,3,3.3,5.5,2.3c0.6-0.2,0.899,0.4,1.199,0.7c1.301,1.3,3,2.4,3.7,3.9c1.7,3.6,4.5,6.3,7.2,9
		c2.5,2.5,3.7,5.6,3.8,8.899c0,3.101,0.8,6,2.2,8.601c0.9,1.699,1.5,3.699,0.8,5c-1,1.899,0.101,3.3,0.5,4.6c1.4,4,4.8,4.7,7.7,1.6
		c2.5-2.6,4.6-5.399,3.9-9.399C149.4,237.9,148.9,237.8,148,238z"/>
	<path fill="#656565" d="M107.6,133.4c-1.3-0.4-2.5-0.601-3.6-1.4c-0.9-0.7-2.3,0.6-3-0.6c-0.6-1.101,0.4-1.7,1-2.4c0-0.3,0-0.7,0-1
		c0.5-1.1-0.1-1.6-1-2c-2.2-0.5-5.2,1.4-6.6-2c0-0.1-0.8-0.1-0.9,0.1c-0.6,1.2-2.1,0.7-2.8,1.7c-0.4,0.6-1,1.3-0.6,1.7
		c0.5,0.5,0.7,2.2,2.1,0.9c0.9-0.801,0.9,0.5,1.4,0.699c0.3,0.2,0.2,0.301-0.7,0.9c-1.5,1.1-2.8,2.4-5.2,2.2
		c0.7,0.7,1.1,1.1,1.4,1.399c0.5,0.4,1,1.5,0.9,2.2c-0.1,0.8,0.2,1.101,0.9,0.601c1.1-0.7,2-0.801,3.1,0
		c-1.7,0.899-4.2,3.399-5.2,5.199c-0.2,0.4-1.3,0.801-0.2,1.301c0.4,0.199,0.9,0,1.3-0.4c1.7-1.9,1.7-1.9,4-0.6
		c1.4-0.101,1.7-1.801,3.1-2.101c1.5-0.3,1.4-2.2,2.5-3.1c1.4-1.2,1.7-1.101,3.2-0.9c1.6,0.2,0.9,1.5,1.6,2
		c0.8,0.601,2.4-0.7,2.7,1.2c0.5,1.4,1.1,2.7,3,2C112.6,136.7,112,134.6,107.6,133.4z"/>
	<path fill="#1D1D1D" d="M56,130.4c-1.5,0.699-2.8,1.1-3.8,2.8c-1.2,1.899-3.3,3.399-5.7,2.6c-1.6-0.5-3.4-1.5-4.1-3.1
		c-1.3-3.101-2.7-6.3-3.2-9.6c-0.5-3.6-0.3-7.3-0.1-10.9c0.1-1.7,1.8-2.9,1.9-4.7c0-0.2,0-0.3,0-0.5c-2.7,1.8-3.8,4.5-4,7.5
		c-0.2,3.3,0.1,6.7-0.1,10c-0.3,5.1,2.1,9.2,5,12.9c2.4,3,4.8,3.1,8.5,1.699c1.9-0.699,3.5-1.8,5.5-3.3c0,2.601,0,4.9,0,7.2
		c0.3-0.6,1.9-5.8,2-6.4c0.6-2-1-3.699-1-5.6C57,130.4,57,130,56,130.4z"/>
	<path fill="#868686" d="M106,148c0.1-1-0.1-1.9-1-2.5c3.2-1.5,3.5-1.8,5-4.5c-1-0.7-2-1.3-3-2c-0.4,1.4-2.8,1.5-2.1,3.6
		c0,0.101-0.2,0.2-0.301,0.301c-0.8-0.9-1.3-0.801-2.2,0.1c-0.8,0.8-1.2,2.5-1.8,2.7c-2.2,0.5-1.6,2-1.7,3.399c0.5,0,1-0.1,1.5,0
		c0.6,0.2,0.2,0.601,0.1,1c-0.5,1.2-1.8,2.801,1,3c0.4,0,0.5,0.5,0.3,0.7c-0.4,0.4-0.9,1.101-1.4,1.101c-3,0.1-3,0.1-4.4,1.199
		c2.8,0,2.8,0,3,2c0,0.2,0,0.301,0.1,0.5c0,0.301,0,0.7,0,1c0,0.2,0,0.301-0.1,0.5c0.1,3,0.1,2.9,2.3,3c2.8,0.2,5-0.699,6.9-2.699
		c0.7-0.7,1.6-0.4,1.5,0.399c0,0.4-1.3,0.9,0,1.2c0.6,0.2,1.399,0,1.3-1c0-0.7,0-1.3,0-2C105.4,157.4,104.6,155.6,106,148z"/>
	<path fill="#1A1A1A" d="M45.5,169c-1.5,0.2-2.5-0.2-3.4-1.4c-0.6-0.899-1.9-1.399-2.1-2.6c-2.9,1-5.7,1.5-8.8,1.4
		c-1.5,0-4.4-0.801-4.2,2.6c0,0.3,0,0.7,0,1c1.3,1.4,1.1,2.8-0.5,3.6c-1.9,1-3.9,2-5.5-0.6c-0.1-1.5-1.2-0.8-2-1
		c-2.7,0.2-1.1,1.9-1,3c1.2,1,2.6,1,4,1c5.8,0,11.5-0.1,17.3,0c1.2,0,2.4-0.2,3.8,0.5c2.1,1,4.6-0.6,4.8-2.8c0.1-1.4,0-2.9,0-4.3
		C47.1,168.7,46.2,169,45.5,169z"/>
	<path fill="#141414" d="M165,117c1.6-1.8,1.5-2.1-1.8-4.8c-0.5-0.2-1-0.2-1.5-0.1c-0.7,0.3-1.3,0.7-1.5,1.5
		c-0.101,0.3-0.101,0.7,0,1c-0.2-0.2-0.101-0.4-0.2-0.6c-0.1-1.5-0.8-2.4-2.4-2.6c-2.399,1.3-3.199,4.4-5.899,5.5
		c-0.7,0.3-0.4,1.5,0.2,2.2c1.899,1.8,2.1,5.1,5,6c-0.101-1,0.899-1.3,1.199-1c1.5,2,4.5,1.5,5.9,3.6c0.3,0.5,0.9,0.5,1.3,0.3
		c0.5-0.1,0.601-0.7,0.601-1.2c0-2.8,0.3-5.7-1.801-8.1C163.6,118,163.6,117.1,165,117z"/>
	<path fill="#616161" d="M39,163c-0.6,0.1-0.6,0.7-1,1c-1.6,1.4-3.4,1.4-5,0c-3-0.5-6-0.7-8.9-1.8c-2.6-0.9-5.2-0.601-7.1,1.8
		c0.3,0.7,0.8,1.3,1,2.1c0.8,3.601,3.1,5.101,7.2,3.2c0.7-0.3,1.3-0.2,1.9-0.3c0-0.2,0-0.5,0-0.5c1-0.3,10.6-0.8,11.4-0.6
		c0.4,0.1,1.1,0.1,1.3-0.2c0.5-0.5-0.4-0.601-0.5-1c-0.3-0.8-0.5-1.601,0.8-1.7C39.8,164.2,40.5,163.1,39,163z"/>
	<path fill="#D0D0D0" d="M105.6,68c-0.699,0.8-1.5,1-2.6,1c-1,0-1.1-0.6-1-1.3c0.1-0.8,1.2-1.1,1-2.1c-0.3-1-1.8-0.3-1.9-1.1
		c-0.3-2.1-1.1-2.1-2.4-0.8c-0.9,0.9-1.9,1.7-2.8,2.4c0.6,0.9,1.1,0.8,1.6,0.8c0.6,0,0.6-1.4,1.4-0.6c0.5,0.5,0.2,1.2-0.4,1.7
		c-0.5,0.4-1,0.7-1.5,1c-2.4,1.3-2.4,1.5-1.2,4.1c0.3,0.7,0.2,1.3,0.3,1.9c-0.4,0.4-0.5,0.8-0.2,1.3c3.3,3.9,4.2,3.7,6.2-1.3
		c0-0.7,0.3-1,1-1c1.2-0.9,3.7-3.8,4-4.7c0.101-0.3,0-0.7-0.1-0.9C106.6,67.8,105.7,67.8,105.6,68z"/>
	<path fill="#A7A7A7" d="M140,58.5c-0.4,1.5,2.2,2.7,0.5,4.6c-0.7-2.5-3.1-3.7-4.5-5.8c4.9-0.5,5.7-1.5,5-5.7
		c-0.1-0.6-1.1-0.7-1-1.6c-2.7-0.8-4.2,1.1-6,2.6c-0.5,0.9-0.5,1.9-0.5,2.9c0.5,3.1-3.2,5.2-1.9,8.5c0.4,0.8,1,1.3,1.5,2
		c0.7,1.2,0.301,3.1,2,3.8c3.601,0.5,4.601-3,6.801-4.7C143.6,62.1,143.1,60.3,140,58.5z"/>
	<path fill="#E8E8E8" d="M196,108c-0.9-1.4-2.1-2.6-3-4c0-0.7-0.3-1-1-1c-0.9-1.4-2-2.6-3.3-3.7c-1.2-1-2.101-0.7-2.7,0.7
		c-0.3,0-0.7,0-1,0c-0.6,1.1,0.4,1.5,1,2c0,0.7,0.3,1,1,1c4.9,4.1,8.2,9.4,11,15c0,0.7,0,1.3,0,2c0.4,2.9,1.1,5.5,5,5
		c2-4.2-1.9-6.7-3-10C199,112.5,197.4,110.3,196,108z"/>
	<path fill="#EBEBEB" d="M135,48c-1.6,1.5-2.2-0.1-3-1c0-1-0.9-1.3-1.4-1.8c-0.199-0.2-1-0.1-1.3,0.1c-0.3,0.2-0.399,1-0.3,1.3
		c0.7,0.8,1.5,1.6-0.4,1.5c-2.3-0.1-1.3,0.8-0.699,1.7c0.1,0.2,0,0.7-0.101,0.9c-1.5,2.5-1.399,4.7,0.9,6.8
		c0.399,0.3-0.3,0.7-0.8,0.6c1.6,2.4,1.699,2.4,5-0.3c0.399-0.5,0.5-1.2,0.699-1.8c0.101-0.4,0.2-0.7,0.301-1.1
		c0.1-0.4,0.199-0.7,0.3-1c0.2-0.3,0.399-0.5,0.7-0.7c1,0.1,1.8-0.1,2.5-0.9c0.699-0.8,1.3-1.9,2.5-2.1
		C139.1,47.2,136.9,48.2,135,48z"/>
	<path fill="#717171" d="M149.4,226.9c-0.5-0.7,0.1-1.601-0.2-2.5c-0.4-1.101-0.7-2.5-1.3-3.5c-2.4-3.801-4.4-7.601-4-12.301
		c0.1-1.399-1.101-2.3-1.801-3.399c0.2,2.3-1.1,4.7,0.301,6.7c0.8,1.3-0.2,3.1,1.5,3.899c-0.4,1.7,1.899,3.2,0.899,4.5
		c-1.2,1.601,0.3,2.5,0.2,3.7c-0.1,2.4,0.2,2.4,2.9,1.1c0,4.4,0,8.7,0,12.9c0.699,0,1,0.3,1,1c1,0.1,1-0.6,1-1.3c0-1.3,0-2.7,0-4
		s0.5-3-0.101-3.9C149.1,228.8,150,227.8,149.4,226.9z"/>
	<path fill="#818181" d="M94.2,93c-1.7,0-1.2-1.2-1.2-2c-1.3,0.1-0.7-1.3-1.2-1.6c-0.9-0.5-1.3,1-2.4,0.7c-1.7-0.6-3.3,0.4-5.2,1.3
		c0-2.3-1-4.2,0.8-5.8c-2.1-1.4-0.3-3.8-1.4-5.5c-1,0-1.9-0.1-2.9,0c-0.5,0-0.8,0.5-0.7,1.1c0.1,0.3,0.2,0.7,0.4,0.8
		c0.7,0.5,1.7,2.6,1.6,3.3c-0.1,0.6,0.2,1.3-0.5,1.8c-0.9-3.2-0.9-3.2-4.1-1.9c-0.1,0.1-0.2,0.2-0.4,0.3c1.2,0.6,2.2,2,3.3,2.3
		c2.5,0.7,1.5,1.7,0.7,2.9c0.3,0.1,0.6,0.3,0.8,0.4c0.7,0.3,1.4,0.7,2.1,1c0.7,0.3,1.3,0.7,2,1c1.5-1.2,2.2,0,3,1
		c2.1-0.5,3.9,1.5,6,1c0.1,0,0.2-0.1,0.3-0.3c0.1-0.2,0-0.4-0.3-0.7C95.1,93.4,94.7,93,94.2,93z"/>
	<path fill="#3D3D3D" d="M128.5,131c-0.8,1.3-1.8,0.9-2-0.1c-0.3-1.801-2.1-2.301-2.5-3.9c-1.4-0.4-1.8,0.5-2.1,1.5
		c0,0.5,0,1,0.199,1.5c1.2,1.4,1.601,3.7,3.9,4c1-0.1,1,0.6,1,1.3c0,1.9,0.1,3.8,0.1,6.8c1.7-1.699,2.7-2.699,3.601-3.8
		c0.5,0.2,0,0.9,0.2,1.2c0.8,1.3,1.5,1.3,2.8,0.2c0.399-0.3,0.6-0.9,1.2-0.7c0.899-1,0.699-2,0-3C132.7,134.3,130.6,132.7,128.5,131
		z"/>
	<path fill="#0D0D0D" d="M102,75c-0.5,1-1.8-2.9-2,0.3c0,0.3,0,0.7,0,1c-0.1,0.7,0.3,1.7-1,1.7c-1,0-0.9-0.6-1-1.3
		c-0.2-1.2-1.3-0.6-2-0.7c-0.9,0.8-0.5,1.7-0.3,2.6c0,0.4-0.1,0.7-0.3,1.1c-0.2,0.1-0.3,0.2-0.5,0.3c-0.7,0-1,0.3-1,1
		c-0.6,0.7-0.6,1.3,0,2c0.3,0,0.7,0,1,0c1.3-0.3,2.1,0.6,2.9,1.4c1.1,1.1,1.9,1.2,2.1-0.7c0.1-0.8,1-0.8,1.5-0.5
		c0.5,0.3,1,0.9,1.4,1.4c0.5,0.6,1.1,0.7,1.7,0.3c0.6-0.5,0.5-1.1,0-1.7c-0.4-0.3-0.7-0.7-1-1c-0.3-0.3-0.8-0.7-0.1-1
		c0.5-0.2,0.5-1.4,1.4-0.7c0.4,0.3,0.601,0.8,1.2,0.6c0.3-0.1,0.8-0.2,0.8-0.4c0.101-0.4,0-1.3-0.1-1.3
		C104.2,78.8,103.7,76.2,102,75z"/>
	<path fill="#1C1C1C" d="M53.1,163c-0.1-1.8,0.2-3.5-0.4-4.6c-1-1.601-2.4-3.4-4.1-4.101c-1.8-0.7-4.1-0.3-6.2-0.1
		c-0.5,0-1.4,0.8-1.4,1.8c1.5,0,3-0.1,4.4,0c1.5,0.1,3.4,1.9,3.5,3.3c0.1,0.8,0,1.601,0,2.5c0.1,2.7,1.7,4.101,4.1,3.101
		c1.6-0.601,3.2-1.7,2.9-3.9C54.8,161.1,54.4,162.7,53.1,163z"/>
	<path fill="#9F9F9F" d="M122.6,151c-1.1,0.8-1.899,2-3.399,2.4c-0.9,0.3-2,1.3-0.7,2.699c1,1-0.5,1.2-0.9,1.7
		c-0.6,0.8-2.399-0.7-2.699,1.2c0.5,0,1.1-0.2,1.399,0c0.9,0.7,0.3,0.9-0.5,1c-1.399,0.2-1.899,1.7-2.899,2.4
		c2.3,2.1-1,1.199-1.101,2.1c0,0.6-0.1,1.5,0.8,1.5c1.7,0,1.2,1.2,1.2,2c1.4-0.6,2.5-1.6,2.9-3c0.399-1.2-1.101-0.8-1.601-1.2
		c-0.8-0.6,0.2-0.899,0.4-1c1.3-0.8,2.2-1.899,3.1-3.1c0.7-0.9,1.5-2.101,2.5-2.4c1.7-0.5,1.801-1.399,1.7-2.8
		C122.9,153.4,123.2,152.2,122.6,151z"/>
	<path fill="#B0B0B0" d="M176,89c-0.5-0.4-1-0.6-1.5-1C175,88.4,175.5,88.6,176,89c0.3,0,0.7,0,1,0c0.4-0.3,0.9-0.4,1-1
		c-1-3-4.1-1.9-6-3c-0.8,1-2.3-0.1-3,1c-0.5,0-1.1-0.2-1.5,0c-1,0.6,0,1.2,0.4,1.3c2.3,0.8,2.899,3,4,4.7
		c0.399,0.7,0.699,1.1,1.399,0.9c1-0.3,1-1.1,0.3-1.9c-0.3-0.3-0.899-0.6-0.199-1c0.199-0.1,0.8-0.2,0.899-0.1
		c1.8,1.7,3.5,3.4,5.3,5.2c0.7,0.7,1.4,1.5,2.2,0.3C180.1,93.2,177.4,91.7,176,89z"/>
	<path fill="#8F8F8F" d="M16,164.4c0-0.801,0.7-2.2-0.9-2.301c-1.1-0.1-1.7,0.9-2.1,1.7c-0.2,0.601-0.1,1.3-1,1.2
		c0,2.5,1.9,4.1,2.7,6.3c0.6,1.8,1.7,3,3.3,3.7c-0.2-0.8,1.8-1.5,0.1-2.4c-0.1-0.1,0.4-0.6,0.9-0.6c0.1-1-0.2-1.8-1-2.6
		C16.4,168.1,16,166.4,16,164.4z"/>
	<path fill="#CDCDCD" d="M111.7,158.3c-0.4-0.1-0.9-0.3-1.4-0.3c-1.899,0.3-2.2-0.5-2.6-2.3c-0.3-1.3-0.9-2.7-0.7-4.101
		c0.2-1.399-0.5-2.399-1.1-3.6c-0.7,0-1.301,0-2,0c-0.5,0-1.2,0.2-0.8,0.7c1.2,1.399,0.6,2.399,0,3.8c-0.4,1.2,0.9,2.9-0.2,4.6
		c-0.4,0.601,0.8,1.601,1.8,1.9c0.899,0.3,1.5-1.6,2.8-0.1c0.4,0.6,2.2,0.1,3.4,0.1c0.3-0.1,0.699-0.4,0.8-0.3
		C112.4,159,112.4,158.5,111.7,158.3z"/>
	<path fill="#6A6A6A" d="M119,61.3c0.3-0.2-0.1-1.6-0.8-1.2c-2.3,1.3-5.5,0.4-7.101,3.3c-0.5,0.8-1.399,1.4-2.3,2.3
		c2.601,0,2.3,1.7,2.2,3.3c1,0,1.2-1.1,1.9-1.3c2.199-0.9,3.1-4.1,6.1-3.7C118.9,63.1,117.6,62.3,119,61.3z"/>
	<path fill="#3D3D3D" d="M84.5,4.1C84.2,4,83.6,4,83.6,4c-0.4,1.9-2.2,2.9-2.7,4.8c-1.2,4.3-2.9,8.5-5,12.4
		c-1.2,2.2-2.5,4.3-2.9,6.8c-0.1,0-0.2,0.1-0.3,0.3c-0.1,0.2,0,0.4,0.3,0.7c0.6,0.1,0.8-0.3,1-0.8c0.9-2.1,1.7-4.3,2.9-6.3
		c1.3-2.1,1.9-4.5,3-6.7c1.7-3.4,2.7-7.2,4.9-10.4C84.9,4.5,85,4.2,84.5,4.1z"/>
	<path fill="#B3B3B3" d="M110.6,133.1c-1.399,0.2-2.1-2.1-3.399-0.8c-1.4,1.4-2.101-1.2-3.3-0.3c0.4,1.2,1.1,1.7,2.3,2.1
		c2.6,0.7,2.6,0.801,2.6,3.801c0,0.5,0.2,1.1,0.7,1.1c3.3,0.2-0.6,1.5,0.4,2c0.3,0,0.699,0.1,1,0c1.6-0.6,1.5-2.7,2.899-3.5
		c0.2-0.1,0.2-0.8,0.101-0.9C112.6,135.6,113.1,132.7,110.6,133.1z"/>
	<path fill="#4A4A4A" d="M182.6,92c-1.199-0.8-1.8-2.5-3.6-2c2.4,3.3,5.4,6.1,7,10c0.8,0.1,1.4-1.7,2.6-0.1
		c0.801,1.2,1.9,2.5,3.4,3.1c0-0.3,0.1-0.7,0-1C190.9,100.1,184.6,93.3,182.6,92z"/>
	<path fill="#2D2D2D" d="M53,99c-0.2,0.1-0.3,0.3-0.5,0.4c-1.4,0.8-1,2.8-2.5,3.6c-1.1,0-2.3-0.2-3.3,0c-1.8,0.4-3.9,0.7-4.7,3
		c1.3,0.5,2-1,3.1-1c1.3,0,2.7,0.1,4,0c1.6-0.1,2.6,0.6,2.9,2c0.2,0.9,0.6,1.1,1.3,1c0.9-0.1,0.6-1,0.8-1.5
		C55.2,103.8,55.8,101.2,53,99z"/>
	<path fill="#414141" d="M192,122c-0.8,0.1-1.3-0.6-1.5-1c-1.3-3-4-4.6-6.5-7.6c0,1.5,0,2.1,0,2.7c1.2,1.7,2.1,3.9,3.7,4.9
		c2.2,1.3,3.7,3.1,5.3,4.8c1,1,2.3,1.101,3.1,2c0.301,0.3,0.5,0.4,0.7-0.1c0.101-0.3,0.3-0.7,0.101-0.9
		C195.6,124.8,193.7,123.4,192,122z"/>
	<path fill="#797979" d="M52,90.5c-0.4-1.2,1.1-1.5,1-2.5s0-2,0-2.9c-1.4,0.6-2.5,1.6-2.9,2.9c-0.4,1.4-1.5,2.6-2.4,2.8
		c-2.1,0.4-1.6,2.4-2.7,3.3c1.3,1.1,2.7-0.2,4,0c1.7-0.5,3-2.2,5-2C54.1,90.5,52.3,91.4,52,90.5z"/>
	<path fill="#454545" d="M169.9,116.5c-2.101-1.1-3-3.3-4.9-4.5c-0.3-0.3-0.6-0.5-1.1-0.4c-0.601,0.3-0.9,0.8-0.9,1.4
		c0.4,1.5,2,2.1,2.8,3.3c0.3,0.5-0.3,0.7-0.8,0.7c0.3,1.4,1.8,1.8,2.4,2.9c0.899,1.7,1.699,0.1,2.6,0.1
		C170.5,118.8,172.1,117.5,169.9,116.5z"/>
	<path fill="#A7A7A7" d="M168.1,194c-0.5,0.2-0.899,0.4-1.199,0.8c-0.801,1.4-1.101,2.8,0.1,4.2c0,0.3,0,0.7,0,1
		c-0.2,1.3,1.1,2.7,0,4c0,0.3,0,0.7,0,1c3.3,1.8,3-2.6,5-3c1.4-1.9,1.4-4.1,0-6C170.7,195.1,170,193.6,168.1,194z"/>
	<path fill="#D1D1D1" d="M136,72c-1,3-2,6-3,9c1-0.1,1.6-1.3,2.9-1.1c1.199,0.2,1.8-0.8,2.1-1.9c-0.6-1.3,0.5-2,1-3c0-0.3,0-0.7,0-1
		c-0.6-0.7-0.6-1.3,0-2c0-0.7,0-1.3,0-2C136.9,69,135.2,68.8,136,72z"/>
	<path fill="#252525" d="M182,118c-1.7-1.1-3.4-2.2-4-4.4c-0.2-0.7-1.1-0.9-1.6-0.4c-0.9,0.8,0.5,0.8,0.6,1.4c0,0.2,0,0.3,0,0.5
		c2.4,3.6,5.5,6.5,8.3,9.8c1.4,1.7,1.601,1.5,3.601-0.4C185.9,123,183.9,120.6,182,118z"/>
	<path fill="#676767" d="M123,121c-1.4,0.9-1.8,2.2-2.1,3.8c-0.301,1.5-1.2,2.9-0.9,4.5c0.3,2-2.4,2.5-2.3,4.5
		c0,0.3-1.101,0.5-0.3,1c0.3,0.2,1,0.101,1.3-0.1c1.5-0.9,1.2-3.4,3.3-3.8c0.2-0.101,0.3-0.301,0.5-0.4c0.1-0.6,0-1.2,0.5-1.6
		c0.2-0.801-0.5-1.9,1-2C122.5,125.2,123.1,123,123,121z"/>
	<path fill="#4D4D4D" d="M72,28.8c-0.1,2.1-1.2,3.8-1.8,5.7C68.8,38.9,67,43.2,67,48c0.9,0.1,0.9-0.6,1-1.2c0.1-0.5,0.4-0.9,1-0.8
		c0-1-0.3-2.1,0.1-2.9c1.5-3.5,1.9-7.4,3.4-10.9c0.5-1.1,0.4-2.1,0.6-3.2c0-0.3,0-0.7,0-1C72.4,27.9,72,28.3,72,28.8z"/>
	<path fill="#090909" d="M115.7,72.2c-1.101-0.4-3.2,0.9-2.7,1.7c0.8,1.4,0.4,3.1,1.6,4.3c0.9,0.9,1.9,1.7,2.301-0.3
		c0.399-1.8,2.1-0.2,2.8-1.1C119.1,74.4,117.9,72.9,115.7,72.2z"/>
	<path fill="#161616" d="M144,146c-1.9-4.3-5.2-7.4-9-10c0,1,0,2,0,3c0.4,2.3,2.5,2.9,4,4c1.5,1.6,3.1,3,5,4c0.1,0,0.2-0.1,0.3-0.3
		C144.4,146.4,144.2,146.2,144,146z"/>
	<path fill="#6C6C6C" d="M88.7,21.2c-0.1,0-0.2-0.1-0.4-0.1c-0.6,0.9-0.4,1.8-0.1,2.7c1.1,3.1,0.4,5.8-2.3,8.2c0,0.9,1.7,1.7,0,2.6
		c-0.2,0.1,0,0.9,0,1.4c0,0.2,0,0.4,0,0.6c-0.1,0.8,0,1.5,0.6,2.1c0.2,0.1,0.3,0.2,0.5,0.3c1.5-2.2,1.5-2.1,1.1-4.5
		c-0.2-0.9,0-1.8,0.5-2.8c0.9-1.6,0.5-4,1.6-5.3C92.8,23.6,88,23.3,88.7,21.2z"/>
	<path fill="#2A2A2A" d="M200.5,123.9c-0.3-1.7-2.1-2.4-2.5-3.9c-1,0-1.6-0.8-1.8-1.4c-0.8-2.1-2.3-3.5-4.2-4.6
		c-0.1,0-0.2,0.1-0.3,0.3c-0.101,0.2,0,0.4,0.3,0.7c1.7,4,4.5,7.2,7.6,10.1c1.2,1.1,2.301,1.9,3.4-0.1
		C201.9,125.2,200.6,125,200.5,123.9z"/>
	<path fill="#B3B3B3" d="M103.2,131c-1.7,0-1.2-1.2-1.2-2c-0.5,0-1,0.1-1.5,0c-0.5-0.2-0.5-0.7-0.6-1.2c-0.1-0.3-0.2-1.1-1-0.2
		c0,0.9,0,1.801,0,2.801c0,0.6,0.2,1.6-0.6,1.6c-2,0.2-1.5,2.7-3.1,3.2c-0.5,0.2-0.5,0.5,0,0.7c0.3,0.1,0.7,0.3,0.9,0.1
		c0.8-0.5,1.6-1,1.8-2.1c0.2-1.2,1.1-1.2,1.7-0.601c2.4,2.4,2.9-0.8,4.3-1.3C104.1,131.4,103.6,131,103.2,131z"/>
	<path fill="#222222" d="M86.2,27c-0.5-0.1-1.1,0.2-1.1,0.6c0.1,3.3-2.5,5.3-4.1,7.7c-0.7,1.1-1.1,1.9-1,3.3
		c-0.1,0.5-0.1,1.2,0.7,1.4c1.2,0.2,1.4-0.5,1.3-1.5c-0.2-1.4,0.3-2.4,1.4-3.4c0.9-0.9,1-2.3,2.1-3.1c1.2-0.8-0.3-2.9,1.5-3.6
		C87.2,28.3,87.1,27.1,86.2,27z"/>
	<path fill="#828282" d="M147.5,152c-0.8-0.5,0-2.4-1.6-1.9c-2.101,0.601,0.3,1.2,0.199,2c-0.3,2.601-0.1,5.301-0.1,8
		c0.9-0.1,1,0.5,1,1.2c0,1.3,0,2.5,0,3.8c0.6,0.101,1-0.3,1-0.8c0-3.5,0-7,0-10.5C148,153.1,148.1,152.4,147.5,152z"/>
	<path fill="#4D4D4D" d="M51.5,67c0,0-0.3,0-0.5,0c-0.3,0-0.7,0-1,0c-2.3,0.7-5.2-0.6-7,2c0.3,0.7,0.7,1.3,1,2
		c0.9-0.2,1.9,0.4,2.8-0.3c1.6-1.2,3.5-1.1,5-0.2s2.8,0.3,4.2,0.6c-0.3-0.7-0.7-1.3-1-2C53.3,69.3,51.9,69.1,51.5,67z"/>
	<path fill="#323232" d="M171.2,198.1c0.2,2.601-1.8,4.301-2.5,6.5c-0.2,0.801-1.2,0.2-1.8,0.4c0.1,0.9-0.301,1.9,0.3,2.8
		c0.3,0.4,0.6,0.9,1,1c1.1,0.2,0.5-0.8,0.7-1.2c0.199-0.6,1-0.699,1-1.5c0.1-1.6,2.699-2,2-4C171.7,200.7,172.5,199.3,171.2,198.1z"
		/>
	<path fill="#282828" d="M84.1,37.8c0.1,1.6-0.7,2.4-1.7,3.3c-1.8,1.5-1.7,3.7-2.2,5.7c1.3-1,2.2-1.9,3-3.3c0.9-1.5,0.9-3.6,2.8-4.5
		c0.1-0.2,0.3-0.3,0.4-0.5c0-0.9,0.3-1.8-0.4-2.5C84.9,36.2,84,37,84.1,37.8z"/>
	<path fill="#171717" d="M139.5,66c-0.5,1.6-1.3,2.3-3,2c-0.5-0.1-0.7,1.1-1.5,0.9c-0.8-0.4-1.2,0.1-1.5,0.8c0,0.5,0.1,0.9,0.5,1.2
		c0.7,0.3,1.3,0.7,2,1c0-1.1-0.2-2.3,1.6-2c0.5,0.1,0.9,0,1.4,0c0.2-1.2,1.3-1.8,2.1-2.5c0.801-0.7,1.101-1.5,0.9-2.5
		C141,64.9,139.9,65,139.5,66z"/>
	<path fill="#838383" d="M123,130c-0.6,0.1-0.6,0.7-1,1c-0.2,0.9,0.4,2-0.4,2.8c-0.6,0.7-1.1,1.4-0.199,2c0.6,0.4,1.6,0.4,2.3-0.1
		c0.8-0.5,1.1-1.7,2.3-1.8C125,132.7,125.1,130.5,123,130z"/>
	<path fill="#B3B3B3" d="M106,122c-2,0.9-4.1,1.7-5,4c0.3,0.7,0.7,1.3,1,2c1.9-0.8,2.7-2.7,4.3-3.8C107.9,123.2,105.5,122.8,106,122
		z"/>
	<path fill="#555555" d="M86.8,11.6c-1.1-1-0.1-2.7-1.4-3.3c-1.9,4.6,1.8,7.2,3.2,10.8c1.3-1.7,0.1-2.9-0.5-4.1
		C87.4,13.8,87.3,12.1,86.8,11.6z"/>
	<path fill="#CACACA" d="M157,125c-0.9,0.1-0.7-0.7-1-1.2c-1.1-1.8-1.6-4-4-4.8c0.2,3.2,2.9,5.3,3.9,8.2c0.399,1.3,1,0.5,1.1-0.5
		c0.1-0.5,0.4-0.9,1-0.8C158,125.3,157.6,125,157,125z"/>
	<path fill="#6C6C6C" d="M85.9,44.2c-2.8,1.8-2.7,1.9-4,6.2c-0.2,0.8-1.8,1.6-0.5,2.3c1.8,1.1,1.3-1.2,2-1.8
		c0.3-0.3,0.6-0.8,0.6-1.2c-0.2-1.8,0.4-3.1,1.8-4.2C86,45.4,85.9,44.8,85.9,44.2z"/>
	<path fill="#6C6C6C" d="M200,115c0.1,1.2-0.3,2.5,1,3.5c2.1,1.7,2.2,4.1,2,6.5c1.6-0.3,0.8-2,1.7-2.8
		C202.7,120.1,203,116.5,200,115z"/>
	<path fill="#9F9F9F" d="M112,170c0,0.8,0.3,2.1-0.1,2.4c-1.9,1.399-0.5,2.5,0.1,3.6c1.4-0.4,1.8-1.3,2.1-2.7
		C114.5,170.7,114.6,170.7,112,170z"/>
	<path fill="#363636" d="M168,191c0,0.7-0.3,1-1,1c-0.8,1.4-0.2,2.3,1,3c1.5-0.4,2.2,0.7,3.1,1.5c0.801,0.7,0.9,0.1,0.9-0.5
		C172,193.3,169.7,192.3,168,191z"/>
	<path fill="#5C5C5C" d="M166,84c-1.1,0-2.3,0.1-3.4,0c-3-0.2-5.5,1-7.6,3c0.7,0,1,0.3,1,1c2.9-2.5,6.2-3.6,10-3
		C166.6,84.7,166.6,84.3,166,84z"/>
	<path fill="#1B1B1B" d="M49,94c-0.3-1.4-1.1-1.3-1.9-0.6C46.4,94.1,45.7,94,45,94c-0.1,0.6,0.3,0.9,0.7,1c2.8,0.3,4.9,1.5,6.3,4
		c0.3,0.4,0.7,0.4,1,0c0-0.8,0-1.4-0.6-2.2C51.5,95.5,49.7,95.5,49,94z"/>
	<path fill="#5F5F5F" d="M189,109c-0.1,0-0.2,0.1-0.3,0.3c-0.101,0.2,0,0.4,0.3,0.7c-0.4,1,0.9,2.5-1,3c-0.2,1.6,0.4,2.6,2,3
		c0.1-0.6-0.1-1.4,0.3-1.7c0.7-0.6,0.8,0.6,1.3,0.7c0.101,0,0.301,0,0.5,0c0-0.3,0-0.7,0-1C190.9,112.4,190.6,110.2,189,109z"/>
	<path fill="#525252" d="M181.6,123.2c-2.6-0.5-3.3-3.4-5.6-4.2c-0.7-0.6-1.3-0.6-2,0c0,0.7,0.3,1,1,1c1.7,0.7,2.6,2.3,3.9,3.4
		c0.5,0.4,0.899,1,1.399,1.3c0.101,0.1,0.7-0.3,1-0.6C181.6,123.9,182.4,123.3,181.6,123.2z"/>
	<path fill="#090909" d="M98.2,93.4c-1,1-2.1,0.5-3.2,0.6c0,0.3,0,0.7,0,1c0.1,0.3,0.2,0.8,0.4,0.8c2.5,0.8,4.3-0.3,5.5-2.5
		C100,92.8,98.9,92.7,98.2,93.4z"/>
	<path fill="#5C5C5C" d="M135.6,49c-0.5,0-0.899-0.4-0.699-1c-0.301,0-0.7,0-1,0c-0.7-0.3-1.301-0.7-2-1c-0.101,2.3,1.399,3.3,3.3,4
		c0.6,0.2,1.399,0.2,1.7-0.5C137.1,49.6,136.9,48.9,135.6,49z"/>
	<path fill="#9F9F9F" d="M112,176c-1.3,0.2-1.7,1.4-2.6,2.1c-0.7,0.601,0,0.801,0.3,0.9c0.7,0.1,1.3,0.1,1.3,1c0.2,0,0.4,0.1,0.5,0
		c0.5-1.1,2.1-0.6,2.5-1.6C114.6,176.5,111.6,177.6,112,176z"/>
	<path fill="#565656" d="M196,108c0.1,3.1,2.4,4.8,4,7C200.1,111.8,198.1,109.8,196,108z"/>
	<path fill="#727272" d="M120,36c0.1,3.6,0.5,3.8,3.5,2c0.1-0.1,0.3,0,0.5,0C123.4,35.8,121.6,35.9,120,36z"/>
	<path fill="#1A1A1A" d="M54,149.5c-1-0.6-1.1-1.5-1-2.5c-0.6,0.1-1.3-0.3-1.8,0.3c-0.4,0.601-0.3,1.2,0.2,1.601c1.2,1,2,2.5,3.5,3
		C55.1,151,55,150.1,54,149.5z"/>
	<path fill="#6C6C6C" d="M87,39c-0.3-0.7-0.7-0.7-1,0c-0.4,1.6,0.6,3,1.1,4.4c0.3,1.1,0.9,0.1,1.2-0.2c0.7-0.5,1.1-1.1,0.4-2
		C88.1,40.5,87.1,40.1,87,39z"/>
	<path fill="#3D3D3D" d="M136.9,141c-1.5,0-0.2-2.3-1.9-2c0.2,1.1-0.2,1.9-1,2.6c-0.1,0.101-0.1,1.801,0.6,1.101
		c1.801-1.9,2.9,1.1,4.301,0.3C138.6,141.9,138.1,141,136.9,141z"/>
	<path fill="#B8B8B8" d="M129.9,80.5c-1.801,0.2-2.4,2.1-3.9,2.5c0.1,1.5,1.2,0.8,2,1c0.9-0.8,2.1-1.3,3-2
		C130.7,80.1,130.7,80.4,129.9,80.5z"/>
	<path fill="#212121" d="M82.6,25.9c-0.9,0.9-1.8,1.6-2.4,2.5c-0.4,0.5-0.3,1.3,0.4,1.6c0.4,0.2,1.3,0.2,1.2-0.3
		C81.6,28.3,83.6,27.8,82.6,25.9z"/>
	<path fill="#292929" d="M79.6,31.2c-0.4-0.1-0.9,0-1.3,0c0.3,1.4-2,2.1-1,3.9c0.9-0.9,1.8-1.7,2.6-2.6
		C80.2,32.2,80.2,31.4,79.6,31.2z"/>
	<path fill="#1C1C1C" d="M56,161c1.4-2.1,1.4-4.9,0-7C56,156.3,56,158.7,56,161z"/>
	<path fill="#565656" d="M193,104c-0.2,2.2,1.4,3.1,3,4C196.1,105.8,194.6,104.9,193,104z"/>
	<path fill="#B3B3B3" d="M104,116c0.7,1.3,1.3,2.7,2,4c0.9,0.1,1.3-0.8,0.9-1.2C106.1,117.8,106.4,115.4,104,116z"/>
	<path fill="#979797" d="M54.1,76.8C53.9,79.1,56,77.6,57,78c0-0.7,0-1.3,0-2C56,76.3,54.2,75.2,54.1,76.8z"/>
	<path fill="#232323" d="M76,40c-1.6,0.1-0.8,1.4-1,2.2c0,0.1,0.1,0.3,0.3,0.9c0.3-0.3,0.4-0.3,0.5-0.4c0.6-0.7,1.7-1.2,1-2.3
		C76.7,40.2,76.3,40,76,40z"/>
	<path fill="#979797" d="M77.1,46c-0.7,0-1.2,0.2-1.1,1.1c0.1,0.6-0.3,1.7,0.3,1.7c0.8,0,1.6-0.8,1.7-1.8
		C78.1,46.3,77.7,46.1,77.1,46z"/>
	<path fill="#5C5C5C" d="M170.1,84.7c-0.6-0.8-1.399-0.7-2.199-0.7c-0.7,0.3-0.7,0.7,0,1c0.699,0,1,0.3,1,1c1-0.4,2.5,0.9,3-1
		C171.4,84.9,170.6,85.3,170.1,84.7z"/>
	<path fill="#A2A2A2" d="M90,55c0-0.3,0-0.7,0-1c-0.7,0.3-1.3,0.7-2,1c0.1,0.7-0.5,1.8,0.8,2C90.4,57.2,89.9,55.9,90,55z"/>
	<path fill="#414141" d="M190,116c-0.1,1.7,0.7,3,2,4C192.1,118.3,192.1,116.6,190,116z"/>
	<path fill="#1A1A1A" d="M38,160.2c0,1.3,0,2.5,0,3.8c0.7,0,1-0.3,1-1c0-1.3,0-2.7,0-4C38.1,158.9,38,159.5,38,160.2z"/>
	<path fill="#1F1F1F" d="M175,117.3c-0.2-0.4-0.3-0.8-0.4-1.2c-0.5,0.2-0.6,0.6-0.6,1.1c0,0.6,0,1.3,0,1.9c0.7,0,1.3,0,2,0
		c0-0.3,0-0.7,0-1C175.4,118.1,175.1,117.7,175,117.3z"/>
	<path fill="#A7A7A7" d="M137.1,76.4C136.7,77.1,136.7,78,137.9,78c0.1-1.1,1.5-1.7,1-3C138,75,137.6,75.8,137.1,76.4z"/>
	<path fill="#3B3B3B" d="M111.1,87.7c0,0,0.5,0.3,0.801,0.3c1-0.1,1.5-0.8,1.8-1.7c0,0-0.5-0.2-0.8-0.3
		C112.1,86.2,111.5,86.8,111.1,87.7z"/>
	<path fill="#090909" d="M88.2,92.1c-0.7-0.1-2-0.7-2.2,0.9c1.3-0.5,1.9,0.9,3,1C88.9,93.3,89.5,92.2,88.2,92.1z"/>
	<path fill="#3E3E3E" d="M128,84c1.6,0.2,2.6-0.4,3-2C129.4,81.8,128.4,82.4,128,84z"/>
	<path fill="#414141" d="M192.7,120.3c-0.2-0.2-0.5-0.2-0.8-0.3c0,0.7,0,1.3,0,2c0.6-0.1,1.399,0.4,1.8-0.3
		C194.1,121,193.1,120.8,192.7,120.3z"/>
	<path fill="#808080" d="M178,88c-0.7,0-1,0.3-1,1c0.7,0.3,1.3,0.7,2,1C178.7,89.2,179.5,88.1,178,88z"/>
	<path fill="#898989" d="M136,195.8c-0.1,0.7,0.1,1.2,1,1.2c0.3-0.1,0.6-0.2,0.8-0.3c-0.5-0.5-0.899-1.101-1.399-1.601
		C136.2,195.3,136.1,195.5,136,195.8z"/>
	<path fill="#A7A7A7" d="M138,72.8c-0.1,0.7,0,1.3,1,1.2c0-0.7,0-1.3,0-2C138.4,71.9,138.1,72.3,138,72.8z"/>
	<path fill="#141414" d="M56,143c-1.5,0.1-0.8,1.2-1,2C56.5,144.9,55.8,143.8,56,143z"/>
	<path fill="#828282" d="M144,146c0,0.3,0,0.7,0,1c-0.1,0.5,0.1,0.9,0.6,0.8c0.101,0,0.301-0.5,0.4-0.7
		C145,146.4,144.7,145.9,144,146z"/>
	<path fill="#747474" d="M73.3,53.2c-0.2,0-0.3,0.5-0.3,0.8c-0.1,0.5,0.1,0.9,0.6,0.8c0.2,0,0.2-0.5,0.3-0.8
		C74,53.5,73.9,53.1,73.3,53.2z"/>
	<path fill="#B0B0B0" d="M166,85c0.7,0,1.3,0,2,0c0-0.3,0-0.7,0-1c-0.7,0-1.3,0-2,0C166,84.3,166,84.7,166,85z"/>
	<path fill="#141414" d="M55,152c0.2,0.8-0.5,1.9,1,2C55.8,153.2,56.5,152.1,55,152z"/>
	<path fill="#1A1A1A" d="M40,157c-1.5,0.1-0.8,1.2-1,2C40.5,158.9,39.8,157.8,40,157z"/>
	<path fill="#A8A8A8" d="M32.2,163c-2.4-0.6-4.7-1.1-6.7-2.8c-1.3-1.101-3.5-2.3-5.6-0.601c-1.4-0.6-2.6,0.601-3.9,0.4
		c0.9,1.2,1.1,2.6,1,4c2.1,0,4.3,0,6.4,0c0.6,1.6,1.9-0.4,2.9,0.6c0.8,0.9,2.2,0.2,3.2,0.4c1.3,0.2,2.1-1.5,3.5-1
		C33.1,163.4,32.7,163.1,32.2,163z"/>
	<path fill="#5A5A5A" d="M36.2,74c-2.1,0-4.2-0.5-5.5-2c-1.5-1.8-2.5-0.5-3.7,0c1.3,1.8,3.7,1.8,5.1,3.6c2,2.5,5.2,3.6,7.2,6.2
		c0.3,0.4,0.7-0.3,0.6-0.8c0.5-1.7-0.9-2.9-1-4.5C38.9,74.7,37.9,74,36.2,74z"/>
	<path fill="#818181" d="M53,99c-0.3,0-0.7,0-1,0c-2.6,0.2-2.6,0.2-4.7,2.8c0.8,0.7,2.5-0.7,2.7,1.2c0.1,1.2,0.9,1.2,1.7,0.8
		C53.7,102.7,52.9,100.7,53,99z"/>
	<path fill="#F3F3F3" d="M29,170c-0.6,0.1-1.3,0-2,0c-1.1,4-2.5,4.7-6,3c-0.2,0-0.5,0-0.5,0c-0.1-0.7-0.7-0.3-0.4,0.3
		c0.4,0.9,0.9,1.601,1.9,1.601c1.3,0.1,2.6,0,3.9,0c1.9-0.101,4.1-2.4,4-4.301C29.9,170.2,29.5,169.9,29,170z"/>
	<path fill="#727272" d="M-2,161v0.6c0.9-0.1,1.9-0.3,2.8-0.6C-0.1,161-1.1,161-2,161z"/>
	<path fill="#FBFBFB" d="M50,67c-3.5-4-8.2-2.4-12.5-2.5c-3.2,0.3-6.7-1.6-9.5,1.5c0.1,3,0.1,3,2.7,3c4.1,0,8.2,0,12.3,0
		c2.2,0,4.5,0.1,6.7,0C52.9,68.8,49,67.5,50,67z"/>
	<path fill="#3E3E3E" d="M36.5,61c-0.7,0-1.4-0.1-1.5,0.8c-0.1,1.2-0.5,1.5-1.3,0.4c-0.9-1.3-2.2-1.3-3.5-1.2
		c-0.5,0-0.9,0.1-1.2,0.5c0.9,1,0.9,1,1.5,2.6c-2.4-0.3-3.9-2.6-6.3-2.9c0.8,1.1,1.4,2.3,2.8,2.8c0.6,0.5,0.4,1.5,1,2
		c1.8,0.2,3.8-2.1,5.3,0.7c0.1,0.1,1.6-0.6,2.4,0.3c0.1,0.1,0.7,0,0.9-0.2c0.2-0.2,0.2-0.5,0.4-0.8c2.2-1.1,7.3,0.6,5-5
		C40.2,61,38.3,61,36.5,61z"/>
	<path fill="#666666" d="M49.7,65.1c-2-2.5-4.6-3.8-7.7-4.1c-0.1,0.3-0.2,0.8-0.3,0.8c-1.6,0.1-1.8,0.6-0.7,1.9
		c0.3,0.4,0.1,1.3-0.8,1.3c-1,0.1-1.9-0.1-2.6-0.9c-0.3-0.4-1.3-0.2-1.5,0.6c-0.1,0.7,0,1.3,1,1.3c1.3-0.3,2.7,1.5,4,0
		c1.5,1.6,3.5-0.4,4.4,0.2c1.6,1.1,3.1,0.5,4.6,0.8C49.9,66.4,50.2,65.8,49.7,65.1z"/>
	<path fill="#8D8D8D" d="M78.9,118.7c0.7,2.5,2.9,3.2,4.6,4.1c1.3,0.7,2.1-1.1,3.6-1.7C83.7,122.5,81.7,119.6,78.9,118.7z"/>
	<path fill="#626262" d="M95,152.9c3.8-0.301,3.8-0.301,4-3.9c-0.7,0-1.3,0-2,0C97.6,150.8,95.6,151.4,95,152.9z"/>
	<path fill="#7A7A7A" d="M76.5,112.1c-0.2-0.2-1,0-1.3,0.2c-0.2,0.3-0.1,0.8-0.1,1.3c2,0,2.6,2.9,5.3,2.3
		C79,114.5,77.8,113.3,76.5,112.1z"/>
	<path fill="#626262" d="M96.7,147.2c-0.3-0.2-1-0.2-1.3,0c-1.3,0.899-1.4,2.399-2.3,3.6c2.3,0.7,2.5-1.8,4-1.8
		C96.9,148.4,97.3,147.6,96.7,147.2z"/>
	<path fill="#8C8C8C" d="M85.5,118.1c-1.9,0.3-2.9-1-4.1-2.1c-0.3-0.2-0.9,0-1.5,0c0.8,2.5,3.2,2.7,5.1,3.6c0.7,0.3,0.9,0,0.9-0.3
		C86,118.9,85.6,118.1,85.5,118.1z"/>
	<path fill="#525252" d="M92,122c-1.1,0.5-2.1,1.4-3.5,1c-0.1,0-0.5,0.8-0.5,1.2c0,0.5,0.3,0.9,1.4,0.7c0.8-0.5,1.9-1.2,3-1.9
		c0.2-0.1,0.2-0.4,0.3-0.7C92.5,122.2,92.2,121.9,92,122z"/>
	<path fill="#868686" d="M95.9,143.9C95.7,144,95.8,144,95.9,143.9L95.9,143.9z"/>
	<path fill="#868686" d="M97,141.5c-0.6,0.6-1.3,1.1-1,2c0.1,0.3,0,0.4-0.1,0.4c0,0,0,0,0.1,0c0.7,0,1.4-0.7,2.1-0.9
		c0.6-0.2,1.3,0.3,1.8-0.4c-0.2-0.199-0.3-0.5-0.5-0.699C98.7,141.2,98.1,140.4,97,141.5z"/>
	<path fill="#535353" d="M97.8,167.4c-0.2-0.601-0.9-0.5-1.3-0.301c-1.8,0.9,0.9,2-0.1,3c-0.5,0.5-0.4,0.801,0.1,1
		c0.3,0.101,0.7,0.101,0.9,0c0.7-0.399,0.4-1.1,0.5-2C98,168.6,98,167.9,97.8,167.4z"/>
	<path fill="#656565" d="M87.5,137c-0.3-0.1-0.9-0.1-0.9,0c-0.3,2-2,2-3.4,2.5c1.3,0.5,2.6,0.9,3.6,0.1c0.5-0.399,0.3-1.5,1-2
		C87.8,137.6,87.6,137.1,87.5,137z"/>
	<path fill="#555555" d="M83.5,125c-0.1,0-0.2,0.2-0.4,0.3c0,0.1,0,0.2,0,0.3c0.6,1.5,2.6,1.1,3.4,2.3c0.1-0.101,0.3-0.2,0.3-0.301
		c0.1-0.3,0.2-0.8,0.1-0.899C86,125.9,84.9,125.1,83.5,125z"/>
	<path fill="#989898" d="M91,145c1.4-0.6,2.4-1.6,3-3C91.8,142.2,91.2,142.8,91,145z"/>
	<path fill="#818181" d="M95.5,144c-0.6,0-1.3-0.1-1.5,0.7c-0.1,0.6-0.1,1.3,0.8,1.3c0.7,0,1.2-0.2,1.1-1.1
		C95.8,144.7,96.5,143.9,95.5,144z"/>
	<path fill="#767676" d="M0.2,76.4c0,1.2,1.1,0.5,1.8,0.6c0.5,0.1,0.8-0.1,0.9-0.6C2.4,75.9,2,75.5,1.5,75C1,75.5,0.2,75.9,0.2,76.4
		z"/>
	<path fill="#686868" d="M77.7,117.2c-0.5-0.4-0.6,0.2-0.7,0.7c-0.1,0.8,0.3,1.1,1.2,1.1c0.1,0,0.7,0,0.7,0
		C79.1,118.1,78.2,117.7,77.7,117.2z"/>
	<path fill="#C0C0C0" d="M90,120c-0.6,0.1-1.4-0.4-1.8,0.4c-0.2,0.5,0.4,0.7,0.9,0.6s1.3,0.4,1.7-0.4C91,120.1,90.4,119.9,90,120z"
		/>
	<path fill="#898989" d="M78,132c-0.1,0.9,0.5,1.1,1.2,1c0.3,0,0.5-0.3,0.9-0.5c-0.6-0.5-1.2-0.9-1.7-1.3
		C78.2,131.4,78,131.7,78,132z"/>
	<path fill="#7D7D7D" d="M90.5,145c-0.8,0-1.6,0-1.5,1.1c0,0.301,0.2,0.5,0.4,0.801c0.6-0.5,1.1-0.9,1.6-1.301
		C91.2,145,91,144.9,90.5,145z"/>
	<path fill="#868686" d="M94.2,157.3c-0.4,0.5,0.2,0.601,0.7,0.7c0.8,0.1,1.1-0.3,1.1-1.2c0-0.1,0-0.7,0-0.7
		C95.1,155.9,94.7,156.8,94.2,157.3z"/>
	<path fill="#939393" d="M97.3,159.7c0.1,0.6,1.1,0.2,1.7,0.3c0.6-0.7,0.6-1.3,0-2C98,158.2,97.2,158.8,97.3,159.7z"/>
	<path fill="#CBCBCB" d="M27,64c0.2,0.8-0.5,1.9,1,2C27.8,65.2,28.5,64.1,27,64z"/>
	<path fill="#555555" d="M78.5,124c-0.1,0-0.4,0.5-0.3,0.6c0.3,0.6,0.8,0.4,1.3,0.3c0.1,0,0.3-0.4,0.4-0.6
		C79.5,123.7,79,124,78.5,124z"/>
	<path fill="#8B8B8B" d="M103.6,118.2c-0.4-0.1-0.9-0.1-1.3,0c-0.5,0.1-0.5,0.5,0,0.6c0.4,0.1,0.9,0.1,1.1,0.1
		C104.1,118.6,104.1,118.3,103.6,118.2z"/>
	<path fill="#F5F5F5" d="M135.6,59.2c-1.1-0.9-0.5-2.1-0.6-3.2c-0.6-0.6-0.8-1.7-2-1c-0.7,0-1,0.3-1,1c-1.1,4.5-4.3,4.7-8,4
		c-1.6,3.5-1.3,5.4,0.8,7.3c1.4,1.2,2.8,0.4,4.2,0.7c0.9,0.5,1.7,0.3,2.6-0.1c0.601-0.3,1.301-0.5,1.801-1c0.3-0.4,0.5-0.8,0.5-1.2
		c0-0.7-0.301-1.3-0.9-1.7c0-1.3,0-2.5,0-4c0.5,0.3,0.8,0.3,1,0.5c0.5,0.5,1.1,0.7,1.7,0.3C136.2,60.4,136.1,59.7,135.6,59.2z"/>
	<path fill="#A1A1A1" d="M134,71c0-0.3,0-0.7,0-1c-0.3-0.2-0.4-0.5-0.5-0.9c-0.1-0.3-0.1-0.7-0.2-1c-0.1-0.3-0.3-0.6-0.6-0.9
		c-0.601-0.4-1.3-0.7-1.7-1.3c-0.6-0.1-0.9,0.3-1,0.8c-0.1,0.7-0.1,1.3-1,1.2c1.5,1,0,3.9,2.7,4.4c0.399,0.1,1,2.2-0.601,2.6
		c-1.1,0.3-1.5,1.1-2.3,1.7s-1.5,1.3-2.1,2.1c-0.5,0.6-1.601,1-1.601,2c0.9,0.4,1.301-0.1,1.9-0.3c1.2-0.5,1.7-1.7,2.5-2.3
		s2.2-1,3.2-1.6c1.3-0.7,1.899-2.2,0.8-3.3C132.2,72.1,134.4,71.8,134,71z"/>
	<path fill="#727272" d="M122.4,41.8c-0.5-0.4-0.9-1-1.4-1.4c-1.2-0.8-3.6-0.8-3.9,0.2c-0.8,2.7-3.8,3.7-4.899,6.1
		c1.6,0.6,2.8,0.3,3.5-1c0.5-1,0.7-2.3,1.8-2.7c2.1-0.8,1.2,1.8,2.3,2.3c0.601,0.2,1.101,0.9,1.7,0.5c1-0.7-0.3-0.9-0.4-1.4
		c-0.199-0.9-0.1-1.6,1.101-1.6c0.6,0,1.3,0.2,1.8-0.4C123.6,41.8,122.7,42.2,122.4,41.8z"/>
	<path fill="#999999" d="M129.9,58.6c-1,0.4-1.7,0.8-1.9-0.6c-2.5,1.3-2.6,1.3-4-1c-0.4-0.6-0.3-1.3-1.1-0.5
		c-0.301,0.3-1.5,0.7-0.5,1.3c0.8,0.6,0,2.2,1.5,2.1c0.3,0.1,0.699,0.2,0.8,0.4c0.399,0.6-0.101,1.8,1.2,1.6
		c1.3-0.2,3.199,0.7,3.699-0.4c0.7-1.8,3.2-3,2.2-5.6C130.4,56.1,131.1,58.1,129.9,58.6z"/>
	<path fill="#6D6D6D" d="M96,76c0-0.3,0-0.7,0-1c-1.5,1.8-1.6,1.9-1,5c1.1,0.5,1.6-0.1,2-1C96.9,77.9,95.5,77.3,96,76z"/>
	<path fill="#6D6D6D" d="M91,80.5c1,0.8,1.6,2,3,2.5c0-0.7,0-1.3,0-2C92.9,81.2,92.5,78.9,91,80.5z"/>
	<path fill="#969696" d="M88,58c-0.3,0.1-1-0.5-1,0.5c0,0.8,0,1.6,1.2,1.5c0.5,0,0.8-0.3,0.9-1.2C89,58.5,88.8,57.9,88,58z"/>
	<path fill="#CACACA" d="M159.7,107.3c-0.3-0.4-0.4-0.1-0.7,0c-1.5,0.7-1.6,0.7-2.1-0.3c-0.5-1.3-1.101-2.3-3-1.8
		c0.699,1.3,1.399,2.4,1.899,3.6c0.2,0.6,0,1.3-1,1.3c-0.7-0.1-1.3-0.7-2,0c-1,0.8-0.399,1.9-0.3,2.8v0.5c-0.2,0.3-0.4,0.5-0.7,0.6
		c-0.1,0.5,0,1.2-0.899,0.6c-0.301-0.2-0.7-0.4-1.101-0.6c-0.3,1.5-1.7,1.3-1.899,0.5c-0.301-1.8-1.9-2.2-2.9-4
		c0,3.3,1.2,6.5,2.2,6.4c2.3-0.4,2.899,1.7,4.6,2.2c0.101-0.6-0.399-1.5,0.4-1.8c0.7-0.3,1.6-0.3,2.3,0c1.1,0.4,1.2,1.8,1.8,2.7
		c0.4,0.6,1.101,1.6,1.9,1.1c1.3-0.8-0.3-1.1-0.601-1.6c-1.1-1.9-1.1-5.1,0.2-7.3c1.4,0.1,1.101,2.6,3,2c0-0.7,0.3-1,1-1
		c0.4-0.8,1.4-0.4,2-1c0.3,0,0.7,0,1,0C164.2,109.3,161.1,109.3,159.7,107.3z"/>
	<path fill="#ABABAB" d="M165,104c-1.8-0.9-2.9-2.5-4-4c-0.1-0.7,0.5-1.7-0.8-2c-0.3-0.1-0.7,0-0.9,0.2c-0.5,0.5-0.5,1.2,0.101,1.7
		c0.699,0.6,0.899,1.3,0.1,2.1c-0.9-1.2-2.8-1.8-2.5-3.9c0.1-0.8-0.4-1.3-1.1-1.1c-1.9,0.6,0.199,1,0.199,1.5
		c-0.1,0.5,0.101,1-0.399,1.3c-1.2,0.9-0.5,2.1-0.601,3.2c-0.1,1,1,1.2,1.301,0.8c1.8-2,3.1-0.5,3.8,0.8c0.899,1.6,2.5,2.1,3.5,3.4
		c0.8,1,1.8,1,2.7,0.7c1.199-0.4,0.6-1.7,0.6-2.6C167.1,105,166.1,104.4,165,104z"/>
	<path fill="#929292" d="M136,108c0.1-0.3,0-0.7,0-1c0.2-1.3,0-2.3-1.7-2c-0.7,0.1-1.3,0-1.3-1c-0.9,0.1-1.7,1.5-2.7-0.1
		c-0.399-0.6,0.3-1.7-1-1.8c-0.899,1.1,0.2,2.6-0.8,3.8c-1.2-1.1-2.3-2.9-4.8-1.4c1.2,0.4,2.3,0.6,2.8,1.5c1.2,1.9,2.7,1.6,4.1,0.6
		c0.601-0.4,0.801-0.6,1.5,0c0.9,0.8,0.5,1.2-0.199,1.8c-0.7,0.6-1.7,1.2-0.601,2.5c1-1,2.101-2,3.101-2.9c0.8,0.5,0.199,2.8,2,1.8
		C137.6,109.2,135.5,108.9,136,108z"/>
	<path fill="#8E8E8E" d="M179.4,103c-0.5,0-1-0.1-1.5,0c-1.5,0.3-1.601-0.8-2.2-1.7c-0.9-1.3-0.9-2.3,0-3.4c0.7-0.9-0.4-1.1-0.7-1.4
		c-0.9-0.9-0.7,0.2-0.9,0.7c-0.399,0.9-0.899,1.7-2,1.9c2.2,2.7,4.2,5.4,4.101,9.1c0,0.5,0.7,1,1.1,1.5c0.601,0.7,0.8,0,0.9-0.3
		c0.2-3.2,1.5,0.7,2-0.3c0.1,0,0.2-0.1,0.3-0.3c0.1-0.2,0-0.4-0.3-0.7c-0.3-1.7-2.3-2.1-2.9-3.7c0.601-0.5,1.2-0.6,1.7,0
		c0.6,0.7,1.3,1.1,2,0.2c0.2-0.2,0.2-0.6,0.1-0.9C180.6,102.8,180,103,179.4,103z"/>
	<path fill="#181818" d="M187.6,102.2c-0.399-0.4-0.699,0.3-0.699,0.8c0.3,1.9,2.1,2.8,3.1,4.1c2.8,3.5,4.7,7.6,7.9,10.9
		c1-2.5-1.301-3.9-2.2-5.4C193.6,108.8,190.9,105.2,187.6,102.2z"/>
	<path fill="#838383" d="M169.5,99c-1.8,0-2.4-1.6-3.4-2.5c-1.399-1.2-2.8-2.4-5.699-2.6c1.899,1.8,1.899,3.7,3.1,5.1
		c0.3,0.3,0.5,1.5,1.3,0.6c1.3-1.3,1.9-0.2,2.8,0.5c0.301,0.3,0.7,0.7,1.101,0.9c0.5,0.2,1.2-0.1,1.2-0.5
		C169.9,100,170.6,99,169.5,99z"/>
	<path fill="#838383" d="M167.1,101.6c-0.399-0.3-0.699-0.8-1-0.1c-0.199,0.4-0.199,0.9,0.301,1.3c2,1.9,3.6,4.1,6.699,5.2
		c0-1,0.101-1.4-0.3-1.9C171.1,104.3,169,103.1,167.1,101.6z"/>
	<path fill="#3D3D3D" d="M153,110c-1.2-0.3-1.9-1-2-2.3c-0.1-0.8-0.9-0.9-1.5-0.6c-0.6,0.3-0.7,1.1-0.2,1.6c1.4,1.5,3.5,2.7,2.7,5.3
		c1,0.7,2,1.3,3,2c0.6-0.7,0.6-1.3,0-2C152.7,113.4,152.9,111.7,153,110z"/>
	<path fill="#5F5F5F" d="M187.6,111.1c-1.6-1.6-3.399-3-3.699-5.4c-0.101-0.9-0.9-0.9-1.5-0.6c-0.7,0.3-0.7,1.1-0.2,1.6
		c1.899,1.9,2.8,4.7,5.8,6.5C187.9,112.4,188.2,111.7,187.6,111.1z"/>
	<path fill="#8E8E8E" d="M168,90.4c-0.4-0.2,0.3-1.9-1.1-0.8c-0.601,0.5-1.4,1.2-0.801,2c1,1.5,2.7,2,3.9,2.4c0.7,0,1,0,1,0
		c0-0.5,0.2-1.1,0-1.5C170.4,91.4,169,91.1,168,90.4z"/>
	<path fill="#343434" d="M181.4,98c-0.301-0.2-1-0.3-1.301,0.3c-0.1,0.4-0.1,1.2,0,1.3c2.101,0.5,3.5,2.5,5.801,2.4
		c-0.301-0.7-0.7-1.3-1-2C183.1,100.4,182.6,98.8,181.4,98z"/>
	<path fill="#5B5B5B" d="M161,100c-0.1,2.6,2.1,3.5,3.7,4.8c0.1-0.3,0.2-0.5,0.3-0.8C164,102.3,162.6,101,161,100z"/>
	<path fill="#262626" d="M180,108c0,0.3,0,0.7,0,1c-0.2,0.6,0.4,0.9,0.7,1.2c0.3,0.2,0.5,1,1,0.5c0.3-0.2,0.3-1.1,0.1-1.3
		C181.2,108.9,181,108,180,108z"/>
	<path fill="#2D2D2D" d="M188.2,107.8c-0.3-0.2-0.5-1-1-0.5c-0.3,0.2-0.3,1.1-0.101,1.3c0.601,0.5,0.9,1.5,1.9,1.4c0-0.3,0-0.7,0-1
		C189.1,108.4,188.6,108.1,188.2,107.8z"/>
	<path fill="#3D3D3D" d="M153.2,108.3c-0.601,0.1-0.2,1.1-0.3,1.7c0.399,0.2,0.8,0.4,1.1,0.6c0.9,0.6,0.8-0.1,0.9-0.6
		C154.7,109,154.1,108.2,153.2,108.3z"/>
	<path fill="#646464" d="M170.2,97.3c-0.601,0.1-0.2,1.1-0.3,1.7c0.699,0,1.3,0,2,0C171.7,98,171.1,97.2,170.2,97.3z"/>
	<path fill="#8E8E8E" d="M171.5,94c-0.5,0-0.7,0.1-0.4,0.5c0.4,0.5,1.101,1,1.601,1.4c0.1-0.3,0.3-0.5,0.399-0.8
		C173.1,93.9,172.2,94,171.5,94z"/>
	<path fill="#767676" d="M175,93.5c-0.1,0.6-0.1,1.4,0.7,1.4c0.399,0,0.8-0.3,1.2-0.5c-0.5-0.4-0.9-0.9-1.4-1.3
		C175.4,93.3,175.1,93.4,175,93.5z"/>
	<path fill="#838383" d="M174.4,109.2c-0.601,0.3-0.4,0.8-0.301,1.3c0,0.1,0.4,0.3,0.601,0.4c0.7-0.3,0.399-0.9,0.399-1.3
		C175,109.4,174.5,109.1,174.4,109.2z"/>
	<path fill="#585858" d="M165,185.7c0.1-0.4-0.4-0.8-1-0.7c-0.2,0-0.3,0-0.5-0.1c-0.3-0.101-0.7,0-1,0c-0.2,0-0.3,0-0.5,0.1
		c-1.9-0.7-1.8,1.7-2.6,1.9c-2.801,0.5-1.4,2-0.9,3.1c0.4,0.8,1.5,1.1,1.5,2.4c0,1.8,2-1.801,2,0.6c3.7,1.1,2.5-2.8,4-4
		C165.6,187.9,164.6,187.1,165,185.7z"/>
	<path fill="#9D9D9D" d="M164.1,194.6C164,194.7,164,194.9,163.9,195l0,0C164.1,194.9,164.1,194.8,164.1,194.6L164.1,194.6z"/>
	<path fill="#9D9D9D" d="M166,189c-1.1,0.3-1.8,1-2.1,2.2c-0.2,0.899-0.9,1.6-1.9,1.8c-0.3,1.6,0.4,2.3,2.2,1.6l0,0
		c0.1-0.199,0.1-0.199,0-0.1c0.1-0.1,0.1-0.2,0.2-0.3c0,0,0,0-0.2,0.3v0.1c-0.101,0.301-0.101,0.4-0.3,0.4c-1.5,2.6-1.4,2.8,1,3
		c1.399-0.6,2.199-1.8,3-3c0.5-1.3-0.9-1.9-1-3C165.1,191.5,166.4,190,166,189z"/>
	<path fill="#9D9D9D" d="M164.2,194.5L164.2,194.5C164.2,194.6,164.2,194.6,164.2,194.5C164.1,194.6,164.1,194.6,164.2,194.5
		C164.2,194.6,164.2,194.6,164.2,194.5z"/>
	<path fill="#535353" d="M155.6,182.2c-0.5-0.4-0.8,1.2-1.8,0.3c-0.899-1-1.6,0.6-1.6,0.9c-0.2,2-1.9,2.399-3.2,3.199
		c0.3,0.2,0.5,0.301,0.8,0.5c2.101,0.9,2.601,0.7,3.101-1.199c0.199-0.601-0.101-1.301,0.6-1.801c0.5,1.7,0.8,3.601,2,5
		c1-1.699,0.1-3.199-0.2-4.8C155.2,183.7,156.5,182.9,155.6,182.2z"/>
	<path fill="#323232" d="M167.7,199.7c-0.2,0.2-0.5,0.2-0.8,0.3c-1.4,0.3-1.301,1.1-0.601,1.9c0.7,0.699,0.5,1.399,0.601,2.1l2-4.2
		c-0.2-0.3-0.301-0.5-0.5-0.8C168.2,199.2,168.1,199.5,167.7,199.7z"/>
	<path fill="#6C6C6C" d="M146.4,180.9c-0.301-0.301-0.601-0.601-0.9-0.801c-0.6,0.4-0.6,0.9-0.4,1.301
		c0.301,0.899-0.899,2.399,1,2.6c0.301,0,0.601,0,1,0C146.7,183,147.5,181.8,146.4,180.9z"/>
	<path fill="#6B6B6B" d="M162,181.6c0,1.101,0,2.301,0,3.4c0.7,0.6,1.3,0.6,2,0c0.3-1.6-1-2.6-1.4-4.1
		C162.1,181.3,162,181.4,162,181.6z"/>
	<path fill="#323232" d="M165,198c0.7,0.3,1.3,0.7,2,1c0.1-0.6-0.3-1.4,0.3-1.8c0.8-0.601,0.7-1.4,0.7-2.2
		C166.6,195.6,165.6,196.6,165,198z"/>
	<path fill="#535353" d="M151,181.6c-1.3,1.101-0.9,2-1,2.7c0,0.2,0.3,0.7,0.5,0.7c0.9,0.2,0.4-0.6,0.4-0.9
		C151.1,183.5,151,182.9,151,181.6z"/>
	<path fill="#C1C1C1" d="M147,184.5c0.1,0.5-0.2,1.2,0.6,1.4c0.101,0,0.301-0.5,0.5-0.9c-0.199-0.3-0.3-0.8-0.6-1
		C147.1,183.8,146.9,184,147,184.5z"/>
	<path fill="#D2D2D2" d="M53.2,134.3c-2.2,2.601-5.1,3-8.3,2.9c1.9,1.1,3.9,1.1,6,0.3c1.2-0.5,2.4-0.9,3-2.1c0.1-0.2,0-0.7-0.1-0.9
		C53.7,134,53.5,134,53.2,134.3z"/>
	<path fill="#F0F0F0" d="M44.3,136c-0.4,0-0.8,0.2-1.2,0.4c0.2,0.5,0.5,0.699,1,0.6c0.2-0.2,1,0.5,0.9-0.4
		C44.9,136.3,44.5,136,44.3,136z"/>
	<path fill="#010101" d="M100.8,157.7c-0.6,0.5-1.2,0.2-1.8,0.3c0,0.7,0,1.3,0,2c1.5,0.3,2.4-0.5,3-1.8c0.1-0.2,0-0.7-0.2-0.9
		C101.2,156.6,101.1,157.5,100.8,157.7z"/>
	<path fill="#525252" d="M45.4,170.7c-4.8-0.3-9.6-0.3-14.4,0.3c0.1,3,0.1,3,2.3,3c4.3,0.1,7.4-0.5,11.2-2c0.1-0.1,0.3,0,0.5,0
		c0.5,0,1,0.1,1-0.6C46,171.1,45.7,170.7,45.4,170.7z"/>
	<path fill="#F5F5F5" d="M35.3,170c-1.1,0-2.1,0.2-3.3-0.4c-1.9-1-0.5,1-1,1.4c0.7,0.3,1.6,1.1,2,0.9c3.7-1.9,7.7-0.5,11.5-0.9
		c0.4,0,1.2,0.1,1.3,0.3c0.3,0.601-0.3,0.7-0.8,0.7c0.2,0.9,0.8,1.5,1.8,1.9c0.3-1.4,0.4-2.601-0.1-3.9C42.8,170,39.1,170,35.3,170z
		"/>
	<path fill="#F0F0F0" d="M159,111.4c-0.9-0.4-0.9,0-1,0.6c1.1,2.3,2.2,6.4,2.2,8.3c0,0.7,0.3,0.7,0.8,0.7c1.3,0,1.6,1.8,3.6,2
		c-1.3-3.4-2.399-6.2-3.5-9C159.2,113.9,160.1,112,159,111.4z"/>
	<path fill="#F0F0F0" d="M162.1,110.6c-0.399-0.2-0.699-0.8-1-0.1c-0.1,0.3-0.1,0.7,0,1c0.2,0.6,1.101,0.8,1,1.6c0.301,0,0.7,0,1,0
		c0.7,0,1-0.3,1-1C163,112,162.7,111,162.1,110.6z"/>
	<path fill="#EEEEEE" d="M137.1,62.3c-0.8,0.5-1.1,1.7-2.199,1.7c-1,0.3-1.4,1.3-2,2c-0.5,0.6-1.7,0.8-1,2c0,0.3,0,0.7,0,1
		c0.399,0.3,0.399,0.9,1,1c0.3,0,0.699,0,1,0c0-0.7,0.3-1,1-1c0.5-1.9,1.6-3.6,3.399-5c0.601-0.5,0.8-1,0.5-1.6
		S137.7,61.8,137.1,62.3z"/>
	<path fill="#0D0D0D" d="M132.6,53.3c-0.1,0.2,0,0.4,0.301,0.7c0,0.3,0,0.7,0,1c0.699,0.3,1.3,0.7,2,1c0-1,0-2,0-3
		c-0.7,0-1.301,0-2,0C132.9,53,132.7,53.1,132.6,53.3z"/>
	<path fill="#474747" d="M134.1,63.4c-0.3,0.2-0.699,0.4-1.1,0.6c0,0.7,0,1.3,0,2c1.1-0.2,1.8-0.9,2-2
		C134.9,63.5,135,62.8,134.1,63.4z"/>
	<path fill="#999999" d="M132.1,52c-0.8,0.1-2.3-0.6-2.199,1c0.1,2.2,1.199-0.7,1.8,0.2c0.2,0.4,0.5,0.9,1.2,0.7c0-0.3,0-0.7,0-1
		C133.1,52.4,132.6,52,132.1,52z"/>
	<path fill="#FEFEFE" d="M122,131c0.7,0,1-0.3,1-1c0-0.3,0-0.7,0-1C121.5,129.1,122.1,130.2,122,131z"/>
	<path fill="#DFDFDF" d="M99.1,80c-0.7-0.1-1.4-0.6-2.1-1c-0.7,0.3-1.3,0.7-2,1c0.3,2.1,2.9,0,3.5,1.9c0.1,0.4,1.3,0.3,1.5-0.5
		C100.1,80.7,100,80.1,99.1,80z"/>
	<path fill="#F0F0F0" d="M174.1,87c-0.199-0.1-0.6,0.1-0.899,0.2c-0.3,0.2-0.101,0.4,0.2,0.7c0.699,0.8,1.5,1.2,2.6,1
		C175.7,88,175.1,87.4,174.1,87z"/>
	<path fill="#FEFEFE" d="M86,36c0,1,0,2,0,3c0.3,0,0.7,0,1,0C86.6,38,87.9,36.5,86,36z"/>
	<path fill="#474747" d="M132,68c0.3-0.7,0.7-1.3,1-2c-0.7,0-1.3,0-2,0C131.1,66.8,130.5,67.9,132,68z"/>
	<path d="M132,69c0,0.3,0,0.7,0,1s0.1,0.8,0.3,0.8C132.9,71,133,70.5,133,70C133,69.3,132.6,69,132,69z"/>
	<path fill="#F0F0F0" d="M156,112.9c0.1-0.2-0.2-0.5-0.4-0.8c-0.199,0.2-0.6,0.3-0.6,0.5c-0.1,0.5,0,0.9,0,1.4c0,0.7,0,1.3,0,2
		C156.9,115.5,155.6,113.9,156,112.9z"/>
	<path fill="#020202" d="M162.2,186.8c0.7,0.3,0.899-0.6,1.3-1c0.2-0.2,0.2-0.5,0.3-0.8c-0.7,0-1.3,0-2,0
		C162.1,185.6,161.6,186.4,162.2,186.8z"/>
	<path fill="#020202" d="M164,194.1c0,0.301-0.1,0.9,0,0.9c0.5,0.2,0.9-0.2,1-0.7c0.1-0.399-0.2-0.8-0.3-1.2
		C164.1,193.2,164,193.6,164,194.1z"/>
</g>
</svg>
