<?xml version="1.0" encoding="utf-8"?>
<svg version="1.2" baseProfile="tiny" id="Layer_1" xmlns="http://www.w3.org/2000/svg" xmlns:xlink="http://www.w3.org/1999/xlink"
	 preserveAspectRatio="none" x="0px" y="0px" width="420px" height="36px" viewBox="0 -7.5 420 36" xml:space="preserve">
<g>
	<path d="M404.67,21.939c-0.021-1.14,0.189-9.229,0.159-10.37c-0.21-9.31,0.351-9.03,0.171-19.03c0-0.01,0-0.02,0-0.03h-13
		c0,4.84-0.721,6.91-0.641,11.521c0.05,2.939,0.68,5.979,0.96,8.93c0.17,1.81-0.38,3.1-2.55,3.22c-5.23,0.29-10.46,1.08-15.69,1.04
		c-15.989-0.11-31.979-0.7-47.97-0.729c-13.26-0.021-26.5,0.69-39.76,0.72c-6.54,0.02-13.07-1.03-19.62-1.14
		c-12.56-0.22-25.12-0.13-37.68-0.15c-34.07-0.04-68.14-0.1-102.21-0.08C90.03,15.86,53.21,15.96,16.4,16.03
		c-1.14,0-2.29,0.03-3.43,0.01c-4.78-0.09-4.52-0.08-4.31-5.27C8.8,7.4,7.76,3.79,7.75,0.4C7.73-3.16,8-3.52,8-7.5H5v2.02
		C4.99,2.41,5.16,6.19,5.24,14.04c0.02,1.9,0.14,8.38,1.13,10.33c0.989,1.95,2.46,4.13,4.88,4.13s383.289,0,387.64,0
		C403.24,28.5,404.72,24.62,404.67,21.939z"/>
	<path fill="#C5C5C5" d="M363.449,24.48c-0.8-0.34-1.6-0.98-2.42-0.98c-4.859-0.03-11.41,3.311-12.63-3.53
		c-5.74-0.31-11.479-0.64-17.22-0.86c-0.26-0.01-1.04,1.101-0.82,1.421c2.47,3.52-1.6,2.95-4.01,3.54
		c-0.72,0.17-1.23,0.779-1.84,1.189c0.529,0.16,1.05,0.381,1.6,0.471c2.13,0.35,6.45,0.069,8.59,0.029
		c10.29-0.229,18.44,0.26,28.721-0.08c0.25,0,0.489-0.13,0.72-0.38C364.38,25.02,364.159,24.75,363.449,24.48z"/>
	<path fill="#939393" d="M82.41,21.49c-0.301,0.16-0.881,0.01-1.33,0c0.27-4.29-3.24-2.33-5.771-2c-1.47,1.439-2.74,2.91-1.359,4.8
		c3.06-0.04,6.109-0.04,9.17-0.14c0.909-0.03,3.13,1.229,2.29-0.931C85.09,22.391,85.72,19.75,82.41,21.49z"/>
	<path fill="#8C8C8C" d="M309.11,20.83c-14.96-0.24-29.939-0.43-44.93-0.54c-1.35-0.01-2.76,0.64-4.1,0.979
		c1.34,0.49,2.63,1.381,4.069,1.4c7.94,0.141,15.91,0.07,23.891,0.07c0,0.05,0,0.109,0,0.16c6.529,0,13.1,0.069,19.63-0.051
		c1.47-0.029,2.85-0.729,4.26-1.119C310.97,21.42,310.07,20.85,309.11,20.83z"/>
	<path fill="#C5C5C5" d="M64.07,19.38c-2.63,0.04-5.239,0.261-7.85,0.4c1.74,0.54,3.66,1.01,5.14,1.67
		c0.641,0.28,0.03,1.08,0.62,1.44c0.94,0.56,2.41,0.949,3.641,1.409c-0.271-0.59-0.66-1.18-0.78-1.78
		c-0.101-0.439,0.12-0.899,0.2-1.35c0.939,0.16,2.27,0.2,2.75,0.51c1.25,0.811,2.12,1.74,3.149,2.62
		c1.04-0.96,2.38-1.88,3.021-2.899c0.35-0.561-0.44-1.271-0.73-1.91C70.17,19.45,67.11,19.33,64.07,19.38z"/>
	<path fill="#898989" d="M382.82,22.99c-3.89,0.41-7.85-2.65-11.649,0.24c0.01,0.39,0.01,0.789-0.021,1.18
		c3.83,0.029,7.66,0.13,11.48,0.05c1.979-0.04,3.96-0.42,5.95-0.649C386.65,23.51,384.69,22.79,382.82,22.99z"/>
	<path fill="#C8C8C8" d="M376.909,19.391c-3.659,0.06-7.319,0.239-10.979,0.449c-0.48,0.03-0.94,0.391-1.41,0.61
		c0.37,0.489,0.71,1.36,1.12,1.39c1.77,0.16,3.569,0.07,5.36,0.07c0-0.051,0-0.1,0-0.16c2.029,0,4.069,0.07,6.09-0.05
		c0.43-0.03,0.81-0.74,1.22-1.14C377.84,20.141,377.369,19.38,376.909,19.391z"/>
	<path fill="#E4E4E4" d="M401.81-3.31c-0.33,2.13-3.06,5.5-2.33,12.51c0.021,0.22,0.021,0.45,0.03,0.67
		c-0.141,0.03-0.28,0.05-0.431,0.08c0.431,2.24,0.86,4.47,1.29,6.71c0.45-2.26,0.9-4.52,1.351-6.79c0.04-0.22,0.18-0.45,0.14-0.64
		C401.409,7.08,402.28-1.17,401.81-3.31z"/>
	<path d="M15-7.5v0.65c0.02,4,0.09,4.17,0.13,8.12c0.07,8-1.73,7.76,8,7.49C43,8.22,62.85,10.17,82.73,8.83
		c8.71-0.58,17.5-0.21,26.25-0.22C149.45,8.6,189.93,8.6,230.4,8.6c0,0.17,1.521-0.1,1.521,0.07c26.97,0,52.42,0.38,79.39,0.45
		c22,0.06,44,0.26,66,0.38c1.34,0.01,2.67-0.25,4.02-0.31c2.811-0.13,3.63-1.52,3.62-4.15C384.94,1.26,384.98-3.29,385-7.5H15z"/>
</g>
</svg>
