<?xml version="1.0" encoding="utf-8"?>
<!-- Generator: Adobe Illustrator 16.0.0, SVG Export Plug-In . SVG Version: 6.00 Build 0)  -->
<!DOCTYPE svg PUBLIC "-//W3C//DTD SVG 1.1//EN" "http://www.w3.org/Graphics/SVG/1.1/DTD/svg11.dtd">
<svg version="1.1" id="Layer_1" xmlns="http://www.w3.org/2000/svg" xmlns:xlink="http://www.w3.org/1999/xlink" x="0px" y="0px"
	 width="420px" height="74px" viewBox="0 0 420 74" enable-background="new 0 0 420 74" xml:space="preserve">
<g>
	<path fill="#1F1F1F" d="M418.89,19.35C418.388,5.443,393.865,6.764,398.909,0C332.21,0,265.51,0,198.811,0
		c-44.126,0-88.251,0-132.377,0C62.605,0,4.839-3.306,7.303,5.32C7.298,5.317,7.295,5.313,7.29,5.31
		c-14.103,9.66,1.571,28.643,12.729,31.512c18.969,4.877,31.795-16.83,50.035-18.786c21.439-2.298,32.864,9.593,47.735,22.362
		c18.573,15.948,33.457,18.891,57.4,18.682c0.001-0.004,0-0.007,0.001-0.011c1.792,0,11.66-5.083,13.43-3.409
		c4.135,3.881,11.483,3.433,11.119,10.96c-0.166,3.449,6.598,7.813,9.563,5.868c5.692-3.732,1.202-11.65,8.881-13.473
		c7.519-1.783,10.094-4.461,18.106-1.086c16.146,6.806,36.45-0.419,49.938-9.918c20.849-14.682,61.199-46.682,85.04-16
		c4.253,5.474,5.437,11.781,13.212,13.291c6.312,1.225,8.76-5.067,15.079-5.322C412.253,39.42,419.35,31.994,418.89,19.35
		C418.61,11.58,419.329,31.43,418.89,19.35z"/>
	<path d="M176.27,41.42c2.73,0.67,5.49,0.77,8.25,0.439C181.73,41.96,178.94,41.98,176.27,41.42z"/>
	<path d="M167.72,36.49c1.21,1.544,2.67,2.69,4.38,3.439C170.482,38.971,169.022,37.824,167.72,36.49
		C168.54,37.689,168.02,36.77,167.72,36.49z"/>
	<path fill="#5E5E5E" d="M180.68,50.98c-2.469-3.691-18.741-9.632-19.65-2.141c-1.165,9.639,17.517,9.209,22.561,7.69
		C181.62,55.21,184.29,51.45,180.68,50.98C176.76,45.12,184.29,51.45,180.68,50.98z"/>
	<path fill="#FEFEFE" d="M49.98,10.07c1.891-0.46,3.74-1.14,5.71-1.1C53.71,8.91,51.85,9.52,49.98,10.07z"/>
	<path fill="#FEFEFE" d="M197.71,30.93c-7.13-2.377-13.408,17.006-25.34,6.61c-4.249-3.688-2.741-7.662-3.771-12.6
		c-4.278-1.759-4.698,3.872-5.439,6.43c-2.624-3.013-5.353-6.028-8.45-8.57c-5.727-4.672-2.087,18.621-1.33,17.07
		c-2.419-0.75-4.872-1.369-7.358-1.857c-3.348-1.76-0.739-6.824-5.062-6.503c-8-7.264-9.026-14.13-19.87-19.62
		c-0.663,5.249-0.682,6.675-0.14,11.2c-10.323-9.076-12.498-23.956-31.03-19.42c3.83,3.77,9.556,5.067,11.25,10.41
		c-5.067-0.966-9.022-5.275-13.495-7.835C80.344,2.049,74.811,6.565,68.5,4.17c-7.565-2.944-23.604-5.196-23.54,5.39
		c1.667,2.857,10.043-0.838,11.93-0.47c-12.21-2.079-12.681,8.635-18.72,15.96C29.582,35.481,3.938,27.614,13.2,14.36
		c2.073,3.349,3.04,6.309,7.76,5.27c4.41-0.96,6.49-7.4,3.68-11.46c-3.87-5.6-8.96-6.25-16.62-2.11
		C1.707,20.575,9.766,34.625,26.849,34.068c8.379-0.272,12.256-5.265,18.543-9.811c9.081-6.566,20.295-10.392,31.538-9.919
		c18.222,0.767,33.883,11.17,46.2,23.902c14.553,15.063,29.15,18.511,49.32,19.51c-1.267-9.022-6.141-3.298-10.061-8.76
		c4.19-2.095,14.335-1.04,18.29,1.96c-2.532-8.305-16.224-4.665-17.2-14.33c0.028,0.012,21.18,10.954,20.001,6.68
		c-0.56,1.309-0.933,2.671-1.119,4.088c6.146,7.755,17.123-8.732,17.487-13.688C199.92,32.8,198.66,31.25,197.71,30.93
		C196.72,30.6,198.66,31.25,197.71,30.93z"/>
	<path fill="#FDFDFD" d="M300.93,8.84c-0.141,0.33-0.16,0.75-0.271,1.11C300.789,9.59,300.92,9.22,300.93,8.84z"/>
	<path fill="#FDFDFD" d="M299.76,5.6c0.04,0.05,0.08,0.09,0.13,0.14C299.84,5.69,299.8,5.65,299.76,5.6z"/>
	<path fill="#FDFDFD" d="M185.72,14.18c-3.333-1.871-4.983-4.724-4.95-8.56c-3.257-4.096-10.334-2.183-14.544-2.183
		c-0.768,0-19.258-0.113-18.756,0.882c5.865,12.235,12.525,1.418,10.785,13.942c-1.114,8.018,5.515,9.703,10.335,6.678
		c6.935-0.665,1.615,5.389,5.45,7.86c2.79,1.8,6,1.03,8.97-0.18C185.854,31.463,190.923,16.789,185.72,14.18
		C182.4,12.52,189.27,15.96,185.72,14.18z"/>
	<path fill="#E8E8E8" d="M207.09,45.359c-1.398-4.696-1.08-9.147-2.82-13.829c-3.205,9.995-4.894,13.944-10.71,22.6
		c2.214-3.29,8.966,12.66,9.851,14.17c1.239,2.101,3.26,1.54,4.789-0.59c1.866-3.438,1.953-6.919,0.261-10.44
		c-1.098-3.511,4.141-0.537,4.419-3.229C213.14,51.523,207.82,47.806,207.09,45.359C206.2,42.37,207.71,47.439,207.09,45.359z"/>
	<path fill="#FCFCFC" d="M136.88,3c-8.372-0.19-18.255-1.307-26.5,0.16c3.515,6.521,19.928,10.59,26.58,14.78
		C143.59,16.829,142.603,3.135,136.88,3C128.5,2.81,140.27,3.08,136.88,3z"/>
	<path fill="#FBFBFB" d="M33.52,4.46c-9.376,0-9.553,21.069-1.21,19.57c5.819-1.048,11.86-10.715,9.561-16.271
		C40.34,4.07,37.06,4.07,33.52,4.46C32.84,4.46,37.06,4.07,33.52,4.46z"/>
	<path fill="#F2F2F2" d="M384.18,22.85c-5.222-5.632-11.666-15.833-20.29-13.9c3.673,6.345,11.234,8.417,14.575,15.451
		c3.494,7.356,7.475,14.116,17.915,12.489c2.5-2.13,3.689-4.51,1.359-7.52C392.06,29.66,387.85,26.8,384.18,22.85
		C381.26,19.7,387.85,26.8,384.18,22.85z"/>
	<path fill="#F3F3F3" d="M231.68,5.42c-8.861-6.577-20.285,1.391-18.09,11.22c4.507-2.681,11.905-10.887,16.26-4.02
		c-2.139-0.274-4.466-2.462-6.02,0.06C218.759,20.915,245.226,15.511,231.68,5.42C228.07,2.74,234.15,7.26,231.68,5.42z"/>
	<path fill="#D2D2D2" d="M399.38,10.76c-4.962,1.529-6.159,12.432-0.061,13.1c4.437,0.493,5.893-5.136,8.58-6.94
		c0.75,1.754,1.298,7.057,3.84,6.66C420.663,22.181,409.991,7.481,399.38,10.76C395.55,11.94,406.079,8.69,399.38,10.76z"/>
	<path fill="#E9E9E9" d="M219.17,20.96c-6.918-0.15-13.471,1.557-20.28-0.54c-5.916-2.367-14.824-2.404-14.01,5.65
		c4.412,2.967,39.073,4.742,38.37-2.51C223.04,21.18,221.08,20.99,219.17,20.96C218.72,20.95,221.08,20.99,219.17,20.96z"/>
	<path fill="#F8F8F8" d="M286.36,2.99c-2.604,0.335-10.59-0.01-12.622,1.87c-3.324,3.076,1.231,9.414-4.968,10.7
		c-0.569,4.25,1.34,5.86,5.45,5.16c3.609-7.173,12.123-11.019,19.47-15.18C292.36,1.51,288.41,4.95,286.36,2.99
		C283.25,3.39,288.41,4.95,286.36,2.99z"/>
	<path fill="#909090" d="M154.16,13.71c-5.791,3.441-9.375-1.265-13.511,1.97c-1.881,2.914,0.194,12.617,3.11,14.51
		c3.186-1.399,12.341-13.494,12.08-16.8C155.27,13.5,154.61,13.44,154.16,13.71C152.41,14.75,154.61,13.44,154.16,13.71z"/>
	<path fill="#F5F5F5" d="M192.47,5.31c-5.56-2.51-6.33-2.4-10.64,1.59c-0.441,0.902-3.092,12.28,2.8,9.04
		c4.823-2.641,10.058,4.386,13.16,0.9C198.63,11.53,196.64,7.19,192.47,5.31C186.91,2.8,196.64,7.19,192.47,5.31z"/>
	<path fill="#E5E5E5" d="M268.42,13.55c4.249-2.833,0.854-11.68-6.54-2.27l0.01-0.22c-8.436,8.43,5.372,14.529,12.32,9.68
		C270.491,19.296,268.562,16.899,268.42,13.55C270.55,12.13,268.19,13.7,268.42,13.55z"/>
	<path fill="#FCFCFC" d="M392.74,5.24c-5.453-1.999-4.752-0.18-8.66,3.239c0-6.472-9.782-5.356-14.37-3.54
		c3.229,5.068,9.179,8.573,14.4,11.2c0-0.003,0-0.006,0-0.01c0.151,0.132,18.944,7.387,8.12,3.18
		C393.211,15.076,397.725,7.076,392.74,5.24C388.1,3.54,395.59,6.29,392.74,5.24z"/>
	<path fill="#CCCCCC" d="M402.949,28.74c-2.775,1.591-7.796,2.799-10.939,2.62c5.441,6.068,13.287,8.863,19.68,0.56
		C410.199,26.97,406.11,29.14,402.949,28.74C401.31,29.68,406.11,29.14,402.949,28.74z"/>
	<path fill="#E0E0E0" d="M217.81,20.84l0.19-0.12C217.858,20.705,217.794,20.745,217.81,20.84z"/>
	<path fill="#E0E0E0" d="M215.37,17.73c-4.287,0.277-14.417,3.355-17.591-0.88c-3.748-0.316-5.117-6.495-8.54-4.97
		c-3.618,1.612-0.923,6.958,1.091,8.84c9.142,0.839,18.511,3.634,27.479,0.06C217.93,19.03,217.53,17.59,215.37,17.73
		C212.43,17.92,217.53,17.59,215.37,17.73z"/>
	<path fill="#E0E0E0" d="M190.48,20.85c-0.039-0.096-0.099-0.14-0.18-0.13L190.48,20.85z"/>
	<path fill="#202020" d="M184.88,8.5c-0.78,0.21-1.391,1.06-2.08,1.61c0.847,0.451,5.189,5.211,2.31,4.84
		c-6.727-0.792-1.798-6.227-4.33-9.33c-5.278,12.318,4.823,6.49,6.802,12.442c-0.423,0.869-0.807,1.754-1.151,2.657
		c1.35,0.043,2.7,0.087,4.05,0.13c-2.522-2.709-2.839-5.369-0.95-7.98c2.398-2.249,3.018,5.438,2.851,4.33
		c0.859-0.2,1.72-0.39,2.57-0.59C193.44,10.1,189.87,7.17,184.88,8.5C184.1,8.71,189.87,7.17,184.88,8.5z"/>
	<path fill="#A0A0A0" d="M412.6,20.06c-0.4,0.83-1.29,1.43-1.96,2.13c-0.561-0.94-1.13-1.88-1.69-2.82c-0.27,7.34-0.27,7.34-6,9.37
		c2.92,1.06,5.83,2.12,8.75,3.17c4.59-4.82,5.49-10.33,2.761-16.84C413.86,16.74,413.369,18.47,412.6,20.06
		C412.199,20.89,413.369,18.47,412.6,20.06z"/>
	<path fill="#EEEEEE" d="M204.99,4.1c-6.266,2.493-3.463,15.538,1.45,11.87c3.604-2.702,1.139-8.539,0.44-11.88
		C206.84,3.95,205.56,3.88,204.99,4.1C204.21,4.41,205.56,3.88,204.99,4.1z"/>
	<path fill="#8F8F8F" d="M281.13,44.7c-4.96-0.41-7.69,2.88-11.3,4.729c5.572,2.898,19.056-1.1,18.359-9.24
		C285.83,41.79,283.34,44.88,281.13,44.7C276.17,44.29,283.34,44.88,281.13,44.7z"/>
	<path fill="#0C0C0C" d="M286.36,2.99c3.517,0.634,10.681,2.686,13.44,4.64c0.882,0.635-1.479,10.601-1.15,12.29
		c3.894-2.419,3.441-8.401,3.43-12.64C302.079,0.309,290.15,3.007,286.36,2.99C287.8,3.25,290.67,3.01,286.36,2.99z"/>
	<path fill="#E1E1E1" d="M140.44,9.33c-0.977,2.424-4.211,23.137,3.261,19.69c-0.872-4.078-1.749-8.154-2.631-12.23
		c3.258-2.017,6.11-4.392,4.141-8.65C142.74,5,142.12,9.29,140.44,9.33C139.28,12.21,142.12,9.29,140.44,9.33z"/>
	<path fill="#EEEEEE" d="M216.44,4.25c-2.04-0.4-4.12-0.59-6.189-0.86c0.342,3.146,1.136,6.173,2.38,9.08
		c1.75-2.29,3.49-4.6,5.229-6.89C217.39,5.12,216.98,4.36,216.44,4.25C214.4,3.85,216.98,4.36,216.44,4.25z"/>
	<path fill="#404040" d="M228.52,51.391c4.947,1.658,7.883-0.159,12.58-1.601c-4.59-0.86-9.189-1.729-13.78-2.601
		C226.29,49.01,226.23,50.62,228.52,51.391C229.95,51.87,226.23,50.62,228.52,51.391z"/>
	<path fill="#CFCFCF" d="M217.62,53.99c-2.15-1.12-4.431-2.01-6.66-2.98c0.067,1.453-0.026,2.893-0.28,4.32
		c3.58,1.535,6.003,4.11,8.3,0.64C219.14,55.7,218.28,54.34,217.62,53.99C215.47,52.87,218.28,54.34,217.62,53.99z"/>
	<path fill="#606060" d="M59.67,7.66c-4.91,0.57-9.8,1.26-14.7,1.9c3.118,3.497,17.188,1.213,21.35-0.84
		C64.318,7.433,62.101,7.08,59.67,7.66C54.76,8.23,61.16,7.49,59.67,7.66z"/>
	<path fill="#C2C2C2" d="M141.07,16.78c2.641,0.08,5.28,0.15,7.931,0.229c-1.261-2.96-2.521-5.92-3.79-8.88
		C143.83,11.02,142.46,13.9,141.07,16.78C143.71,16.86,142.46,13.9,141.07,16.78z"/>
	<path fill="#EDEDED" d="M200.3,3.08c-1.17-0.36-2.61,0.12-3.93,0.24c1.119,2.947,2.815,5.51,5.09,7.69
		C204.002,7.526,203.615,4.883,200.3,3.08C199.13,2.72,201.3,3.38,200.3,3.08z"/>
	<path fill="#EFEFEF" d="M392.63,22.28c-2.522-2.211-4.745-2.448-6.671-0.71c-0.502,0.551,8.372,7.604,10.19,4.95
		C396.449,26.07,394.159,23.32,392.63,22.28C391.23,21.33,394.159,23.32,392.63,22.28z"/>
	<path fill="#020202" d="M143.7,29.02c-0.891-0.54-1.771-1.08-2.66-1.62c-1.041,3.127-0.121,5.491,2.76,7.09
		C143.801,32.666,143.768,30.843,143.7,29.02C142.81,28.48,143.69,29.41,143.7,29.02z"/>
	<g>
		<path fill="#FDFDFD" d="M226.48,28.88c4.531,9.062,16.887-7.756,17.47-7.686c2.354,0.282,2.606,4.544,5.569,2.457
			c0-10.333,4.441-12.327,12.381-12.59c-0.01,0.092-0.02,0.184-0.029,0.276c4.502-12.005-14.378-7.329-21.891-7.626
			c-4.349-0.171-4.687,0.133-3.27,4.29c3.172,9.293-5.146,11.353-11.92,12.21C224.963,23.191,225.527,26.081,226.48,28.88
			C226.482,28.884,226.27,28.23,226.48,28.88z"/>
		<path fill="#FDFDFD" d="M388.35,38.609c-8.708-5.845-7.966-5.186-11.812-14.396C372.482,14.499,354.323,9.281,345.01,9.7
			c-3.47,0.165-3.037-3.406-5.636-4.699c-4.782-2.381-13.055,0.065-18.055,0.338c-6.793,0.37-14.299-2.374-22.02-2.28
			c0.15,0.85,0.3,1.7,0.45,2.55c-7.436-8.223-23.286,8.307-27.521,13.19c-5.472,9.834-9.495,19.695-22.689,22.41
			c-6.851-4.71-10.836-0.996-17.021-4.44c1.067-0.455,8.28-3.974,7.391-5.31c0.068,0.103-22.859-1.027-25.71-1.05
			c-11.077-0.075,20.72,17.654,20.25,13.029c0.41,4.163-11.434,0.825-13.96,1.091c6.274,1.667,13.698,4.849,19.529,7.51
			c0.482,0.326,13.796,2.805,13.851,2.78c6.009-2.72,18.045-6.592,24.38-7.44c8.015-1.059,17.263-12.957,23.134-18.152
			c13.313-11.779,38.771-13.708,55.495-9.133c9.179,2.511,16.715,8.024,20.69,16.845C380.826,44.165,392.237,41.226,388.35,38.609
			C386.28,37.22,388.959,39.02,388.35,38.609z M300.949,8.76c-0.13,0.392-0.229,0.792-0.3,1.2c0.487-1.502,0.442-2.717-0.77-4.21
			C300.699,6.62,301.67,7.44,300.949,8.76C300.93,8.79,301.67,7.44,300.949,8.76z"/>
	</g>
	<path fill="#F4F4F4" d="M258.23,23.64c-4.001,0.055-10.431,4.968-11.617,4.856c-0.992-0.741-1.613-1.726-1.862-2.956
		c-2.728,3.282-3.509,7.806-4.86,11.79c3.62,5.96,4.21,6.2,9.66,3.88C249.541,39.021,264.965,23.538,258.23,23.64
		C255.29,23.68,260.86,23.6,258.23,23.64z"/>
	<path fill="#1C1C1C" d="M283.72,11.19c-3.118,0.962-5.565,1.245-6.8,4.18c2.342,0.435,3.959,2.071,4.85,4.91
		C283.122,17.365,283.772,14.335,283.72,11.19C281.84,11.77,283.69,12.09,283.72,11.19z"/>
	<path fill="#232323" d="M198.59,22.37c7.586,0.566,12.129,1.241,19.41-1.66c-9.24,0-18.471,0-27.71,0
		C193.06,21.27,195.82,21.82,198.59,22.37C203.68,22.75,195.82,21.82,198.59,22.37z"/>
	<path fill="#A8A8A8" d="M205.56,24.72c2.88,0.22,6.49,1.67,8.3-2.37c-5.09,0.01-10.18,0.01-15.27,0.02
		C200.91,23.2,203.19,24.54,205.56,24.72C208.44,24.94,203.19,24.54,205.56,24.72z"/>
	<path fill="#B3B3B3" d="M261.62,13.78c-2.192-1.029-6.551-2.855-6.801,1.6c-0.243,4.074,5.923,3.258,8.471,3.8
		C263.54,17.13,264.99,14.71,261.62,13.78C260.81,13.4,264.99,14.71,261.62,13.78z"/>
	<path fill="#818181" d="M269.83,49.42c-5.298,1.219-3.186-0.521-7.706-0.789c-4.852-0.288-6.799,4.7-12.584,4.049
		c2.761-2.792,5.079-3.271,8.25-5.26c-2.73-0.545-25.039,1.282-24.84,4.971c9.089,5.126,32.672,6.624,39.949-1.371
		C272.3,49.68,271.51,48.7,269.83,49.42C268.09,49.82,271.51,48.7,269.83,49.42z"/>
</g>
</svg>
