<?xml version="1.0" encoding="utf-8"?>
<!DOCTYPE svg PUBLIC "-//W3C//DTD SVG 1.1//EN" "http://www.w3.org/Graphics/SVG/1.1/DTD/svg11.dtd">
<svg version="1.1" id="Layer_1" xmlns="http://www.w3.org/2000/svg" xmlns:xlink="http://www.w3.org/1999/xlink" x="0px" y="0px"
	 width="420px" height="54px" viewBox="0 0 420 54" enable-background="new 0 0 420 54" xml:space="preserve" preserveAspectRatio="none">
<g>
	<path d="M8,53.98v-2.44L7.86,48.16C7.84,40.04,7.98,33.37,8,24.75C8.01,18.54,7.74,12.26,7.74,6h0.01C7.75,4.09,8,1.93,8,0.02
		C8,0.01,8,0.01,8,0H5.02c0,2,0.01,4,0.01,6H5.02c0.01,8.12-0.229,15.14-0.21,23.25C4.83,36.27,4.97,43.66,5,50.66V54h3
		C8,53.99,8,53.99,8,53.98z"/>
	<path d="M392,12.81c-0.07,5.99-0.541,13.54-0.561,18c-0.03,6.789,0.49,17.159,0.561,23.129c0,0.021,0,0.041,0,0.061h13
		c-0.08-4.01-0.471-11.12-0.5-15.27C404.44,27.79,404.93,16.94,405.02,6H405c0.01-2-0.041-4-0.12-6H392.07c0,0.2,0,0.31,0,0.31
		C392.01,4.12,392.06,7.31,392,12.81z"/>
	<path d="M385,49.5c-0.011-8.07,0.43-15.75,0.439-23.38c0-5.66-0.43-11.22-0.439-17.19c0,0,0.029-4.41,0.05-8.94H15
		c0,0.52,0,1.07,0,1.64c-0.021,6.33,0.45,15.01,0.45,17.61c0,3.75-0.511,15.609-0.44,30.609V54h370C385,52.43,385,50.91,385,49.5z"
		/>
</g>
</svg>
