<?xml version="1.0" encoding="utf-8"?>
<svg version="1.2" baseProfile="tiny" id="Layer_1" xmlns="http://www.w3.org/2000/svg" xmlns:xlink="http://www.w3.org/1999/xlink"
	 preserveAspectRatio="none" x="0px" y="0px" width="420px" height="22px" viewBox="0 0.51 420 22" xml:space="preserve">
<g>
	<path d="M344.5,3.25c3.319,0.35,6.63,0.81,9.93,1.34c0.85,0.33,6.09,0.04,10.649,0.04c8.83,0,11.521,0.32,21.33,0.17
		c5.601-0.09,5.91-0.62,5.841,4.63c-0.091,6.669-0.16,11.8-0.171,13.07h12.811c-0.11-2.95-0.28-5.9-0.44-8.85
		c-0.04-0.87-0.29-1.98-0.88-2.521c-1.51-1.41-5.26-10.63-13.13-10.63h-46.31C344.23,0.79,344.36,3.05,344.5,3.25z"/>
	<path d="M5,9.73c0,4.25,0.01,8.51,0.02,12.77H8c0-1.83,0-3.41,0-5.24c0-3.369-0.2-5.75,0.029-9.11C8.08,7.45,9.16,6.46,9.98,6.24
		C11.5,5.84,13.11,5.9,14.7,5.77C16,5.55,17.83,1.99,19.65,0.5h-9.16C5.01,0.85,5,3.34,5,9.73z"/>
	<path fill="#E1E1E1" d="M193.9,3.09c0.101-0.12,0.221-0.33,0.34-0.59h-1.449C193.09,3.29,193.45,3.62,193.9,3.09z"/>
	<path fill="#2D2727" d="M145.88,4.4c8.67,0.04,18.16,0.17,26.83,0.21c1.01-0.73,2.029-1.22,3.05-1.26
		c0.27-0.22,0.56-2.52,0.87-2.84h-30.24C146,1.42,145.7,4.24,145.88,4.4z"/>
	<path fill="#FDFDFD" d="M304.49,4.1c3.4,0.19,6.69-1.03,10.101-0.71c4.71-0.17,9.399,0.1,14.08,0.68
		c4.46-0.3,9.08-2.05,13.399-3.57l-39.6,2C302.949,3.43,303.6,4.05,304.49,4.1z"/>
	<path fill="#1E1E1E" d="M14.33,5.69c2.5-0.02,4.33,0.38,6.83,0.31c9.319-0.29,16.18-0.46,25.5-0.58
		c3.819-0.05,10.59,0.81,14.42,0.75c9.21-0.14,18.63-0.56,27.84-0.67c19.149-0.23,38.3-1,57.45-1.11c0-0.15,0.33-2.96,0.72-3.89
		H17.55C15.79,1.61,14.33,4.96,14.33,5.69z"/>
	<path fill="#828282" d="M172.7,3.95c1.96-0.03,3.92-0.06,5.89-0.09c0.57-0.27,1.22-0.75,1.93-1.36h-7.689
		C172.7,3.2,172.64,3.73,172.7,3.95z"/>
	<path fill="#2D2929" d="M296.63,4.54c5.939,0.01,11.88,0.03,17.819,0.04c4.63,0.02,9.261,0.03,13.891,0.05
		c8.689-0.01,17.39-0.02,26.08-0.04c-1.471-0.41-2.96-0.74-4.391-1.25c-0.31-0.11-0.609-0.42-0.92-2.84h-51.43
		C297.24,3.42,296.86,4.18,296.63,4.54z"/>
	<path fill="#030303" d="M169.83,4.58c0.08,0.06,8.68-0.13,8.75-0.06c7.939-0.09,15.88-0.22,23.81-0.23c2.92,0,5,0.12,8.16,0.32
		c16.18,0,49.46-0.06,86.07-0.07c0.359-0.2,0.72-0.38,1.079-0.54c0.061-0.03,0.12-0.05,0.181-0.07c0.31-0.13,0.619-0.26,0.92-0.36
		c0.029-0.01,0.06,0.12,0.09,0.11c0.34-0.12,0.68-0.17,1.02-0.17l0,0c0.13,0,0.53-2.44,1.011-3h-130.3
		C170.02,1.17,169.72,3.86,169.83,4.58z"/>
	<path d="M385.06,15.189c-0.01-4.129,0.21-4.02-4.33-4.149c-16.18-0.46-32.37-1.12-48.55-1.17C291.45,9.75,250.71,9.99,209.98,10
		c-56.06,0.03-112.12,0-168.18,0.02c-6.03,0-12.07,0.38-18.1,0.2c-8.71-0.25-8.73-0.4-8.71,7.671c0,0.979,0.01,2.59,0,4.6h370.049
		C385.06,19.8,385.07,17.061,385.06,15.189z"/>
</g>
</svg>
