<?xml version="1.0" encoding="utf-8"?>
<!-- Generator: Adobe Illustrator 16.0.0, SVG Export Plug-In . SVG Version: 6.00 Build 0)  -->
<!DOCTYPE svg PUBLIC "-//W3C//DTD SVG 1.1//EN" "http://www.w3.org/Graphics/SVG/1.1/DTD/svg11.dtd">
<svg version="1.1" id="Layer_1" xmlns="http://www.w3.org/2000/svg" xmlns:xlink="http://www.w3.org/1999/xlink" x="0px" y="0px"
	 width="420px" height="87px" viewBox="0 0 420 87" enable-background="new 0 0 420 87" xml:space="preserve">
<path fill="#FDFDFD" d="M23.42,85.41c1.81,0.22,3.39,0.01,4.83-0.42h-5.41C23.02,85.23,23.21,85.391,23.42,85.41
	C25.23,85.63,23.21,85.391,23.42,85.41z"/>
<g>
	<path d="M387.13,78.83c0.84-1.34,1.67-2.86,1.93-4.37c1.22-7.12,3.58-14.49-3.26-20.33c-1.19-0.29-1.971,0.29-2.61,1.19
		c-2.816,5.261,3.307,12.339-0.21,18.24c-2.97,7.27-2.97,7.26-10.11,4.31c-8.098-4.741,0.693-12.025-5.029-16.261
		c-0.82-0.789-1.811-1.239-2.95-1.379c-3.78,0.279-7.68-0.41-11.24,1.529c-4.742,5.032,5.798,6.448,3.57,12.27
		c-4.079,9.945-9.996-3.234-14.54,2.201c-1.28,2.539-1.53,7.92-0.561,10.92h46.311C386.15,87.13,385.02,82.189,387.13,78.83
		C387.97,77.49,385.02,82.189,387.13,78.83z"/>
	<path d="M20.59,80.16c-3.251-3.747-7.935-9.279-5.095-14.555c2.147-3.989,13.833-8.319,11.574-13.285
		c-3.646-1.275-10.628,3.688-12.739,6.18c-4.211,4.979-6.127,11.084-3.73,17.365c1.086,2.846,5.363,8.9-0.17,10.915
		c-0.22,0.079-1.31,0.28-1.54,0.29C8.44,87.1,17.65,87,17.65,87c1.67-1.37,3.33-2.689,4.54-2.85
		C22.72,82.62,21.59,81.311,20.59,80.16C11.82,70.05,21.59,81.311,20.59,80.16z"/>
	<path fill="#FEFEFE" d="M203.04,38.94c0.05-0.08,0.1-0.15,0.16-0.23l-0.171,0.25C203.02,38.95,203.03,38.94,203.04,38.94
		C203.09,38.86,203.03,38.94,203.04,38.94z"/>
	<path fill="#FEFEFE" d="M292.99,54.6c-0.35,0.61-0.64,1.25-1,1.86C292.32,55.84,292.68,55.23,292.99,54.6z"/>
	<path fill="#FDFDFD" d="M21.13,66.17c-0.21,0.29-0.4,0.59-0.63,0.87C20.76,66.78,20.94,66.46,21.13,66.17z"/>
	<path fill="#FDFDFD" d="M30.3,64.48c1.951,1.385,4.149,1.678,5.85,3.56C34.74,66.33,32.6,65.1,30.3,64.48
		C30.61,64.7,32.6,65.1,30.3,64.48z"/>
	<path fill="#FDFDFD" d="M36.16,68.05c0.149,0.16,0.27,0.33,0.399,0.5C36.426,68.384,36.293,68.217,36.16,68.05
		C36.31,68.21,36.28,68.189,36.16,68.05z"/>
	<path fill="#FDFDFD" d="M38.6,78.35c-0.778-6.019-0.449-10.905-7.18-13.289c-0.42-0.17-10.66,1.72-10.92,1.97
		c0.278-0.36,0.541-0.73,0.79-1.11c2.09-2.64,8.04-2.12,9.02-1.439C36.199,66.072,40.25,72.198,38.6,78.35
		c0.23,1.791,1.57,2.86,3.61,3.15c4.25-3.63,8.97-2.09,13.62-1.22c2.439-1.22,3.54-3.24,3.479-5.95c0.021-0.67,0.03-1.34,0.04-2.02
		c0.12-1.761-1.7-4.681,2.41-4.03c4.331-1.644,10.73,6.415,15.018,7.871c7.568,2.571,15.884,3.775,23.718,5.237
		c9.238,1.723,18.727,2.815,28.084,1.352c4.671-0.827,16.304-0.381,19.72-3.66c0.611-4.652-9.268-5.018-12.07-7.01
		c-4.415-2.865-4.233-18.984-1.92-23.561c0.351-2.77,1.03-5.67-2.649-6.91c-6.881-0.58-10.631,3.82-14.03,8.791
		c-0.38,2.17,3.53,3.609,1.21,5.959c-4.269,4.291-11.782-2.344-15.271-4.365c-8.515-4.932-13.666-9.981-23.979-11.454
		c-2.94-0.42-6.66-1.56-8.49,2.55l-0.13-0.2c1.9,3.64-0.44,3.74-3.01,3.56c-14.683-1.024-37.889,2.482-49.83,11.5
		C6.585,66.665,14.35,78.401,20.87,87C26.632,87.883,36.955,84.472,38.6,78.35C38.56,78.04,38.06,80.359,38.6,78.35z"/>
	<path fill="#FDFDFD" d="M38.57,77.37c-0.029,0.35-0.01,0.67,0.03,0.979c0.561-2.08,0.29-4.43-0.41-6.51
		C38.64,73.48,38.75,75.33,38.57,77.37C38.54,77.72,38.75,75.33,38.57,77.37z"/>
	<path fill="#030303" d="M262.26,77.8c0.986-0.193,1.95-0.48,2.89-0.86C264.176,77.193,263.213,77.48,262.26,77.8
		C262.31,77.79,262.51,77.65,262.26,77.8z"/>
	<path fill="#070707" d="M232.86,56.9c-2.146-1.616,1.485-15.968,3.08-19.24c0.799-1.647-3.824-4.719-4.063-5.848
		c-0.954-4.528,4.608-5.419,0.022-10.143c-3.38-3.477-7.299-1.473-10.188-3.89c-2.374-1.986-1.136-7.146-5.941-6.21
		c-3.29,3.07-0.09,7.75-2.71,10.99c0.04,0.64,0.21,1.24,0.5,1.81c1.601,3.94,4.57,4.5,8.63,4.88c4.08,0.39-0.939,7.97,4.96,8.56
		c0.67,0.07,1.29,0.44,1.771,0.93c7.396,7.48-4.774,12.393-1.74,16.1c1.7,2.09,3.28,4.61,5.51,5.881
		c7.54,4.27,15.84,3.209,23.98,2.379c1.06-0.1,1.979-1.52,2.96-2.33C250.511,60.82,240.591,62.729,232.86,56.9
		C230.35,55.01,236.03,59.29,232.86,56.9z"/>
	<path fill="#101010" d="M172.79,62.1c-6.454,1.797-10.947,3.809-17.681,1.37c-12.825-4.663-16.924-15.498-22.319-26.84
		c-2.808-5.868-17.73-7.315-24.011-9.9c-0.479-0.2-1.369,0.08-1.829,0.45c-4.08,3.19-3.801,13.9,0.479,16.8
		c1.526,0.578,2.986,0.492,4.38-0.26c-3.081-4.188-6.536-5.191-5.13-11.06c0.48-2.01,1.43-2.82,3.34-2.02
		c4.417,1.858,9.548,5.267,14.355,5.806c2.773,0.311,3.08-3.607,5.364,0.104c2.132,3.437,3.101,8.2,4.551,11.96
		c4.479,7.631,10.399,13.66,18.84,16.86c6.859,2.61,13.57,3.55,19.63-1.95c0.14,0,0.29-0.141,0.43-0.43
		C173.35,62.689,173.21,62.391,172.79,62.1C171.71,62.4,173.21,62.391,172.79,62.1z"/>
	<path fill="#0A0A0A" d="M293.09,43.19c-1.495-2.067-4.547-4.929-2.189-7.539c1.425-1.578,6.284-4.298,2.05-5.971
		c-6.088-2.401-12.928-0.587-16.625,4.919c-1.016,2.114-2.085,4.2-3.207,6.259c-2.615,2.677-6.346-0.927-6.578,4.552
		c-0.36,8.206-1.47,9.992-7.17,15.55c0.88-0.09,1.92,0.07,2.63-0.33c4.899-2.76,7.609-6.8,7.2-12.66
		c-0.488-6.973,4.21,0.908,5.47-3.34c0.77-2.58,1.41-5.22,2.5-7.67c1.75-3.94,6.35-6.61,10.29-6.29c1.1,0.09,2.76,0.34,1.33,1.8
		c-3.761,3.85-0.34,8.34-1.36,12.41c-0.408,1.529,5.721,0.842,4.94,5.46c-1.165,6.781-6.015,7.932-8.551,13.16
		c0.65,0,1.41,0.21,1.95-0.04c4.3-2.01,6.98-5.68,9.521-9.479C296.978,51.73,294.431,45.043,293.09,43.19
		C288.86,37.34,294.58,45.25,293.09,43.19z"/>
	<path fill="#1A1A1A" d="M334.18,42.37c-0.673,0.015-1.345,0.029-2.018,0.043c-1.947-1.798,3.927-4.614-1.412-6.154
		c-10.061-2.88-18.78-0.25-26.431,6.61c0.61,0.72,1.271,0.76,1.96,0.12c7.284-3.597,13.604-6.299,21.971-5.33
		c1.939,0.22,2.93,1.28,1.289,3.17c-1.565,1.716-2.818,3.648-3.76,5.8c6.384,0.113,9.773-2.462,15.896-3.901
		c6.565-1.542,13.315-1.231,19.924-2.479C352.58,38.024,342.96,39.584,334.18,42.37C332.159,43.01,341.619,40.01,334.18,42.37z"/>
	<path fill="#030303" d="M203.76,55.08c-1.211,0.083-5.313-1.351-6.07-0.24c-1.06,1.54-1.609,3.91-1.31,5.78
		c0.359,2.3,1.29,5.72,2.88,6.34c2.72,1.07,6.38,1.03,9.17,0.06c1.3-0.449,1.48-4.149,1.99-5.81c-0.41-2.729-0.08-5.319-1.2-6.42
		C208.33,53.95,205.64,54.939,203.76,55.08C203.33,55.109,205.64,54.939,203.76,55.08z"/>
	<path fill="#070707" d="M213.83,27.46c-4.74-0.98-5.931,4.27-9.48,5.39c-2.939,1.49-0.729,4.1-1.33,6.1
		c4.53-0.83,8.47-0.63,12.141,3.16c3.39,3.49,4.779,2.68,6.029-2.41c0.16-0.65,0.13-1.36,0.181-2.03
		C223.99,30.47,217.53,30,213.83,27.46C209.09,26.48,217.53,30,213.83,27.46z"/>
	<path fill="#0D0D0D" d="M211.92,47.67c-1.816-6.369-8.859-2.603-8.73-8.97c-1.1,0.8-2.76,1.38-3.2,2.46
		c-0.989,2.43-1.369,5.1-2,7.67c5.033,1.083,14.45,1.034,15.101,7.939c0.327,0.01,0.653,0,0.979-0.029
		c1.301-0.25,3.11-0.37,2.101-2.33C214.93,52.061,212.61,50.12,211.92,47.67C210.95,44.27,212.61,50.12,211.92,47.67z"/>
	<path fill="#0B0B0B" d="M70.95,42.87c-0.431,0.91-0.75,2.51-1.301,2.6C56.076,47.577,37.243,45.161,25.12,52.4
		c6.092,0.854,12.848-0.373,18.978-0.791c6.035-0.411,10.286-4.399,15.072-4.399c5.418,0.015,10.846,0.708,16.26,0.92
		C74.511,45.801,73.018,44.047,70.95,42.87C70.52,43.78,71.48,43.23,70.95,42.87z"/>
	<path fill="#A7A7A7" d="M210.96,17.82c-2.209,2.694-4.752,9.563-7.4,11.19c-2.89,1.79-0.649,2.79,0.79,3.84
		c0.87,2.47,2.561,2.22,4.07,0.91c4.249-3.643,6.114-6.22,6.99-11.43C214,20.75,214.77,17.03,210.96,17.82
		C209.14,20.04,214.77,17.03,210.96,17.82z"/>
	<path fill="#1C1C1C" d="M70.61,39.74c-2.34,0.29-1.979,2.479,0.471,3.34c0.96-0.47,1.89-1.26,2.89-1.37
		c12.794-1.371,22.151,6.686,32.76,12.26c-2.6-2.42-5.02-5.079-7.84-7.21C90.5,40.43,80.82,38.49,70.61,39.74
		C68.27,40.03,80.82,38.49,70.61,39.74z"/>
	<path fill="#121212" d="M189.42,18.42c0.05,0.01,0.109,0.02,0.16,0.03l-0.181-0.14C189.41,18.35,189.41,18.39,189.42,18.42
		C189.47,18.43,189.41,18.39,189.42,18.42z"/>
	<path fill="#121212" d="M189.42,18.42c-1.88-0.33-3.771-0.59-5.62-1.02c-2.99-0.7-6.99,0.25-7.55,2.52
		c-0.86,3.43-2.021,7.16,0.77,10.43c0.13,0,0.25-0.13,0.38-0.4c0.12-0.27-0.01-0.52-0.41-0.77c-0.02-1.35-0.149-2.71-0.029-4.05
		c0.359-3.92,1.899-5.11,5.689-4.35c2.72,0.991,5.233,2.375,7.54,4.15C190.079,22.739,189.822,20.569,189.42,18.42
		C187.54,18.09,189.45,18.61,189.42,18.42z"/>
	<path fill="#1A1A1A" d="M209.23,3.76c-1.069-1.31-4.399-2.74-4.59-2.49c-2.086,2.721,2.352,4.86,3.87,6.51
		c1.465,1.59,1.424,6.276,2.89,9.03c5.57,0.47,3.61-2.62,2.521-5.31C212.38,8.89,211.12,6.07,209.23,3.76
		C208.16,2.45,211.12,6.07,209.23,3.76z"/>
	<path fill="#121212" d="M117.63,50.38c-2.382-0.677-4.829-0.727-7.34-0.149c2.062,1.124,4.218,1.98,6.47,2.569
		c0.67,0.55,1.22,1.23,1.82,1.86c-0.86,0.64-1.761,1.85-2.57,1.8c-2.64-0.16-5.25-0.79-7.88-1.229
		c3.385,4.571,11.079,2.95,15.83,2.68C121.813,55.432,119.703,52.921,117.63,50.38C117.19,50.27,118.78,51.77,117.63,50.38z"/>
	<path fill="#121212" d="M193.13,33.4c-2.38,0.08-3.311,1.79-3.601,3.96c-0.34,2.49,1.601,4.74,4.471,4.81
		c1.09,0.03,2.8-0.76,3.189-1.63C197.93,38.86,194.75,33.57,193.13,33.4C190.75,33.48,194.75,33.57,193.13,33.4z"/>
	<path fill="#161616" d="M175.86,40.02l-0.409,0.33c0,4.299-2.582,7.307-0.75,11.69c2.151,5.123-1.83,6.917-1.931,11.37
		c6.862-5.251,0.216-16.692,5.34-18.91c0.86-0.37,1.721-0.74,2.591-1.11C179.137,42.194,177.523,41.071,175.86,40.02z"/>
	<path fill="#131313" d="M189.4,18.31l0.181,0.14c0-0.17,0-0.33,0-0.5C189.52,18.07,189.46,18.19,189.4,18.31z"/>
	<path fill="#131313" d="M195.13,10.81c-0.601,0.41-1.84-0.21-2.561,0.12c-1.06,0.49-2.47,1.26-2.729,2.19
		c-0.43,1.51-0.26,3.19-0.26,4.83c2.13-4.527,7.136-1.628,7.89-4.42c0.5-1.87,0.57-3.85,0.81-5.79
		C197.24,8.79,196.32,10.01,195.13,10.81C194.53,11.22,196.32,10.01,195.13,10.81z"/>
	<path fill="#0C0C0C" d="M369.449,45.22c3.683,4.472,10.357,7.065,15.311,9.99c0.35-0.37,0.689-0.74,1.04-1.12
		C381.539,48.96,376.31,45.6,369.449,45.22C369.96,45.84,376.31,45.6,369.449,45.22z"/>
	<path fill="#1A1A1A" d="M176.98,29.19c-0.076,1.523,1.762,2.901,1.401,4.279c-0.812,3.103-7.433,2.021-2.931,6.881
		c1.589-4.294,9.092-2.386,5.189-7.32C179.54,31.65,178.21,30.46,176.98,29.19C176.96,29.58,178.21,30.46,176.98,29.19z"/>
	<path fill="#BABABA" d="M215.79,11.57c-0.63-0.02-1.25-0.05-1.88-0.07c0.955,5.172-1.994,2.491-2.95,6.32
		c1.479,1.5,2.96,3.01,4.439,4.51C218.911,17.155,215.251,16.353,215.79,11.57C215.16,11.55,215.74,12.02,215.79,11.57z"/>
	<path fill="#E1E1E1" d="M193.94,76.02c-1.813,0.422-3.286,1.332-4.42,2.73c0.3,2.33,0.62,6.47,1.28,8.25h1.45
		c0.95-2.05,2.29-7.84,2.51-9.33C194.48,77.12,194.21,76.57,193.94,76.02C192.9,76.51,194.21,76.57,193.94,76.02z"/>
	<path fill="#373737" d="M207.36,71.96c-2.51-0.771-5.06-1.37-7.6-2.03c-1.1,0.32-2.03,0.59-2.96,0.851
		c0.8,0.68,1.51,1.689,2.43,1.97c2.34,0.7,4.771,1.13,7.19,1.5c0.52,0.08,1.28-0.41,1.64-0.859
		C208.22,73.21,207.73,72.08,207.36,71.96C204.85,71.189,207.73,72.08,207.36,71.96z"/>
	<path fill="#4E4E4E" d="M299.73,46.57c-1.46,1.33-2.79,2.82-4.17,4.24c-0.1,1.06-0.2,2.119-0.29,3.18c3.67-3.67,7.33-7.33,11-11
		c-0.65-0.04-1.31-0.08-1.96-0.12C302.78,44.1,301.18,45.25,299.73,46.57C298.27,47.9,301.18,45.25,299.73,46.57z"/>
	<path fill="#040404" d="M184.08,78.311c2.58-1.341,5.02-0.471,7.47,0.379c1.49-0.26,2.45-1,2.4-2.66
		c-0.897-3.676-1.143-7.779-2.11-11.35c-0.2-0.75-1.14-1.31-1.75-1.96c-1.522,3.868-1.929,7.214-6.21,9.07
		c-3.991,1.715-3.115-3.64-7.22-1.38c-3.131,1.72-6.561,3.359-10.04,3.87c-7.681,1.13-14.98-0.33-21.11-5.57
		c-0.42-0.36-0.54-1.09-0.8-1.64c1.366,0.029,2.722-0.074,4.069-0.311c-4.49-5.809-11.463-8.979-15.859-15.59
		c-0.44,0.09-0.88,0.18-1.33,0.24c-2.91,1.932,4.117,18.662,1.87,24.39c4.75,0.89,9.5,1.79,14.25,2.69
		c-2.63,2.552-1.775,5.694-3.36,8.63h30.24C177.16,84.13,181.04,78.77,184.08,78.311C186.66,76.97,181.04,78.77,184.08,78.311z"/>
	<path fill="#FDFDFD" d="M343.47,76.141c4.26-3.371,7.229-7.75,9.819-12.451c3.703-0.018,20.289,2.324,22.15-2.119
		c-4.18-6.91-10.95-7.601-18.04-7.5c-13.853,3.396-25.016,9.217-38.08,14.49c-1.51,0.609-1.46,2.14-2.06,3.289
		c-6.07,2.76-12.141,5.53-18.221,8.291c0.16,2.35,0.5,5.14,1.41,6.85c11.447,0,33.722,4.721,43.431-1.93
		C343.079,83.43,344.28,77.78,343.47,76.141C347.73,72.77,344.28,77.78,343.47,76.141z"/>
	<path fill="#070707" d="M139.66,80.1c-11.33,0.762-20.022-1.47-30.61-2.319c-2.92-0.22,1.02,1.96-0.66,2.05
		c-6.991,0.396-16.612-2.349-23.377-4.059c-5.336-1.349-10.548-3.169-15.573-5.412c-0.746-2.967-2.626-4.595-5.75-3.43
		c-0.59,0.471-1.01,1.04-1.25,1.76c-0.71,3.101,1.471,4.601,3.45,6.121c5.225,4.022,12.84,6.066,19.38,6.01
		c-4.92-0.021-9.565-1.41-14.5-1.41c-5.144-0.014-10.308-8.785-13.83-6.25c0.141,2.369-0.069,4.58-2.58,5.77
		c-4.189,0.32-8.479-0.41-12.569,1.141c-3.844-9.576-3.808-11.48-12.08-17.42c3.625-2.238,6.668-2.031,10.92-2.391
		c-6.239-0.801-12.236-1.839-17.9,1.75c-6.02,3.82-6.979,10.58-1.979,15.6c0.529,0.531,1.569,0.541,2.38,0.791
		c0.281-4.398-4.036-6.141-0.851-10.891c2.271-3.38,5.41-1.63,8.131-1.13c6.26,1.14,8.63,7.83,4.64,12.771
		c-5.782,7.171-12.829,3.691-19.521,7.93l129.551,0.05c0.569-1.36,1.29-3.11,1.279-3.33C144.58,81.76,142.27,79.92,139.66,80.1
		C135.33,80.391,142.27,79.92,139.66,80.1z"/>
	<path fill="#070707" d="M85.6,80.91c-2.25,0.02-4.46-0.221-6.67-0.6C81.1,80.811,83.36,80.9,85.6,80.91z"/>
	<path fill="#FDFDFD" d="M361.55,64.93c-2.771-0.3-5.511-0.81-8.261-1.24c-5.75-0.069-8.289,3.391-9.27,8.511
		c-0.25,1.3-0.37,2.63-0.55,3.94c4.128,2.11,7.771,2.098,12.29,2.64c3.29,0.399,4.84-1.21,5.49-4.171
		c0.609-2.42,0.989-4.93,1.89-7.229C363.89,65.45,363.28,65.109,361.55,64.93C358.78,64.63,363.28,65.109,361.55,64.93z"/>
	<path fill="#EFEFEF" d="M368.28,63.66c-0.43,0.77-0.79,1.6-1.31,2.29c-5.61,7.42-3.771,12.52,5.34,14.729
		c2.13-0.93,3.479-2.449,3.67-4.84C379.64,65.641,377.74,62.63,368.28,63.66C367.85,64.43,377.74,62.63,368.28,63.66z"/>
	<path fill="#010101" d="M375.09,60.88c-1.693,0.717-6.336,1.979-8.24,1.96c7.22,0.36,10.359,4.28,8.109,10.801
		c-0.279,0.81-0.819,1.529-1.239,2.299c1.35,1.24,2.68,1.261,4.01-0.039c2.39-4.98,3.31-9.961,0.01-14.94
		C376.88,60.04,376,60.09,375.09,60.88C373.98,61.35,376,60.09,375.09,60.88z"/>
	<path fill="#C8C8C8" d="M381.59,74.88c-0.994,3.053-5.283,1.021-7.86,1.04c-1.26,1.35-2.69,2.65-1.43,4.75
		c8.75,3.3,8.859,3.25,12.569-5.14c0.09-0.2,0.101-0.44,0.15-0.671C383.9,74.9,382.89,70.88,381.59,74.88
		C381.01,76.66,382.89,70.88,381.59,74.88z"/>
	<path fill="#B7B7B7" d="M353.63,77.01c-3.2-2.38-5.12-0.3-7.57,0.46c2.311,4.905,13.019,2.835,17.52,3.15
		c-0.779-2-1.55-4-2.329-6.011C359.19,77.1,355.93,78.72,353.63,77.01C350.43,74.63,355.93,78.72,353.63,77.01z"/>
	<path fill="#CCCCCC" d="M227.85,35.68c-0.399,0.26-1.21-0.11-1.83-0.19c1.266-4.968,4.292-7.552,0.32-12.3
		c-1.65-1.97-3.38-2.02-5.01,0c-0.551,0.69-0.95,1.56-1.21,2.42c-0.9,3.01-2.091,1.16-3.181,0.21c-0.649-0.57-1.199-1.24-1.79-1.87
		c-0.79,1.7-1.58,3.39-2.38,5.09c5.461,4.988,10.012,9.352,16.57,12.73c2.53-0.26,4.8-1.14,3.81-4.18
		C232.39,35.25,230.54,33.93,227.85,35.68C227.45,35.94,230.54,33.93,227.85,35.68z"/>
	<path fill="#272727" d="M342.8,56.54c-9.03,3.479-17.99,7.13-26.971,10.72c0.48,1.53,0.96,3.061,1.44,4.59
		c9.75-5.039,19.51-10.08,29.26-15.109C345.28,56.65,343.86,56.13,342.8,56.54C333.77,60.02,343.86,56.13,342.8,56.54z"/>
	<path fill="#777777" d="M357.409,54.07c4.429,2.148,15.719,6.716,20.341,6.869c-2.141-1.629-4.271-3.27-6.431-4.879
		C367.05,52.87,362.47,51.74,357.409,54.07C358.17,54.439,362.47,51.74,357.409,54.07z"/>
	<path fill="#FCFCFC" d="M71.21,73.65c-2.471-1.36-4.641-3.291-6.94-4.95c-3.56-1.99-6.359-2.2-6.899,2.93
		c-0.03,0.54-0.061,1.08-0.091,1.62c1.69-0.12,2.721,0.67,2.41,2.35c-0.063,0.342-5.058,10.65-1.75,10.65
		c12.305,0.011,25.99-1.744,38.11-3.74C88.631,78.104,78.975,77.934,71.21,73.65C68.74,72.29,78.37,77.6,71.21,73.65z"/>
	<path fill="#CFCFCF" d="M139.86,70.37c-0.004-1.753,0.411-6.762-0.84-8.25c-3.054-3.659-5.937-6.091-7.399-10.71
		c-0.99-0.78-1.99-1.551-2.98-2.33c-0.25,1-0.89,2.09-0.67,2.97c1.346,5.48,6.208,10.116,2.25,15.87
		c-3.687,5.336-2.848,6.366,3.28,7.87c3.934-0.586,7.869-1.165,11.8-1.771C144.019,73.055,140.651,71.843,139.86,70.37z"/>
	<path fill="#909090" d="M43.88,74.9c-0.4-0.041-1.16,3.42-1.75,5.25c4.39,1.83,8.72,3.02,12.57-1.141
		C51.066,75.917,48.549,75.376,43.88,74.9C43.48,74.859,47.31,75.25,43.88,74.9z"/>
	<path fill="#858585" d="M127.34,78.6c5.668,2.734,13.555,3.16,19.71,3.82c0.35-1.46,0.35-2.46,0.7-3.92
		C141.644,78.185,133.003,76.094,127.34,78.6C129.31,79.55,128.13,78.25,127.34,78.6z"/>
	<path fill="#171717" d="M61.21,66.25c-3.942-1.371-7.632-2.732-11.76-3.41c2.615,3.419,6.472,4.468,7.909,8.78
		c2.206-3.832,3.497-1.894,6.9-2.931l-0.08-0.26C64.75,65.59,63.21,65.609,61.21,66.25C58.51,65.311,63.21,65.609,61.21,66.25z"/>
	<path fill="#565656" d="M70.31,66.66c-2.18-1.07-4.45-1.96-6.6-3.1c-4.391-2.32-1.61,1.85-2.49,2.689
		c2.5,1.844,5.617,3.028,8.56,4.18C70.32,69.23,73.91,68.42,70.31,66.66C68.13,65.59,73.91,68.42,70.31,66.66z"/>
	<path fill="#828282" d="M186.84,79.49c-0.16-2-1.45-3.051-3.14-3.771c-4.49-0.92-7.521,3.55-11.86,3.19
		c0.127,2.897-0.512,5.222-1.021,8.09h7.69C181.22,84.67,184.66,80.51,186.84,79.49C186.68,77.49,184.66,80.51,186.84,79.49z"/>
	<path fill="#585858" d="M183.7,76.38c0.1,2.05,0.6,3.761,3.14,3.771c1.311-0.693,2.892-1.616,3.96-2.66
		C188.82,74.641,186.48,74.1,183.7,76.38C183.8,78.43,186.48,74.1,183.7,76.38z"/>
	<path d="M343.89,82.141c-14.088,1.54-27.04,1.827-40.98,2.31c-2.199,0.069-2.72-1.37-3.85-4.23c-0.58,0.94-2.2,3.91-3.37,6.91
		h51.43C346.03,85.13,344.97,82.6,343.89,82.141C338.039,82.78,344.97,82.6,343.89,82.141z"/>
	<path fill="#030303" d="M301.05,84.68c4.613-3.785,17.308-6.139,17.989-12.91c-0.25-2.08-1.199-3.68-3.21-4.489
		c-4.97,2.659-10.06,5.09-14.859,8.04c-4.588,2.815-9.947-2.49-12.93-0.28c-5.471,4.022-12.345,3.711-18.7,4.819
		c-0.96-2.199-2.37-3.119-4.21-2.93c-0.94,0.379-1.903,0.665-2.89,0.86c-0.101,0.06-0.2,0.14-0.28,0.28
		c-0.021-0.24,0.14-0.26,0.28-0.28c2.033-1.215,11.204-3.815,9.18-7.601c-0.521-0.959-1.08-1.39-0.22-2.799
		c2.47-4.07-3.561-1.4-3.4-3.9c-1.03,0.3-2.23,0.369-3.05,0.96c-3.984,2.899,5.772,6.652-1.24,8.58
		c-15.995,4.421-24.166-3.298-38.21-7.841c-0.2,1.03-0.46,2.061-0.59,3.11c-0.32,2.851-2.53,4.41-4.94,3.12
		c-3.863-2.063-4.67-11.085-5.72-14.68l-0.5-0.42l-0.47,0.449c-1.313,4.302,4.05,14.923,1.75,17.53c-1.57,1.79-3.46,3.29-5.101,5.08
		c-5.3,5.763-12.854-1.587-18.04-2.3c-5.082-0.177-20.234,6.354-23.08,10.061h130.32C299.76,86.13,300.81,84.72,301.05,84.68
		C303.84,82.391,300.81,84.72,301.05,84.68z"/>
	<path fill="#979797" d="M252.11,77.439c-0.42-0.039-0.859,0.24-1.29,0.371c0.42,0.379,0.811,0.81,1.261,1.14
		c4.407,3.195,12.207,1.086,17.26,0.899c1.88-2.14,2.12-4.279-0.04-6.399C263.46,74.28,258.27,77.939,252.11,77.439
		C251.69,77.4,258.27,77.939,252.11,77.439z"/>
	<path fill="#E9E9E9" d="M228.12,79.34c-2.931-2.14-5.92-4.189-8.9-6.27c-2.502,3.341-4.694,7.38-7.26,10.56
		c4.985-0.096,10.498,1.193,15.41,0.36c0.58-0.1,1.34-2.59,1.52-3.08C229.03,80.52,228.56,79.66,228.12,79.34
		C225.19,77.2,228.56,79.66,228.12,79.34z"/>
</g>
</svg>
