<?xml version="1.0" encoding="utf-8"?>
<!-- Generator: Adobe Illustrator 16.0.0, SVG Export Plug-In . SVG Version: 6.00 Build 0)  -->
<!DOCTYPE svg PUBLIC "-//W3C//DTD SVG 1.1 Basic//EN" "http://www.w3.org/Graphics/SVG/1.1/DTD/svg11-basic.dtd">
<svg version="1.1" baseProfile="basic" id="Layer_0_xA0_Image_1_"
	 xmlns="http://www.w3.org/2000/svg" xmlns:xlink="http://www.w3.org/1999/xlink" x="0px" y="0px" width="41px" height="17px"
	 viewBox="0 0 41 17" xml:space="preserve">
<g>
	<g>
		<path fill-rule="evenodd" clip-rule="evenodd" fill="none" d="M24,12.4c0.7,0,1.3-0.1,1.9,0c0.9,0.1,1.6-0.5,2.3-0.9
			c0.1-0.1,0.2-0.2,0.3-0.4c0.2-0.3,0.4-0.6,0.6-1c0.4-0.6,0.7-1.8,0.1-2.5c-0.5-0.5-0.9-1-1.3-1.6c-0.3-0.4-0.7-0.5-1.1-0.5
			c-0.4,0-0.8,0-1.3,0c-0.7-0.1-1.3-0.1-2-0.2c-0.2,0-0.3,0-0.5,0.1c-1.1,0.3-2,0.9-2.7,1.7c-0.9,1-0.9,2.3-0.1,3.3
			c0.4,0.6,0.9,1.1,1.6,1.5c0.6,0.3,1.1,0.4,1.8,0.4C23.7,12.4,23.8,12.4,24,12.4z M5,5.8c-0.5,0-1,0-1.5,0C3,5.8,2.6,5.9,2.2,6.2
			c-0.3,0.2-0.6,0.4-1,0.5C0.9,6.8,0.6,7,0.6,7.4c0,0.4-0.1,0.7-0.2,1.1c-0.4,2.1,1,3.5,2.9,3.9c0.3,0.1,0.6,0.1,0.8,0.1
			c0.5,0.1,1,0.2,1.6,0c0.2-0.1,0.4-0.1,0.6-0.1c0.9,0,1.6-0.4,2.2-0.9c0.2-0.1,0.4-0.4,0.5-0.6c0.3-0.9,0.9-1.7,0.4-2.7
			c-0.1-0.1,0-0.4,0-0.5c-0.1-0.5-0.2-0.9-0.7-1C8.5,6.6,8.2,6.4,8,6.2C7.6,5.9,7.2,5.8,6.7,5.8C6.1,5.8,5.6,5.8,5,5.8z M11.3,5.6
			c0,0-0.1,0-0.1,0c-0.2,0-0.4,0.1-0.6,0.1c-0.4,0.2-0.5,0.5-0.3,0.9c0.1,0.2,0.3,0.4,0.5,0.5c1.1,0.8,1,1.9,0.8,3
			c-0.1,0.3-0.2,0.6-0.5,0.8c-0.4,0.2-0.5,0.6-0.6,1c-0.1,0.4,0,0.7,0.3,1c0.3,0.3,0.6,0.2,0.9-0.1c0.8-0.7,1.8-1,2.5-1.9
			c0.4-0.6,1.1-0.4,1.5,0.2c0.3,0.6,0.9,0.9,1.5,1.4c0.2,0.1,0.5,0.1,0.7,0.2c0.3,0,0.5,0,0.8,0.1c0.3,0,0.5,0,0.7-0.3
			c0.2-0.3,0-0.5-0.2-0.7c-0.5-0.6-0.8-1.3-1.1-2c-0.2-0.5-0.3-1,0-1.5c0.2-0.4,0.4-0.8,0.5-1.2c0.2-0.4,0.4-0.8,0.7-1.1
			c0.4-0.4,0.4-0.8,0.1-1c-0.3-0.3-0.6-0.2-1,0.1c-0.4,0.3-0.8,0.6-1.3,0.7c-0.1,0-0.3,0.1-0.3,0.2c-0.4,0.5-0.8,0.9-1.1,1.4
			C15.2,7.9,14.7,8,14.1,8c-0.5,0-0.5-0.4-0.7-0.7c0-0.1-0.1-0.2-0.1-0.3C12.8,6.2,12.3,5.5,11.3,5.6z"/>
		<path fill-rule="evenodd" clip-rule="evenodd" d="M0,16.1c1.8,0.3,3.7,0.7,5.5,0.6c1,0,2-0.2,3-0.3c0.3,0,0.6,0,0.9-0.1
			c0.3,0,0.7,0,1-0.1c0.4-0.1,0.9-0.1,1.3,0.1c0.6,0.3,1.2,0.2,1.8,0.1c0.8-0.2,1.5-0.2,2.3-0.1c0.5,0.1,1,0,1.5,0
			c0.5-0.1,0.9-0.1,1.4-0.1c1,0,2,0,3.1,0c0.4,0,0.7,0,1.1,0.1c1.2,0.3,2.5,0.1,3.7,0.1c0.2,0,0.5-0.1,0.7-0.1
			c1.1-0.2,2.3-0.2,3.4-0.1c0.7,0.1,1.4,0.1,2.1-0.1c0.2,0,0.4,0,0.5,0c0.6,0.2,1.2,0.2,1.9,0c0.3-0.1,0.5-0.1,0.8-0.1
			c1.2,0,2.5,0.1,3.7,0.1c0.3,0,0.6,0,0.9,0c0.3,0,0.6,0.1,0.6,0.1s0,1.5,0,2.2c0,0.5,0-1.1,0-0.6c-13.4,0-27,0-40.4,0
			c-0.1,0-0.4,0-0.5,0C0,17.7,0,17.6,0,17.6S0,17.3,0,16.1z"/>
		<path fill-rule="evenodd" clip-rule="evenodd" d="M0,13.5c1.1,0.1,2.4,0.2,3.5,0.2c0.3,0,0.6-0.1,0.9-0.1c0.3,0,0.7,0,1,0
			c0.6,0,1.3,0,1.9,0c0.3,0,0.7,0,1-0.1c0.6-0.1,1.3-0.1,1.9-0.2c0.3,0,0.7-0.1,0.9,0c0.9,0.3,1.9,0.2,2.8,0.2c0.8,0,1.5-0.1,2.3,0
			c0.7,0.1,1.4,0.1,2.1,0.1c0.5,0,1-0.1,1.5-0.1c0.7,0,1.5,0.1,2.2,0.1c0.4,0,0.8,0,1.1,0c0.7,0,1.4,0,2.2,0c0.4,0,0.9,0,1.3-0.1
			c1-0.2,2-0.1,3-0.1c0.4,0,0.8,0,1.1,0c0.6,0,1.1-0.1,1.6,0.2c0.5,0.2,1.1,0.1,1.6-0.1c0.9-0.2,1.8-0.1,2.7,0.1
			c0.3,0.1,0.5,0.1,0.8,0.1c0.5,0,0.6-0.1,0.7-0.5c0.1-0.4-0.1-0.7-0.5-0.9c-0.2-0.1-0.3-0.1-0.5-0.1c-0.4-0.1-0.7-0.3-0.9-0.6
			c-0.2-0.4-0.5-0.8-0.7-1.2c-0.1-0.2-0.3-0.4-0.5-0.5c-0.3-0.2-0.6,0-0.8,0.3c0,0.1,0,0.2,0,0.2c-0.1,0.6-0.3,1.1-0.9,1.4
			c-0.3,0.2-0.6,0.4-0.9,0.6c-0.4,0.3-0.8,0.4-1.3,0.2c-0.2-0.1-0.5,0-0.7,0c-0.1,0-0.2,0-0.3,0.1c-0.3,0-0.5,0-0.6-0.3
			c-0.1-0.2-0.1-0.5,0.1-0.7c0,0,0,0,0,0c0.7-0.5,0.9-1.4,1.4-2c0.4-0.5,0.3-1,0-1.6c-0.3-0.4-0.5-0.8-0.7-1.2
			c-0.1-0.2-0.3-0.4-0.4-0.6c-0.2-0.3-0.3-0.5-0.5-0.8c-0.1-0.3,0.1-0.7,0.3-0.9c0.3-0.2,0.5-0.1,0.8,0.1C30.7,4.9,30.8,5,30.9,5
			c0.4,0.5,0.9,0.6,1.4,0.7C32.7,5.8,33,6,33.2,6.3c0.3,0.3,0.5,0.7,0.8,1c0.1,0.2,0.2,0.3,0.4,0.4c0.4,0.4,0.9,0.4,1.3,0
			c0.3-0.3,0.6-0.7,0.9-1c0.2-0.2,0.4-0.4,0.5-0.6c0.3-0.3,0.7-0.5,1.2-0.5c0.4,0,0.9,0,1.3-0.2c0.1,0,0.2,0,0.3,0
			c0.2,0,0.5,0,0.6,0.2c0.1,0.3,0.2,0.6,0,0.9c-0.1,0.1-0.2,0.3-0.3,0.3c-0.4,0.2-0.6,0.6-0.7,1c-0.1,0.3-0.3,0.5-0.4,0.8
			c-0.2,0.5-0.3,0.9,0,1.4c0.2,0.3,0.3,0.7,0.5,1c0.1,0.3,0.3,0.5,0.4,0.8c0.3,0.5,0.9,1.1,1.2,1.6c0.1,0.2,0,0.6,0,0.9
			c0,0-0.4,0.1-0.5,0.1c-0.4-0.1-0.9-0.1-1.3-0.2c-0.6-0.1-1.3,0-1.9,0.2c-0.4,0.1-0.9,0.2-1.4,0.2c-1.1,0-2.2-0.1-3.3-0.1
			c-0.1,0-0.2,0-0.2,0c-1.2,0.2-2.4,0-3.6,0.2c-0.7,0.1-1.4,0-2.1,0c-3.3,0-6.7-0.1-10,0c-1.2,0-2.4,0.1-3.6,0.1
			c-3.4,0-6.9,0-10.3,0c-0.7,0-1.4,0-2-0.2c-0.2-0.1-0.6-0.3-0.8-0.3C0,13.9,0,13.9,0,13.5z"/>
		<path fill-rule="evenodd" clip-rule="evenodd" d="M0-0.7l41,0v1.4c0,0-0.2,0-1.1,0c-4.7,0-9.5,0-14.2,0c-1.1,0-2.2,0-3.4,0
			c-0.6,0-1.3,0.1-1.9,0.2c-0.3,0-0.5,0-0.8,0c-0.6,0-1.2,0-1.7,0c-0.6,0-1.3,0.1-1.9,0.2c-0.2,0-0.4,0.1-0.6,0
			C14.7,1.1,14,1,13.2,1.1c-0.9,0.1-1.3,0-2.2,0c-0.4,0-1.2,0-1.6,0.2c-0.5,0.3-1.2,0.1-1.8,0c-0.8-0.1-1.3-0.1-2,0
			c-0.3,0-0.7,0-1,0c-0.8,0-1.3-0.1-2.3-0.1C1.6,1.2,0,0.9,0,0.9L0-0.7z"/>
		<path fill-rule="evenodd" clip-rule="evenodd" d="M0,2.6c0.1,0,0.3,0,0.3,0c1.2,0,2.4,0.1,3.6,0.1c1.2,0,2.4,0,3.6,0
			c0.2,0,0.3,0,0.5-0.1c0.4,0,0.8,0,1.2,0c0.3,0,0.5,0.1,0.8,0.1c0.7,0,1.4-0.1,2.1-0.1c0.6,0,1.2-0.1,1.8-0.1c0.7,0,1.3,0.1,2,0.2
			c0.2,0,0.3,0,0.5,0c0.9,0,1.8,0,2.8-0.1c1.1,0,2.1-0.1,3.2-0.2c0.5,0,1.1,0,1.6,0.1c0.3,0,0.7,0.1,1,0.1c1.8,0,3.5,0,5.3,0
			c0.5,0,0.9-0.1,1.4-0.1c0.2,0,0.4,0,0.6,0c0.9,0,1.8,0.1,2.7,0.1c0.3,0,0.6,0,0.9-0.1c0.6-0.2,1.2-0.1,1.8,0
			c0.4,0.1,0.9,0.1,1.3,0.1c0.5,0,1,0,1.6,0c0.2,0,0.5,0,0.5,0s0,0.5,0,0.5c0,0.3,0,0.6,0,0.9c-0.3,0-0.8,0-1,0
			c-0.6,0-1.2,0.1-1.7,0.1c-0.1,0-0.2,0-0.4,0c-1.7,0-3.4,0-5.1,0c-0.5,0-0.9-0.1-1.4-0.1C31,3.9,30.6,4,30.2,4
			c-0.8,0-1.5-0.1-2.3-0.1c-0.2,0-0.4,0-0.5,0c-2.5,0-5,0-7.5,0c-0.4,0-0.8,0-1.1,0C17.5,3.9,16.2,4,15,4.1c-0.4,0-0.9,0-1.3-0.1
			c-1-0.2-1.9-0.1-2.9,0C10,4,9.2,4.2,8.4,4.2C7.5,4.2,6.6,4.1,5.7,4c-0.5,0-1,0-1.5,0.1c-0.2,0-0.4,0-0.5,0C3,4.1,2.4,4.2,1.9,4.2
			C1.3,4.2,0.6,4,0,4C0,3.5,0,3,0,2.6z"/>
		<path fill-rule="evenodd" clip-rule="evenodd" d="M24,12.4c-0.1,0-0.3,0-0.4,0c-0.6,0-1.2-0.2-1.8-0.4c-0.7-0.3-1.2-0.8-1.6-1.5
			c-0.7-1.1-0.7-2.3,0.1-3.3C21,6.4,21.9,5.8,23,5.5c0.2,0,0.3-0.1,0.5-0.1c0.7,0.1,1.3,0.1,2,0.2c0.4,0,0.8,0.1,1.3,0
			c0.5,0,0.9,0.1,1.1,0.5c0.4,0.5,0.8,1.1,1.3,1.6c0.6,0.6,0.3,1.9-0.1,2.5c-0.2,0.3-0.4,0.7-0.6,1c-0.1,0.1-0.2,0.3-0.3,0.4
			c-0.7,0.3-1.4,1-2.3,0.9C25.3,12.3,24.6,12.4,24,12.4z M24.6,6.8c-1,0.1-1.7,1-1.3,1.9c0.2,0.7,0.8,1.1,1.4,1.4
			c0.1,0.1,0.4,0.1,0.5,0c0.3-0.1,0.7-0.3,1-0.4c0.5-0.3,0.6-1.5,0-1.9c-0.3-0.2-0.6-0.5-0.9-0.7C25.1,7,24.9,6.9,24.6,6.8z"/>
		<path fill-rule="evenodd" clip-rule="evenodd" d="M5,5.8c0.6,0,1.1,0,1.7,0c0.5,0,0.9,0.1,1.3,0.4c0.3,0.2,0.5,0.4,0.8,0.4
			c0.6,0.1,0.6,0.6,0.7,1c0,0.2,0,0.4,0,0.5c0.5,1-0.1,1.8-0.4,2.7c-0.1,0.2-0.3,0.4-0.5,0.6C8,12,7.3,12.4,6.4,12.4
			c-0.2,0-0.4,0-0.6,0.1c-0.5,0.2-1.1,0.1-1.6,0c-0.3-0.1-0.6-0.1-0.8-0.1C1.5,12,0,10.6,0.5,8.5c0.1-0.4,0.1-0.7,0.2-1.1
			c0-0.4,0.2-0.6,0.6-0.7c0.4-0.1,0.7-0.3,1-0.5C2.6,5.9,3,5.8,3.5,5.8C4,5.8,4.5,5.8,5,5.8z M5.1,7.6c-1,0-1.6,0.6-1.7,1.5
			C3.3,9.9,4.1,10.8,5,10.8c0.9,0,1.7-0.9,1.6-1.6C6.6,8.2,6,7.6,5.1,7.6z"/>
		<path fill-rule="evenodd" clip-rule="evenodd" d="M11.3,5.6c1,0,1.5,0.6,2,1.4c0.1,0.1,0.1,0.2,0.1,0.3c0.1,0.3,0.2,0.7,0.7,0.7
			c0.6,0,1-0.1,1.4-0.6c0.3-0.5,0.8-1,1.1-1.4c0.1-0.1,0.2-0.2,0.3-0.2c0.5-0.1,0.9-0.4,1.3-0.7c0.4-0.3,0.8-0.4,1-0.1
			c0.3,0.3,0.3,0.7-0.1,1c-0.3,0.3-0.5,0.7-0.7,1.1c-0.1,0.4-0.3,0.8-0.5,1.2c-0.2,0.5-0.2,1,0,1.5c0.3,0.7,0.6,1.4,1.1,2
			c0.2,0.2,0.4,0.4,0.2,0.7c-0.2,0.3-0.4,0.3-0.7,0.3c-0.3,0-0.5,0-0.8-0.1c-0.3,0-0.6,0-0.7-0.2c-0.5-0.4-1.1-0.7-1.5-1.4
			c-0.3-0.6-1-0.7-1.5-0.2c-0.7,0.9-1.7,1.2-2.5,1.9c-0.2,0.2-0.6,0.3-0.9,0.1c-0.3-0.3-0.4-0.6-0.3-1c0.1-0.4,0.2-0.8,0.6-1
			c0.3-0.2,0.5-0.4,0.5-0.8c0.2-1.1,0.3-2.2-0.8-3c-0.2-0.1-0.3-0.3-0.5-0.5c-0.3-0.4-0.2-0.7,0.3-0.9c0.2-0.1,0.4-0.1,0.6-0.1
			C11.2,5.5,11.3,5.6,11.3,5.6z"/>
		<path fill-rule="evenodd" clip-rule="evenodd" fill="none" d="M24.6,6.8c0.2,0.1,0.5,0.2,0.7,0.3c0.3,0.2,0.6,0.5,0.9,0.7
			c0.6,0.4,0.5,1.6,0,1.9c-0.3,0.2-0.6,0.3-1,0.4c-0.2,0.1-0.4,0.1-0.5,0c-0.6-0.3-1.2-0.7-1.4-1.4C23,7.8,23.6,6.8,24.6,6.8z"/>
		<path fill-rule="evenodd" clip-rule="evenodd" fill="none" d="M5.1,7.6c0.9,0,1.5,0.6,1.6,1.6C6.7,9.9,6,10.8,5,10.8
			c-0.9,0-1.7-0.9-1.6-1.7C3.5,8.2,4.1,7.6,5.1,7.6z"/>
	</g>
</g>
</svg>
