<?xml version="1.0" encoding="utf-8"?>
<!-- Generator: Adobe Illustrator 16.0.0, SVG Export Plug-In . SVG Version: 6.00 Build 0)  -->
<!DOCTYPE svg PUBLIC "-//W3C//DTD SVG 1.1 Basic//EN" "http://www.w3.org/Graphics/SVG/1.1/DTD/svg11-basic.dtd">
<svg version="1.1" baseProfile="basic" id="breadcrum-line_xA0_Image_1_"
	 preserveAspectRatio="none" xmlns="http://www.w3.org/2000/svg" xmlns:xlink="http://www.w3.org/1999/xlink" x="0px" y="0px" width="936px" height="14px"
	 viewBox="0 0 936 14" xml:space="preserve">
<g>
	<g>
		<path fill-rule="evenodd" clip-rule="evenodd" d="M936,3.3c-11,0-22-0.1-33,0.1c-7.6,0.1-15.2,0.7-22.8,0.9
			c-7.7,0.2-19-0.6-26.6,0c-18.1,1.6-30.8-2.3-48.9-1.3c-17.5,1-34.9,0.6-52.4,0.7c-2.1,0-4.1,0.9-6.4,0.2c-2.1-0.6-4.6-0.1-7-0.1
			s-4.7,0-7,0c-2.2,0-4.3,0-6.5,0c-2.3,0-4.7,0-7,0c-2.3,0-4.7,0-7,0c-2.3,0-4.7,0-7,0c-2.3,0-4.7,0-7,0c-2.3,0-4.7,0-7,0
			c-2.3,0-4.7,0-7,0c-2.2,0-4.3,0-6.5,0c-2.3,0-4.7,0-7,0c-2.3,0-4.7,0-7,0c-2.3,0-4.7-0.1-7,0c-4.4,0.2-8.9-0.8-13.3,0.8
			c-2.4-1.5-4.8,1-7.1,0c-2.1-0.9-4.5,1-6.5-0.7c-3.7,1.5-7.3-0.5-11.1-0.1c-3.6,0.4-7.3,0.1-11,0.1c-3.8,0-7.7,0-11.5,0
			c-3.7,0-7.3-0.1-11,0c-5.1,0.2-10.2-0.4-15.3,0.7c-2,0.4-4.4,0.2-6.6,0.2c-2.2,0-4.3,0.1-6.5,0.1c-52.5,0-105,0-157.4-0.1
			c-1.4,0-2.9-0.5-4.3-0.6c-1.4-0.1-2.7-0.1-4.1-0.1c-1.9,0.1-3.9,0.3-5.8,0.4c-0.6,0.1-1.3,0.3-1.9,0.2c-7.8-1.5-15.6-0.7-23.5-0.9
			c-10.5-0.2-21,0.5-31.5-0.2c-14-0.9-28-1.3-41.9-0.5c-13.1,0.8-26.2,0.2-39.3,0.6c-2.1,0.1-4.3,0.6-6.3-0.7c-0.3-0.2-1-0.2-1.5,0
			c-2.6,1-5.5,0.2-8,0.7c-2.7,0.5-5.1-1.4-7.5-0.1C205.4,2.4,187.7,3.1,170,3c-28.7-0.1-57.3,0-86,0C69.8,4.8,55.5,3.7,41.2,3.9
			C27.1,4.1,12.9,4-1.3,4c-0.3,0-0.7,0-1-0.1c0-0.7,0-1.3,0-2c0.6-0.7,0.8-1.3,0-2c0-0.7,0-1.3,0-2c1.4-1.8-2-6.4,0.2-6.4
			c21.6-0.4,888-1,938.1-1c2.3,0-0.4,3.9,1.7,5.5C937.7-2.4,936,1.7,936,3.3z"/>
		<path fill-rule="evenodd" clip-rule="evenodd" d="M-2.3,8.9C3.7,9.3,9.5,8.1,15.4,9.1c3.8,0.6,7.4-1.7,11.1,0.6
			c2.2-2.2,4.5,0.7,7-0.6c2.2-1.2,4.9-0.3,7.4-0.3c2.5,0,5,0,7.5-0.1c2.5,0,5,0,7.5,0c15.7-0.1,31.3,0.4,47-0.6
			c9.8-0.6,19.6-1.9,29.3-1c18.5,1.7,36.9,0.7,55.4,1.1c3.5,0.1,7,1.3,10.4,1c4-0.3,7.9,0,11.9-0.8c4.4-0.8,9-0.6,13.6-0.6
			c27.2,0,54.3-0.8,81.5,0c21.2,0.6,42.8-0.2,63.9-0.1c21.5,0,46-0.7,67.5,0.3c13.6,0.7,23.8,1.3,37.4,1.9c1.6,0.1,3.1,0.9,4.7,2.3
			c-1,0.1-2,0.4-3,0.4c-4.5,0.1-9,0.6-13.5,0c-17.4-2.3-34.9-0.9-52.3-1.1c-17.5-0.2-34.7,1.6-52.2,0.3c-31.8-2.2-55.6,1-73,0.8
			c-24.5-0.3-46.5-0.9-71-0.8c-2.7,0-8.1,0.8-10.8,0.3c-3-0.5-7.7,0.2-10.7,0.2c-2.8,0-4.8-1.4-7.6-1.4c-2.8,0-5.7,0-8.5,0.1
			c-2.8,0-5.7,0-8.5,0.1c-3,0-6,0-9,0c-2.8,0-5.7,0-8.5,0c-2.8,0-5.7,0.1-8.5-0.1c-1.8-0.1-3.5-0.8-5.3-1c-1-0.1-2-0.2-2.9,0
			c-5.1,1.5-10.2,1.3-15.4,0.6c-1.4-0.2-2.8,0.1-4.2,0.5c-1.2,0.4-2.3-0.7-3.7-0.3c-3.5,1-7.1-0.9-10.7,0.1c-1,0.3-7.5,0.5-8.6,0.5
			c-12.2,0-17.8,0.2-30.7,0.5c-16.7,0.4-33.7-1-50.3-0.4c-1.9,0.1-3.8-0.1-5.8-1c-1.8-0.8-4.1,0.7-6.2,1.2
			C-2.3,10.9-2.3,9.9-2.3,8.9z"/>
		<path fill-rule="evenodd" clip-rule="evenodd" d="M940.8,11.9c-14.8-0.1-25.4,2.2-40.9,0.7c-20.8-0.7-45.5,1.2-68.3-0.3
			c-16.3-1.1-32.6,0.4-49,0.5c-16.5,0-29.1-0.4-45.6-0.2c-8.6,0.1-20.5,0.2-29.2,0.2c-8.8,0-15.7-0.8-25.7-0.5
			c-16.5,0.6-34.5,0.8-50.9-0.2c-10.9-0.7-20.9,0.9-31.8,0.4c-2.2-0.1-6.4,0.6-8.7,0c-2.4-0.7-4-0.7-6.4-1.1
			c-2.2-0.3-4.6-0.2-6.6,0.3c-7.6,1.6-15,0.6-22.6,0.9c-7.7,0.2-15.4-0.6-23,0.2c-7.5,0.7-15.1-0.3-22.6-0.2c-1.1,0-2.3,0-3.5-0.8
			c1.1-0.3,2.2-0.6,3.3-0.9c1.1-0.3,2.2-0.8,3.3-0.9c1.3-0.2,2.7,0,4,0c9.3,0.1,18.7,0.7,28,0.1c31.9-2.1,63.9,0,95.8,0.1
			c31.8,0,64.5-0.4,96.3,0c2.7,0,4.5,0.2,7.3,0.8c2.6,0.5,6.1-0.7,8.7-0.3c3.6,0.5,6.8-1.3,10.5-0.5c3.6,0.8,9.2,0.1,12.8-0.2
			c24.6-1.6,47.1,0,71.7-0.2c4.1,0,8-0.2,12.1,0.1c2.7,0.2,5.4,0.3,8.1,0.1c2.8-0.2,5.7,0,8.5,0c2.8,0,5.7,0,8.5,0.1
			c2.8,0,5.7,0.1,8.5,0.1c2.8,0,6.1-1.4,8.9-1.3c2.3,0.1,4.2,0.8,6.6,1.3c2.4,0.5,5.4-1.5,7.9-1.2c2.3,0.2,4.5-1.8,6.8,0
			c2.7-2,5.6-0.5,8.4-0.9c3-0.4,5.6,1.3,8.6,1.3C940.9,10,940.9,11,940.8,11.9z"/>
		<path fill-rule="evenodd" clip-rule="evenodd" d="M478.5,11.6c4.5-3.8,8.9-5.2,14-3.9c-1.2,0.7-2.3,1.7-3.6,2.1
			c-1.6,0.6-3.4,0.7-5.1,1C482.2,11.1,480.7,11.3,478.5,11.6z"/>
		<path fill-rule="evenodd" clip-rule="evenodd" d="M499.1,8.3c-1,0.7-1.7,1.3-2.5,1.6c-0.4,0.1-1-0.4-1.5-0.6
			c1.3-0.2,1-1.7,1.7-2.2C497,6.9,498,7.8,499.1,8.3z"/>
	</g>
</g>
</svg>
