<?xml version="1.0" encoding="utf-8"?>
<!-- Generator: Adobe Illustrator 16.0.0, SVG Export Plug-In . SVG Version: 6.00 Build 0)  -->
<!DOCTYPE svg PUBLIC "-//W3C//DTD SVG 1.1//EN" "http://www.w3.org/Graphics/SVG/1.1/DTD/svg11.dtd">
<svg version="1.1" id="Layer_1" xmlns="http://www.w3.org/2000/svg" xmlns:xlink="http://www.w3.org/1999/xlink" x="0px" y="0px"
	 width="20" height="31.807" viewBox="0 0 20 31.807">
<g id="Layer_1_xA0_Image_1_">
	<g>
		<path fill="#FFFFFF" d="M0.26,1.042c0,0,1.813,0.161,3.172,0.176c1.359,0.016,4.938-0.016,7.047,0.392S14.51,2.672,15.9,3.422
			c1.39,0.75,2.858,1.72,3,2.203C19.041,6.109,5.375,18.611,5.375,18.611L1.76,19.542l-1.833-0.063V1.209L0.26,1.042z"/>
		<g>
			<path fill="#010101" d="M14.104,6.422C14,6.262,13.869,6.116,13.676,6.005c-0.302-0.175-0.609-0.211-0.912-0.16
				C13.307,5.814,13.792,6.046,14.104,6.422z"/>
			<path fill="#010101" d="M17.727,7.477c0.065-0.166,0.063-0.333,0.004-0.497C17.703,7.15,17.695,7.319,17.727,7.477z"/>
			<path fill="#010101" d="M19.875,7.39c-0.059-1.611-0.964-2.604-2.232-3.446c-3.176-2.104-6.72-2.913-10.45-3.001
				c-2.412-0.058-4.8-0.034-7.213-0.037v0.766c1.54-0.036,3.056,0.063,4.599-0.006c4.887-0.218,9.493,0.651,13.56,3.568
				C18.369,5.639,18.23,6,17.986,6.335c-0.146,0.199-0.221,0.422-0.256,0.646c0.061,0.164,0.063,0.331-0.004,0.497
				c0.022,0.121,0.063,0.233,0.117,0.336c0.561,1.041,0.064,1.534-0.771,1.956c-0.535,0.4-0.387,1.218-0.959,1.596
				c-0.317,0.437-0.766,0.425-1.229,0.354c-0.101-0.022-0.2-0.043-0.304-0.053c-0.254,0.021-0.501-0.011-0.743-0.089
				c-0.094-0.035-0.188-0.061-0.289-0.075c-0.245-0.022-0.479-0.103-0.723-0.14c-0.289-0.047-0.565-0.14-0.847-0.216
				c-0.281-0.053-0.592-0.035-0.758-0.341c-0.06-0.078-0.119-0.156-0.18-0.233c-0.057-0.081-0.113-0.162-0.174-0.241
				c-0.186-0.246-0.342-0.51-0.466-0.792c-0.374-2.233,0.283-3.56,2.346-3.697c0.006,0,0.011,0.001,0.017,0
				c0.303-0.051,0.61-0.015,0.912,0.16c0.193,0.113,0.324,0.26,0.428,0.419c0.23,0.28,0.369,0.64,0.352,1.039
				C14.449,7.584,14.4,7.773,14.32,7.769c-0.303-0.015-0.092-0.229-0.07-0.324c0.094-0.396,0.034-0.74-0.146-1.022
				c-0.312-0.376-0.795-0.607-1.338-0.576C12.503,5.889,12.247,5.996,12,6.158c-0.473,0.311-0.924,0.633-0.979,1.263
				c0.143,0.598,0.013,1.2,0.043,1.798c0.018,0.123,0.045,0.243,0.09,0.359c0.236,0.852,0.869,1.19,1.68,1.302
				c0.482,0.07,0.977,0.044,1.457,0.143c0.234,0.045,0.463,0.116,0.706,0.092c0.629-0.126,1.479,0.222,1.694-0.79
				c0.064-0.152,0.125-0.306,0.197-0.454c0.112-0.405,0.186-0.813,0.159-1.235c-0.03-0.36,0.208-0.54,0.435-0.777
				c0.115-0.123,0.191-0.25,0.244-0.379C17.695,7.319,17.703,7.15,17.73,6.98c-0.057-0.152-0.148-0.303-0.334-0.441
				c-0.16-0.046-0.334,0.011-0.489-0.067h-0.001c-0.043-0.116-0.147-0.177-0.229-0.258c-0.904-0.714-1.705-1.679-2.73-2.094
				C10.977,2.915,7.79,3.004,4.643,2.983C4.529,2.98,4.412,3.139,4.296,3.222c0.097,0.061,0.189,0.127,0.29,0.18
				c0.243,0.126,0.49,0.247,0.736,0.369c-0.315,0.034-0.63,0.086-0.946,0.096c-0.398,0.012-0.799-0.02-1.197-0.016
				c-0.109,0-0.218,0.058-0.326,0.09C2.952,4.038,3.037,4.199,3.15,4.224c0.896,0.19,1.798,0.353,2.696,0.533
				c0.149,0.03,0.288,0.106,0.433,0.161C6.138,4.958,5.998,5.03,5.856,5.031c-0.478,0.003-0.98,0.068-1.43-0.051
				C3.529,4.743,3.65,5.679,3.204,5.941c0.329,0.155,0.651,0.323,0.989,0.457c0.143,0.057,0.324,0.014,0.471,0.064
				C4.798,6.51,4.91,6.625,5.031,6.71C4.913,6.77,4.8,6.855,4.674,6.882C4.521,6.915,4.35,6.873,4.199,6.91
				C3.998,6.96,3.808,7.058,3.613,7.135c0.169,0.087,0.338,0.171,0.505,0.259c0.122,0.063,0.24,0.135,0.36,0.203
				C4.337,7.658,4.201,7.734,4.054,7.777c-0.112,0.033-0.24,0.01-0.355,0.036C3.474,7.863,3.253,7.93,3.032,7.99
				c0.241,0.103,0.474,0.254,0.726,0.301c0.861,0.157,1.732,0.265,2.595,0.42C6.604,8.756,6.837,8.902,7.08,9.002
				C6.841,9.025,6.603,9.045,6.365,9.073C5.337,9.191,4.024,8.83,3.923,10.517c-0.467,0.968,0.695,0.973,0.924,1.539
				c0.004,0.228-0.14,0.396-0.329,0.435c-0.888,0.173-0.626,0.445-0.085,0.766c0.203,0.12,0.409,0.228,0.633,0.312
				c0.23,0.086,0.459,0.065,0.691,0.078c0.098,0.006,0.196-0.013,0.293,0.012c-0.266,0.02-0.453,0.137-0.479,0.418
				c-0.012,0.119,0.105,0.221,0.117,0.326c0.08,0.709,0.634,0.797,1.166,0.917C6.927,15.314,7,15.324,7.07,15.346
				c0.087,0.188-0.004,0.311-0.181,0.321c-0.866,0.062-1.117,0.574-1.026,1.354c0.217,0.098,0.435,0.194,0.651,0.293
				c-0.21,0.063-0.419,0.172-0.63,0.176c-0.559,0.012-1.117-0.027-1.677-0.039c-0.116-0.002-0.232,0.033-0.349,0.051
				c0.049,0.086,0.076,0.199,0.148,0.25c0.185,0.129,0.389,0.23,0.585,0.342c-0.239,0-0.478,0.009-0.716-0.002
				c-0.359-0.016-0.718-0.055-1.077-0.063c-0.19-0.004-0.382,0.039-0.573,0.059c0.14,0.123,0.268,0.265,0.423,0.359
				c0.197,0.123,0.417,0.211,0.628,0.313c-0.25,0.046-0.503,0.14-0.749,0.125c-0.858-0.045-1.691,0.222-2.549,0.173v0.896
				c2.308,0.078,4.588-0.16,6.896-0.09c1.033,0.033,2.435-0.273,2.998,0.27c0.613,0.591,0.481,1.984,0.612,3.037
				c0.241,1.937,1.146,3.121,3.056,3.47c1.069,0.194,2.231,0.149,3.31-0.037c1.82-0.316,2.313-0.851,2.459-2.709
				c0.328-4.183,0.594-8.371,0.799-12.56C20.17,10.026,19.923,8.706,19.875,7.39z"/>
			<path fill="#9C9C9C" d="M5.748,12.021c-0.161,0.203-0.282,0.476-0.491,0.594C5,12.762,4.669,12.779,4.372,12.853
				c0.319,0.114,0.63,0.272,0.96,0.336c0.584,0.11,1.183,0.144,1.768,0.253c0.156,0.029,0.282,0.221,0.423,0.338
				c-0.15,0.049-0.296,0.115-0.45,0.145c-0.333,0.064-0.67,0.109-1.006,0.162c0.263,0.41,0.525,0.82,0.788,1.232
				c-0.424-0.041-0.861-0.031-1.268-0.138c-0.308-0.08-0.947,0.065-0.551-0.769c0.101-0.211-0.997-0.992-1.545-1.512
				c-0.06-0.046-0.081-0.096-0.067-0.147c0.016-0.054,0.032-0.08,0.051-0.08l-0.001,0.011c0.081-0.07,0.163-0.142,0.245-0.21
				c0.218-0.016,0.437-0.029,0.655-0.044c0.167-0.069,0.166-0.137-0.004-0.198c-0.056,0-0.108-0.009-0.161-0.026
				C4.627,11.352,5.185,11.668,5.748,12.021z"/>
			<path fill="#A7A7A7" d="M18.137,5.233c0.073,0.137,0.201,0.269,0.211,0.41c0.103,1.43,0.198,2.86,0.256,4.293
				c0.008,0.196-0.197,0.403-0.305,0.604c-0.38-1.383-0.506,0.401-0.804,0.064c-0.026-0.029-0.062-0.051-0.093-0.076
				c-0.623-0.854-0.53-1.762-0.104-2.632c0.207-0.424,0.297-0.79,0.119-1.218c-0.111-0.077-0.211-0.171-0.296-0.279
				c0.159-0.194,0.313-0.392,0.479-0.581C17.775,5.621,17.958,5.429,18.137,5.233z"/>
			<path fill="#9C9C9C" d="M7.07,15.346c0.241,0.071,0.482,0.145,0.724,0.215c-0.18,0.09-0.35,0.219-0.539,0.26
				c-0.391,0.084-0.376,0.059-0.252,0.467c0.028,0.094-0.088,0.299-0.188,0.351c-0.304,0.153-0.633,0.26-0.951,0.385
				c-0.314-0.027-0.641-0.013-0.94-0.092c-0.359-0.097-0.813-0.185-0.147-0.636c0.221-0.149-0.118-0.854,0.644-0.78
				C5.958,15.566,6.518,15.41,7.07,15.346z"/>
			<path fill="#AAAAAA" d="M5.748,12.021c-0.514,0.061-1.026,0.122-1.539,0.183c-0.677-0.464-0.617-1.053-0.285-1.687
				c0.212,0.25,0.376,0.597,0.646,0.727c0.41,0.198,0.894,0.246,1.345,0.358C5.859,11.742,5.803,11.882,5.748,12.021z"/>
			<path fill="#A7A7A7" d="M16.906,6.469c-0.076-0.085-0.152-0.171-0.229-0.257C16.753,6.298,16.83,6.384,16.906,6.469z"/>
			<path fill="#AAAAAA" d="M3.718,12.473c-0.082,0.069-0.164,0.14-0.245,0.21C3.554,12.612,3.636,12.543,3.718,12.473z"/>
			<path fill="#AAAAAA" d="M3.474,12.673c0.007,0.076,0.013,0.151,0.017,0.229c-0.023-0.051-0.055-0.101-0.067-0.153
				C3.418,12.728,3.456,12.697,3.474,12.673z"/>
			<path fill="#A7A7A7" d="M17.157,6.654c-0.083-0.063-0.167-0.123-0.25-0.185c0.069-0.029,0.143-0.053,0.217-0.068l0.062,0.066
				c0.076,0.054,0.098,0.1,0.063,0.137C17.219,6.637,17.188,6.654,17.157,6.654z"/>
			<path fill="#AAAAAA" d="M4.37,12.23c0.021,0.046,0.047,0.091,0.058,0.139c0.004,0.015-0.035,0.039-0.054,0.061
				C4.384,12.362,4.382,12.297,4.37,12.23z"/>
			<path fill="#FAFAFA" d="M14.391,19.869c-1.041-0.17-1.797-0.229-2.504-0.445c-0.222-0.065-0.406-0.526-0.457-0.834
				c-0.308-1.825-0.578-3.657-0.834-5.49c-0.035-0.239,0.078-0.498,0.123-0.747c0.217,0.045,0.479,0.027,0.645,0.146
				c1.398,1.012,2.959,0.959,4.56,0.761c0.345-0.043,0.709,0.011,1.058,0.068c0.363,0.062,0.72,0.179,1.078,0.273
				c-0.289,0.17-0.613,0.299-0.854,0.52c-0.209,0.191-0.461,0.492-0.453,0.738c0.023,0.744-0.152,1.412-0.438,2.082
				c-0.01,0.021,0.502,0.307,0.791,0.403c0.24,0.08,0.513,0.064,0.771,0.093c-0.231,0.119-0.489,0.207-0.69,0.366
				c-0.199,0.16-1.039,0.066-0.328,0.687c0.033,0.029-0.015,0.24-0.07,0.268C15.914,19.172,15.037,19.572,14.391,19.869z"/>
			<path fill="#E4E4E4" d="M12.191,24.65c-0.188-1.021-0.406-2.035-0.555-3.062c-0.1-0.69,0.151-0.981,0.963-0.889
				c0.94,0.107,1.908-0.027,2.864-0.047c0.233-0.006,0.47,0.027,0.705,0.043c-0.548,0.443-0.403,0.85,0.063,1.24
				c-0.899,0.539,0.317,0.453,0.207,0.688c-0.203,0.437-0.5,0.826-0.715,1.256c-0.067,0.136-0.062,0.398,0.027,0.492
				c0.126,0.135,0.359,0.168,0.548,0.244c-0.183,0.076-0.358,0.184-0.548,0.223c-0.969,0.199-1.941,0.384-2.913,0.57
				C12.693,25.1,12.4,24.91,12.191,24.65z"/>
			<path fill="#FAFAFA" d="M9.958,9.815C9.946,8.762,9.82,7.694,9.953,6.66c0.117-0.908,1.318-1.487,2.559-1.358
				c1.072,0.111,2.047,0.555,2.551,1.531c0.226,0.438,0.25,1.414,0.008,1.563c-0.541,0.333-1.307,0.299-1.98,0.416
				c0.002-0.408-0.146-1.068,0.033-1.175c0.499-0.295,1-0.566,0.576-1.118c-0.148-0.193-0.915-0.013-1.346,0.146
				c-0.291,0.107-0.488,0.473-0.729,0.723c-0.217,0.659-0.602,1.246-0.689,1.975C10.891,9.73,10.684,10.54,9.958,9.815z"/>
			<path fill="#777777" d="M17.157,6.654c0.001-0.063,0.01-0.125,0.026-0.187c0.146,0.411,0.407,0.82,0.41,1.231
				c0.004,0.943-0.119,1.887-0.189,2.831c-0.236,0.486-0.473,0.973-0.709,1.46c-0.67,0.171-0.771-0.21-0.643-0.714
				c0.088-0.34,0.256-0.662,0.373-0.998c-0.004-0.15-0.008-0.301-0.013-0.452c-0.313-0.476,0.25-0.807,0.207-1.24
				c0.17-0.349,0.385-0.684,0.496-1.051C17.199,7.262,17.148,6.949,17.157,6.654z"/>
			<path fill="#363636" d="M16.426,10.278c0.09,0.571,0.18,1.142,0.27,1.712c-0.648,0.066-1.297,0.133-1.945,0.2
				c-0.146-0.505-0.238-1.001,0.23-1.405C15.462,10.617,15.945,10.447,16.426,10.278z"/>
			<path fill="#6B6B6B" d="M9.958,9.815c0.188-0.116,0.452-0.188,0.552-0.355c0.398-0.674,0.747-1.379,1.113-2.071
				C11.561,8.02,11.5,8.652,11.438,9.284c-0.301,0.467,0.135,1.305-0.748,1.479C10.447,10.447,10.203,10.131,9.958,9.815z"/>
			<path fill="#C7C7C7" d="M10.691,10.762c0.248-0.493,0.498-0.986,0.746-1.479L11.454,9.3c0.165,0.482-0.048,1.195,0.8,1.259
				c0.357,0.026,0.648,0.237,0.563,0.622c-0.121,0.548-0.53,0.487-0.939,0.319c-0.335-0.149-0.669-0.3-1.004-0.451
				C10.855,10.927,10.777,10.843,10.691,10.762L10.691,10.762z"/>
			<path fill="#6B6B6B" d="M11.876,11.501c0.214-0.126,0.427-0.251,0.642-0.378c-0.183-0.04-0.367-0.063-0.543-0.121
				C11,10.683,11.58,9.883,11.454,9.3c0.458,0.415,0.917,0.83,1.376,1.245c0.322,0.41,0.889,0.818,0.007,1.235
				C12.518,11.688,12.197,11.594,11.876,11.501z"/>
			<path fill="#363636" d="M12.836,11.78c-0.002-0.412-0.005-0.824-0.007-1.235c0.573,0.001,1.146,0.003,1.72,0.005
				c0.121,0.542,0.118,1.085,0.006,1.628c-0.324-0.075-0.65-0.15-0.976-0.228c0.086-0.139,0.116-0.292,0.131-0.451
				c-0.015,0.159-0.046,0.313-0.133,0.451C13.331,11.895,13.083,11.837,12.836,11.78z"/>
			<path fill="#9D9D9D" d="M14.555,12.179c-0.002-0.544-0.004-1.086-0.006-1.629c0.145,0.078,0.287,0.156,0.432,0.235
				c-0.078,0.468-0.154,0.937-0.23,1.405C14.684,12.19,14.62,12.187,14.555,12.179z"/>
			<path fill="#D1D1D1" d="M6.243,10.25c-0.288-0.139-0.561-0.271-0.834-0.401c0.202-0.073,0.419-0.232,0.603-0.2
				C6.358,9.707,6.685,9.875,7.02,9.999C6.779,10.077,6.539,10.155,6.243,10.25z"/>
			<path fill="#D2D2D2" d="M6.542,11.205c-0.291-0.113-0.578-0.225-0.865-0.336c0.208-0.058,0.423-0.18,0.624-0.161
				c0.407,0.038,0.808,0.153,1.211,0.236C7.206,11.026,6.899,11.109,6.542,11.205z"/>
			<path fill="#363636" d="M16.62,8.586C16.551,9,16.482,9.414,16.414,9.827C15.577,9.263,16.537,8.998,16.62,8.586z"/>
			<path fill="#8E8E8E" d="M12.191,24.65c0.217,0.254,0.434,0.508,0.648,0.762C12.625,25.158,12.408,24.904,12.191,24.65z"/>
			<path fill="#FAFAFA" d="M17.666,12.715c-0.035,0.057-0.064,0.117-0.111,0.162c-0.018,0.017-0.104-0.007-0.104-0.013
				c-0.001-0.064,0.009-0.128,0.017-0.191C17.532,12.687,17.6,12.701,17.666,12.715z"/>
			<path fill="#6B6B6B" d="M10.691,10.763c0.061,0.096,0.121,0.191,0.182,0.287C10.813,10.955,10.751,10.858,10.691,10.763z"/>
			<path fill="#9D9D9D" d="M15.624,11.557c-0.021,0.066-0.045,0.136-0.067,0.202c-0.078-0.05-0.156-0.1-0.234-0.149
				c0.045-0.058,0.078-0.146,0.133-0.161C15.496,11.436,15.564,11.516,15.624,11.557z"/>
			<path fill="#808080" d="M13.578,11.951c-0.016-0.036-0.049-0.074-0.045-0.107c0.039-0.282,0.086-0.565,0.13-0.849
				c0.093,0.036,0.187,0.072,0.278,0.108c-0.121,0.282-0.24,0.565-0.361,0.848H13.578z"/>
		</g>
	</g>
</g>
</svg>
