<?xml version="1.0" encoding="utf-8"?>
<!-- Generator: Adobe Illustrator 16.0.0, SVG Export Plug-In . SVG Version: 6.00 Build 0)  -->
<!DOCTYPE svg PUBLIC "-//W3C//DTD SVG 1.1//EN" "http://www.w3.org/Graphics/SVG/1.1/DTD/svg11.dtd">
<svg version="1.1" id="Layer_1" xmlns="http://www.w3.org/2000/svg" xmlns:xlink="http://www.w3.org/1999/xlink" x="0px" y="0px"
	 width="28" height="31.807" viewBox="0 0 28 31.807">
<g id="Layer_1_xA0_Image_1_">
	<g>
		<path fill="#FFFFFF" d="M16.818,20c-2.958,0.25-11.166-4.667-12.333-6.042S2.027,7.375,3.527,5.583S8.902,1.75,14.194,1.458
			c5.292-0.292,9.417-0.083,10.875-0.125c1.459-0.042,3.021-0.271,3.021-0.271l-0.016,18.469L16.818,20z"/>
		<g>
			<path fill="#010101" d="M24.635,1.045c-0.748,0.221-0.988,0.032-1.275,0.539c1.57,0.015,3.14,0.029,4.709,0.042V0.877
				C26.924,0.912,25.779,0.989,24.635,1.045z"/>
			<path fill="#010101" d="M18.211,6.286c0.016-0.006,0.033-0.005,0.048-0.011c-0.007,0-0.014,0-0.021,0
				C18.218,6.287,18.236,6.274,18.211,6.286z"/>
			<path fill="#010101" d="M4.141,11.294c-0.085-0.275-0.139-0.559-0.186-0.844C3.905,10.758,3.969,11.016,4.141,11.294z"/>
			<path fill="#010101" d="M19.77,8.377c0.006,0.007,0.01,0.001,0.017,0.017c0.017,0.036,0.051,0.019,0.106,0.016
				c0.119-0.008,0.236,0.002,0.354,0.012c-0.128-0.015-0.257-0.026-0.382-0.052C19.816,8.358,19.79,8.354,19.77,8.377z"/>
			<path fill="#010101" d="M22.939,19.092c-2.271,0.009-4.543,0.206-6.814,0.308c-0.217,0.01-0.439-0.072-0.659-0.112
				c0.231-0.111,0.454-0.29,0.697-0.325c1.302-0.188,2.61-0.335,3.914-0.518c0.166-0.023,0.313-0.17,0.47-0.26
				c-0.156-0.025-0.314-0.08-0.47-0.072c-1.429,0.063-2.854,0.141-4.282,0.214c-0.867-0.562-0.191-0.707,0.247-0.917
				c1.026-0.089,2.054-0.178,3.079-0.268c0.311-0.228,0.482-0.42-0.053-0.601c-0.284-0.096-0.769,0.311-0.85-0.317
				c0.219-0.021,0.438-0.04,0.656-0.062c0.381-0.232,0.843,0.041,1.225-0.197l0.004-0.002c-0.369-0.758-0.963-0.271-1.472-0.268
				c-0.224-0.007-0.448-0.013-0.673-0.021c-0.385-0.127-0.465-0.271-0.021-0.438c0.797-0.08,1.594-0.159,2.391-0.238
				c-0.01-0.754,0.072-1.4,1.093-1.384c0.285,0.005,0.382-0.356,0.392-0.649c0.164-1.341,0.304-1.271-1.787-2.035
				c-0.232,0.067-0.289,0.266-0.348,0.465c-0.003,0.003-0.025,0.066-0.027,0.067c0,0,0.023-0.067,0.021-0.061
				c0.021-0.047,0.038-0.105,0.052-0.167c0.014-0.073,0.029-0.145,0.047-0.212c0.026-0.074,0.072-0.133,0.14-0.178
				c0.069-0.034,0.141-0.059,0.217-0.073c0.076-0.02,0.142-0.056,0.198-0.109c0.088-0.072,0.162-0.163,0.27-0.209l-0.012,0.01
				c0.514-0.383,1.15,0.036,1.677-0.26h0.003c0.092-0.366-0.174-0.35-0.402-0.376c-0.377-0.043-0.778,0.105-1.133-0.134
				c-0.06-0.093-0.09-0.193-0.09-0.302c0.061-0.242,0.365-0.403,0.235-0.708c-0.177-0.192-0.397-0.236-0.626-0.264
				c-0.118-0.009-0.234-0.02-0.354-0.012c-0.057,0.003-0.09,0.021-0.107-0.016c-0.006-0.015-0.01-0.01-0.016-0.017
				c-0.006,0.006-0.014,0.004-0.018,0.018c-0.047,0.137-0.034-0.078,0.018-0.018c0.02-0.022,0.047-0.019,0.094-0.009
				c0.125,0.025,0.254,0.037,0.382,0.052c0.163,0.014,0.325,0.025,0.489,0.012c0.1-0.043,0.183-0.108,0.248-0.196
				C21.15,7.997,22.3,8.51,21.455,7.459c-0.885-1.101-1.949-1.258-3.196-1.185c-0.015,0.006-0.032,0.005-0.048,0.011
				c0.025-0.012,0.007,0.001,0.027-0.011c0.007,0,0.014,0,0.021,0c0.263-0.101,0.554-0.112,0.853-0.083
				c0.451,0.044,0.826-0.124,0.861-0.58c0.033-0.418-0.336-0.572-0.719-0.63c-0.154-0.023-0.302-0.087-0.439-0.195
				c-0.018,0-0.031-0.072-0.051-0.073c0.086-0.183,0.297-0.21,0.452-0.32c0.142-0.063,0.29-0.113,0.425-0.193
				c0.145-0.081,0.299-0.143,0.416-0.265c0.24-0.1,0.479-0.198,0.719-0.296c-0.215-0.131-0.43-0.37-0.647-0.372
				c-1.004-0.01-2.009,0.075-3.013,0.066c-0.449-0.004-1.014-0.363-1.324-0.192c-1.382,0.758-2.9,0.56-4.353,0.791
				c-0.353,0.252-0.671,0.418-1.177,0.304c-1.433-0.322-1.442-0.28-1.646,1.061C8.611,5.325,8.557,5.346,8.527,5.372
				C8.31,5.142,8.093,4.913,7.877,4.683c-0.293,0.511-1.43-0.044-1.299,1.03C6.591,5.817,6.39,6.054,6.292,6.052
				c-1.204-0.025-1.22,1.031-1.618,1.737c-0.089,0.164-0.07,0.364-0.171,0.524C4.49,8.617,4.476,8.921,4.462,9.225
				c-0.286,0.521-0.456,0.901-0.508,1.225c0.047,0.285,0.101,0.568,0.186,0.844c0.135,0.22,0.332,0.451,0.607,0.733
				c0.704,0.722,1.54,1.083,2.519,1.198c0.162,0.019,0.452,0.005,0.408,0.275c-0.02,0.121-0.274,0.123-0.432,0.114
				c-1.035-0.063-1.879-0.43-2.563-1.28c-0.265-0.328-0.427-0.679-0.538-1.041c-0.171-0.278-0.236-0.537-0.186-0.844
				C3.9,10.122,3.856,9.79,3.789,9.462c-0.059-0.035-0.08-0.085-0.062-0.15C3.6,8.699,3.581,8.087,3.734,7.476
				C3.917,6.885,4.003,6.24,4.301,5.716C5.083,4.347,6.237,3.482,7.85,3.187c1.927-0.354,3.811-1.056,5.746-1.226
				c3.24-0.285,6.507-0.268,9.763-0.378c0.426-0.18,0.851-0.358,1.275-0.539c-3.757,0.021-7.517-0.038-11.271,0.085
				C10.5,1.224,7.774,1.969,5.289,3.49c-2.668,1.632-3.706,3.934-3.464,7.07c0.367,4.755-0.005,9.483-1.157,14.137
				c-0.239,0.964-0.416,1.954-0.5,2.942c-0.032,0.362,0.178,0.957,0.458,1.104c1.684,0.889,3.355,1.889,5.157,2.448
				c2.086,0.647,3.198-0.117,3.854-2.193c0.646-2.044,1.262-4.1,1.819-6.17c0.337-1.254,0.967-2.047,2.341-2.162
				c3.145-0.264,6.282-0.783,9.428-0.818c1.615-0.02,3.23-0.04,4.846-0.063v-0.62C26.359,19.125,24.648,19.086,22.939,19.092z"/>
			<path fill="#252525" d="M19.564,3.965c0.164-0.011,0.328-0.021,0.492-0.03c-0.173,0.781,0.416,0.607,0.813,0.625
				c0.754,0.03,1.509,0.021,2.264,0.041c0.11,0.003,0.22,0.066,0.329,0.103c-0.115,0.057-0.229,0.152-0.35,0.164
				c-0.83,0.081-1.661,0.135-2.49,0.219c-0.141,0.016-0.271,0.128-0.405,0.196c0.144,0.049,0.287,0.138,0.431,0.141
				c0.719,0.019,1.438-0.001,2.154,0.025c0.172,0.006,0.34,0.136,0.51,0.208c-0.162,0.055-0.321,0.15-0.486,0.158
				c-0.678,0.033-1.358,0.015-2.034,0.067C20.548,5.9,20.316,6.067,20.08,6.167c0.223,0.072,0.439,0.172,0.667,0.21
				c0.272,0.045,0.558,0.059,0.834,0.05c0.589-0.018,0.892,0.084,0.412,0.708c-0.058,0.074,0.114,0.471,0.248,0.514
				c0.251,0.082,0.553-0.009,0.827,0.021c0.17,0.02,0.332,0.13,0.496,0.2c-0.17,0.063-0.334,0.163-0.51,0.184
				c-0.673,0.083-1.349,0.141-2.023,0.208c-0.096,0.076-0.18,0.061-0.254-0.033c0.139-0.077,0.277-0.153,0.416-0.229
				c-0.106-0.066-0.205-0.169-0.32-0.193c-0.578-0.13-0.573-0.117-0.252-0.516c0.037-0.046-0.029-0.266-0.08-0.279
				c-0.721-0.183-1.439-0.371-2.171-0.502c-0.536-0.096-1.086-0.105-1.632-0.153c-0.066-0.053-0.09-0.106-0.072-0.163
				c0.018-0.059,0.038-0.087,0.059-0.087c0.819-0.09,1.641-0.174,2.459-0.275c0.116-0.015,0.223-0.114,0.334-0.174
				c-0.113-0.02-0.227-0.051-0.34-0.053c-0.314-0.006-0.633-0.028-0.943,0.009c-0.781,0.093-1.027-0.226-0.787-0.957
				c0.174-0.169,0.177-0.333-0.014-0.491c0.582-0.061,1.166-0.122,1.748-0.183C19.313,4.089,19.441,4.084,19.564,3.965z"/>
			<path fill="#E8E8E8" d="M4.462,9.225c0.047,2.425,0.561,2.969,3.138,3.419c0.61,0.106,1.205,0.315,1.796,0.513
				c0.155,0.052,0.368,0.234,0.37,0.359c0.002,0.146-0.167,0.351-0.315,0.433c-2.272,1.26-5.82-0.508-6.089-3.072
				c-0.047-0.452,0.275-0.941,0.427-1.415C4.014,9.383,4.238,9.304,4.462,9.225z"/>
			<path fill="#2A2A2A" d="M20.328,14.999c-0.376-0.23-0.752-0.461-1.128-0.691c0.413-0.227,0.821-0.456,1.237-0.676
				c0.373-0.195,0.752-0.38,1.127-0.568c0.312,0.042,0.722-0.054,0.679,0.484c-0.154,0.035-0.321,0.044-0.46,0.111
				c-0.33,0.158-0.646,0.342-0.969,0.516c0.36,0.126,0.718,0.263,1.082,0.374c0.229,0.071,0.47,0.107,0.705,0.159
				c-0.248,0.073-0.492,0.187-0.746,0.211C21.35,14.971,20.837,14.975,20.328,14.999z"/>
			<path fill="#3D3D3D" d="M11.438,3.93c-0.314,0.5-0.499,1.302-1.34,0.576C9.734,5.085,8.757,4.548,8.527,5.371
				c0.087-1.563,0.086-1.557,1.747-1.43C10.66,3.971,11.05,3.936,11.438,3.93z"/>
			<path fill="#3C3C3C" d="M22.243,13.548c-0.226-0.162-0.453-0.322-0.679-0.484c0.47-1.537-1.049-1.295-1.664-1.861
				c-0.045-0.034-0.088-0.068-0.133-0.102c-0.093-0.319,0.035-0.536,0.318-0.679c0.169,0.011,0.338,0.021,0.507,0.031
				c0.439,0.38,0.957,0.702,1.294,1.158c0.336,0.457,0.508,1.042,0.709,1.586C22.621,13.262,22.368,13.429,22.243,13.548z"/>
			<path fill="#3C3C3C" d="M20.777,8.227c0.084,0.011,0.168,0.021,0.252,0.033c0.445,0.094,0.892,0.177,1.332,0.285
				c0.13,0.032,0.242,0.136,0.361,0.206c-0.119,0.077-0.229,0.184-0.361,0.227c-0.498,0.165-1.004,0.31-1.506,0.462
				c0.5,0.117,1.008,0.218,1.502,0.359c0.133,0.038,0.229,0.199,0.344,0.304c-0.146,0.034-0.292,0.066-0.439,0.101
				c-0.732-0.09-1.464-0.181-2.195-0.271c-0.174-0.322,0.06-0.501,0.244-0.697c0.16-0.158,0.32-0.316,0.48-0.476
				C20.66,8.59,20.65,8.414,20.773,8.234L20.777,8.227z"/>
			<path fill="#595959" d="M19.12,17.141c-0.33-0.148-0.654-0.312-0.99-0.442c-0.233-0.091-0.483-0.141-0.726-0.208
				c0.271-0.09,0.543-0.179,0.813-0.268c0.984,0.06,1.97,0.113,2.954,0.184c0.191,0.014,0.381,0.086,0.57,0.132
				c-0.174,0.068-0.34,0.164-0.52,0.201C20.523,16.883,19.82,17.009,19.12,17.141z"/>
			<path fill="#595959" d="M20.104,15.963c-0.49-0.089-0.98-0.178-1.472-0.268c0.771-0.077,1.542-0.165,2.315-0.221
				c0.166-0.013,0.343,0.091,0.515,0.141c-0.146,0.096-0.278,0.244-0.437,0.275C20.725,15.95,20.411,15.943,20.104,15.963z"/>
			<path fill="#ABABAB" d="M23.67,3.895c-0.186-0.057-0.396-0.118-0.605-0.182c0.218-0.088,0.436-0.244,0.656-0.247
				c0.539-0.008,1.08,0.055,1.621,0.09C24.801,3.666,24.26,3.775,23.67,3.895z"/>
			<path fill="#595959" d="M17.959,15.676c-0.494-0.013-0.988-0.024-1.482-0.038c0.486-0.134,0.974-0.268,1.459-0.4
				C17.943,15.383,17.952,15.529,17.959,15.676z"/>
			<path fill="#3B3B3B" d="M15.794,18.325c-0.149-0.188-0.297-0.374-0.446-0.562c0.231-0.118,0.463-0.237,0.693-0.355
				C15.959,17.714,15.876,18.02,15.794,18.325z"/>
			<path fill="#3C3C3C" d="M20.582,10.463c0.559-0.086,1.118-0.173,1.677-0.26C21.7,10.29,21.141,10.376,20.582,10.463z"/>
			<path fill="#E8E8E8" d="M3.727,9.311C3.729,8.7,3.732,8.088,3.734,7.477C3.732,8.087,3.729,8.699,3.727,9.311z"/>
			<path fill="#595959" d="M18.875,16.162c0.408-0.065,0.814-0.132,1.225-0.197C19.689,16.03,19.282,16.096,18.875,16.162z"/>
			<path fill="#E8E8E8" d="M4.674,7.789C4.617,7.964,4.56,8.139,4.503,8.313C4.561,8.139,4.618,7.964,4.674,7.789z"/>
			<path fill="#010101" d="M26.589,1.609c-0.235-0.108-0.435-0.199-0.633-0.29c0.196-0.082,0.394-0.226,0.592-0.229
				c0.205-0.004,0.413,0.128,0.62,0.2C26.98,1.393,26.796,1.495,26.589,1.609z"/>
			<path fill="#FDFDFD" d="M9.473,24.049c-0.545,0.105-1.095,0.193-1.633,0.327c-0.156,0.039-0.278,0.209-0.416,0.319
				c0.176,0.052,0.348,0.122,0.528,0.152c0.402,0.066,0.809,0.113,1.213,0.169c-0.411,0.175-0.813,0.378-1.236,0.517
				c-0.339,0.111-0.704,0.146-1.057,0.215c0.453,0.166,0.9,0.349,1.359,0.494c0.24,0.076,0.499,0.091,0.75,0.134
				c-0.228,0.172-0.449,0.354-0.688,0.508c-0.094,0.062-0.23,0.057-0.347,0.077c-0.409,0.075-0.817,0.148-1.226,0.224
				c0.384,0.096,0.772,0.177,1.149,0.294c0.124,0.039,0.219,0.173,0.327,0.264c-0.122,0.073-0.236,0.189-0.367,0.213
				c-0.39,0.068-0.798,0.062-1.174,0.169c-0.128,0.037-0.148,0.364-0.278,0.503c-0.099,0.106-0.289,0.142-0.445,0.18
				c-0.368,0.089-1.219-0.31-0.662,0.68c-0.324,0.168-0.754,0.56-0.953,0.465c-1.095-0.523-2.133-1.165-3.191-1.767
				c-0.39-0.779,0.322-1.269,0.503-1.896c0.469-3.377,0.938-6.754,1.407-10.131c0.06-0.435,0.067-0.885,0.198-1.296
				c0.047-0.148,0.458-0.342,0.583-0.279c2.072,1.046,4.238,0.738,6.404,0.507c0.271-0.028,0.723-0.064,0.799,0.069
				c0.355,0.623,0.318,0.644-0.292,1.033c0.133,0.642-0.303,1.127-0.462,1.688l-0.011,0.007c-0.483,0.133-0.32,0.629-0.518,0.921
				l0,0c-0.111,0.37,0.157,0.354,0.387,0.381c0.229,0.024,0.495,0.011,0.402,0.378c-0.256,0.104-0.517,0.197-0.767,0.313
				c-0.17,0.08-0.324,0.193-0.485,0.291c0.16,0.063,0.323,0.12,0.48,0.19c0.15,0.066,0.293,0.149,0.439,0.226
				c-0.112,0.101-0.217,0.208-0.337,0.295c-0.061,0.044-0.151,0.046-0.225,0.074C9.25,21.1,8.87,21.245,8.49,21.391
				c0.364,0.04,0.73,0.063,1.089,0.128c0.127,0.022,0.236,0.144,0.354,0.219c-0.289,0.158-0.577,0.316-0.865,0.476
				c-0.213,0.183-0.54-0.013-0.737,0.223l0.004-0.001c-0.264,0.353,0.509,0.362,0.238,0.72H8.568
				c-0.182,0.267-0.772-0.094-0.73,0.386c0.031,0.353,0.466,0.136,0.709,0.212C8.856,23.847,9.321,23.474,9.473,24.049z"/>
			<path fill="#727272" d="M9.548,8.484c1.368-0.229,1.477-0.112,1.093,1.145c-0.068,0.224-0.108,0.456-0.134,0.688
				c-0.155,1.354-0.354,1.501-1.734,1.264C8.548,11.017,8.734,10.433,8.69,9.86c0.003-0.117,0.03-0.228,0.081-0.332
				C9.233,9.333,9.191,8.759,9.548,8.484z"/>
			<path fill="#EDEDED" d="M12.628,12.31c-0.555,0.412-1.11,0.823-1.665,1.235c-0.245,0.173-0.494,0.154-0.745,0.016l0.006,0.013
				c-0.075-0.131-0.078-0.264-0.008-0.399c0.163-0.256,0.319-0.516,0.489-0.767c0.561-0.825,1.126-1.646,1.689-2.469
				c0.443-0.112,0.636,0.271,0.577,0.508c-0.136,0.553,0.208,1.12-0.102,1.644l-0.004,0.004
				C12.803,12.185,12.725,12.257,12.628,12.31z"/>
			<path fill="#5E5E5E" d="M6.697,9.669c0.117-0.011,0.234-0.021,0.352-0.033l0.104-0.026c0.071,0.044,0.136,0.037,0.195-0.022
				L7.446,9.63c0.594,0.459,0.572,0.048,0.646-0.403c0.096-0.594,0.365-0.951,0.894-0.27C9.275,9.192,9.215,9.448,9.03,9.711
				L9.043,9.69c-0.376,0.583-0.075,1.329-0.456,1.912c-0.316-0.083-0.632-0.167-0.948-0.25l-0.005-0.006
				c-0.487-0.391-0.975-0.781-1.462-1.172C6.377,10.038,6.384,9.695,6.697,9.669z"/>
			<path fill="#A0A0A0" d="M12.87,12.091c-0.158-0.717-0.316-1.435-0.475-2.151c-0.004-0.157-0.057-0.333-0.003-0.466
				c0.188-0.459,0.413-0.902,0.624-1.353c0.039,0.426-0.012,0.885,0.133,1.272C13.51,10.358,13.362,11.233,12.87,12.091z"/>
			<path fill="#6B6B6B" d="M10.266,17.878c-0.781-0.817,0.098-1.183,0.462-1.688c0.307,0.201,0.614,0.4,0.922,0.602
				C11.188,17.153,10.727,17.516,10.266,17.878z"/>
			<path fill="#D3D3D3" d="M6.9,29.409c0.465,0.179,0.867,0.332,1.268,0.485c-0.47,0.138-0.937,0.364-1.41,0.379
				c-0.314,0.009-0.638-0.287-0.957-0.447C6.16,29.689,6.519,29.554,6.9,29.409z"/>
			<path fill="#252525" d="M20.773,8.232c0.006,0.176,0.012,0.352,0.018,0.526c-0.712-0.018-1.426-0.019-2.137-0.063
				c-0.166-0.01-0.322-0.166-0.483-0.254c0.127-0.082,0.254-0.231,0.384-0.233C19.293,8.197,20.033,8.219,20.773,8.232z"/>
			<path fill="#5E5E5E" d="M7.858,7.813c-0.381,0.484-0.762,0.97-1.143,1.455c-0.302-0.051-0.124-0.386-0.301-0.51
				C6.365,7.899,6.706,7.3,7.558,7.04C7.903,7.202,7.817,7.532,7.858,7.813z"/>
			<path fill="#707070" d="M1.629,26.287c-0.167,0.632-0.335,1.264-0.503,1.896C0.238,27.271,1.056,26.812,1.629,26.287z"/>
			<path fill="#959595" d="M9.473,24.049c-0.42-0.057-0.847-0.088-1.259-0.18c-0.244-0.055-0.466-0.206-0.699-0.313
				c0.235-0.146,0.461-0.307,0.708-0.427c0.09-0.044,0.229,0.013,0.345,0.022c0.023,0.152-0.009,0.377,0.079,0.444
				C8.894,23.785,9.536,23.252,9.473,24.049z"/>
			<path fill="#B5B5B5" d="M12.286,6.947c0.146,0.401,0.31,0.637,0.289,0.854c-0.018,0.176-0.259,0.328-0.401,0.49
				c-0.139-0.224-0.355-0.438-0.388-0.676C11.765,7.467,12.023,7.281,12.286,6.947z"/>
			<path fill="#959595" d="M8.57,23.152c-0.194-0.168-0.388-0.335-0.582-0.502c0.115-0.073,0.229-0.146,0.344-0.218
				c0.145,0.06,0.285,0.135,0.434,0.175c0.314,0.086,0.633,0.152,0.95,0.229C9.333,22.941,8.952,23.047,8.57,23.152z"/>
			<path fill="#3C3C3C" d="M19.9,11.202c-0.188,1.039-0.77,1.3-1.705,0.865c0.146-0.144,0.293-0.286,0.435-0.433
				c0.327-0.167,0.654-0.335,0.981-0.502c0.05-0.08,0.113-0.093,0.188-0.038C19.834,11.13,19.867,11.166,19.9,11.202z"/>
			<path fill="#F0F0F0" d="M8.587,11.602c0.152-0.638,0.304-1.274,0.456-1.912c-0.09,0.629-0.181,1.26-0.271,1.89
				C8.712,11.596,8.65,11.604,8.587,11.602z"/>
			<path fill="#6B6B6B" d="M9.737,18.805c-0.566-0.725-0.013-0.815,0.518-0.921C10.082,18.191,9.909,18.498,9.737,18.805z"/>
			<path fill="#3B3B3B" d="M14.84,18.016c-0.175,0.151-0.281,0.246-0.389,0.339c-0.106-0.13-0.269-0.248-0.298-0.394
				c-0.019-0.091,0.165-0.223,0.258-0.335C14.536,17.739,14.659,17.852,14.84,18.016z"/>
			<path fill="#B6B6B6" d="M20.309,9.234c-0.08,0.231-0.162,0.465-0.242,0.697c-0.203-0.131-0.405-0.261-0.608-0.391
				C19.742,9.438,20.025,9.336,20.309,9.234z"/>
			<path fill="#747474" d="M15.756,9.463c0.176,0.095,0.319,0.172,0.463,0.25c-0.234,0.093-0.463,0.229-0.705,0.259
				c-0.117,0.014-0.257-0.175-0.387-0.271C15.328,9.624,15.529,9.549,15.756,9.463z"/>
			<path fill="#E6E6E6" d="M9.03,9.711C9.015,9.459,9,9.208,8.986,8.957c0.034-0.135,0.068-0.27,0.102-0.405
				C9.117,8.419,9.203,8.346,9.33,8.312C9.402,8.37,9.475,8.427,9.548,8.484C9.375,8.893,9.203,9.302,9.03,9.711z"/>
			<path fill="#DCDCDC" d="M7.858,7.813c-0.1-0.257-0.2-0.516-0.3-0.773C7.675,6.909,7.792,6.778,7.91,6.648
				c0.067,0.146,0.205,0.3,0.188,0.436C8.065,7.333,7.943,7.57,7.858,7.813z"/>
			<path fill="#BABABA" d="M6.414,8.759c0.1,0.171,0.201,0.34,0.301,0.51c-0.006,0.133-0.012,0.268-0.018,0.4
				c-0.175,0.168-0.35,0.337-0.524,0.506C6.253,9.703,6.333,9.231,6.414,8.759z"/>
			<path fill="#6B6B6B" d="M10.525,19.563c-0.315-0.085-0.635-0.154-0.942-0.263c-0.116-0.041-0.202-0.169-0.301-0.257
				c0.151-0.08,0.303-0.16,0.455-0.239C9.872,19.19,10.816,18.734,10.525,19.563z"/>
			<path fill="#6D6D6D" d="M18.126,13.03c0.101-0.111,0.203-0.266,0.235-0.252c0.121,0.05,0.221,0.155,0.328,0.24
				c-0.082,0.069-0.162,0.189-0.25,0.195C18.354,13.219,18.258,13.113,18.126,13.03z"/>
			<path fill="#8F8F8F" d="M17.773,9.522c-0.451,0.279-0.576,0.42-0.684,0.408c-0.107-0.013-0.199-0.176-0.298-0.272
				c0.125-0.107,0.235-0.269,0.38-0.306C17.297,9.318,17.459,9.425,17.773,9.522z"/>
			<path fill="#919191" d="M18.561,10.205c0.19,0.417,0.312,0.558,0.28,0.642c-0.04,0.107-0.198,0.224-0.313,0.232
				c-0.07,0.006-0.221-0.18-0.221-0.281C18.305,10.664,18.413,10.529,18.561,10.205z"/>
			<path fill="#898989" d="M18.313,9.552c0.194-0.147,0.311-0.303,0.43-0.307c0.094-0.003,0.279,0.193,0.27,0.281
				c-0.016,0.113-0.175,0.271-0.291,0.291C18.622,9.833,18.496,9.679,18.313,9.552z"/>
			<path fill="#AAAAAA" d="M11.587,7.031c-0.196,0.174-0.322,0.286-0.449,0.398c-0.062-0.116-0.186-0.241-0.171-0.348
				c0.016-0.119,0.139-0.259,0.252-0.311C11.273,6.747,11.411,6.902,11.587,7.031z"/>
			<path fill="#C0C0C0" d="M9.197,6.808C9.061,7.013,8.965,7.159,8.869,7.304C8.775,7.211,8.59,7.1,8.605,7.031
				C8.642,6.859,8.77,6.708,8.862,6.548C8.96,6.624,9.058,6.7,9.197,6.808z"/>
			<path fill="#E3E3E3" d="M19.801,11.094h-0.099l-0.091,0.039l0.004,0.002c-0.09-0.067-0.165-0.153-0.262-0.211
				c0.08-0.175,0.162-0.35,0.242-0.523c0.168-0.111,0.332-0.113,0.488,0.021l0.002,0.001C19.991,10.646,19.896,10.87,19.801,11.094z
				"/>
			<path fill="#CDCDCD" d="M9.732,6.296c0.16,0.235,0.314,0.366,0.292,0.449C9.98,6.912,9.839,7.052,9.737,7.203
				c-0.089-0.09-0.258-0.184-0.252-0.267C9.497,6.769,9.604,6.608,9.732,6.296z"/>
			<path fill="#747474" d="M16.432,7.549c-0.109-0.1-0.234-0.161-0.238-0.23c-0.004-0.081,0.097-0.168,0.15-0.252
				c0.082,0.056,0.215,0.1,0.23,0.17C16.591,7.312,16.499,7.413,16.432,7.549z"/>
			<path fill="#DDDDDD" d="M17.316,6.989c0.152,0.116,0.317,0.205,0.308,0.239c-0.037,0.119-0.117,0.246-0.218,0.313
				c-0.041,0.028-0.262-0.097-0.258-0.138C17.161,7.276,17.242,7.156,17.316,6.989z"/>
			<path fill="#DEDEDE" d="M17.434,4.162c0.148,0.072,0.297,0.145,0.446,0.215c-0.144,0.092-0.288,0.185-0.433,0.276
				C17.443,4.49,17.438,4.326,17.434,4.162z"/>
			<path fill="#707070" d="M16.725,6.104c0.004,0.083,0.008,0.167,0.014,0.25c-0.135-0.008-0.271-0.018-0.404-0.025
				C16.464,6.254,16.594,6.179,16.725,6.104z"/>
			<path fill="#A7A7A7" d="M18.63,11.635c-0.146,0.145-0.289,0.288-0.435,0.433C18.341,11.922,18.484,11.778,18.63,11.635z"/>
			<path fill="#808080" d="M17.096,8.476c0.051-0.043,0.102-0.087,0.153-0.132c0.047,0.078,0.094,0.156,0.142,0.234
				c-0.063,0.026-0.139,0.086-0.187,0.069C17.154,8.631,17.131,8.539,17.096,8.476z"/>
			<path fill="#FEFEFE" d="M19.564,3.965c-0.068,0.148-0.137,0.298-0.205,0.446c-0.06-0.145-0.118-0.289-0.178-0.433
				C19.309,3.974,19.438,3.969,19.564,3.965z"/>
			<path fill="#E8E8E8" d="M10.219,13.561c0.249-0.005,0.497-0.011,0.745-0.016C10.715,13.551,10.467,13.556,10.219,13.561z"/>
			<path fill="#959595" d="M8.328,22.434c0.246-0.074,0.492-0.148,0.737-0.223C8.82,22.285,8.574,22.359,8.328,22.434z"/>
			<path fill="#9D9D9D" d="M15.98,10.891c-0.035,0.061-0.069,0.122-0.104,0.182c-0.028-0.026-0.088-0.064-0.083-0.077
				c0.025-0.065,0.066-0.126,0.104-0.188C15.924,10.835,15.952,10.863,15.98,10.891z"/>
			<path fill="#3C3C3C" d="M20.084,10.42c-0.163-0.007-0.325-0.015-0.488-0.021C19.759,10.406,19.922,10.413,20.084,10.42z"/>
			<path fill="#5E5E5E" d="M7.048,9.635C7.18,9.634,7.313,9.632,7.445,9.629C7.407,9.666,7.368,9.701,7.33,9.737
				C7.267,9.833,7.207,9.832,7.147,9.734C7.114,9.702,7.081,9.669,7.048,9.635z"/>
			<path fill="#A0A0A0" d="M12.628,12.31c0.079-0.072,0.158-0.144,0.237-0.216C12.787,12.167,12.708,12.238,12.628,12.31z"/>
			<path fill="#3C3C3C" d="M19.354,10.923c0.088,0.07,0.174,0.142,0.263,0.211C19.527,11.064,19.441,10.994,19.354,10.923z"/>
			<path fill="#5E5E5E" d="M9.33,8.312c-0.081,0.08-0.161,0.16-0.242,0.238C9.168,8.472,9.249,8.392,9.33,8.312z"/>
			<path fill="#E8E8E8" d="M10.216,13.175c0.002,0.134,0.005,0.267,0.008,0.399C10.222,13.441,10.219,13.308,10.216,13.175z"/>
			<path fill="#E3E3E3" d="M7.634,11.346c-0.001-0.039-0.012-0.081-0.002-0.117c0.081-0.288,0.165-0.575,0.248-0.862
				c0.089,0.05,0.179,0.1,0.268,0.15c-0.169,0.277-0.338,0.556-0.507,0.834L7.634,11.346z"/>
			<path fill="#E4E4E4" d="M7.147,9.734c0.061-0.011,0.122-0.01,0.183,0.003c-0.054,0.333-0.106,0.667-0.169,0.999
				c-0.001,0.006-0.127-0.011-0.195-0.019C7.025,10.391,7.086,10.063,7.147,9.734z"/>
		</g>
	</g>
</g>
</svg>
