<?xml version="1.0" encoding="utf-8"?>
<!-- Generator: Adobe Illustrator 16.0.3, SVG Export Plug-In . SVG Version: 6.00 Build 0)  -->
<!DOCTYPE svg PUBLIC "-//W3C//DTD SVG 1.1//EN" "http://www.w3.org/Graphics/SVG/1.1/DTD/svg11.dtd">
<svg version="1.1" id="Layer_1" xmlns="http://www.w3.org/2000/svg" xmlns:xlink="http://www.w3.org/1999/xlink" x="0px" y="0px"
	 preserveAspectRatio="none" width="5" height="31.81" viewBox="0.228 -0.002 5 31.81" >
<g id="Layer_3" display="none">
	<rect x="-28.127" y="0" display="inline" fill="none" width="53.728" height="31.807"/>
	<rect x="-28.127" y="0" display="inline" fill="#FF00F9" width="53.728" height="31.807"/>
</g>
<g id="Layer_1_xA0_Image_1_">
</g>
<g id="Layer_2">
	<g>
		<polygon fill="#FFFFFF" points="5.468,19.8 0.021,19.547 0.03,1.198 5.468,1.198 		"/>
		<path d="M0.016,0.877c0,0,2.301-0.165,2.831-0.057c0.487,0.099,2.659,0.086,2.659,0.086v0.766
			C4.033,1.777,4.039,1.795,3.327,1.699C2.639,1.605,0.016,1.626,0.016,1.626V0.877z"/>
		<path fill="#010101" d="M0.006,19.172v0.595l5.517,0.188l-0.017-0.891c0,0-1.844,0-2.781,0S0.006,19.172,0.006,19.172z"/>
	</g>
</g>
</svg>
