<?xml version="1.0" encoding="utf-8"?>
<!-- Generator: Adobe Illustrator 16.0.3, SVG Export Plug-In . SVG Version: 6.00 Build 0)  -->
<!DOCTYPE svg PUBLIC "-//W3C//DTD SVG 1.1//EN" "http://www.w3.org/Graphics/SVG/1.1/DTD/svg11.dtd">
<svg version="1.1" xmlns="http://www.w3.org/2000/svg" xmlns:xlink="http://www.w3.org/1999/xlink" x="0px" y="0px" width="266px"
	 height="266px" viewBox="0 0 266 266" enable-background="new 0 0 266 266" xml:space="preserve">
<g id="Layer_2">
</g>
<g id="Layer_1">
	<path fill-rule="evenodd" clip-rule="evenodd" fill="#FFFFFF" d="M259.54,92.07c-3.93-19.58-12.49-36.87-26.31-51.54
		c-17.95-19.06-40.01-29.95-65.84-32.35c-22.87-2.13-44.69,2.46-64.2,15.07c-31.03,20.05-47.89,48.54-49.12,85.68
		c-0.6,18.28,4.16,35.44,13.16,51.34c2.31,4.09,2.23,6.98-1.31,10.46c-16.28,15.96-32.36,32.13-48.38,48.35
		c-3.01,3.05-5.96,6.38-8.07,10.07c-4.36,7.61-5.61,15.77-0.53,23.55c5,7.66,12.1,11.72,21.61,10.26c7.4-1.14,13.15-5.2,18.29-10.35
		c16.01-16.03,32.03-32.03,48.04-48.05c5.91-5.91,5.87-5.84,13.44-1.8c20.26,10.83,41.85,14.74,64.47,11.02
		c49.39-8.13,87.3-52.3,86.64-102.42C260.83,104.92,260.8,98.37,259.54,92.07z M153.65,173.99c-30.98-1.75-60.38-28.19-58.64-66
		c1.52-33.02,29.37-59.35,62.92-59.3c33.44,0.05,62.82,27.75,62.34,62.83C220.74,145.08,192.21,176.16,153.65,173.99z"/>
</g>
</svg>
