<?xml version="1.0" encoding="utf-8"?>
<!-- Generator: Adobe Illustrator 16.0.0, SVG Export Plug-In . SVG Version: 6.00 Build 0)  -->
<!DOCTYPE svg PUBLIC "-//W3C//DTD SVG 1.1//EN" "http://www.w3.org/Graphics/SVG/1.1/DTD/svg11.dtd">
<svg version="1.1" id="Layer_1" xmlns="http://www.w3.org/2000/svg" xmlns:xlink="http://www.w3.org/1999/xlink" x="0px" y="0px"
	 width="344px" height="767.33px" viewBox="0 0 344 767.33" enable-background="new 0 0 344 767.33" xml:space="preserve">
<g id="white_backing">
	<path fill="#FFFFFF" d="M203.49,22.41c-7.063-10.368-28.91-21.877-41.43-14.73c-7.116,4.058-10.683,11.641-15.897,17.495
		c-3.343,3.753-4.827,3.014-9.282,4.585c-2.464-4.37-9.78,2.318-12.01,3.72c-2.845,1.787-7.55,3.21-9.82,4.7
		c-6.171,4.069-0.388,7.696,1.23,12.12c1.613,4.408-4.139,7.928,0.12,12.382c2.757,2.884,6.457,1.96,9.529,3.822
		c9.201,5.578-14.677,4.358-8.659,12.116c2.234,2.891,12.171,3.661,15.271,3.67c3.882,0.009,9.324-6.979,12.295-6.09
		c0.766,0.229-2.291,3.701-2.455,3.88c-4.567,4.954-5.069,7.256-11.3,9.61c-5.06,0-11.938,5.936-10.217,12.894
		c2.665,10.775,44.181,1.769,48.451-4.991c5.327-8.435,9.082-6.677,17.629-10.032c9.732-3.82-1.095-12.547,5.936-19.545
		C204.406,56.54,214.118,37.981,203.49,22.41C202.91,21.56,207.64,28.49,203.49,22.41z"/>
	<path fill="#FFFFFF" d="M48.67,716.5c-3.22,0-3.22,5,0,5S51.89,716.5,48.67,716.5z"/>
	<path fill="#FFFFFF" d="M338.76,233.17c-7.831-4.746-6.145-20.693-6.795-29.804c-0.913-12.779-2.994-25.58-5.207-38.03
		c-1.58-8.893,14.624-8.824,11.672-20.336c-0.766-2.978-7.243-28.907-11.4-25.69c0.618-4.592-3.316-5.275-6.464-2.568
		c-3.784,3.255-4.486,9.711-3.726,14.328c0.994,6.002,3.786,11.985,2.423,18.172c-1.564,7.102-4.588,14.455-6.901,21.359
		c-3.898,11.627-6.551,25.917-13.651,36.059c-7.914,11.277-10.157,15.178-18.461,1.857c-5.979-9.591-9.171-19.379-14.078-29.475
		c-6.612-13.601-1.282-26.384-5.033-40.203c-1.419-5.227-3.376-8.07-9.028-6.196c-5.351,1.773-13.6-0.93-19.508-1.749
		c-5.596-0.775-12.434-3.514-17.691-3.335c-1.119-0.403-14.095-6.073-10.851,0.61c-0.801,0.036-2.244-4.625-4.807-5.22
		c-3.985-0.925-8.431,0.766-12.178,1.921c-3.814,1.176-6.949,3.624-10.678,2.318c-4.6-1.611-3.018-11.178-1.388-14.359
		c5.883-11.533-4.235-14.21-12.269-8.585c-2.784,1.949-8.059,19.563-4.592,21.435c-0.651-0.36-3.234,2.633-3.989,2.92
		c-4.046,1.517-9.521-0.438-13.964,0.677c-7.064,1.773-10.833,1.594-18.016,1.403c-8.498-0.256-22.723,0.063-30.605,2.879
		c-3.293,1.176-16.519,15.19-11.814,17.95c-0.742-0.509-1.427,6.54-1.53,7.79c-0.679,8.254-9.241,13.902-14.542,19.199
		c-7.298,7.292-16.852,12.954-23.534,20.676c-2.65,3.063-2.503,5.125-5.224,7.245c-4.394,3.432-9.366,6.062-13.575,9.739
		c-5.805,5.071-14.511,15.927-12.063,24.31c1.392,4.766,9.848,11.55,13.449,15.121c2.549,2.508,8.905,22.761,7.59,24.62
		c-7.507-3.651,2.237,13.741,2.689,14.61c-6.201-0.239,1.703,13.416,2.259,15.159c-0.124-0.389-6.263,6.716-5.483,10.496
		c1.427,6.916,0.623,13.188,0.584,20.166c-0.089,15.249,2.706,29.99,3.66,45.089c-2.504,0.916-4.305,6.267-0.95,7.291
		c-1.538,6.183-0.635,9.803,0.46,15.97c2.157,12.43-0.747,23.948,1.4,36.189c-5.115,2.298-1.306,17.843-0.91,21.5
		c0.777,7.224-0.341,12.204-0.846,19.394c-1.168,16.66,4.378,33.121,3.634,49.832c-0.286,6.42-5.586,39.594,0.671,43.194
		c-0.277,2.954-1.567,9.266-0.221,12.141c1.716,8.954-3.843,8.492-10.958,8.51c-5.614,0.014-13.628,0.906-18.628,3.683
		c-3.95,2.193-2.926,9.19-3.081,13.118c-0.62,15.734,4.023,28.567,8.229,43.662c2.422,8.695,5.958,33.224,14.369,38.427
		c6.837,14.025,15.515,14.767,29.929,11.382c13.271-3.116,15.437-11.715,19.981-22.932c6.012-14.862,4.882-31.494,6.31-47.145
		c1.143-12.528,1.658-26.726-0.788-39.109c-0.621-3.143,0.443-17.884-4.602-16.896c-8.67,1.682-17.01,4.784-25.761,6.09
		c-0.535-8.211-4.045-10.616-3.709-18.687c0.392-9.426,0.159-18.402-0.19-27.832c-0.708-19.126-2.037-38.539-0.652-57.544
		c1.261-17.31-1.645-33.933-1.798-51.035c-0.094-10.513,1.213-20.51-0.55-30.982c-1.232-7.313-1.401-13.751-0.674-20.966
		c1.739-17.255-1.447-37.117-1.847-55.144c-0.226-9.768,0.834-16.509-1.989-26.074c-0.89-3.015-1.599-6.057-2.991-8.896
		c3.784-2.123,3.654-0.389,5.343,3.605c4.053,9.581,18.979,29.946,15.647,40.254c-0.857,2.678-2.403,7.266,0.25,9.69
		c-1.106,3.118-4.742,5.849-4.509,9.387c0.259,3.946-0.685,5.467-1.3,9.486c-0.568,3.714,4.36,8.831,4.878,4.097
		c0.824,0.684-5.354,10.879,0.8,8.82c3.756,2.32,6.262-10.514,6.881-13.1c0,2.659,4.018,7.185,4.939,2.43
		c1.308,3.177,0.844,10.293,4.483,11.941c5.565,2.52,2.886-10.602,1.987-12.541c1.27-5.431-5.216-14.794-6.482-20.398
		C68.452,336.159,67,325.436,62.48,315.69c-3.779-8.173-7.801-16.415-11.725-24.531c-3.439-7.114-8.285-16.188-9.79-22.829
		c-1.68-7.412-3.62-14.429-6.07-21.613c-1.879-5.51-1.025-2.238,1.535-6.737c2.536-4.497-1.79-7.225-3.3-10.96
		c5.382-1.673,8.801-9.074,11.604-13.369c4.955-7.591,10.072-15.199,15.519-22.448c3.298-4.389,17.235-11.266,17.847-16.303
		c1.719-0.747,15.733-4.203,15.61-7.97c0.406,12.044-14.873,18.942-12.915,31.209c2.627,16.467-4.618,39.73,13.089,49.495
		c6.924,3.819,15.298,5.631,23.168,5.779c7.912,0.149,12.5-6.464,19.408-6.563c3.962-0.059,14.59,1.973,12.18,7.83
		c-10.438,1.088-1.113,15.38,1.851,18.11c3.479,3.204-1.806,13.004-0.706,17.442c1.911,7.71-1.309,16.216-0.128,24.503
		c2.384,16.733-19.935,11.132-20.42-2.211c-0.353-9.704-6.896-8.254-11.317-14.294c-6.601-8.987-12.082,2.117-15.039,7.982
		c-3.688,7.316-9.927,11.236-12.19,19.631c-2.139,7.936-0.3,18.36,1.555,26.244c3.826,16.258,23.653,23.397,9.875,39.112
		c-4.981,5.663-10.307-0.92-15.582,2.185c-2.716,1.599-3.591,4.712-2.929,7.675c0.665,2.934-0.708,8.78,0.585,11.292
		c1.337,2.594,4.713,1.915,6.494,3.959c1.848,2.121,0.808,6.187,2.581,8.823c4.111,6.112,7.535,7.806,7.283,16.934
		c-0.613,22.224,7.073,39.078,12.574,60.145c8.381,32.096-3.384,63.337-6.876,95.408c-1.806,16.813-6.821,31.708-5.329,48.974
		c0.757,8.764-1.023,19.042,2.01,27.305c1.495,4.073,4.601,7.979,5.572,12.199c0.607,2.636-4.163,10.488,0.447,11.912
		c-0.717,5.891-3.198,7.723-8.292,9.833c-4.438,1.838-7.477,8.945-12.469,11.94c-1.473,0.884-12.686,4.448-7.569,7.856
		c3.396,2.258-4.131,3.408-5.25,3.553c-11.25,1.446,8.862,13.345,5.26,17.848c-2.283,2.802,1.692,5.779,3.96,3.02
		c1.733,0.549,11.961-5.009,12.11-7.12c2.63-0.915,5.168-11.114,6.589-13.63c2.136-3.783,5.49-11.473,10.092-13.12
		c2.7-0.967,5.132,4.155,8.289,1.203c2.911-2.723-1.626-15.87-1.625-19.824c0-2.609,0.438-11.907-1.165-13.639
		c0.397-4.664,4.485-14.179,2.89-18.46c1.442-3.962,4.191-18.665,1.9-22.322c-2.71-4.326,2.418-10.114,0.11-14.157
		c3.611-10.542,5.392-23.095,5.061-34.289c-0.186-6.277-0.591-12.609,0.549-18.831c2.449-0.212,5.014-8.556,4.354-10.434
		c-1.111-3.162-2.976-2.899-3.733-7.642c-0.712-4.463-1.142-14.061,0.134-18.173c1.451-4.676,5.076-7.065,3.836-12.482
		c-0.801-3.533-4.455-7.915-5.407-12.239c-5.813-26.401-14.684-53.29-15.463-80.327c-0.18-6.243-0.07-12.354-1.154-18.521
		c-0.447-2.54-3.625-10.023-2.195-12.06c5.311-7.56,20.482-8.074,17.57-19.992c10.411-0.454,15.148,5.773,24.647,8.864
		c7.938,2.584,14.692-10.526,3.092-10.404c-7.378,0-17.42-2.676-20.848-10.298c-2.974-6.612-13.931-10.816-9.72-17.417
		c2.073-3.25-0.964-6.578-0.032-7.916c4.785-2.954,9.932-4.79,13.768-0.056c6.17,7.615,12.397,16.159,19.738,22.588
		c1.825,1.598,11.81,1.527,14.044,0.868c5.063-1.493,7.631-8.469,12.264-11.166c5.463-3.179,12.409-17.059,13.406-23.535
		c2.694,4.936,8.247,7.135,10.391,12.65c2.586,6.693,0.809,14.659,0.572,21.633c-0.587,17.304-13.442,12.836-25.479,15.167
		c-2.455,0.476-8.698,7.406-2.913,7.791c2.307,0.281,4.581,0.727,6.824,1.335c3.332,0.672,6.617-1.547,9.674-0.754
		c3.742,0.97,8.93,9.812,13.362,7.488c5.6,2.501,9.589,6.944,15.234,9.127c5.484,2.119,7.391,5.145,6.77,11.184
		c-0.689,6.697,0.278,14.301-0.935,20.76c-2.469,13.175-8.747,24.309-12.234,36.822c-3.379,12.126-8.502,24.522-10.907,37.337
		c-1.538,8.195-5.94,14.089-9.128,21.591c-0.599,1.403,0.735,11.219,1.09,13.14c-5.382,5.938-2.117,7.704-4.458,13.552
		c-1.994,4.98-2.226,10.467-3.282,15.688c-2.608,12.891-1.985,24.577-3.319,37.79c-1.54,15.19-2.84,30.29-4.116,45.56
		c-0.67,8.023-0.614,14.673-3.024,22.454c-1.612,5.205-3.284,13.544-2.75,18.887c0.922,9.47-9.128,18.636-7.485,28.351
		c0.67,3.961,13.967,5.407,17.324,7.428c4.901,2.951,10.919,5.464,15.476,8.862c4.277,3.19,5.307,8.776,11.217,10.25
		c5.698,1.422,11.993-0.906,17.397-2.501c5.476-1.615,6.198-5.495,0.501-8.48c-4.944-2.593-2.861-9.441-10.329-8.39
		c3.807-6.472-9.143-4.041-11.101-5.25c-6.186-3.85-13.337-8.128-19.025-12.604c-4.32-3.399-0.338-15.235,0.657-19.557
		c2.414-10.496,0.655-21.428,3.269-31.92c4.968-15.4,10.901-30.167,14.88-45.966c2.05-8.142,6.578-13.893,4.421-22.095
		c-2.226-8.458-3.782-11.082-5.086-20.347c-1.516-10.772-1.399-20.336,3.018-30.594c2.111-4.904,0.364-8.035,0.694-13.176
		c0.633-9.855,1.921-22.021,5.739-30.918c3.746-8.729,6.103-18.054,10.563-26.476c2.801-5.289,6.465-11.364,7.648-17.357
		c1.026-5.196,3.702-11.762,6.045-16.685c3.368-7.078,1.825-16.269,5.167-22.428c3.422-6.437,7.641-9.493,9.06-17.12
		c0.649-3.433-3.156-13.97-7.717-14.141c-7.508-0.28-6.223,10.769-14.668,7.658c-9.082-3.345-10.899-10.04-6.705-19.428
		c3.141-6.953,3.467-13.123,5.586-20.366c2.548-8.708,13.592-13.886,14.004-23.054c0.148-3.549-2.019-6.423-2.844-9.726
		c-0.889-3.554,0.54-7.602,0.582-11.195c0.103-8.762-3.571-17.238-12.207-20.49c-11.896-4.479-27.092,5.494-34.054,14.428
		c-4.56,5.852-8.281,14.24-14.697,18.273c-6.19,3.886-14.587-2.568-15.187-8.52c-0.458-4.545,3.931-12.231-0.303-14.977
		c-6.639-4.306,1.714-7.121-0.403-13.214c-2.253-6.487-0.631-3.035,3.623-7.989c3.036-3.54-3.316-5.063-5.07-5.43
		c-1.989-6.445,11.096-6.061,6.89-14.46c0-2.434-6.092-5.533-7.84-7c1.846-0.664,3.384-2.543,1.64-4.41
		c16.341-0.729,36.864,12.25,52.188,5.402c8.574-3.832,2.917-9.373,7.053-13.411c8.194-7.999,3.607-13.125,5.804-23.256
		c2.104-9.703,1.689-15.707-2.952-24.619c-1.854-3.561,1.318-6.604,2.079-9.906c1.009-4.33,1.151-9.004,0.52-13.4
		c-1.03-7.182-4.084-15.115-5.5-22.53c-1.652-8.657,5.041-16.3,11.666-6.129c8.624,13.24,12.504,30.552,18.793,45.547
		c2.965,7.069,3.812,14.449,5.859,21.8c2.77,9.945,2.115,14.661,10.948,20.262c17.161,10.882,24.621-6.123,32.923-19.071
		c10.458-16.292,7.519-34.254,12.34-51.57c2.404,10.288,3.729,20.449,4.886,31.056c0.705,6.467,1.124,12.96,1.572,19.449
		c0.236,3.424,5.271,19.755-2.247,18.665c-6.565-0.923,0.518,8.636,2.949,9.32C338.483,258.663,341.753,234.99,338.76,233.17
		C337.77,232.57,340.75,234.38,338.76,233.17z M334.38,238.05c-0.069,1.785-0.894,2.002-2.471,0.65
		C332.19,238.4,335.536,234.685,334.38,238.05C334.23,238.52,334.5,237.7,334.38,238.05z"/>
	<path fill="#FFFFFF" d="M326.909,31.34c-0.366-2.323,0.126-11.688-1.18-13.1c-1.755-3.038-22.679,12.693-22.39,3.27
		c0.021-2.263-3.909-4.338-5.256-1.796c-1.375,2.598-0.393,8.909-0.034,11.327c-0.013,4.555,0.263,9.738,2.961,13.624
		c1.434,2.064,8.454,6.696,11.049,5.126c0.341,15.961,3.106,31.847,3.64,47.91c0.151,4.57-2.573,15.478,3.609,18.135
		c5.849,2.514,1.104-11.575,1.271-14.085c1.037-15.485-3.319-29.795-3.471-44.3c1.581-5.204,2.739-12.24,6.07-16.67
		C322.948,41.087,326.864,31.052,326.909,31.34C326.75,30.33,327.159,32.89,326.909,31.34z M310.26,35.67
		c-1.408,3.518-4.02,11.991-6.59,3.25c6.89,4.374,3.117-4.177,7.63-5.53C310.953,34.15,310.607,34.91,310.26,35.67
		C309.86,36.67,310.579,34.87,310.26,35.67z"/>
</g>
<g id="Layer_1_1_">
	<g>
		<path d="M31.6,286.86c-1.244,5.019,2.922,20.917,5.771,24.03c-3.879,2.553-4.879-0.164-7.061,4.15
			c1.61,1.099,6.907-0.784,6.364,2.336c-0.211,1.209-4.292,1.198-5.214,3.264c0.909,2.758,3.741,0.05,5.069,1.78
			c-0.862,2.685-5.208,1.754-4.92,5.25c1.583,0.443,3.19,0.77,4.82,0.98c0.694,2.393-2.766,1.938-2.381,3.546
			c0.854,3.578-1.071,1.477-1.199,4.964c1.052,2.363,3.489,0.193,4.811,2.88c-1.356,1.561-2.896,2.914-4.62,4.06
			c2.35,6.038,1.19,7.233,0.9,13.61c0.122,2.304,1.071,4.208,2.85,5.709c-0.376,2.34-3.487,1.292-3.82,3.55
			c1.582,0.423,3.185,0.736,4.81,0.94c0,1.624-5.063,5.267-2.802,5.832c6.496,1.624-0.563,1.954-0.597,4.698
			c1.279,0.42,2.382,1.12,3.31,2.1c-0.786,1.409-1.962,2.305-3.529,2.69c6.97,5.075,0.439,2.453-1.44,6.94
			c0.706,2.326,6.908,1.16,2.225,4.814c-1.609,1.256,2.581,4.607,3.386,6.303c3.747,7.889-4.222,5.182-4.222,9.963
			c1.99,1.69,5.279-1.106,6.12,2.58c-1.395,1.103-3.419,5.406-3.09,5.34c-6.773,1.352,3.23,4.541,3.17,4.47
			c-0.936,3.384-5.986,0.91-6.22,5.2c2.029,0.521,4.085,0.885,6.17,1.09c-1.408,4.801-6.13,1.552-2.67,6.181
			c0.087,1.934-2.668,1.926-2.1,4.13c1.169,1.865,3.476-0.398,4.85,1.149c-0.582,1.563-8.455,4.252-3.136,5.841
			c2.303,0.688-0.875,3.33-1.304,3.804c-2.618,2.894,2.597,1.978,3.3,3.176c-0.445,2.188-1.785,3.394-4.021,3.62
			c0.636,1.473,1.715,2.458,3.236,2.957c2.963,2.222-1.323,2.63-1.836,3.803c1.072,2.52,2.924,5.173-0.92,6.63
			c0.088,2.551,2.659,2.096,3.949,3.561c-3.719,3.226-1.947,5.671-4.149,9.76c0.743,1.002,5.758,0.042,3.292,2.993
			c-4.059,4.857,0.046,1.555,1.758,4.736c0.06,2.539-6.366,2.659-2.973,5.834c3.32,3.106-3.857,4.679,2.663,6.356
			c-0.351,2.736-4.56,1.218-3.363,4.189c0.455,1.13,3.667,0.852,4.813,2.45c-0.986,2.172-3.88,1.651-4.81,3.971
			c1.157,1.38,8.84,3.547,0.56,4.62c1.661,0.557,3.081,1.477,4.261,2.76c-1.509,0.47-2.756,1.322-3.74,2.56
			c7.686,3.852,0.057,2.38,1.226,5.812c1.135,3.332-1.842,2.387-1.207,5.549c0.951,1.579,2.968-0.273,3.891,1.58
			c-0.145,2.63-4.25,1.502-3.88,4.64c1.626,0.687,3.323,1.05,5.09,1.09c-0.125,3.417-4.729,1.164-4.891,4.261
			c3.694,3.278,3.713,1.982,1.17,6.06c1.66,3.766,5.393-0.02-0.02,5.22c0.887,2.549,5.386,1.457,3.39,5.32
			c-3.315,1.271,0.182-3.024-4.819,0.88c1.491,0.584,2.767,1.478,3.83,2.68c-1.488,0.347-2.708,1.116-3.66,2.311
			c0.758,2.121,4.102-0.672,5.14,1.91c-1.684,1.449-3.511,2.689-5.479,3.72c1.468,1.604,3.254,2.69,5.359,3.26
			c-1.539,0.478-2.819,1.338-3.84,2.58c1.489,0.514,2.702,1.404,3.64,2.67c-7.849,6.67-8.724-2.124-8.784-10.422
			c-0.117-15.928-2.042-31.727-2.062-47.635c-0.035-28.63-1.615-55.606-1.677-84.714c-0.109-50.841-4.65-102.737-4.997-154.139
			c-0.059-6.769,0.554-11.744-0.359-18.546c-0.135-1.006-1.041-9.743-1.122-9.864c-1.317-0.644-2.694-0.794-4.13-0.45
			c-2.31-2.311-4.567-4.692-6.906-6.972c-4.494-4.38-4.325-2.231-5.306-9.401c-0.686-5.01-4.409-5.283-1.124-11.633
			c2.646-5.113,8.278-7.563,10.126-13.354c8.111-7.25,17.101-14.917,24.316-22.953c7.73-8.608,16.769-16.212,24.318-25.343
			c4.432-5.36,9.182-10.051,11.946-16.584c2.706-6.419,1.963-16.301,9.52-19.513c9.963-4.234,22.138-4.377,32.48-4.677
			c7.976-0.245,41.52-2.472,23.61-14.32c1.825-1.845,3.651-3.688,5.479-5.53c-0.947-1.173-2.057-2.16-3.33-2.96
			c-1.539,2.403-8.133,1.877-10.779,4.47c-1.374,1.352-12.5-0.938-14.404-1.653c-7.469-2.805-1.865-0.542-4.596-7.177
			c-3.836-9.279,10.519-10.379,11.409-19.68c-5.158,0-13.467,1.51-15.797-4.746c-2.074-5.57-0.709-13.014,0.328-18.624
			c1.045-5.655-3.33-5.133-3.704-10.126c-0.34-4.544,3.709-8.341,5.538-11.993c2.093-4.18,3.47-8.279,5.877-12.419
			c2.881-4.958,6.712-6.788,10.379-11.272c6.981-8.541,23.095-8.346,33.113-9.104c9.133-0.691,25.786,0.991,29.837,10.724
			c1.052-0.868-31.768-10.507-20.52-1.89c-1.596,1.042-3.192,2.082-4.79,3.12c0.849,1.797,2.186,3.037,4.01,3.72
			c-1.088,1.088-9.274,4.289-9.616,4.949c0.686-1.322,6.867-4.296,3.986-6.809c-3.576,0.415-3.325,5.072-6.99,5.93
			c2.232-0.598,6.074,1.426,8.24,2.81c-2.211,1.823-3.988,3.996-5.33,6.52c-5.053-1.032,1.446-4.636-6.209-3.025
			c-6.721,1.414-12.877,1.112-19.583,3.72c-8.044,3.128,0.327,13.814-8.123,17.647c-2.19,0.993-3.572,4.099-5.415,5.649
			c-2.753-1.358-3.309-1.265-5.36,1.02c3.028,3.942,12.246-3.025,13.476,6.558c0.224,1.744,2.409,5.856,1.295,7.323
			c-2.852,3.787-11.389,1.611-14.71,5.81c2.451,1.417,14.522,5.392,16.846,4.007c3.605-2.149,9.027-9.531,13.394-3.948
			c-4.803,3.927-8.357,16.103-15.171,13.87c-3.937-1.289-2.354,1.107-5.461,2.388c-10.158,4.186,0.893,5.164,1.672,8.083
			c0.167,2.557-1.407,3.097-4.721,1.62c-2.477,8.266,33.023-4.371,36.24-1.92c5.828,4.424,12.353-7.688,12.77-12.03
			c0.19-2,2.638-2.101,2.677-4.337c0.081-4.616-4.49,0.963-6.576,0.197c3.995-4.678,4.164-5.466,5.646-11.116
			c0.619-2.36,4.029-2.886,5.904-4.364c3.636-2.869,3.317-1.375,2.358-6.14c-0.891-4.425,5.12,0.692,6.531,0.06
			c-0.785-3.353-3.221-6.773-0.495-9.857c1.174-1.328,5.622-5.115,4.153-8.077c-4.332-8.734-2.199-7.99,2.582-15.296
			c-3.825-0.778-3.302-4.211,0.245-4.502c2.217-0.182,5.367,3.836,6.428,5.351c2.405,3.434-0.28,11.319,1.167,13.421
			c5.859,0.199,4.072-5.323,3.385-10.027c-1.114-7.611-7.354-10.801-12.555-15.483c8.333-7.461,14.744,11.007,15.815,16.705
			c2.613,13.904-5.313,24.938-14.698,34.127c-6.176,6.048-1.33,4.871,0.018,11.668c0.977,4.932-6.712,7.9-9.848,10.254
			c-4.271,3.208-9.179-3.296-9.004,5.167c0.126,6.121,4.878,4.152,7.577,8.019c-1.547,2.402-4.986,2.406-6.11,5.23
			c1.624,2.551,5.796,1.933,4.4,5.459c-0.018,0.044-14.367,1.758-3.36,5.621c-5.818,7.441,15.32-0.463,19.455-0.438
			c9.395,0.06,16.442,2.791,24.982,6.207c5.08,2.032,11.155,2.133,16.694,2.417c4.223,0.217,14.549-2.038,17.868-0.987
			c14.879,9.446,3.309,26.461,6.677,39.047c2.426,9.063,14.487,47.729,25.273,46.813c0.255-3.193,4.205-3.831,4.45-7.03
			c4.025-4.205,5.734-9.862,8.55-14.82c4.423-7.783,5.622-17.188,8.541-25.582c1.336-3.842,5.854-14.104,4.141-18.065
			c-2.141-4.952-0.58-18.756,1.198-24.153c1.338-4.078-1.909-16.241-2.718-20.787c-1.643-9.244-4.068-21.961-2.832-30.974
			c0.521-3.8,0.385-17.945-3.046-20.048c-1.482-0.908-3.951-3.735-4.499-5.366c-1.535-4.568,2.331-1.17,4.675-2.095
			c-1.823-3.492-10.689-8.185-7.54-12.87c5.169,5.232,8.419,10.802,8.352,2.291c-0.037-4.604-2.397-1.744-5.879-3.53
			c-3.758-1.929-2.215-3.665-2.953-6.961c3.948,0.953,5.227,4.155,7.69,6.85c6.643-3.362-7.794-9.74-9.12-11.87
			c3.792-3.691,6.113,3.136,9.352,4.107c2.154-0.148,3.503-1.388,4.049-3.717c1.977,0,3.953,0,5.93,0
			c3.154-1.79,4.504-6.45,8.22-6.45c0.374,2.534,2.568,11.203-1.43,12.53c-0.325-2.795-0.568-4.674,0.3-7.31
			c-3.074-1.025-5.332,5.314-5.79,7.28c-1.251,5.414-3.865-1.856-4.1-2.2c-6.19,1.911-2.073,19.27-2.366,25.465
			c-0.296,6.261,5.08,21.288,2.446,26.873c-2.453,5.2,0.707,19.846,1.059,25.947c0.449,2.634,0.89,5.271,1.322,7.908
			c0.288,3.724,3.925,7.765,4.13,2.212c0.124-3.344-1.07-7.465-1.18-11.011c-0.451-14.615-3.911-29.435-3.911-44.474
			c0-2.889-2.556-25.205,0.653-26.508c2.081-0.845,1.719,10.53,2.826,12.438c5.196-1.15,1.991-5.9,2.471-9.167
			c0.587-4.004,5.498-1.353,2.439,2.606c-0.592,0.364-0.842,0.877-0.75,1.54c2.931,3.469-0.877,5.367-1.729,8.42
			c-2.249,8.115-2.008,15.374-2.037,23.78c-0.021,5.767-0.699,11.654,0.813,17.297c1.612,6.017,0.224,10.017,0.667,15.97
			c0.946,12.696,17.353,13.844,16.098,28.452c-0.416,4.796,3.088,7.542,1.945,13.503c-0.694,2.688-0.88,5.41-0.556,8.167
			c-3.457,3.457-6.914,6.913-10.37,10.37c3.665,13.18,5.713,29.916,5.29,43.61c-0.183,6.262-0.229,21.227,6.111,22.918
			c5.226,1.394,1.917,7.192,0.059,10.142c-4.094,6.413-1.149,13.085-1.149,20.09c-6.765-0.8-16.021-16.797-20.91-21.67
			c10.077-5.954,10.552-10.344,8.12-20.83c-1.41-6.032,0.962-35.341-5.521-36.14c-2.545,2.728,1.606,4.855-3.149,5.124
			c-2.52,0.142-4.816,5.162-4.721,7.896c0.188,4.51-4.173,19.82-9.31,19.82c3.188-9.813,4.521-21.748,9.97-30.72
			c2.688-4.459,3.006-9.27,4.443-14.114c1.658-5.589,4.627-3.597,4.627-10.696c5.326,0,9.273-1.491,12.03-6.26
			c0.53-0.915,1.962-8.977,1.34-10.26c-4.132,0.61-4.951,5.948-9.13,6.5c-1.183-2.079,6.122-14.677,7.68-15.5
			c-5.531-4.841-5.181,6.968-8.05,7.85c-3.812-0.354,3.93-15.762,3.689-20.05c-2.959-0.697-7.578,7.911-8.351,10.421
			c-1.644,5.34-3.268,11.737-0.869,17.449c2.89,6.922-4.383,6.441-3.4,10.06c-3.225,4.741-4.054,12.84-5.782,18.346
			c-3.547,11.296-7.912,23.903-15.21,33.729c-3.363,4.528-5.631,13.446-11.493,6.842c-5.057-5.696-8.319-12.823-12.114-19.354
			c-6.232-10.726-11.146-22.953-13.585-34.992c-1.869-9.233,7.507-22.411-3.125-31.24c-1.189-0.961-6.952,12.311-7.12,14.75
			c0.354-0.192-10.736,2.926-5.37,4.154c9.596,2.195-7.149,9.75,7.421,6.146c1.965,3.041-2.212,2.818-1.98,5.32
			c0.046,1.4,2.776,1.032,2.732,2.489c-0.153,5.023,2.731,7.596,4.2,13.568c1.736,7.061,4.997,23.497,9.873,26.463
			c0.359,0.219,2.242,10.88,2.204,12.659c-0.052,2.354,2.94,2.773,2.71,5.29c-0.365,3.863-1.062,3.94-0.308,8.011
			c0.936,5.05,2.506,3.229,7.647,3.229c-0.132-3.237,1.259-5.751,3.991-7.417c7.255-4.425,9.188,2.195,15.06,4.047
			c8.714-6.92,11.429-15.857,15.119-25.9c0.976-2.67,3.44-15.12,5.641-14.68c1.992,0.404-4.689,22.63-5.464,24.872
			c-2.881,8.347-11.051,18.729-17.22,25.023c-8.4,8.57-1.163-12.245-9.013-11.715c-6.194,0.417,0.825,11.856,0.926,12.931
			c-2.471,2.207-15.705-1.994-18.364-3.858c-4.332-3.037-7.289-14.288-5.949-17.981c2.389-6.582-4.436-19.256-6.925-25.392
			c-2.285-5.631-2.156-15.79-6.132-20.129c-4.568-4.984-7.298-12.29-10.584-18.024c-3.46-6.037,2.626-1.589-3.365-7.526
			c-2.299,0-6.562-0.428-7.12,2.806c-0.151,0.877,4.679,13.349-0.741,10.718c-2.474-1.2-4.76,0.282-3.882-3.994
			c1.005-4.891,1.823-9.41-3.967-9.41c-0.686,2.663,1.17,8.955,1.17,12.04c0,5.381-0.877,6.903-4.53,10.686
			c-4.67,4.835-14.777,2.471-20.46,2.444c-5.473-0.026-9.91-0.621-14.342,3.115c-1.548,1.283-2.764,2.818-3.648,4.605
			c-2.392-0.171-3.92-3.439-6.38-2.66c-7.242,2.281,1.19,3.871,1.15,5.98c0.73,4.135-6.177,5.443-6.25,8.92
			c8.128,0.685,9.46-5.38,14.533-9.93c5.015-4.499,10.377-3.637,16.581-3.523c5.577,0.103,14.652-3.098,19.785-1.037
			c2.39-2.389,7.455-5.794,8.445-9.219c0.723-2.498,0.353-5.115,2.995-6.651c2.296,5.579,8.277,8.542,7.399,15.55
			c-0.487,3.934,1.519,14.619-3.729,16.38c-1.108-1.927,0.772-3.735-1.39-5.42c-8.229,7.476-19.055,10.21-29.351,8.39
			c-6.023-1.103-15.527-3.458-20.53,1.89c-1.658,1.773-8.625-2.264-9.659,4.43c1.188,0.6,2.435,1.03,3.739,1.29
			c-1.847,4.047-8.595,5.997-10.229,10.04c4.043,3.965,9.361-4.245,11.017-6.606c4.074-5.81,12.188-6.99,18.748-6.538
			c7.952,0.549,15.061,2.472,22.925,0.051c3.088-0.95,7.686-1.596,10.231-3.751c1.326-1.124,2.63-3.775,4.519-3.775
			c-0.831,7.089,5.963,11.693,6.243,18.848c0.136,3.477-0.429,5.797-2.743,8.373c-2.412,2.662-0.071,7.846,0.15,11.06
			c0.194,3.03,2.43,9.563-0.51,12.25c-5.413,4.947-6.388,15.522-12.803,18.231c-14.197,5.996-32.888,0.494-46.918-3.906
			c-13.038-4.088-1.402,2.823,0.713,7.344c1.306,2.79,0.596,5.625,2.458,8.07c-2.54,3.527-8.276,1.896-8.771,6.51
			c4.253,1.07,11.615,4.142,4.593,8.305c-10.781,6.391,3.772,3.818,1.546,9.214c-1.294,3.137-12.075,6.532-2.477,10.249
			c8.325,3.223-7.057,7.424,1.808,12.762c-9.206,6.974,8.894,9.897,12.988,3.917c6.785-9.909,9.772-18.64,21.682-24.106
			c6.379-2.913,15.46-7.764,22.499-4.773c10.663,4.531,15.84,14.599,15.97,25.686c0.09,7.594,5.419,18.913,1.432,25.647
			c-4.738,7.977-9.912,11.192-13.079,20.823c-3.735,11.361-3.029,15.905-15.688,18.626c-4.357,0.937-8.842,1.378-12.191,4.689
			c-6.036,5.969,1.856,1.919,1.529,6.241c-1.435,2.803-2.979,0.271-3.86,4.021c2.555,2.598,5.273-3.64,8.67-3.06
			c0.771,4.035-4.28,2.662-3.24,5.979c0.121,0.069,16.372-3.469,5.03,3.24c5.854,0.804,14.556,9.582,18.021,1.8
			c2.264,1.819,5.308,1.906,7.789,3.272c3.48,1.915,2.665,8.242,0.211,5.788c-4.25-4.184-12.146-2.387-11.08,3.37
			c2.341,2.199,4.457-2.794,7.609,1.34c-1.827,1.714-4.841,3.314-4.758,6.089c0.098,3.233-2.991,0.805-4.182,2.551
			c3.168,4.502,9.438,7.924,4.619,14.464c-2.729,3.705-2.072,4.851-5.625,6.77c-4.299,2.323,1.127,3.094,0.966,4.927
			c-0.073,0.842-5.858,1.569-3.538,3.285c1.421,1.051,4.273,0.604,2.722,3.065c-0.607,0.962-3.587,0.13-5.273,1.449
			c0.596,2.929,4.164,3.481-0.011,4.87c1.015,1.288,1.762,2.719,2.24,4.29c-1.049,1.626-3.506-0.008-4.902,0.952
			c-3.173,2.182,1.623,2.956,1.112,5.378c-1.643,2.434-5.58-0.008-2.579,5.15c-0.241-0.413-2.298,4.815-2.535,5.769
			c-0.841,3.367-4.989,7.871-4.945,10.521c0.103,5.131-1.877,10.395-2.277,15.577c-0.085,2.058-0.579,4.006-1.482,5.844
			c-1.792,1.031-1.806,2.343-0.039,3.934c-0.317,2.009-3.746,7.503-1.977,9.372c3.903,4.123-7.319,1.216-8.135,1.824
			c-0.324,3.781,3.811,2.543,5.656,4.321c2.017,1.943-3.296,3.897-4.427,5.889c7.745,3.455,18.887,5.727,11.521,16.72
			c-2.719,4.052,1.859,15.12,2.984,20.027c1.445,6.297,3.668,16.054,3.556,22.29c-0.124,6.93-4.494,13.678-4.11,20.652
			c0.416,7.89-4.36,20.619-7.67,27.811c-4.16,9.036-6.913,20.119-8.77,29.88c-1.984,10.373-3.638,20.471-5.15,30.74
			c1.572,1.435,4.102,2.825,5.491,4.296c3.7,3.913,3.064,2.421,8.085,4.51c3.967,1.65,4.883,1.429,6.574,5.544
			c2.257,5.543,6.947,0.137,9.52,3.06c1.801,2.071,1.993-0.927,3.53-0.13c2.784,1.457,1.553,3.762,4.688,6.746
			c1.166,1.109,7.737,4.559,7.711,4.704c-0.825,4.301,1.241,8.948-0.553,13.059c-2.854,6.54-3.713,0.135-7.947,0.604
			c-4.008,0.444-6.386,3.98-11.25,4.007c-7.106,0.056-8.874-0.475-12.562-5.837c-4.196-6.103-14.324-4.995-19.143-9.25
			c-3.102-2.739-2.398-3.953-6.963-3.853c-4.379,0.097-9.88-0.741-11.883-5.3c-0.938-2.14,3.992-17.203,5.73-17.45
			c-0.133-0.103,4.403,4.658,3.84,1.27c-0.417-2.64-2.347-0.829-3.85-1.27c-1.189-4.496,4.54-10.032,3.989-12.37
			c-1.516-6.646,0.294-15.966,1.602-23.14c3.516-19.285,3.244-38.642,5.433-58.258c0.598-5.362-0.966-21.914,2.826-26.043
			c1.795-1.943-1.351-5.067-1.458-6.896c-0.243-4.135,0.937-12.321,2.132-16.364c3.001-10.15,7.644-6.61,14.477-11.42
			c4.281-3.014,13.287-11.359,1.899-11.359c0,3.924-2.063,9.453-6.082,10.481c-11.123,2.846,1.446-14.531-1.178-17.711
			c-6.576-7.899,4.639-20.832,5.53-28.94c1.247-11.523,9.211-22.735,10.13-34.39c0.857-10.601,8.998-23.34,12.1-33.797
			c3.001-10.117,1.065-19.087-1.506-28.821c-1.499-5.678,5.086-5.411-3.827-7.906c-4.721-1.321-11.147-3.329-15.221-6.1
			c-5.077-3.453-5.902-7.737-12.155-8.246c-5.6-0.455-12.552-0.733-14.921-6.771c0.877,0.599,10.85,2.561,8.59-2.149
			c-5.807,3.234,0.381-3.183-1.729-5.431c-1.522,5.618-15.202,10.744-11.736,1.255c2.21-6.05,15.694-2.882,20.767-3.447
			c12.447-1.388,9.806-8.183,10.991-18.929c0.426-3.861,2.953-8.651-0.249-12.092c-1.889-2.03-5.708-5.812-7.641-5.803
			c-3.832,0.018-3.366,5.942-3.942,9.136c-0.979,5.449-6.256,4.417-9.703,6.667c-3.534,2.306-2.266,7.348-5.94,9.831
			c-3.896,2.633-10.089,2.957-14.541,2.274c-3.057-0.468-7.022-1.816-8.929-4.523c-1.842-2.616-0.936-6.968-4.774-7.886
			c-6.818-1.63-12.401-7.836-16.722-13.443c-3.397,2.957-1.688,9.311-6.141,11.2c-0.107,1.015,4.401,5.712,5.17,7.1
			c-6.8-1.187-16.666,2.274-11.439-5.03c-0.219-0.901-11.963-11.301-2.03-9c-2.764-2.765-6.597-6.143,0.13-6.41
			c2.935-2.934-3.365-4.237-3.27-6.84c1.429-1.731,5.704,2.779,6.3-0.36c0.547-2.898-9.528-4.47-5.72-9.12
			c1.568,0.104,2.769,0.828,3.601,2.169c2.381,2.321,6.635,1.311,9.588,1.311c0.585-1.792-1.353-4.255-3.292-3.097
			c-4.23,2.528-6.265-1.909-9.188-4.863c2.847-2.52,4.497-0.344,7.1,1.76c0.232-3.262-1.637-5.294-3.45-7.9
			c1.447-1.47,7.05,0.455,6.449-2.529c-0.336-1.67-5.509-0.781-6.459-0.781c1.491-3.732,7.365-1.535,7.707-3.344
			c0.533-2.82-7.191-1.017-8.867-3.766c3.874-2.766,1.743-5.48-1.78-3.75c3.236-3.403,9.47-2.042,5.601,1.38
			c1.851,2.701,3.96,1.064,5.75-0.37c-2.881-2.438-3.813-6.404-8.247-6.589c-7.713-0.321-0.936-1.681-4.979-5.623
			c-6.086-5.935-10.334,11.208-10.445,14.012c-5.376,6.803-9.752,5.444-12.668,14.743c-1.171,3.735-3.23,7.45-1.788,11.456
			c2.161,6,0.947,8.93,1.705,14.839c1.175,9.164,19.41,34.153,29.691,34.073c4.743-0.058,9.648-0.382,14.305,0.747
			c4.616,1.118,8.278,5.549,13.135,3.823c2.884-1.023,3.613-0.911,5.09,1.829c4.159,7.693,5.532-2.507,6.79-5.1
			c-9.177,0.318-33.183-3.304-36.18-12.55c-2.543-1.312-4.264,4.042-5.561-1.08c1.474-4.26,11.539,1.325,13.883,2.535
			c8.344,4.309,16.429,6.324,25.565,9.097c12.018,3.646,0.06,11.478-2.878,15.848c-1.934,2.981-21.743-8.547-23.63-10.739
			c-4.509,7.703-7.656,12.192-16.619,14.738c-6.956,1.976-3.333,10.25-3.012,16.597c0.726,14.333,6.354,28.991,6.061,43.124
			c-0.176,8.481,6.079,15.259,6.614,22.941c0.501,7.191,2.784,16.942,4.515,24.032c1.801,7.376,4.204,14.419,6.792,21.887
			c-2.654,3.636-2.526,5.946-6.109,9.561c2.62,5.745,0.433,7.131,0.854,12.67c0.348,4.585,8.688,13.805,1.706,19.24
			c-4.196,3.299-1.992,12.844-2.011,17.156c-0.068,15.401-3.052,31.497-4.628,46.981c-1.271,12.48-4.552,25.782-3.949,37.641
			c0.273,5.377-2.314,11.652-1.063,17.271c1.982,8.944,3.841,17.192,3.841,26.37c-1.236,1.207-9.237,7.1-8.841,2.335
			c0.347-4.175-6.517,2.5-7.164,3.482c-2.358,3.578-1.773,10.627-3.73,14.747c-1.463,3.081-6.563,7.664-9.642,9.223
			c-5.095,2.577-9.455,6.891-15.762,6.621c-5.207-0.223,0.308-7.21-6.839-7.851c-18.855-1.692,5.674-28.907,12.964-32.792
			c2.258-1.203,9.652-11.883,11.134-11.546c9.055,1.811,3.246-17.164,3.841-20.931c-3.506-7.132-2.625-21.257-2.603-29.052
			c0.03-10.816,0.375-21.294,1.342-31.987c1.284-14.14,3.647-27.787,5.218-41.949c0.949-8.561,3.279-18.27,6.595-26.216
			c4.565-10.939,9.155-8.122,17.214-14.433c8.184-6.407-2.006-25.169-3.49-34.443c-2.314-14.461-6.737-28.583-9.825-42.889
			c-2.406-11.148-3.626-21.013-4.393-32.207c-0.359-5.239-1.082-9.609-2.453-15.269c-0.837-3.458-6.045-10.9-4.617-14.266
			c1.759,0.136,3.066,0.976,3.92,2.52c2.593,2.86,6.723-1.435,9.059-2.917c8.191-5.2,12.847-9.424,1.35-11.572
			c-1.069-0.199-9.549-4.643-9.259-1.75c0.295,3.104-2.254,4.357-4.54,5.5c-6.986,3.503-1.765,10.69-9.53,12.06
			c0.133-2.666-0.511-8.229-3.407-9.386c-3.942-1.575-4.326,0.987-7.502,4.356c3.695,4.045,6.938,0.53,1.8,5.58
			c-2.271,5.414,3.166,3.556-2.33,7.17c0.212,1.522,1.963,3.186,3.479,1.83c2.974-2.679,7.412,3.227,9.96,4.66
			c0.101,3.397-4.85,0.558-4.859,3.85c2.923,3.143,5.902-2.169,8.899,0.11c0.386,2.946-3.623,1.504-3.569,4.119
			c1.391,2.588,3.22,5.585,4.39,9.431c0.933,3.128-1.432,8.851,1.61,12.26c2.295,2.565-3.32,3.099,0.72,5.96
			c0.695,1.384,0.53,2.601-0.497,3.65c-1.546,2.606,2.484,1.454,3.096,2.029c-7.83,7.836,4.367,7.411,3.294,12.305
			c-0.561,2.555-4.282,2.331-2.773,5.726c1.987,1.457,7.903-1.193,2.84,3.87c0.018,0.177,3.158,7.308,2.147,7.206
			c3.141,0.316,0.768,5.475,3.082,9.634c1.412,2.553,3.701,14.667,3.311,17.16c-0.385,2.452,2.521,3.504,0.669,6
			c-3.165,4.269,2.881,2.953,4.51,4.34c-3.061,6.007-8.76-0.923-8.76,5.4c4.648,0.578,9.18,3.641,4.348,8.208
			c-5.709,5.397-5.545,0.674-5.625-3.27c-0.18-8.813,0.817-17.744-1.375-26.376c-4.218-16.603-12.469-31.388-14.917-48.393
			c-1.308-9.151-1.91-19.896-4.893-28.598c-1.907-5.567-1.312-11.558-3.567-16.253c-3.267,2.688-6.144-1.922-8.245-4.559
			c-4.136-5.19-2.112-9.484-1.505-15.246c0.425-4.03,5.764-9.67,10.303-7.424c7.202,3.563,9.047,2.822,14.397-4.371
			c5.134-6.877-5.571-17.08-10.459-22.082c-1.967-2.013-8.219-9.611-6.34-12.648c3.682-5.99-0.988-12.622-1.366-18.809
			c-0.779-12.739,12.503-15.706,14.841-26.063c1.451-6.428,1.024-11.154,8.741-13.626c5.954-1.907,11.404,1.508,15.373,5.837
			c5.755,6.278,5.072,18.89,12.082,21.349c5.212,1.828,4.208,4.541,9.475,2.876c2.967-0.938-3.13-5.469-0.385-9.005
			c2.702-3.488-3.18-5.033-1.879-8.754c1.148-1.4,2.031-2.947,2.65-4.641c-0.059-2.669-6.769-4.604-2.985-6.751
			c6.712-3.811-3.677-5.371-0.576-11.074c1.29-2.382,6.064-6.403,5.96-8.71c-11.793-3.397-3.802-12.041-2.964-18.732
			c1.083-8.638-11.053-2.689-14.916-1.248c-5.783,2.187-12.189,2.824-18.468,3.162c-8.365,0.45-22.321-4.719-27.792-11.369
			c-3.227-3.922-2.796-6.702-4.215-10.85c-1.469-4.291-0.846-5.543-3.167-9.909c-2.177-4.095,2.558-12.113,1.706-17.196
			c-0.674-4.022-4.203-9.945-2.517-14.096c0.926-2.279,8.704-6.268,7.753-8.512c-1.984-4.73,3.067-8.266,6.891-9.81
			c-4.638-3.133-10.119,2.175-14.14,5.844c-2.952,2.693-3.885,5.069-7.219,7.296c-2.493,1.665-5.77,3.453-7.821,5.667
			c-4.367,4.716-7.279,10.632-11.731,15.343c-3.739,3.96-6.436,15.847-11.101,17.53c-2.833,1.024,0.613,9.546-0.077,12.635
			c-0.611,2.734-4.73,4.656-2.513,7.814c1.294,1.86,3.345,5.704,4.282,7.854c2.448,5.617,2.305,11.439,5.468,17.236
			c2.25,4.082,2.941,8.958,3.958,13.476c2.08,9.246,8.305,19.754,13.703,27.979c8.065,12.287,7.754,28.358,12.372,42.196
			c1.815,5.439,2.229,6.86,2.899,13.141c0.104,0.975,0.958,13.55,0.968,13.548c-3.2,0.572-2.691,6.186-6.9,4.07
			c-0.557-2.543-6.572-14.695-5.736-14.87c-6.746,1.414,1.559,10.758,0.177,12.009c-2.504,2.244,2.722,5.226-2.17,6.551
			c-3.235-2.285-1.373-7.234-4.53-9.65c-3.499,1.08-1.368,6.901-4.724,7.449c-5.044,0.822-2.207-8.873-0.557-11.049
			c-6.179,0.305-6.116,3.142-8.716,8.2c-1.089,2.12-0.637,16.607,0.227,18.499c1.5,3.327-0.152,6.831-0.613,10.132
			c-0.625,4.473,0.896,10.218,0.821,14.862c-0.229,14.193,0.48,28.377,1.019,42.556c0.451,11.863,0.025,23.69,0.195,35.524
			c-0.003-0.198,1.171,8.447,1.078,8.356c2.735,2.653-2.95,5.875-0.78,8.64c4.846,6.207,1.135,25.721,1.149,33.348
			c0.011,5.612-0.691,11.777,0.058,17.355c0.657,4.889,4.59,9.607-2.577,9.607c0-20.193-1.708-38.593-1.333-58.457
			c0.1-5.302-2.67-19.352-0.552-23.358c1.71-3.234-2.085-6.67,0.035-9.165c1.612-1.896,0.854-10.251,0.717-12.532
			c-0.9-14.931-2.592-30.103-2.691-45.258c-0.139-21.075-0.881-41.497,0.124-62.63c4.929,8.505,8.619-19.418,8.67-22.74
			c0.06-3.337,2.472-11.899,3.66-14.95c2.615-6.797-5.152-13.019-6.91-19.12c-1.027-3.576-4.721,1.057-4.498,3.268
			c0.609,6.022-0.643,11.828-0.019,17.846c0.767,7.387,1.442,13.129,0.097,20.208c-0.555,2.918-2.033,12.958-1.001,15.479
			c-3.473-0.312-1.372-53.606-1.378-60.103c-0.007-7.581-2.763-14.532-6.337-21.151C35.612,290.079,35.362,285.593,31.6,286.86
			c-0.06-3.714,0.184-5.48-3.609-6.45C26.81,283.53,29.42,284.77,31.6,286.86C30.96,289.44,29.42,284.77,31.6,286.86z M89.79,162.51
			c0-1.844-4.728-2.97-6.19-2.01c-1.862,1.241,4.495,3.506,5.72,3.03c1.201-0.434,2.858-3.466,2.101-5.12
			c-1.266-2.787-2.829-5.289-4.55-7.84c2.462,5.899,9.606,8.186,12.44,0.951c1.659-4.237,1.93-2.655,4.14-6.021
			c-2.671-5.214-2.289-5.071,1.819-9.24c-1.97-2.188-5.785-4.783-6.477,0.127c-0.778,5.529-6.214-2.458-9.213,0.383
			c1.524,4.488,6.217,4.928,9.399,7.65c-3.102,8.289-10.74,2.067-7.939,11.77C84.596,157.672,89.601,157.602,89.79,162.51
			C89.79,162.3,89.67,159.39,89.79,162.51z M216.33,371.37c5.91-0.813,12.507-6.635,9.39-11.68
			c-3.434,3.617-18.51,17.175-16.25,20.73C213.008,378.415,214.455,374.71,216.33,371.37C221.93,370.6,214.5,374.63,216.33,371.37z
			 M212.52,364.94c0.832,3.329-4.379,3.616-1.49,6.82c2.799-2.229,5.34-4.535,6.431-8.09c-8.94,0,5.821-9.49,8.05-13.3
			C219.144,349.555,206.049,364.94,212.52,364.94C212.94,366.62,211.89,364.94,212.52,364.94z M61.31,363.17
			c3.767-1.464,5.347-2.014,5.72,2.41c0.165,1.913,2.557,2.993,2.554,0.337c-0.004-3.885,4.255-1.738,3.727,1.232
			c-0.284,1.623,0.86,11.371,4.061,9.83c-2.508-8.274-0.334-18.503-6.185-26.862c-3.871-5.529-3.965-5.747-4.168-12.294
			c-0.193-6.2-5.533-11.007-5.087-17.514c0.167-2.516-5.936-12.499-7.104-15.508c-2.821-7.269-5.546-14.577-8.366-21.847
			c-2.252-5.807-4.285-12.014-6.859-17.665c-1.651-3.624-3.362-14.665-7.431-16.721c-1.596,0.96,0.23,2.98-1.771,3.98
			c-2.395-2.667-5.416-4.866-4.979-8.96c5.492-1.112,1.457,5.212,6.826-0.132c3.432-3.417,6.508-6.879,1.113-10.368
			c-7.821-5.049,4.661-7.271,7.98-14.13c4.447-9.167,11.311-14.688,16.61-22.85c3.776-5.825,19.627-15.288,20.5-21.39
			c-0.356-0.375-4.539-3.699-5.011-2.85c-0.289,5.128-8.249,9.567-12.458,13.574c-2.88,2.742-5.287,5.349-8.66,7.56
			c-2.304,1.442-4.578,2.931-6.821,4.466c0.185,1.449-0.009,2.849-0.58,4.2c-1.967,0.92-7.179-0.9-8.061,4.61
			c-1.075,6.887-7.858,5.433-11.439,8.53c-1.478,1.918,2.886,2.533,0.62,4.46c-2.531,1.062-6.563-5.972-5.62,1.03
			c2.496,2.954,3.42-2.416,3.42,3.71c-1.971,1.93-4.63-2.334-6,1.05c1.645,3.322,5.313,3.161,6.122,7.318
			c0.848,4.359-2.255,8.408-6.312,9.671c-5.492,1.703-3.588,5.729,1.57,5.18c4.151-0.454,3.509,1.52,3.333,5.085
			c-0.182,3.664,9.719,13.777,7.707,16.655c-2.151,3.082,9.007,13.448,8.01,18.42c-0.347,1.776,3.729,1.074,3.41,2.83
			c-0.617,3.432,2.977,4.841,2.548,8.819c-0.55,5.099,8.284,15.73,10.493,20.102c4.302,8.513,4.442,16.334,6.126,24.444
			c0.449,2.161-10.008,20.858-5.497,21.335c2.301,0.272,0.735-3.61,5.8-3.61c-1.965,5.128-1.3,11.055-4.409,15.78
			C63.948,380.355,64.409,366.606,61.31,363.17C66.43,361.18,65.17,367.45,61.31,363.17z M118.52,581.04
			c2.578,2.369,0.429,6.941,4.24,8.36c-2.703,3.477-1.629,1.469-1.6,5.93c-2.348-1.028-4.107,1.316-2.257,3.098
			c0.664,0.639,7.802,3.435,1.229,3.099c-2.626-0.304-3.424,0.901-2.393,3.613c1.635-0.008,3.239,0.212,4.811,0.66
			c0.645,7.539-4.203-0.646-5.92,3.7c0.749,4.235,3.982,1.772,0.109,6.4c0.455,3.284,4.175,0.885,4.961,3.84
			c-1.797,0.902-3.594,1.806-5.391,2.71c0.06,3.134,4.198,2.526,1.061,5.249c-1.173,1.018-0.689,9.256,0.169,10.471
			c2.076,2.952-4.96,2.514-1.92,6.12c3.188,3.76-4.684,4.094,1.67,8.521c-6.305,1.389-4.846,16.551-3.16,20.369
			c-2.296,0.187-3.663,1.393-4.101,3.62c1.508,2.46,6.072-0.066,1.838,4.485c-2.604,2.801,3.703,4.793-1.667,9.645
			c5.379,5.38-2.154,1.539-1.41,6.21c0.658,1.043,6.118,0.177,3.217,3.23c-3.392,3.57-1.349-0.08-2.018,4.26
			c-3.898,4.104,0.654,9.043-7.02,4.561c-3.007,3.839-4.988,3.997-7.668,9.221c-2.919,5.689-8.375,6.11-14.622,8.959
			c0.961,1.928,2.228,3.624,3.8,5.09c-1.337,3.228-4.107,0.81-6.149,2.55c2.339,1.411,4.869,2.205,7.59,2.381
			c0.494,4.229-6.846,5.972-6.101,9.56c4.046,0.169,11.713-12.228,13.12-7.04c-0.184,7.575-10.632,8.7-11.88,15.07
			c2.92-1.031,15.021-5.733,16.007-8.781c1.216-3.761,1.133-8.475,2.988-12.003c1.559-2.966,15.89-20.723,16.203-17.855
			c0.508,4.654,5.033,5.809,5.851,0.871c0.837-5.061-3.532-9.813-3.232-14.6c0.616-9.831-2.896-18.873,0.435-29.371
			c1.811-5.706,2.193-14.244,2.383-20.265c0.176-5.574,2.042-13.879,0.966-19.166c-1.128-5.581,2.632-11.327,2.784-16.657
			c0.229-7.991,2.031-16.091,2.248-24.247c-0.051-3.313-0.018-6.627,0.1-9.938c0.345-2.815,4.869-9.868,3.548-12.458
			c-2.266-4.401-2.39-16.179-8.61-7.38c-1.254,1.158-2.73,1.813-4.43,1.964c-3.926,1.379,0.497,4.057,0.712,6.637
			C119.453,576.997,121.986,577.546,118.52,581.04C121.24,583.54,119.71,579.84,118.52,581.04z M191,647.71
			c-7.828,7.502-0.657,23.125-4.594,31.722c-4.358,9.519-6.444,34.407-0.167,42.769c-1.609,1.084-7.06,4.537-3.34,7.16
			c3.952-6.587,3.144,3.239,3.061,3.1c1.164,1.603,3.248,0.042,4.746,0.979c2.342,1.466,1.924,4.625,3.153,6.637
			c2.611,4.271,3.349,2.307,7.452,3.996c5.572,2.296,12.453,4.612,7.269,10.259c0.694,0.163,10.167,1.215,10.273,1.084
			c0.939-1.153,0.955-4.062,2.066-4.614c4.477,0.227,11.205,9.688,14.236,8.859c6.847-1.87-8.635-8.386-8.696-10.369
			c0.063-1.126,7.888-5.904-2.28-3.346c-10.358,2.607-2.234-0.821-1.74-3.335c-2.393-4.511-6.631-0.727-10.138-1.431
			c-3.295-0.661-7.028-5.547-9.805-7.47c-4.887-3.386-6.981-5.921-13.098-7.489c0.938-2.822,0.468-12.728,2.03-14.399
			c2.299-2.437,2.326-17.925,2.054-21.348c-0.519-6.509-2.874-18.264,0.256-24.243c1.257-2.411,2.558-15.732,2.421-18.21
			c-0.555-10.597,4.439-20.937,3.729-31.279c-0.376-5.488,2.576-8.499,3.938-13.484c-0.173,0.632,0.886-7.179,0.622-6.966
			c1.7-1.365,2.156-8.12,2.339-10.023c0.647-6.739-4.161-5.001,2.062-10.187c-2.353-4.552-7.092-1.436-8.75,1.942
			c-2.797,5.696-1.408,0.909-6.38,2.107c0.423,4.04,0.96,1.764,3.19,4.798c2.576,3.507-4.789,2.068-5.711,4.662
			c1.61,0.807,3.22,1.613,4.83,2.42c-0.897,1.233-2.091,2.011-3.58,2.33c1.378,3.138,0.933,9.764-2.899,11.55
			c1.705,0.832,3.409,1.669,5.11,2.51c-1.173,1.101-2.396,2.141-3.671,3.12c-0.712,2.526,3.525,1.704-0.061,4.617
			c-0.009,0.008-0.026,9.971,0.048,10.037C195.092,629.856,185.697,642.351,191,647.71C188.84,649.78,190.06,646.76,191,647.71z
			 M222.91,317.4c0.563-0.814,3.777-5.795,5.069-5.58c1.452,0.222,1.274,2.926,0.57,3.63c-4.574,4.632,8.896,7.804,1.37,15.7
			c6.8,3.77,2.448,6.771,2.732,13.021c0.241,5.298,9.35,2.621,0.987,9.739c5.947,4.341,2.955,5.609,9.03-0.776
			c2.339-2.459,9.571-10.444,6.189-14.464c-6.125-7.222,1.838-24.946-5.38-29.6c-7.705-4.963-16.258-13.428-24.72-4.04
			C227.664,308.396,221.517,310.129,222.91,317.4C224.3,315.39,222.14,313.38,222.91,317.4z M170.6,132.78
			c3.881,2.548,10.479,2.337,3.531,9.177c-1.942,1.913-4.846,1.841-4.691,5.252c0.085,1.894,3.965,3.234,4.771,1.06
			c7.376-19.085,34.814-8.572,48.857-5.371c6.564,1.497,14.965,5.51,20.259,2.001c2.237-1.483,3.638-3.535,4.597-6.023
			c2.92-7.583-1.841-2.717-5.408-2.547c-7.256,0.347-18.148-3.189-24.82-5.633c-2.938-1.077-8.849-4.489-12.128-3.495
			c-4.597,1.392-1.985,5.329-8.377,4.637c2.018-2.768,6.747-4.495,1.52-7.114c-2.631-1.317-9.056,0.899-11.449,1.924
			C182.932,128.508,172.008,127.793,170.6,132.78C171.24,133.2,171.23,130.55,170.6,132.78z M132.99,168.5
			c3.279,1.29,11.22,2.462,9.681,7.56c-2.866,1.003-11.828,9.104-12.643,8.424c-1.89-1.578-7.823,4.584-10.176,4.458
			c-4.749-0.254-6.514,0.61-9.271,3.868c-2.429-2.345-9.338-3.187-12.641-2.3c-5.892,1.579-5.439-7.871-10.609-8.58
			c-0.806,2.811,1.12,8.655,3.159,10.89c2.036-2.273,11.701,1.934,14.715,3.05c2.891,1.071,8.292-0.081,11.235-1.01
			c8.542-2.75,16.803-6.096,22.181-10.72c4.107,4.354,4.02,6.662-0.96,10.05c-2.277,1.753-4.751,3.163-7.421,4.23
			c0.371,3.604,0.018,7.409,4.844,4.024c1.189-1.449,2.625-2.565,4.306-3.348c1.665-0.162,3.788,2.515,5.357,1.331
			c1.724-1.302,7.732-5.448,6.454-7.667c-2.411,0.706-4.687,2.544-7.15,0.59c0.382-3.226,4.045-2.376,5.16-4.9
			c-2.086-1.094-4.533-4.01-5.45-6.33c1.979-0.095,7.089-2.254,8.2-4.05c-1.694-0.471-7.374,1.665-7.76,0.09
			c-0.535-2.101,7.344-4.167,5.939-5.23c-1.204-0.051-2.344-0.348-3.42-0.89c1.994-3.514,5.314-1.725,7.99-4.54
			c-5.123,0-7.714,2.069-8.17-3.7c-5.17,0-10.256,2.333-14.83,2.36c-7.346,0.036-13.184,8.03-17.47,0.59
			c-0.604,5.848-3.286,8.764,5.844,6.773C125.244,172.398,129.79,172.981,132.99,168.5C135.94,169.66,132.44,169.27,132.99,168.5z
			 M159.13,127.97c-1.904,1.904-3.416,3.594-5.864,4.854c-3.6,1.854-6.704-2.407-10.605-2.014c-2.412,0.248-28.645,2.252-26.07,5.92
			c0.127,0.184,3.891,0.182,4.95,1.24c-2.775,0.91-9.559,3.847-11.431-0.5c2.387,0.079,4.174-0.951,5.36-3.09
			c-7.225,2.189-10.666-3.689-7.59,7.53c0.689,2.494,5.186,1.621,6.536,1.618c7.967-0.017,7.428,0.635,10.094-6.398
			c4.447,4.793,2.256,4.123,10.28,3.92c5.505-0.118,16.899,2.603,19.609-3.07c2.712-5.685,13.779-2.892,14.88-9.65
			c0.668-4.069,5.769-2.99,3.146-7.235c-3.549-5.745-3.134-5.155,1.834-10.095c-2.557-2.559,4.901-9.366-2.92-9.331
			c-2.227,0.01-12.617,7.915-10.09,10.241c5.278-5.503,1.952,5.423,0.79,4.31c5.777,5.688-3.079,5.746-3.82,6.24
			C157.413,124.661,160.54,125.613,159.13,127.97C158.09,129.01,160.56,125.58,159.13,127.97z M161.79,298.25
			c0.916,8.855-0.429,6.824-6.28,11.65c2.746,1.69,8.322-1.462,7.772,2.032c-0.675,4.294-5.382,6.451-7.844,6.128
			c-2.892-0.379-3.75,2.965-1.549,3.87c1.797,0.599,2.106-2.197,4.16-0.79c3.941,4.96,3.116,7.27-3.73,7.27
			c2.135,3.317,2.595,6.258,6.7,3.916c1.578-0.9,4.916,5.297,6.13,6.504c-0.145,0.187-9.85,3.959-2.643,4.607
			c1.676-0.272,3.292-0.75,4.847-1.435c4.639-0.911,1.324,4.455,3.286,6.368c3.146,3.063,5.01,8.034,7.751,11.5
			c3.126,3.954,9.476,1.457,7.739-3.801c-3.335,3.63-8.692,0.084-9.72-3.73c-2.225-8.271,4.223-5.525,7.52-8.27
			c0.455-4.93-4.69-1.195-2.636-6.581c0.779-2.043-13.325-7.162-16.284-9.639c1.37-2.334,6.753-6.101,0.759-7.144
			c-2.853,0.068-3.502-1.654-1.949-5.167c3.012,0,6.306,1.615,6.291-2.285c-0.809-1.785-2.112-3.159-3.91-4.121
			c-4.846-6.38,1.36-2.089,1.291-8.024C169.422,294.824,165.02,298.072,161.79,298.25C161.93,299.6,163.97,298.13,161.79,298.25z
			 M171.57,232.25c-0.046-4.857,10.944-12.607,14.92-10.24c8.182,4.852,18.139,5.023,27.307,5.023
			c4.991,0,15.978,2.117,19.522-3.338c3.203-4.929,3.428-15.308-0.655-19.706c-1.609-1.734-5.24-3.611-4.963,0.851
			c1.149,1.656,4.186-0.47,4.579,2.17c0.994,6.559,1.215,12.181-6.31,15.038c-7.506,2.851-16.47,1.373-23.804-1.109
			c-3.853-1.304-18.92-2.546-20.616-5.278c-4.318,5.563-5.986,0.994-11.383,4.061c0.162-0.092-8.538,8.422-8.407,7.839
			C165.135,230.766,169.406,226.061,171.57,232.25C171.54,229.19,170.58,229.42,171.57,232.25z M227.08,252.69
			c-4.123,3.794-15.139,10.601-20.9,6.68c-2.488-1.694-5.672,0.187-8.02-1.97c-1.839,3.07-6.773-1.114-9.171-1.28
			c-7.255-0.521-9.435-7.562-16.105-7.688c-4.137-0.078-4.981,2.72-8.713,3.664c-4.282,1.083-7.905-0.568-11.062,3.474
			c4.104,4.104,11.144,1.382,16.004,0.267c6.877-1.579,14.768,3.288,21.513,4.615C196.788,261.664,232.198,268.66,227.08,252.69
			C224.95,254.65,228.5,257.12,227.08,252.69z M106.26,644.04c-1.548-0.715-3.145-0.852-4.79-0.41
			c-0.746,2.664-0.284,3.47,2.47,3.446c6.184-0.052-1.789,10.92,6.089,11.464c0-10.245,2.914-20.047,2.668-29.684
			c-0.176-6.881-0.235-13.781-0.098-20.666c0.132-6.91,6.579-17.655-0.979-23.24c-0.256,9.178-2.246,16.054-2.847,25.694
			C108.084,621.711,104.782,633.745,106.26,644.04C104.62,644.35,106.04,642.51,106.26,644.04z M125.34,240.27
			c-4.649,17.313,18.171,2.834,24.03,1.43c-3.612-3.612-5.456,1.892-10.16,0.25c0.558-1.562,4.487-10.967,4.645-10.758
			c-1.79-2.378,7.713-5.309,9.865-9.223c-2.78,0-11.271,2.673-13.35,4.39C144.719,230.895,128.634,238.274,125.34,240.27
			C124.33,244.03,131.05,236.81,125.34,240.27z M200.75,155.93c-4.995,0-12.379-2.205-17.08-0.79c-6.802,2.038-4.677,3.7-8.78,8.12
			c-1.611,1.735-8.709,4.188-9.184,6.309c-0.951,4.252,9.092-0.765,10.054-2.889c5.004-11.078,15.28-5.4,23.299-5.229
			c7.281,0.156,17.136-14.865,10.191-19.031C205.235,145.488,204.739,151.987,200.75,155.93
			C197.2,155.93,201.57,155.12,200.75,155.93z M198.28,658.77c5.804-1.156,8.542-19.163,7.94-24.14
			c-1.045-8.688,8.019-24.415,1.89-31.88c-5.517,6.71-3.002,16.154-5.033,24.219C200.502,637.188,201.647,648.892,198.28,658.77
			C201.74,658.08,199.19,656.1,198.28,658.77z M141.68,209.63c2.668-0.01,4.955-1.221,6.15-3.67
			c-6.225-4.12-9.65,2.445-13.875,6.662c-1.905,1.901-5.262,4.027-4.975,7.229c0.116,1.475-2.964,0.511-3.67,1.38
			c0.834,3.699-0.753,4.772-4.76,3.22c-2.372-0.475-0.902,2.759-2.64,2.52c-3.344-0.468-12.009-1.123-14.08,2.07
			c3.828,4.205,15.622,0.878,19.884-1.13c3.066-1.445,26.578-17.312,26.865-16.207C149.784,208.645,141.469,216.18,141.68,209.63
			C144.4,209.62,141.58,212.72,141.68,209.63z M225.55,247.45c-2.083-3.433-18.726-2.89-22.88-2.62
			c-2.322,0.149-25.502-8.453-23.066-2.382c1.8,4.486,19.511,6.158,23.719,6.287C211.176,248.975,219.703,251.461,225.55,247.45
			C224.1,245.06,224.02,248.5,225.55,247.45z M179.94,71.48c-2.54,7.571-3.769,18.213,6.333,14.981
			c5.21-1.667,5.768-4.232,1.06-6.537c-5.108-2.5-0.504-5.721-0.063-9.375C184.448,69.001,182.692,72.278,179.94,71.48
			C178.93,74.49,182.56,72.24,179.94,71.48z M329.43,196.79c-4.045,4.709-0.458,15.634-0.721,21.393
			c-0.157,3.467,1.47,6.612,1.333,10.178c-0.052,1.348,3.341,9.796,4.028,5.055c0.632-4.352-1.492-8.917-1.158-13.505
			C333.176,216.29,332.244,198.331,329.43,196.79C328.64,197.71,331.64,198,329.43,196.79z M142.47,155.15
			c4.738-0.651,10.665,1.178,14.16-3.21c-0.991-3.307-2.489-3.61-4.495-0.912c-3.582,1.87-3.971-1.03-7.336-0.589
			c-13.387,1.752,2.767,13.435,9.282,12.711c-1.86-1.95-3.72-3.9-5.58-5.85C145.064,158.915,144.541,158.273,142.47,155.15
			C147.78,154.42,144.99,158.95,142.47,155.15z M130.28,209.33c0-8.431-4.405-5.92-9.463-2.441
			c-6.395,4.398-13.048,1.151-18.207,5.881c1.249-0.352,7.583,0.359,8.73,1.025c1.849,1.346,3.322,0.71,4.42-1.905
			c2.827,3.478,4.339,0.381,4.5-2.32C124.4,209.602,125.672,207.2,130.28,209.33C130.28,208.18,127.23,207.92,130.28,209.33z
			 M82.14,174.02c2.139-1.128,22.414-10.468,14.95-14.46c-3.469,4.452-7.492,9.183-12.33,6.56c1.315,7.3-5.174,1.667-6.79-0.21
			C76.428,169.87,76.849,171.812,82.14,174.02C85.44,172.28,79.6,172.96,82.14,174.02z M119.12,252.47
			c-1.333-9.408-3.155-2.905-7.991-5.125c-3.163-1.453-2.199-2.043-5.41,1.036c-4.544-2.333-4.984-4.118-9.33-0.8
			c1.096,4.338,9.037,3.295,11.75,1.71c1.375,2.072,3.311,5.865,4.473,1.667C113.424,248.026,117.757,251.783,119.12,252.47
			C118.74,249.78,116.74,251.27,119.12,252.47z M207.18,389.2c3.966-3.028,20.236-13.765,18.92-19.11
			C221.489,369.39,204.697,387.553,207.18,389.2C214.07,383.94,206.26,388.59,207.18,389.2z M150.04,264.44
			c2.359-1.155,5.929-0.315,5.359-4.32c-4.84,0-8.603-2.026-9.861,4.019c-0.59,2.834,2.782,8.237,5.622,9.711
			C153.127,270.925,154.023,265.673,150.04,264.44C152.47,263.25,152.14,265.09,150.04,264.44z M335.69,234.81
			c-4.487,11.966-5.57-1.204-12.64,3.45c2.239,2.239,6.465,8.417,9.745,8.997c2.629,0.464,4.408-8.764,6.465-11.616
			C338.236,234.564,337.045,234.288,335.69,234.81C334.94,236.81,336.84,234.75,335.69,234.81z M137.95,159.98
			c-0.184-1.443,0.799-7.181-2.931-5.01c-4.998,2.962-10.765-1.288-16.359,0.39C120.377,160.859,133.087,159.98,137.95,159.98
			C137.69,157.93,134.32,159.98,137.95,159.98z M173.4,365.23c0.087-3.664,3.721-2.076,5.54-4c-4.252-3.187-5.461-8.855-9.84-11.92
			c-2.599,3.996,2.471,6.67,4.021,10.16C169.36,362.572,166.533,361.077,173.4,365.23C173.49,361.45,171.2,363.9,173.4,365.23z
			 M192.22,188.36c2.399,2.832,20.564,4.417,21.19-0.55C206.85,187.81,197.529,184.413,192.22,188.36
			C193.72,190.13,193.04,187.75,192.22,188.36z M129.01,554.25c0,1.135-2.84-12.204-4.521-6.75c-1.092,3.49-3.878,0.979-5.63,3.15
			c6.451,0.939,3.162,0.26,1.492,3.23C117.606,558.765,128.964,554.272,129.01,554.25C129.01,552.6,126.02,555.74,129.01,554.25z
			 M197.2,340.14c2.631,0.526,8.321-2.149,9.13,1.19c1.046,4.35,10.603-6.739,11.479-7.62c-5.949-1.731-3.92,4.188-7.649,4.655
			c-3.216,0.402-1.541-1.938-3.36-2.495C203.287,339.019,201.394,337.63,197.2,340.14C199.25,340.55,198.42,339.41,197.2,340.14z
			 M149.86,245.96c-2.12-0.269-4.15,0.055-6.09,0.97c1.94,3.214,4.877,4.273,8.45,4.178c7.635-0.204,0.787-1.532,0.744-3.831
			c-0.054-2.869,2.917-1.598,1.886-5.987C153.187,242.847,151.523,244.403,149.86,245.96C147.97,246.37,151.3,244.61,149.86,245.96z
			 M85.55,209.12c1.214,3.739,13.582,7.286,15.971,4.333C105.332,208.742,89.085,209.764,85.55,209.12
			C86.43,211.83,89.01,209.75,85.55,209.12z M147.55,329.52c-11.215,0,4.384,13.587,10.06,5.18
			C152.229,334.561,150.145,334.335,147.55,329.52C146.49,329.52,150.24,334.51,147.55,329.52z M117.24,156.21
			c2.215-6.977-11.95-10.271-13.3-1.59c1.568,0.526,3.025,0.317,4.371-0.629C111.74,152.469,113.964,155.972,117.24,156.21
			C118.09,153.53,114.48,156.01,117.24,156.21z M195.68,336.92c-4.347,0.772-4.102,4.393-6.296,7.304
			c-2.173,2.883-5.557,4.407-8.564,6.196C184.978,353.935,197.515,343.039,195.68,336.92C193.09,337.38,196.94,341.12,195.68,336.92
			z M189.79,57.03c3.446,2.15,20.178-9.35,15.04-11.07C199.969,49.158,192.865,51.59,189.79,57.03
			C192.37,58.64,191.52,53.97,189.79,57.03z M174.06,287.34c-4.24-6.283-15.454,6.332-12.1,8.4
			C164.247,292.108,173.134,291.239,174.06,287.34C172.4,284.88,173.29,290.58,174.06,287.34z M327.72,170.3
			c-2.152-0.048-1.525,24.949,0.854,25.2C332.143,195.877,327.296,173.376,327.72,170.3C327.28,170.29,326.56,178.73,327.72,170.3z
			 M173.3,140.36c-1.47-6.555-4.473-0.75-8.62-0.63c-1.536,0.042-3.893,2.201-2.254,3.797
			C164.297,145.35,171.036,142.016,173.3,140.36C173.08,139.38,170.43,142.46,173.3,140.36z M210.97,209.03
			c2.507,2.831,15.31,4.733,15.31-0.82C224.529,207.704,212.055,207.78,210.97,209.03C211.9,210.08,213.46,206.16,210.97,209.03z
			 M326.82,117.82c-5.358-3.615-8.923,6.686-7.6,10.53C322.772,128.738,325.148,120.367,326.82,117.82
			C325.13,116.68,324.909,120.73,326.82,117.82z M118.74,246.23c1.019,3.073,2.888,6.272,6.135,6.149
			C128.762,252.231,122.204,237.828,118.74,246.23C119.27,247.83,119.37,244.7,118.74,246.23z M154.94,215.65
			c-4.727,0-9.89,1.794-13.739,4.84C145.472,224.795,151.274,219.359,154.94,215.65C152.77,215.65,151.56,219.07,154.94,215.65z
			 M208.63,354.29c3.835,0.225,14.842-4.363,10.78-9.72C216.405,348.39,212.389,351.275,208.63,354.29
			C213.74,354.59,213.08,350.72,208.63,354.29z M181.01,149.86c4.201,0,9.984,1.022,13.97-0.5c-2.212-4.097-10.033-2.04-13.979-2.04
			C181.003,148.167,181.007,149.013,181.01,149.86C183.29,149.86,181.01,148.85,181.01,149.86z M216.31,340.91
			c-2.36,0-10.798,5.437-8.228,7.655C210.945,351.034,216.31,344.025,216.31,340.91C215.02,340.91,216.31,342.13,216.31,340.91z
			 M99.76,169.68c3.941,1.37,6.166,3.582,10.42,2.94C112.127,172.314,103.946,165.019,99.76,169.68
			C101.63,170.33,101.61,167.62,99.76,169.68z M156.27,239.69c3.79,0,12.451-3.218,10.26-8.69
			C165.112,230.701,156.801,238.146,156.27,239.69C158.42,239.69,157.56,235.94,156.27,239.69z M228.09,188.56
			c-3.997-2.157-6.74-1.26-11.7-0.72c-1.707,0.414-1.934,1.28-0.68,2.6C220.08,189.516,224.075,191.552,228.09,188.56
			C226.7,187.81,223.81,191.75,228.09,188.56z M15.41,238.2c4.272,1.732,1.915-3.197,3.369-4.12c5.903-3.741-5.968-2.96-7.329-2.96
			c0.793,2.717,3.085,1.5,4.84,2.67C17.174,235.688,14.31,236.234,15.41,238.2C17.26,238.95,14.28,236.18,15.41,238.2z
			 M164.64,264.99c4.616,0,5.038,3.662,10.39,3.729c-2.792-3.148-6.433-5.07-9.579-7.78
			C164.336,262.119,164.066,263.469,164.64,264.99C165.69,264.99,164.55,263.4,164.64,264.99z M170.18,200.44
			c3.923,0.767,6.253-3.304,3.84-6.19C171.435,196.274,166.622,197.034,170.18,200.44C171.92,200.78,169.71,199.99,170.18,200.44z
			 M170.99,242.99c-3.209-2.008-6.135,4.182-9.069,5.3c-0.101,0.697,0.173,1.27,0.819,1.72
			C166.23,248.626,169.372,246.523,170.99,242.99C170.43,242.64,169.31,246.66,170.99,242.99z M172.76,171.47
			C161.104,180.602,177.27,176.84,172.76,171.47C170.87,172.95,174.86,173.97,172.76,171.47z M228.03,248.68
			c3.762-2.708,7.243-3.412,4.49-8.24C230.653,243.452,226.832,244.309,228.03,248.68C229.6,247.55,226.74,243.97,228.03,248.68z
			 M160.51,11.43c3.601,1.567,4.938-1.367,7.05-3.46C164.101,5.607,163.182,8.771,160.51,11.43
			C164.3,13.08,162.51,9.44,160.51,11.43z M197.9,561.58c5.84-2.82,5.971-3.04,4.83-7.17C199.9,555.56,199.47,558.16,197.9,561.58z
			 M195.43,41.28c2.33-0.93,4.06-2.17,4.53-4.85C195.22,36.19,194.8,36.64,195.43,41.28z M126.26,42
			c1.433-4.224-5.277-0.835-6.33,2.8C122.05,41.33,124.48,42.93,126.26,42C126.87,40.2,124.48,42.93,126.26,42z M200.28,59.18
			c1.29-1.9,3.421-2.47,3.431-4.82C200.36,53.94,200.03,54.3,200.28,59.18z M118.69,40.21c-4.229-0.35-4.229-0.35-4.649,1.68
			C118.26,42.24,118.26,42.24,118.69,40.21z M155.62,20.18C150.645,15.914,150.637,24.425,155.62,20.18
			C154.5,19.22,154.47,21.16,155.62,20.18z M121.97,65.09c0.67-0.633,1.34-1.267,2.01-1.9
			C120.203,60.752,119.836,61.754,121.97,65.09C122.8,64.3,121.17,63.84,121.97,65.09z"/>
		<path d="M36.64,587.62c4.737,0.204,7.504,11.635,2.82,14.33c-1.223,0.689,2.614,10.54,2.531,12.192
			c-0.32,6.34-0.214,12.053-0.351,18.632c-0.159,7.66-0.333,19.878,1.45,27.346c3.789,15.969,0.973,32.148-1.22,47.73
			c7.958-0.454,15.975-5.655,23.76-5.16c5.383,0.339,3.419-4.914,5.09-6.96c4.72-5.779,6.88-20.643,8.497-28.087
			c5.249-24.175,2.806-47.182,1.563-70.283c-8.12,4.3-18.48,3.065-26.329,7.25c-0.28,3.796,4.264,6.7,4.946,10.84
			c0.883,5.355,2.017,16.73,1.193,21.857c-0.685,4.261-7.705,7.467-7.4,11.732c2.144,1.923,3.482-0.834,5.57-0.79
			c1.087,1.049-1.853,11.757-2.276,13.518c-0.678,2.824-1.889,6.431-0.231,9.211c3.315,5.56,6.208-3.428,7.517-4.838
			c3.689,2.5,0.407,11.21-2.672,13.543c-3.72,2.818-2.492,3.28-3.057,7.624c-0.549,4.22-5.062,6.283-6.312,10.242
			c-5.376-1.951-2.305-22.21-2.56-27.17c-0.121-2.308,2.448-12.664,1.069-14.069c-3.706-3.765-3.645-39.409,1.511-39.601
			c-0.832,8.555-1.614,18.009,0.55,26.41c1.781-7.277,5.341-22.539-0.344-28.224c-6.857-6.857-3.255-13.896,5.238-15.853
			c6.002-1.382,25.15-1.765,23.651-9.847c-1.374-7.403-6.169-3.03-11.039-1.544c-6.282,1.916-12.703,3.599-19.317,3.677
			c0.479-5.431,11.102-4.54,15.29-6.05c3.773-1.368,7.649-2.468,11.678-2.713c2.804-0.171,7.019,2.883,7.292,2.723
			c0,20.393,0.782,40.31-0.126,60.732c-1.171,26.35-5.598,53.524-26.333,72.474c-11.994,10.961-18.618,0.229-27.02-10.326
			c-12.03-15.116-18.669-31.284-24.422-49.73c-5.477-17.571-4.33-35.261-4.33-53.46c6.386-5.884,16.388-8.326,24.778-9.566
			C35.031,594.271,38.819,597.944,36.64,587.62C38.27,587.69,36.98,589.23,36.64,587.62z M31.59,629.37
			c-0.848-2.264-1.911-4.623-4.89-3.771c-0.203-0.879-2.539-10.194-2.103-10.107c-2.946-0.587-1.568,9.105-1.568,11.118
			c1.316,0.136,2.483-0.211,3.5-1.04c0.801,5.303,4.118,1.947,5.5,6.857c1.07,3.802,3.701,0.945,5.23-0.397
			C34.532,632.188,35.727,629.37,31.59,629.37C30.71,627.02,32.64,629.37,31.59,629.37z M6.51,612
			c-1.423,4.656,1.516,12.216,1.1,17.11c-0.821,9.446,2.299,22.919,6.03,31.63c3.592,8.379,5.45,17.159,8.801,25.551
			c3.553,8.896,8.598,16.839,14.789,24.179c2.452-3.993-0.194-16.14-2.361-21.086c-1.219-2.783-1.928-6.409-2.089-10.034
			c-0.023-0.586-4.166,3.193-5.17,3.07c1.451-2.159-1.2-13.582-2.489-15.65c2.857-1.943,9.11,4.655,6.662-1.633
			c-1.077-2.767-6.603-5.394-9.503-6.037c3.632-1.47,5.278-1.699,9.101-0.89c1.673-5.711-17.512-5.336-10.7-16.04
			c0.797,0.259,5.632,13.593,9.63,6.7c0.324-3.778-5.387-2.232-4.963-7.324c0.663-7.968-6.19,0.62-8.707,0.514
			c0-2.255-1.499-6.45,1.864-6.317c3.532,0.14,0.604-5.319,1.254-7.249c2.241-6.65-3.052-11.18,4.783-16.673
			c-1.995,0-9.8,2.197-9.221,3.255C13.825,612.346,10.088,609.733,6.51,612C5.63,614.88,8.61,610.67,6.51,612z M6.27,604.69
			c0.979,6.176,3.021,3.694,7.935,3.582c2.832-0.064,13.321-0.627,15.136-2.625C36.479,597.793,8.927,603.544,6.27,604.69
			C6.87,608.48,11.6,602.39,6.27,604.69z M62.09,677.29c-1.376-9.553-12.827,1.637-8.36,7.82
			C61.146,683.952,52.38,677.29,62.09,677.29C61.52,673.33,60.29,677.29,62.09,677.29z M48.52,717.96
			c-2.283-0.555-2.166,2.377,0.13,2.521C51.225,720.612,51.037,717.759,48.52,717.96C47.45,717.7,49.52,717.88,48.52,717.96z"/>
		<path d="M213.08,552.37c-3.641-9.537,3.897-24.527,4.627-34.03c0.81-10.553,7.583-22.446,11.502-32.208
			c2.039-5.081,4.789-9.646,6.975-14.631c1.187-2.705,1.493-11.882,4.977-13.111c2.356-6.372,5.038-12.686,6.337-19.39
			c1.14-5.881-2.645-14.46,4.383-14.46c-3.238,20.25-7.046,41.809-18.014,59.41c-5.922,9.503-9.711,22.625-13.389,33.146
			c-1.892,5.409-3.253,11.232-3.966,16.926C215.892,538.977,219.371,550.538,213.08,552.37
			C212.79,551.61,215.21,551.75,213.08,552.37z"/>
		<path d="M171.38,54.9c-9.048,1.911-3.461,1.732-9.927-3.88c-1.327-1.152-5.839-9.774-6.924-9.95c-2.405-0.395-0.72,2.69-3.25,2.54
			c-2.543-0.161-6.621-3.048-7.609-4.808c-3.57-6.355,13.541-3.321,15.958-0.636c2.24,2.488,2.794,5.39,4.177,8.31
			c2.733,5.773,7.549,2.378,10.004,6.43c1.289,2.128,3.746,6.655-0.769,7.154C170.906,59.599,172.713,56.179,171.38,54.9
			C170.67,55.05,172.36,55.84,171.38,54.9z"/>
		<path d="M103.71,361.15c-2.396-0.289-4.206-1.456-5.431-3.5c-2.945-5.197,0.113-2.615,2.511-4.33
			c-3.542,2.214-3.83-11.888-3.835-11.998c-0.259-5.738-0.437-11.783,2.524-17.182c1.672,1.922,4.855,4.616,5.114,7.444
			c0.11,1.204-7.445,4.391-1.537,5.567c6.318,1.258-1.094,5.611,2.223,9.659c3.036,3.637,5.471,3.559,5.69,7.96
			c-4.625,0.392-5.116-7.31-9.18-7.57c-3.942,5.133,8.27,3.209-0.13,7.78C101.071,355.291,103.809,360.146,103.71,361.15
			C99.7,360.56,103.92,359.01,103.71,361.15z"/>
		<path d="M149.95,62.5c-3.769,0.377-7.751,0.06-11.54,0.06c-2.815-3.924-6.26-7.803-2.056-11.519
			C143.63,44.612,157.965,54.178,149.95,62.5C149.75,62.52,154.14,58.15,149.95,62.5z"/>
		<path d="M153.26,85.66c0.341-5.481,2.996-7.924,6.72-11.68c0.766-0.31,11.777,0.35,12.271,0.8
			C170.801,76.782,155.164,98.053,153.26,85.66C153.36,84.06,153.67,88.33,153.26,85.66z"/>
		<path d="M67.62,625.51c2.304,3.013-1.194,5.214-0.58,8.25c0.896,1.199,7.224-0.147,4.611,3.065
			c-5.55,6.825-5.844,16.234-5.962,25.145c-0.04,3.588-5.338,4.589-5.105-0.449c0.191-4.141,3.992-7.048,4.025-11.221
			c-7.093-4.744-0.272-8.729,4.11-13.149C65.885,635.113,60.323,626.383,67.62,625.51C69.93,628.53,65.53,625.76,67.62,625.51z"/>
		<path d="M236.31,407.61c-9.424,3.714-16.622-17.765-7.87-16.041c1.23,2.651,0.272,5.191,1.845,7.911
			C232.408,403.151,236.554,403.167,236.31,407.61C234.89,408.17,236.38,406.33,236.31,407.61z"/>
		<path d="M253.24,424.81c-0.323-4.388,2.647-6.944,4.561-10.884c2.652-5.462-5.862-9.202-4.69-12.995
			c3.823-3.01,7.612,4.473,7.5,7.409C260.281,416.467,258.951,419.102,253.24,424.81C253.09,422.78,254.83,423.22,253.24,424.81z"/>
		<path d="M148.22,90.23c-1.365,6.171,0.553,9.859-6.788,7.581c-2.379-0.757-2.732-2.19-1.06-4.299
			C141.031,89.116,145.288,90.701,148.22,90.23C147.45,93.71,145.54,90.66,148.22,90.23z"/>
		<path d="M249.1,401.149c-4.735,3.025-4.113,9.921-10.08,6.181C239.445,401.881,245.489,396.788,249.1,401.149
			C246,403.13,248.38,400.28,249.1,401.149z"/>
		<path d="M103.54,361.12c2.83,0.538,10.206,7.896,3.854,8.844C103.684,370.518,104.682,363.903,103.54,361.12
			C107.22,361.82,104.09,362.46,103.54,361.12z"/>
		<path d="M181.64,52.44C174.648,45.784,185.674,46.751,181.64,52.44C180.2,51.07,183.59,49.69,181.64,52.44z"/>
		<path d="M303.49,218.69c-1.815,0.864-0.111,3.891-3.21,3.2C298.283,218.563,300.003,215.593,303.49,218.69
			C302.039,219.38,301.159,216.62,303.49,218.69z"/>
		<path d="M111.37,361.47c-2.62-0.62-4.061-1.35-3.771-4.15C109.97,357.45,111.21,358.3,111.37,361.47z"/>
		<path d="M105.61,323.19c-1.844,0.698-3.314,0.365-4.409-1C100.649,318.281,105.261,322.844,105.61,323.19
			C103.94,323.19,104.23,321.82,105.61,323.19z"/>
	</g>
</g>
</svg>
