<?xml version="1.0" encoding="utf-8"?>
<!-- Generator: Adobe Illustrator 16.0.3, SVG Export Plug-In . SVG Version: 6.00 Build 0)  -->
<!DOCTYPE svg PUBLIC "-//W3C//DTD SVG 1.1 Tiny//EN" "http://www.w3.org/Graphics/SVG/1.1/DTD/svg11-tiny.dtd">
<svg version="1.1" baseProfile="tiny" id="Layer_1" xmlns="http://www.w3.org/2000/svg" xmlns:xlink="http://www.w3.org/1999/xlink"
	 preserveAspectRatio="none" x="0px" y="0px" width="297px" height="34.75px" viewBox="0 0 297 34.75" xml:space="preserve">
<g>
	<path fill-rule="evenodd" fill="#0C0C0C" d="M296.698,34.826c0,0-3.271-1.33-4.584-1.449c0.598-0.986,1.242-1.947,1.781-2.963
		c0.619-1.171,1.359-2.34,1.67-3.602c0.707-2.871,0.65-5.746-2.01-7.688c-2.002-1.459-4.139-2.817-6.389-3.83
		c-4.24-1.907-10.467,1.577-11.248,6.098c-0.584,3.378,1.381,5.421,5.934,6.317c0.672,0.133,1.262,0.683,1.889,1.039
		c-0.529,0.582-0.955,1.439-1.609,1.678c-0.889,0.322-2.037,0.455-2.922,0.182c-5.805-1.794-11.73-3.268-16.521-7.441
		c-1.654-1.439-3.848-2.262-5.803-3.354c0.004-0.047,0.018-0.09,0.047-0.125l-0.119,0.086c-0.822-0.963-1.465-2.22-2.492-2.839
		c-7.574-4.558-16.07-5.854-24.666-6.067c-3.846-0.095-7.77,1-11.574,1.913c-3.445,0.828-6.799,2.1-9.174,5.016
		c0.162,0.183-5.854,4.932-7.301,4.948c-0.232,0.006-0.467,0.014-0.699,0.02c-1.732,0.865-3.449,1.766-5.203,2.582
		c-1.232,0.575-1.861,0.801-1.982-1.256c-0.336-5.733-5.061-8.608-10.516-6.747c-0.777,0.265-1.604,0.489-2.273,0.933
		c-1.166,0.773-1.668,0.505-2.094-0.785c-0.236-0.712-0.994-1.235-1.439-1.896c-2.4-3.552-5.088-6.958-7.072-10.731
		c-2.072-3.933-1.771-4.125-5.813-4.112c-5.971,0.018-11.951,0.306-17.909,0.075c-5.678-0.219-5.883-0.276-6.774,5.567
		c-0.074,0.485-0.279,1.435-0.3,1.929c-1.064,2.865-4.761,4.791-7.359,7.473c-1.222,1.262-1.99,1.132-3.793,0.183
		c-4.34-2.285-8.903-2.439-13.041,0.134c-1.594,0.991-3.424,3.16-3.329,5.209c0.105,2.251,4.105,6.585-2.728,3.585
		c-3.208-1.408-18.667-9.333-22.833-11.5S71.795,8.95,71.203,8.793C65.722,7.342,60.115,7.75,54.537,7.725
		c-8.869-0.04-16.642,3-23.45,8.549c-0.585,0.476-0.769,1.444-1.026,2.323c-0.352,0.342-0.707,0.71-1.054,1.106
		c-2.072,1.887-4.12,3.801-6.225,5.648c-1.108,0.973-2.276,1.892-3.5,2.71c-0.476,0.318-1.183,0.292-1.785,0.422
		c0.198-0.481,0.355-0.984,0.601-1.439c0.463-0.859,1.107-1.642,1.445-2.544c1.315-3.502-2.67-9.836-6.36-9.619
		c-4.03,0.238-7.865,1.62-10.04,5.422c-1.938,3.39-2.065,7.152,0.298,10.239c1.868,2.438,0.605,1.886-0.925,2.869
		c-0.732,0.471-1.57,1.414-1.57,1.414H296.698z M279.062,20.024c-0.205,0.307-0.379,0.63-0.539,0.961
		c0.125-0.3,0.281-0.584,0.467-0.854c0.156-0.229,0.303-0.468,0.455-0.701C279.315,19.628,279.192,19.829,279.062,20.024z
		 M15.797,19.149c-0.44-0.4-0.881-0.808-1.411-1.059C14.929,18.315,15.364,18.744,15.797,19.149z"/>
	<g>
		<path fill="#FEFEFE" d="M104.016,25.529c0.263,0.115,0.523,0.237,0.787,0.352c-0.137-0.096-0.281-0.18-0.432-0.258
			C104.253,25.59,104.132,25.564,104.016,25.529z"/>
		<path fill="#FEFEFE" d="M118.327,16.346c-3.195,0.793-4.277,1.988-4.413,5.007c-0.051,1.12,0.022,2.246,0.046,3.369
			c1.016,0.328,2.016,0.738,3.056,0.93c2.64,0.483,3.296-0.305,3.061-3.36c-0.031-0.4,0.293-0.828,0.453-1.243
			c0.367,0.33,0.912,0.592,1.072,1.003c1.004,2.575,0.139,5.505-2.348,6.125c-3.543,0.883-7.278,1.462-10.81-0.411
			c-1.132-0.791-2.384-1.344-3.643-1.885c0.566,0.393,0.997,0.957,1.123,1.913c-2.151-0.663-4.403-1.107-6.43-2.04
			c-3.525-1.619-6.691-4.104-10.842-4.081c-0.316,0.002-0.636-0.465-0.954-0.715c0.4-0.268,0.801-0.536,1.2-0.805
			c-0.312-0.339-0.56-0.851-0.943-0.989c-5.963-2.161-11.877-4.501-17.958-6.268c-2.026-0.589-4.489,0.326-6.752,0.547
			c-1.146,0.112-2.293,0.283-3.439,0.285c-0.801,0.001-1.602-0.238-2.402-0.371c0.74-0.215,1.49-0.399,2.218-0.651
			c1.082-0.375,2.147-0.797,3.218-1.198c0.058-0.337,0.148-0.615,0.252-0.867c-1.001-1.965-3.031-1.659-4.946-1.551
			c-3.114,0.174-6.226,0.325-9.342,0.094c-7.81,0.507-13.699,4.649-18.942,10.012c-0.285,0.169-0.57,0.339-0.855,0.508
			c-2.312,4.576-5.767,8.051-10.35,10.301c-2.532,1.244-4.933,0.586-6.162-1.354c-1.231-1.943-0.068-3.382,0.879-4.999
			c0.41-0.699,0.447-2.08,0.009-2.683c-0.441-0.606-2.025-1.133-2.506-0.807c-1.122,0.76-2.092,1.947-2.714,3.169
			c-0.404,0.795-0.058,1.959-0.106,2.953c-0.015,0.309-0.218,0.608-0.334,0.913c-0.318-0.267-0.749-0.47-0.938-0.809
			c-2.021-3.624,0.679-7.641,5.118-7.644c3.909-0.003,4.792,1.36,3.202,4.902c-0.395,0.879-0.813,1.766-1.02,2.693
			c-0.066,0.296,0.459,0.803,0.817,1.079c0.157,0.121,0.624-0.014,0.863-0.167c1.763-1.129,2.529-3.592,1.801-6.262
			c-0.586-2.155-1.549-3.949-4.199-4.276c-5.979-0.74-9.391,3.305-10.351,7.819c-0.711,3.343,4.163,8.946,8.182,8.881
			c4.709-0.078,9.673-0.264,13.467-3.84c2.131-2.01,4.099-4.193,6.159-6.279c0.439-0.443,0.961-0.807,1.445-1.206
			c0.18,0.546,0.409,1.079,0.531,1.638c0.502,2.294,0.969,2.513,2.651,0.959c1.705-1.578,3.266-3.31,4.924-4.939
			c3.306-3.248,7.648-3.42,11.868-3.851c0.396-0.04,0.88,0.785,1.324,1.209c-0.406,0.201-0.827,0.599-1.217,0.571
			c-2.362-0.17-3.604,1.415-4.828,2.997c-0.845,1.092-0.503,1.893,0.861,1.99c2.988,0.217,5.854,0.141,8.628-1.516
			c2.664-1.591,5.563-2.92,8.521-3.851c3.343-1.055,6.841-1.138,10.047,0.786c0.39,0.233,0.613,0.742,0.914,1.123
			c-0.51,0.18-1.017,0.501-1.533,0.516c-2.754,0.083-5.411-1.293-8.295-0.08c-2.05,0.862-3.874,1.257-1.556,3.712
			c-1.383,3.444,2.036,3.007,3.217,3.198c2.855,0.462,5.944,0.79,8.493-1.522c0.438-0.396,1.565-0.033,2.374-0.02
			c-0.335,0.436-0.772,0.827-0.984,1.316c-0.581,1.339,0.566,1.459,1.271,1.314c1.434-0.296,2.792-0.946,4.214-1.326
			c3.627-0.971,7.288-2.324,10.837,0.233c0.332,0.239,0.553,0.634,0.824,0.956c-0.32,0.074-0.639,0.2-0.961,0.213
			c-0.998,0.039-2.101-0.226-2.967,0.118c-0.918,0.364-1.614,1.292-2.407,1.973c0.848,0.638,1.618,1.661,2.557,1.849
			c3.865,0.777,7.764,1.607,11.685,1.845c5.41,0.327,10.802,0.814,16.178-1.284c4.892-1.908,7.904-6.216,4.425-13.165
			C122.564,16.451,120.87,15.716,118.327,16.346z"/>
	</g>
	<path fill-rule="evenodd" fill="#E6E6E6" d="M72.869,9.677C66.776,9.355,60.686,8.913,54.59,8.783
		c-1.893-0.04-3.802,0.768-5.705,1.187c0.311,1.877,1.453,1.648,2.937,1.424c3.66-0.551,7.373-1.89,11.019,0.114
		c1.164-0.157,1.72-1.457,3.436-0.975c3.079,0.863,6.387,0.908,9.599,1.296c0.405-0.241,0.519-0.58,0.341-1.018
		C75.101,10.434,73.985,10.055,72.869,9.677z"/>
	<path fill-rule="evenodd" fill="#272727" d="M200.907,22.766c0.004-0.004,0.01-0.008,0.014-0.012
		c-0.018-0.01-0.035-0.016-0.051-0.025L200.907,22.766z"/>
	<path fill-rule="evenodd" fill="#272727" d="M208.858,17.688l0.049,0.11c-3.584,0.167-5.609,2.846-7.986,4.956
		c1.689,1.012,3.705,0.707,5.537,1.178c2.959,0.762,5.975-0.041,6.24-4.146c-0.086-0.524-0.305-0.973-0.676-1.354
		C211.081,17.667,209.675,18.938,208.858,17.688z"/>
	<path fill-rule="evenodd" fill="#F3F3F3" d="M86.546,15.69c-1.614-1.022-3.247-2.013-4.874-3.015
		c-1.818-0.621-3.637-1.242-5.456-1.863c-0.114,0.34-0.227,0.679-0.341,1.018c3.364,1.621,6.717,3.264,10.106,4.832
		c0.362,0.168,0.931-0.11,1.403-0.181C87.107,16.213,86.864,15.892,86.546,15.69z"/>
	<path fill-rule="evenodd" fill="#FEFEFE" d="M167.837,17.034c-1.91-2.627-4.063-4.995-5.113-8.289
		c-1.91-5.98-2.146-5.902-8.789-5.887c-1.828,0.004-3.674,0.157-5.477-0.054c-4.083-0.477-7.132-0.47-7.927,4.439
		c-0.011,0.063-0.172,1.21-0.333,1.25l-0.25,0.625c-0.003,2.965-2.232,3.196-3.966,5.123c-0.988,1.098-2.689,2.109-2.839,3.312
		c-0.631,5.07-0.859,9.197-1.057,14.308c-0.023,0.598,0.972,1.641,1.641,1.781c2.489,0.524,3.104-0.07,3.156-2.844
		c0.07-3.82,0.007-6.643,0.096-10.463c0.012-0.479,0.602-0.943,0.923-1.414c0.293,0.49,0.84,0.98,0.838,1.469
		c-0.016,3.639,0.016,7.291-0.282,10.914c-0.212,2.59-0.25,2.958,2.354,2.371c4.01-0.902,7.964-0.088,11.94-0.111
		c3.324-0.019,6.65,0.083,9.975,0.168c1.393,0.035,2.203-0.436,2.162-1.969c-0.146-5.35,1.326-11.078-3.645-15.275
		c-1.381-6.359-5.773-7.475-11.451-6.887c-1.48,0.153-3.555,1.028-4.72-1.051c1.555-0.006,3.109-0.004,4.666-0.02
		c3.068-0.03,6.748-1.131,9.035,0.187c2.363,1.36,3.061,5.332,5.049,7.685c2.676,3.163,3.475,6.56,3.1,10.52
		c-0.203,2.141-0.105,3.317,0.016,5.47c0.023,0.428,0.725,0.876,1.199,1.185c0.146,0.097,0.803-0.189,0.838-0.375
		c0.996-5.224,1.572-9.47,0.184-14.712C169.009,17.929,168.224,17.565,167.837,17.034z"/>
	<path fill-rule="evenodd" fill="#DCDCDC" d="M166.466,7.279c-0.553-1.845-1.578-1.298-2.648-0.522
		c0.855,1.926,1.566,3.932,2.6,5.755c1.299,2.291,3.078,3.845,5.996,2.422c0.307-0.149,0.787,0.059,1.186,0.101
		c-0.078-0.435-0.006-1-0.256-1.281C171.245,11.393,169.294,8.866,166.466,7.279z"/>
	<path fill-rule="evenodd" fill="#FDFDFD" d="M174.647,21.101c1.299-0.782,1.406-1.441-0.311-1.261
		c-0.688,0.072-1.793,0.975-1.838,1.565c-0.27,3.552-0.313,7.124-0.314,10.69c0,0.188,1.055,0.375,1.617,0.564
		c2.795-2.029,0.861-5.797,2.973-8.076c-0.309-0.799-0.541-1.639-0.953-2.38C175.573,21.757,175.048,21.463,174.647,21.101z"/>
	<path fill-rule="evenodd" fill="#A3A3A3" d="M55.813,23.639c-1.859,0.43-3.684,1.006-5.523,1.527
		c-0.043-0.156-0.086-0.311-0.128-0.467c-0.495,0-1.003-0.072-1.48,0.018c-0.722,0.135-1.424,0.385-2.135,0.584
		c0.334,0.493,0.575,1.11,1.025,1.447c0.552,0.413,1.345,0.91,1.912,0.79c0.688-0.146,1.199-0.984,1.876-1.365
		c1.222-0.688,2.177-0.675,2.369,1.104c0.053,0.492,0.567,1.35,0.8,1.326c0.581-0.058,1.354-0.389,1.627-0.856
		c0.441-0.758,0.51-1.726,0.8-2.582c0.153-0.453,0.442-0.859,0.67-1.287C57.018,23.785,56.368,23.51,55.813,23.639z"/>
	<path fill-rule="evenodd" fill="#7F7F7F" d="M125.911,17.261c0.091,0.607,0.042,1.283,0.297,1.811
		c1.92,3.984,1.893,7.868-0.33,11.742c-0.216,0.375,0.057,1.033,0.102,1.559c0.407-0.254,1.06-0.426,1.18-0.779
		c0.839-2.461,1.567-4.961,2.467-7.887c-0.607-1.628-1.185-3.46-1.993-5.184C127.368,17.958,126.501,17.674,125.911,17.261z"/>
	<path fill-rule="evenodd" fill="#616161" d="M174.288,25.518c-0.016,2.382-0.313,4.762-0.486,7.143
		c1.689,0.158,3.051-0.291,3.123-2.232c0.074-1.943-0.09-3.896-0.15-5.844C175.854,24.625,174.308,22.738,174.288,25.518z"/>
	<path fill-rule="evenodd" fill="#C1C1C1" d="M164.071,3.256c-1.764,0.722-1.635,2.213-0.254,3.5
		c0.883,0.174,1.766,0.349,2.648,0.522c2.604-0.356,1.576-2.566,1.043-3.283C166.96,3.257,165.022,2.867,164.071,3.256z"/>
	<path fill-rule="evenodd" fill="#606060" d="M43.651,20.598c-0.69,0.39-1.386,0.869-1.886,1.474
		c-0.942,1.142-3.245,1.095-2.93,3.325c1.378-0.719,2.753-1.441,4.136-2.152c0.855-0.439,1.72-0.855,2.581-1.283
		c-0.268-0.36-0.535-0.721-0.802-1.081C44.376,20.773,43.888,20.464,43.651,20.598z"/>
	<path fill-rule="evenodd" fill="#F9F9F9" d="M281.745,24.84c-3.287-1.883-3.301-1.859-1.592-5.848
		c-0.174-0.174-0.355-0.34-0.543-0.498c-0.447,0.467-1.09,0.856-1.311,1.414c-1.191,2.99-0.021,5.988,2.641,6.748
		c0.496,0.142,1.156-0.288,1.74-0.454C282.374,25.737,282.175,25.086,281.745,24.84z"/>
	<path fill-rule="evenodd" fill="#F5F5F5" d="M95.218,19.875c-0.256-0.13-0.645,0.001-0.971,0.011
		c0.063,0.316,0.018,0.784,0.209,0.923c1.318,0.953,2.65,1.896,4.045,2.729c2.449,1.463,4.946,2.843,7.424,4.257
		c0.84-0.009,1.68-0.019,2.52-0.028c-0.137-0.428-0.146-1.096-0.43-1.247C103.774,24.258,99.5,22.059,95.218,19.875z"/>
	<path fill-rule="evenodd" fill="#FDFDFD" d="M289.085,17.795c-3.174-1.542-6.533-2.397-9.475,0.699
		c-0.086,0.276-0.172,0.552-0.258,0.828c0.268-0.11,0.535-0.22,0.801-0.33c1.285-0.085,2.572-0.134,3.852-0.263
		c3.963-0.399,5.641,0.429,6.645,3.587c0.201,0.637-0.271,1.486-0.432,2.236c-0.451-0.518-1.004-0.98-1.336-1.566
		c-1.008-1.782-3.479-3.126-4.168-2.068c-0.693,1.064-0.496,2.727-0.615,4.133c-0.021,0.264,0.338,0.545,0.484,0.835
		c1.896,3.751,0.736,5.476-3.535,5.897c-3.615,0.359-6.809-0.854-9.99-2.107c-5.498-2.17-10.547-5.061-14.125-9.986
		c-1.021-0.41-2.096-0.726-3.059-1.246c-3.85-2.082-8.102-3.079-12.275-2.517c-2.229,0.3-4.035,0.18-6.029-0.481
		c-1.074-0.356-2.232-0.45-3.346-0.695c-0.619-0.137-1.221-0.342-1.83-0.517c0.574-0.168,1.168-0.526,1.723-0.471
		c2.604,0.258,5.193,0.681,7.799,0.927c0.748,0.071,1.531-0.248,2.297-0.387c-0.607-0.203-1.203-0.529-1.826-0.588
		c-3.758-0.355-7.518-0.763-11.285-0.938c-6.023-0.281-11.695,1.104-17.041,3.917c-0.973,0.513-2.129,0.673-3.201,0.996
		c-0.123,0.448-0.152,0.954-0.391,1.328c-0.246,0.384-0.693,0.638-1.055,0.948c0.434-0.034,0.887,0.002,1.293-0.118
		c1.014-0.299,2.008-0.66,3.008-1.001c0.016-0.048,0.029-0.096,0.045-0.145c0.143-0.054,0.285-0.104,0.428-0.156
		c4.354-3.358,9.496-3.839,14.754-3.861c0.445-0.002,0.893,0.305,1.34,0.468c-0.416,0.196-0.816,0.499-1.254,0.572
		c-2.248,0.373-4.523,0.602-6.76,1.043c-2.611,0.516-5.201,1.16-7.797,1.767c-0.207,0.092-0.418,0.168-0.621,0.266
		c-0.045,0.016-0.09,0.031-0.135,0.046c-0.449,1.518-0.936,2.896-2.982,3.022c-2.629,0.162-5.242,0.563-7.861,0.861
		c0.83,0.355,1.664,0.703,2.488,1.074c0.289,0.131,0.553,0.316,0.828,0.479c-0.248,0.391-0.426,1.041-0.758,1.133
		c-4.133,1.149-8.262,2.337-12.449,3.259c-2.143,0.472-4.373,0.1-6.039-1.521c-1.184-1.15-1.619-2.585-0.018-3.839
		c0.318-0.25,0.848-0.229,1.279-0.334c-0.021,0.385-0.012,0.775-0.072,1.154c-0.326,2.057,0.902,2.774,2.584,2.587
		c2.314-0.259,4.09-3.97,2.795-5.857c-1.445-2.105-3.51-2.625-6.113-2.228c-2.506,0.382-4.617,1.47-5.34,3.629
		c-1.781,5.317,1.227,9.139,6.803,9.504c5.895,0.383,11.563-0.594,17.049-2.568c3.129-1.126,6.217-1.076,9.313-0.374
		c1.871,0.425,3.68,1.897,5.137-0.691c0.105-0.188,1.162,0.021,1.697,0.239c4.174,1.706,8.523,2.451,13.008,2.322
		c0.879-0.025,1.744-0.576,2.617-0.886c-0.408-0.994-0.654-2.11-1.277-2.942c-0.434-0.577-1.387-0.76-2.105-1.126
		c-0.998-0.509-1.992-1.024-2.988-1.538c1.057,0.055,2.115,0.078,3.168,0.172c0.816,0.072,1.627,0.34,2.436,0.32
		c0.602-0.014,1.504-0.191,1.705-0.588c0.203-0.393-0.146-1.273-0.516-1.725c-2.141-2.613-5.008-3.636-8.324-3.682
		c-0.451-0.006-0.895-0.479-1.342-0.734c0.49-0.378,1.094-1.17,1.455-1.072c3.303,0.894,6.85,1.167,9.58,3.623
		c1.721,1.547,3.535,2.986,5.297,4.488c3.521,3.003,8.08,2.649,12.197,3.686c1.348,0.339,1.756-0.93,1.016-1.909
		c-0.869-1.147-2.111-2.007-3.117-3.063c-0.35-0.369-0.477-0.949-0.703-1.433c0.543,0.142,1.221,0.128,1.607,0.456
		c1.643,1.395,3.229,2.859,4.781,4.354c2.645,2.547,5.475,5.038,9.145,5.595c4.563,0.689,9.217,0.857,13.84,0.985
		c1.926,0.053,3.916-0.417,5.797-0.937c3.92-1.082,6.354-4.043,6.686-7.658C294.364,21.279,292.003,19.212,289.085,17.795z"/>
	<path fill-rule="evenodd" fill="#020202" d="M151.032,13.663c-4.167,0.42-6.217,2.416-6.205,7.073
		c0.013,5.154,2.144,7.082,7.748,7.012c4.52-0.057,6.779-2.076,6.672-6.353C159.13,16.786,155.37,13.227,151.032,13.663z"/>
	<path fill-rule="evenodd" fill="#F6F6F6" d="M154.042,18.777c-2.137,0.189-3.824,1.872-3.855,3.842
		c-0.027,1.658,2.25,4.11,3.668,3.949c1.502-0.17,4.039-3.16,3.977-4.687C157.765,20.188,155.847,18.617,154.042,18.777z"/>
</g>
</svg>
