<?xml version="1.0" encoding="utf-8"?>
<!-- Generator: Adobe Illustrator 16.0.3, SVG Export Plug-In . SVG Version: 6.00 Build 0)  -->
<!DOCTYPE svg PUBLIC "-//W3C//DTD SVG 1.1//EN" "http://www.w3.org/Graphics/SVG/1.1/DTD/svg11.dtd">
<svg version="1.1" id="Layer_1" xmlns="http://www.w3.org/2000/svg" xmlns:xlink="http://www.w3.org/1999/xlink"
     preserveAspectRatio="none" x="0px" y="0px"
	 width="793.834px" height="285.5px" viewBox="0 0 793.834 285.5" >
<path fill="#010101" d="M714.547,16.263c18.657-0.049,37.317-0.036,55.975-0.242c1.88-0.021,2.511,0.744,2.653,2.021
	c0.259,2.307,0.202,4.655,0.187,6.984c-0.086,12.3-0.29,24.601-0.283,36.901c0.007,14.642,0.261,29.283,0.273,43.925
	c0.022,24.612-0.045,49.226-0.104,73.838c-0.059,24.442-0.17,48.886-0.211,73.328c-0.007,3.981,0.223,7.965,0.357,11.946
	c0.047,1.341-0.307,2.136-1.899,2.203c-5.116,0.221-10.228,0.816-15.34,0.828c-24.31,0.049-48.618-0.063-72.928-0.088
	c-20.631-0.021-41.261-0.005-61.892,0.006c-9.482,0.006-18.965,0.043-28.447,0.053c-29.435,0.031-58.869,0.095-88.304,0.06
	c-7.13-0.009-14.259-0.493-21.39-0.493c-6.952,0-13.905,0.49-20.859,0.502c-41.121,0.073-82.243,0.075-123.363,0.092
	c-26.098,0.01-52.196,0.009-78.293,0c-74.804-0.022-149.606-0.055-224.41-0.074c-6.83-0.002-13.66,0.082-20.489,0.061
	c-3.185-0.01-3.261-0.08-3.269-3.35c-0.032-13.317-0.07-26.637,0.009-39.954c0.052-8.755,0.457-17.509,0.432-26.263
	c-0.088-30.957-0.369-61.915-0.417-92.871c-0.02-12.713,0.526-25.428,0.529-38.142c0.003-12.787-0.389-25.575-0.517-38.363
	C12.51,25.412,12.688,21.644,13,17.9c0.055-0.659,1.19-1.376,1.975-1.772c0.52-0.263,1.304,0.021,1.969,0.021
	c28.154,0.013,56.309,0.024,84.463,0.028c28.818,0.004,57.636-0.006,86.454,0.002c25.203,0.007,50.406,0.082,75.609,0.019
	c9.707-0.025,19.412-0.464,29.119-0.501c7.117-0.027,14.235,0.435,21.353,0.438c77.307,0.034,154.613,0.021,231.919,0.021
	c29.986,0,59.974-0.004,89.959,0.005c3.489,0.001,6.981,0.069,10.474,0.106c1.45,2.855-0.768,2.275-2.238,2.385
	c-0.619,0.046-1.229-0.085-1.845-0.131c0.488,0.05,0.975,0.128,1.467,0.128c1.781,0.001,3.768,0.333,3.88-2.383
	c20.917,0.059,41.833,0.119,62.749,0.167c0.993,0.002,1.986-0.109,2.979-0.168c-0.2,2.212-0.2,2.218-2.327,2.385
	c-0.598,0.048-1.188-0.082-1.781-0.132c0.497,0.046,1,0.189,1.49,0.121c2.791-0.389,5.641-0.426,8.395-0.234
	c10.067,0.702,20.118-0.632,30.171-0.006c0.548,0.034,1.103,0.162,1.654,0.238c-0.662-0.076-1.313-0.245-1.972-0.312
	c-4.944-0.493-9.929-0.242-14.821,0.199c-5.807,0.524-11.534-0.718-17.306-0.104C715.48,18.56,713.963,18.356,714.547,16.263z"/>
<path fill="#0C0C0C" d="M793.373,176.655c0.014-53.312,0.021-106.624,0.013-159.936c0-2.139-0.114-4.284-0.294-6.417
	c-0.074-0.896-0.191-2.01-0.746-2.599c-2.124-2.262-4.093-5.123-6.762-6.294c-2.885-1.265-6.534-0.686-9.832-0.912
	c-0.937-0.063-1.848,0.225-2.819,0.354c-0.961,0.125-1.956,0.159-2.918,0.064c-1.949-0.191-3.902-0.498-5.847-0.501
	c-35.652-0.045-71.098-0.131-106.751-0.083c-2.974,0.004-6.139,0.307-9.112,0.547c-0.654,0.052-1.317,0.194-1.965,0.144
	c-3.447-0.261-6.979-0.689-10.424-0.691c-29.921-0.02-59.165,0.417-89.499-0.083l-0.167,2H250.5V0.131
	c-4.432-0.006-8.805,0.674-13.362,0.305c-8.885-0.72-17.906,0.241-26.871,0.496c-0.82,0.023-1.648,0.104-2.46,0.026
	c-2.452-0.231-4.893-0.7-7.346-0.762c-4.83-0.124-9.672,0.14-14.494-0.084c-4.876-0.228-9.943,0.454-14.883,0.302
	c-10.833-0.333-20.75,0-31.115-0.235c-20.952-0.475-41.914,0.414-62.872,0.505c-6.939,0.03-13.883-0.548-20.821-0.468
	C39.14,0.414,22.006,0.837,4.872,1.157c-4.316,0.081-4.36,0.063-4.365,4.41C0.488,23.126,0.5,40.686,0.5,58.245
	c0,43.883,0,87.766,0,131.648c0,29.798-0.008,59.596,0.017,89.396c0.001,1.803,0.26,3.606,0.399,5.41
	c1.603-0.191,3.205-0.396,4.81-0.566c0.494-0.053,1.025,0.095,1.494-0.025c2.019-0.514,4.464,1.186,6.123-1.171
	c-2.058-0.271-4.114-0.544-6.173-0.802c-0.328-0.041-0.666-0.002-0.999-0.006c-3.581-0.028-3.635-0.028-3.662-3.64
	c-0.075-10.157-0.098-20.315-0.148-30.474c-0.179-35.779-0.398-71.559-0.518-107.337c-0.034-10.093,0.282-20.186,0.334-30.28
	c0.136-26.141,0.357-52.282,0.231-78.422C2.371,24.09,1.353,16.227,2.119,8.299C2.359,5.8,3.025,4.78,5.523,4.65
	c8.112-0.424,16.213-1.343,24.325-1.423c21.642-0.212,43.289-0.278,64.93-0.039c19.115,0.212,38.221-0.552,57.357,0.661
	c12.229,0.774,24.582-0.44,36.881-0.681c6.494-0.127,13.001-0.318,19.484-0.04c6.586,0.283,13.313-1.338,19.762,1.281
	c0.548,0.223,1.291-0.039,1.943-0.069c8.753-0.402,17.504-1.077,26.261-1.148c20.494-0.165,40.991-0.082,61.486,0.009
	c3.448,0.016,6.891,0.624,10.343,0.863c1.824,0.127,3.669,0.157,5.492,0.038c3.776-0.246,11.106-0.073,14.88-0.105
	c13.33-0.114,23.336,0.336,36.667,0.333c8.332-0.002,17.675-0.229,26,0c8.88,0.246,16.173-1.306,25,0.667
	c0.75,0.167,2.009-1.066,2.815-1.181c1.453-0.209,2.915-0.674,4.355-0.618c9.097,0.354,18.183-0.484,27.321,0.753
	c5.617,0.761,11.502-0.72,17.268-0.746c23.495-0.109,46.99-0.112,70.485-0.012c8.59,0.037,17.177,0.572,25.768,0.672
	c3.634,0.042,7.273-0.633,10.912-0.671c9.831-0.101,19.663,0.014,29.494-0.048c9.909-0.062,19.817,0.131,29.729-0.047
	c8.155-0.146,16.318-0.041,24.479,0.072c28.778,0.399,57.566-0.898,86.34,0.698c5.59,0.311,11.24-0.377,16.855-0.709
	c2.737-0.162,3.228,0.122,3.29,2.836c0.042,1.83-0.026,3.662-0.044,5.493c-0.559,59.615,0.998,119.237-0.823,178.853
	c-0.556,18.139-0.127,36.307-0.147,54.462c-0.012,10.161-0.038,20.323-0.017,30.485c0.004,1.513-0.038,2.26-2.1,2.166
	c-5.44-0.246-10.903-0.103-16.356-0.01c-3.753,0.064-7.505,0.459-11.254,0.419c-3.273-0.036-6.543-0.688-9.813-0.694
	c-13.121-0.029-26.243,0.094-39.364,0.146c-14.098,0.056-28.194,0.056-42.294,0.166c-4.311,0.034-8.622,0.556-12.929,0.501
	c-11.6-0.146-23.198-0.727-34.795-0.688c-14.771,0.047-29.542,0.697-44.314,0.791c-23.799,0.151-47.599-0.006-71.396,0.104
	c-10.092,0.047-20.183,0.634-30.274,0.626c-12.311-0.01-24.622-0.608-36.932-0.553c-17.622,0.079-35.241,0.714-52.863,0.769
	c-43.476,0.135-86.953,0.086-130.43,0.092c-79.982,0.008-159.966,0-239.949,0.008c-1.66,0-3.32,0.068-4.977,0.17
	c-0.24,0.016-0.683,0.464-0.644,0.592c0.125,0.4,0.418,1.05,0.676,1.063c2.323,0.123,4.653,0.121,6.98,0.178
	c1.314,0.033,2.71-0.147,3.065,1.732c0.294,1.557,1.014,1.307,1.938,0.354c0.573-0.589,1.658-1.521,2.018-1.337
	c1.876,0.964-0.772,1.447-0.428,1.638c0.757,0.417,1.766,0.491,2.664,0.46c0.24-0.009,0.485-0.893,0.661-1.396
	c0.157-0.447,0.219-1.334,0.327-1.334c1.32-0.009,2.645,0.08,3.96,0.227c0.226,0.025,0.41,0.438,0.614,0.673
	c-0.33,0.054-0.661,0.155-0.989,0.147c-0.325-0.008-0.683-0.25-0.962-0.168c-0.581,0.168-1.119,0.482-1.674,0.738
	c0.528,0.414,1.025,1.135,1.591,1.194c4.065,0.429,8.14,0.899,12.222,1.021c5.66,0.168,11.346-0.223,16.99,0.117
	c5.697,0.344,11.179-1.697,17.012-0.611c4.994,0.93,10.262,0.611,15.4,0.482c6.114-0.154,12.281,0.881,18.354-0.974
	c1.647-0.502,3.632,0.039,5.456,0.188c2.956,0.241,5.903,0.75,8.86,0.801c6.997,0.119,13.998,0.123,20.994,0.008
	c5.441-0.092,10.876-0.6,16.315-0.612c5.416-0.015,10.831,0.435,16.249,0.535c5.162,0.096,10.327,0.053,15.489-0.036
	c1.549-0.025,3.265-0.087,3.899-2.032c-1.154-0.058-2.311-0.081-3.458-0.198c-0.279-0.027-0.601-0.316-0.766-0.574
	c-0.14-0.219-0.083-0.563-0.114-0.852c1.744,0.156,3.985-0.314,5.132,0.596c2.78,2.205,3.684,2.983,6.051,1.511
	c0.991-0.617,0.854-0.935,1.251,0.249c0.169,0.503,0.977,1.049,1.545,1.111c1.966,0.221,3.955,0.316,5.936,0.32
	c11.664,0.025,23.329-0.023,34.992,0.059c0.619,0.004,1.77,0.308,1.854,0.263v-1.101h308l-0.332,1.166
	c0.056-0.023,1.779-0.496,1.833-0.5c3.377-0.272,5.438-0.824,8.828-0.856c6.123-0.058,12.249-0.115,18.369,0.005
	c12.202,0.238,24.4,0.705,36.604,0.855c4.638,0.058,9.279-0.627,13.925-0.742c13.073-0.325,26.15,0.01,39.227-0.162
	c0.831-0.012,1.7-0.098,2.488,0.1c7.268,1.816,14.601,0.555,21.899,0.485c7.623-0.07,15.244-0.39,22.867-0.503
	c1.273-0.02,2.563,0.682,3.832,0.643c4.41-0.135,8.819-0.707,13.222-0.645c10.982,0.16,21.96,0.578,32.94,0.896
	c2.659,0.077,5.313-0.542,7.969-0.407c3.498,0.178,7.003,0.307,10.5,0.334c1.776,0.014,3.544,0.266,5.337,0.08
	c1.435-0.146,2.104-0.738,2.006-2.195c-0.055-0.83-0.027-1.664-0.027-2.498C793.338,245.81,793.363,211.231,793.373,176.655z"/>
<path fill="#A2A2A2" d="M714.547,16.263c0.497,1.863,2.105,1.185,3.248,1.284c1.28,0.111,2.676-0.527,3.88-0.243
	c6.253,1.479,12.461-0.24,18.684-0.054c5.573,0.167,11.146,0.405,16.717,0.639c0.388,0.016,0.766,0.249,1.147,0.382
	c-0.392,0.458-0.755,1.279-1.181,1.313c-2.104,0.167-4.228,0.183-6.341,0.146c-5.081-0.089-10.161-0.301-15.242-0.341
	c-4.016-0.032-8.033,0.157-12.05,0.176c-4.768,0.021-9.532-0.045-14.298-0.039c-0.478,0-1.003,0.436-1.422,0.331
	c-1.674-0.42-3.313-0.973-4.966-1.477c1.668-0.24,3.33-0.606,5.006-0.684c1.472-0.067,2.969,0.319,4.435,0.219
	c0.409-0.028,0.749-1.071,1.12-1.649C713.705,16.264,714.126,16.264,714.547,16.263z"/>
<path fill="#A1A1A1" d="M647.557,16.266c1.542,0.638,3.101,1.243,4.613,1.942c0.354,0.163,0.558,0.65,0.83,0.988
	c-0.26,0.113-0.519,0.328-0.776,0.326c-4.874-0.042-9.748-0.071-14.617-0.22c-0.63-0.019-1.238-0.678-1.857-1.04
	c0.578-0.109,1.156-0.308,1.735-0.312c2.403-0.015,4.811,0,7.215,0.064c1.275,0.035,1.835-0.46,1.595-1.749
	C646.713,16.267,647.135,16.267,647.557,16.266z"/>
<path fill="#F2F2F2" d="M786.996,244.048c-0.221-2.123-0.621-4.245-0.633-6.371c-0.053-9.61-0.097-19.225,0.044-28.832
	c0.359-24.76,0.831-49.516,1.228-74.273c0.039-2.429-0.21-4.863-0.168-7.292c0.017-0.919,0.479-1.829,0.736-2.743
	c0.455-1.638-1.469-4.506,2.294-4.434c1.866,2.691,0.635,5.722,0.729,8.546c0.174,5.221-0.739,10.486-0.466,15.694
	c0.376,7.138,0.229,14.236-0.22,21.343c-0.529,8.353,0.742,16.726-0.863,25.108c-0.684,3.572,0.164,7.56,0.877,11.25
	c1.022,5.291-0.169,10.535,0.235,15.811c0.438,5.701-0.515,11.424-0.053,17.18c0.21,2.614-0.823,5.33-1.293,7.998
	C789.254,244.88,788.254,244.776,786.996,244.048z"/>
<path fill="#CACACA" d="M604.693,283.219c-5.771-0.269-11.539-0.735-17.311-0.748c-6.32-0.015-12.64,0.438-18.962,0.601
	c-4.656,0.119-9.32,0.242-13.972,0.09c-3.432-0.113-6.854-1.01-10.271-0.961c-8.643,0.125-17.279,0.59-25.92,0.907
	c-0.657,0.024-1.354,0.077-1.964-0.106c-0.334-0.102-0.613-0.643-0.74-1.041c-0.052-0.164,0.32-0.561,0.58-0.696
	c0.275-0.146,0.656-0.183,0.976-0.142c4.417,0.563,8.871-1.852,13.287,0.184c0.479,0.222,1.193-0.038,1.796-0.105
	c14.869-1.686,29.816-1.283,44.733-1.619c8.992-0.201,17.991-0.16,26.986-0.135c2.549,0.008,5.107,0.262,7.639,0.584
	c0.922,0.117,1.833,0.676,2.642,1.199c0.457,0.297,0.692,0.936,1.029,1.419c-0.472,0.114-0.94,0.322-1.412,0.327
	c-3.038,0.029-6.077,0.016-9.114,0.016C604.695,283.066,604.694,283.143,604.693,283.219z"/>
<path fill="#E9E9E9" d="M790.497,120.103c-2.278,0.695-1.188,3.133-2.294,4.434c-0.281-3.323-0.818-6.649-0.792-9.971
	c0.063-7.885,0.59-15.768,0.571-23.65c-0.023-10.066-0.423-20.131-0.607-30.197c-0.056-2.989,0.043-5.981,0.128-8.97
	c0.009-0.334,0.368-0.924,0.603-0.942c1.242-0.101,3.279,2.774,2.846,3.914c-1.395,3.653-1.93,5.484-0.824,6.933
	c1.931,2.528,0.649,5.068,0.639,7.601c-0.006,1.473-0.298,2.949-0.247,4.416c0.203,5.84,0.797,11.683,0.675,17.513
	c-0.188,8.848-0.499,17.691-0.485,26.543C790.707,118.517,790.57,119.31,790.497,120.103z"/>
<path fill="#E1E1E1" d="M766.438,282.867c-1.485,0.07-3.054,0.484-4.442,0.151c-6.175-1.478-12.313-0.233-18.474-0.181
	c-6.233,0.053-12.5,0.733-18.756-0.299c-2.756-0.455-5.629-0.322-8.443-0.269c-6.144,0.119-12.224,1.324-18.446,0.233
	c-2.86-0.5-5.957,0.422-8.953,0.582c-0.481,0.026-0.997-0.561-1.496-0.862c0.441-0.396,0.864-1.11,1.328-1.14
	c6.252-0.383,12.507-0.729,18.769-0.965c8.013-0.304,16.112-1.314,24.021-0.506c7.753,0.795,15.406-0.447,23.097,0.325
	c3.571,0.358,7.224-0.078,10.839-0.153C765.631,280.865,769.992,280.632,766.438,282.867z"/>
<path fill="#E2E2E2" d="M786.996,244.048c0.814-0.338,1.631-0.678,2.447-1.017c0.457,0.302,1.288,0.573,1.313,0.909
	c0.287,3.551,0.465,7.109,0.621,10.67c0.028,0.643,0.013,1.737-0.302,1.869c-1.753,0.74-1.019,1.632-0.634,2.852
	c0.166,0.528-1.48,1.527-1.4,2.207c0.143,1.205,1.262,2.287,1.439,3.5c0.204,1.395-0.165,2.873-0.292,4.313
	c-0.055,0.608-0.125,1.214-0.188,1.819c-0.272-0.584-0.507-1.194-0.842-1.743c-0.129-0.212-0.488-0.282-0.743-0.418
	c-0.248,0.534-0.854,1.288-0.686,1.565c1.237,2.023,1.236,4.063,0.401,6.18c-0.151,0.387-0.392,0.738-0.591,1.105
	c-0.333-0.449-0.939-0.888-0.956-1.348c-0.141-4.15-0.293-8.307-0.218-12.456C786.489,257.387,786.777,250.719,786.996,244.048z"/>
<path fill="#CACACA" d="M653.419,280.152c2.354-0.295,4.715-0.863,7.066-0.83c5.54,0.078,11.075,0.444,16.615,0.688
	c0.479,0.021,1.063-0.196,1.426,0.005c1.252,0.694,2.428,1.526,3.633,2.308c-1.216,0.264-2.435,0.766-3.646,0.752
	c-7.253-0.082-14.504-0.266-21.755-0.466c-0.797-0.022-1.586-0.368-2.378-0.565C653.584,281.655,652.849,281.236,653.419,280.152z"
	/>
<path fill="#DEDEDE" d="M436.685,283.764c-2.646-0.106-5.284-0.033-7.891-0.025c-2.836,0.009-5.655-1.198-8.521-1.53
	c-2.459-0.283-4.979-0.026-7.463-0.146c-0.425-0.021-0.815-0.729-1.224-1.121c0.396-0.251,0.794-0.723,1.188-0.721
	c9.07,0.049,18.143,0.112,27.212,0.3c0.837,0.018,1.745,0.77,2.464,1.368c1.036,0.86,0.564,1.249-0.576,1.342
	C440.142,283.369,438.414,283.582,436.685,283.764z"/>
<path fill="#D8D8D8" d="M653.419,280.152c0.321,0.631,0.642,1.26,0.962,1.891c-10.486,0.349-20.974,0.696-31.46,1.047
	c-0.331,0.012-0.708,0.15-0.981,0.037c-0.536-0.223-1.017-0.582-1.521-0.885c0.435-0.404,0.838-1.121,1.307-1.168
	c3.957-0.391,7.923-0.738,11.893-0.945c6.025-0.313,12.06-0.526,18.092-0.711C652.271,279.4,652.849,279.896,653.419,280.152z"/>
<path fill="#E0E0E0" d="M787.994,35.283c-1.084-2.167,0.729-4.332-0.292-6.768c-0.895-2.131-0.335-4.895-0.315-7.379
	c0.021-2.466,0.151-4.933,0.271-7.397c0.021-0.431,0.229-0.852,0.35-1.278c0.54,0.187,1.225,0.225,1.598,0.585
	c1.763,1.699,1.771,4.083,1.57,6.154c-0.517,5.329,0.402,10.568,0.463,15.849c0.01,0.741-0.771,1.491-1.188,2.236
	C789.124,37.24,789.039,35.673,787.994,35.283z"/>
<path fill="#DBDBDB" d="M472.4,282.076c-0.979,0.364-1.945,1.02-2.935,1.051c-7.081,0.229-14.18-0.19-21.245,0.697
	c-0.838,0.105-1.746-0.354-2.621-0.552c0.723-0.783,1.393-1.627,2.192-2.317c0.312-0.271,0.919-0.268,1.392-0.266
	c6.1,0.021,12.2-0.029,18.295,0.164c1.684,0.055,3.344,0.859,5.016,1.32L472.4,282.076z"/>
<path fill="#D5D5D5" d="M771.35,281.917c1.168-1.024,1.636-2.804,4.172-1.516c1.716,0.872,4.349-0.154,6.572-0.168
	c2.996-0.018,6.064-0.214,8.77,1.439c0.421,0.259,0.772,1.131,0.658,1.597c-0.087,0.354-0.976,0.746-1.489,0.724
	c-6.22-0.271-12.436-0.617-18.652-0.945c-0.254-0.244-0.344-0.493-0.268-0.747C771.188,282.046,771.268,281.917,771.35,281.917z"/>
<path fill="#E0E0E0" d="M787.994,35.283c1.427-0.079,2.28,0.547,2.457,2.001c0.229,3.49,0.513,6.978,0.657,10.471
	c0.045,1.074-0.291,2.165-0.452,3.248c-0.879-0.96-1.792-1.893-2.618-2.896c-0.293-0.355-0.544-0.89-0.529-1.333
	C787.634,42.942,787.823,39.113,787.994,35.283z"/>
<path fill="#DDDDDD" d="M472.494,282.173c0.284-0.623,0.564-1.788,0.854-1.791c7.54-0.051,15.082-0.01,22.621,0.117
	c0.769,0.013,1.525,0.654,2.288,1.006c-0.62,1.031-1.311,1.221-2.687,1.313c-5.777,0.39-11.503-1.772-17.336-0.048
	c-1.727,0.51-3.879-0.424-5.835-0.695L472.494,282.173z"/>
<path fill="#D6D6D6" d="M368.44,281.285c7.591-0.283,15.18-0.584,22.773-0.805c0.464-0.014,0.948,0.604,1.422,0.928
	c-0.378,0.397-0.732,1.113-1.137,1.144c-3.158,0.233-6.358,0.685-9.483,0.396c-4.519-0.419-9.152,1.023-13.564-0.844
	c-0.359-0.178-0.479-0.357-0.363-0.542C368.204,281.376,368.32,281.285,368.44,281.285z"/>
<path fill="#D8D8D8" d="M317.681,281.21c2.166,0,3.976-0.041,5.78,0.045c0.273,0.013,0.52,0.613,0.777,0.941
	c-0.228,0.117-0.466,0.217-0.682,0.354c-2.241,1.421-9.771,1.207-11.655-0.365c-0.202-0.169-0.413-0.684-0.329-0.775
	c0.309-0.345,0.76-0.84,1.121-0.812C314.476,280.735,316.246,281.021,317.681,281.21z"/>
<path fill="#C8C8C8" d="M354.489,282.871c-4.676-0.162-9.372,1.045-14.028-0.184c-0.333-0.088-0.593-0.452-0.887-0.688
	c0.21-0.229,0.38-0.569,0.639-0.664c0.457-0.166,0.966-0.239,1.457-0.252c3.314-0.073,6.631-0.193,9.944-0.131
	c0.91,0.017,1.81,0.604,2.715,0.93c0.26,0.184,0.37,0.391,0.331,0.621C354.619,282.75,354.563,282.871,354.489,282.871z"/>
<path fill="#E6E6E6" d="M354.489,282.871c-0.054-0.328-0.106-0.658-0.16-0.986c4.641-1.68,9.394-0.744,14.111-0.6
	c-0.003,0.271,0,0.545,0.011,0.817c-0.737,0.296-1.47,0.837-2.21,0.846C362.324,282.996,358.407,282.91,354.489,282.871z"/>
<path fill="#E6E6E6" d="M278.199,281.13c1.755-0.086,2.908-0.238,4.048-0.172c1.245,0.072,2.479,0.35,3.718,0.537
	c-1.282,0.586-2.881,1.957-3.779,1.594c-1.774-0.717-2.982-0.656-4.268,0.599c-1.374-2.621-2.937-0.28-4.427-0.246
	c-0.506,0.013-1.289-0.688-1.498-1.233c-0.566-1.482,0.747-1.03,1.382-1.054C275.183,281.089,276.995,281.13,278.199,281.13z"/>
<path fill="#EBEBEB" d="M173.502,282.645c-2.461,0.263-4.817-1.397-7.029,0.34c-0.047,0.037-0.59-0.557-0.901-0.856
	c0.308-0.318,0.611-0.912,0.924-0.918c4.309-0.062,8.62-0.063,12.929-0.002c0.301,0.004,0.595,0.607,0.892,0.934
	c-0.348,0.254-0.698,0.729-1.044,0.727C177.281,282.853,175.289,282.725,173.502,282.645z"/>
<path fill="#DCDCDC" d="M406.271,280.667c0.482,0.043,1.037,0.26,1.438,0.098c1.182-0.479,2.429-0.78,2.416,0.902
	c-0.004,0.51-1.721,1.386-2.68,1.426c-1.865,0.078-3.752-0.297-5.625-0.526c-0.502-0.063-0.985-0.28-1.478-0.427
	c0.397-0.615,0.773-1.737,1.196-1.756c1.564-0.064,3.146,0.234,4.721,0.396C406.263,280.744,406.267,280.705,406.271,280.667z"/>
<path fill="#D5D5D5" d="M502.877,282.776c-0.061,0.015-0.521,0.238-0.954,0.188c-0.732-0.082-1.448-0.334-2.172-0.517
	c0.587-0.716,1.04-1.706,1.797-2.073c0.82-0.398,1.979-0.449,2.892-0.234c1.3,0.309,2.51,0.996,3.759,1.521
	c-1.163,0.43-2.312,0.91-3.498,1.262C504.271,283.05,503.75,282.859,502.877,282.776z"/>
<path fill="#D0D0D0" d="M303.237,281.225c2.269,0,3.561-0.079,4.833,0.052c0.342,0.036,0.618,0.711,0.924,1.094
	c-0.333,0.235-0.635,0.592-1.004,0.688c-1.378,0.355-2.775,0.843-4.168,0.855c-1.025,0.01-2.093-0.564-3.065-1.039
	c-0.363-0.178-0.504-0.81-0.747-1.233c0.41-0.177,0.816-0.487,1.231-0.499C302.232,281.111,303.228,281.224,303.237,281.225z"/>
<path fill="#EDEDED" d="M86.966,282.792c-2.088-0.285-3.696-0.506-5.305-0.727c1.279-1.902,3.192-0.697,4.794-0.904
	c1.619-0.209,3.295-0.057,4.938,0.058c0.339,0.022,0.641,0.575,0.96,0.883c-0.314,0.229-0.621,0.646-0.944,0.659
	C89.773,282.83,88.133,282.792,86.966,282.792z"/>
<path fill="#EBEBEB" d="M229.71,283.558c-1.898-0.287-3.497-0.473-5.062-0.811c-0.33-0.07-0.539-0.699-0.804-1.07
	c0.411-0.121,0.815-0.316,1.232-0.35c1.227-0.097,2.462-0.211,3.688-0.158c0.928,0.039,1.917,0.176,2.741,0.563
	c0.43,0.201,0.562,1.037,0.828,1.586c-0.514,0.021-1.03,0.023-1.542,0.073C230.331,283.435,229.876,283.531,229.71,283.558z"/>
<path fill="#E5E5E5" d="M771.35,281.917c0.011,0.377,0.021,0.754,0.029,1.131c-1.712,1.73-3.288-0.271-4.939-0.182
	c-0.32-1.027-0.642-2.054-0.962-3.08C767.923,279.152,769.727,280.285,771.35,281.917z"/>
<path fill="#DBDBDB" d="M140.061,283.149c0.104,0-0.591,0.142-1.196-0.03c-1.023-0.293-1.989-0.785-2.98-1.195
	c0.807-1.865,1.721,0.188,2.618-0.063c1.245-0.35,2.566-0.771,3.808-0.656c0.734,0.067,1.943,1.101,1.957,1.721
	c0.041,1.845-1.423-0.071-2.096,0.565C141.965,283.685,141.276,283.367,140.061,283.149z"/>
<path fill="#9B9B9B" d="M529.834,19.804c-5.073,0-9.463,0.063-13.852-0.017c-4.948-0.09-9.896-0.412-14.844-0.438
	c-4.061-0.021-8.123,0.31-12.186,0.372c-5.396,0.082-10.789,0.086-16.184,0.052c-1.138-0.007-2.289-0.253-3.4-0.528
	c-0.562-0.139-1.044-0.59-1.563-0.9c0.584-0.127,1.166-0.356,1.751-0.365c6.685-0.103,13.37-0.145,20.055-0.259
	c5.083-0.087,10.166-0.37,15.25-0.357c6.485,0.017,12.973,0.256,19.46,0.372c3.604,0.063,7.21,0.044,10.813,0.139
	c0.511,0.014,1.008,0.464,1.513,0.712c-0.382,0.219-0.744,0.583-1.146,0.633C533.393,19.479,531.274,19.661,529.834,19.804z"/>
<path fill="#F0F0F0" d="M16.481,128.525c0,3.087,0.018,6.175-0.031,9.261c-0.004,0.278-0.403,0.66-0.703,0.779
	c-0.155,0.063-0.653-0.302-0.727-0.553c-0.228-0.77-0.449-1.578-0.454-2.373c-0.033-5.859-0.022-11.72,0.013-17.58
	c0.002-0.432,0.306-0.863,0.469-1.295c0.444,0.462,1.208,0.882,1.272,1.391c0.208,1.624,0.176,3.28,0.197,4.925
	c0.024,1.814,0.006,3.628,0.006,5.444C16.509,128.525,16.495,128.525,16.481,128.525z"/>
<path fill="#DEDEDE" d="M15.443,153.13c0.342,0,0.685-0.002,1.027-0.002c0.503,8.353,0.02,16.703-0.033,25.054
	c-0.002,0.39-0.295,0.776-0.453,1.167c-0.313-0.465-0.937-0.964-0.89-1.389c0.573-5.237,0.526-10.373-0.435-15.633
	C14.133,159.443,14.068,156.097,15.443,153.13z"/>
<path fill="#4C4C4C" d="M617.303,19.282c-4.719,0.259-9.436,0.547-14.158,0.719c-0.382,0.014-0.792-0.768-1.188-1.179
	c0.475-0.33,0.935-0.921,1.427-0.949c4.388-0.247,8.782-0.395,13.174-0.572C617.244,17.796,618.205,18.188,617.303,19.282z"/>
<path fill="#A1A1A1" d="M250.458,18.236c3.396-0.242,6.792-0.481,10.188-0.732c0.15-0.011,0.324-0.209,0.434-0.17
	c1.338,0.472,2.667,0.971,3.999,1.464c-1.291,0.248-2.58,0.698-3.873,0.709c-5.346,0.043-10.692-0.027-16.038-0.105
	c-0.916-0.014-52.746,0.129-53.605-0.17c-0.291-0.103-0.395-0.847-0.479-1.315c-0.013-0.072,0.555-0.371,0.842-0.354
	c2.539,0.141,55.958,0.029,58.495,0.205C250.434,17.923,250.446,18.079,250.458,18.236z"/>
<path fill="#ACACAC" d="M310.515,18.193c3.144-1.558,6.459-0.554,9.664-0.465c3.24,0.089,6.452,1.24,9.674-0.261
	c0.465-0.217,1.243,0.063,1.81,0.285c0.845,0.331,1.629,0.814,2.439,1.233c-0.91,0.223-1.821,0.64-2.73,0.636
	c-6.012-0.027-12.025-0.09-18.032-0.289c-0.975-0.032-1.924-0.798-2.885-1.226L310.515,18.193z"/>
<path fill="#A5A5A5" d="M32.59,18.188c4.495-0.3,8.988-0.66,13.488-0.849c0.882-0.037,1.796,0.579,2.688,0.914
	c0.288,0.107,0.552,0.277,0.827,0.419c-0.292,0.143-0.58,0.293-0.876,0.426c-0.3,0.136-0.608,0.367-0.912,0.365
	c-6.294-0.051-12.587-0.107-18.879-0.247c-0.452-0.01-0.89-0.67-1.334-1.027c0.525-0.122,1.044-0.299,1.576-0.355
	c1.12-0.119,2.248-0.176,3.373-0.258C32.557,17.78,32.574,17.984,32.59,18.188z"/>
<path fill="#C3C3C3" d="M18.256,33.882c0.07,1.441,0.14,2.881,0.209,4.323c-0.618,0.053-1.777,0.094-1.779,0.159
	c-0.068,3.154-0.017,6.309-0.04,9.464c-0.003,0.363-0.354,0.724-0.545,1.086c-0.368-0.302-0.749-0.59-1.095-0.915
	c-0.107-0.102-0.166-0.309-0.161-0.463c0.257-7.748,0.522-15.496,0.798-23.243c0.004-0.127,0.123-0.288,0.235-0.364
	c0.119-0.08,0.306-0.129,0.439-0.096c0.15,0.037,0.273,0.183,0.407,0.28C17.406,27.343,16.479,30.825,18.256,33.882z"/>
<path fill="#7F7F7F" d="M450.635,19.518c-0.968,0-1.949,0.097-2.896-0.04c-0.48-0.07-0.901-0.562-1.35-0.862
	c0.476-0.313,0.953-0.906,1.424-0.898c5.579,0.088,11.158,0.259,16.736,0.435c0.288,0.009,0.568,0.259,0.854,0.396
	c-0.35,0.218-0.689,0.61-1.046,0.625c-4.572,0.187-9.146,0.319-13.721,0.465C450.636,19.598,450.635,19.558,450.635,19.518z"/>
<path fill="#8B8B8B" d="M686.085,19.473c-1.123,0-2.257,0.083-3.367-0.039c-0.477-0.052-0.905-0.53-1.356-0.815
	c0.306-0.313,0.614-0.901,0.915-0.896c5.886,0.104,11.771,0.271,17.655,0.461c0.267,0.009,0.521,0.346,0.778,0.529
	c-0.455,0.168-0.91,0.479-1.366,0.482c-4.42,0.036-8.839,0.021-13.259,0.021C686.085,19.303,686.085,19.388,686.085,19.473z"/>
<path fill="#D8D8D8" d="M14.562,107.823c0-1.635-0.039-3.272,0.028-4.905c0.016-0.378,0.391-0.74,0.601-1.11
	c0.387,0.26,1.104,0.512,1.11,0.78c0.082,3.584,0.074,7.169,0.042,10.753c-0.002,0.204-0.477,0.612-0.599,0.567
	c-0.402-0.149-1.046-0.447-1.061-0.717c-0.094-1.785-0.049-3.578-0.049-5.369C14.61,107.823,14.586,107.823,14.562,107.823z"/>
<path fill="#D8D8D8" d="M14.572,238.864c0-1.663-0.04-3.329,0.032-4.989c0.016-0.357,0.434-0.696,0.667-1.045
	c0.369,0.286,1.051,0.563,1.06,0.86c0.104,3.489,0.13,6.981,0.091,10.472c-0.003,0.256-0.738,0.77-0.998,0.694
	c-0.349-0.101-0.782-0.647-0.802-1.021c-0.086-1.653-0.037-3.313-0.037-4.972C14.58,238.864,14.576,238.864,14.572,238.864z"/>
<path fill="#464646" d="M68.057,17.887c0.96-0.084,1.948-0.333,2.869-0.181c0.446,0.074,26.447,0.056,26.825,0.543
	c-0.458,0.354-26.586,1.842-27.055,1.855c-2.229,0.063-4.464-0.03-6.694-0.114c-0.256-0.01-0.663-0.275-0.709-0.487
	c-0.056-0.254,0.127-0.766,0.329-0.841c1.391-0.517,2.813-0.949,4.226-1.408C67.917,17.465,67.987,17.676,68.057,17.887z"/>
<path fill="#8C8C8C" d="M617.303,19.282c-0.249-0.66-0.498-1.32-0.747-1.98c5.1,0.261,10.198,0.507,15.294,0.801
	c0.62,0.035,1.227,0.328,1.838,0.502c-0.563,0.207-1.125,0.585-1.692,0.593C627.098,19.263,622.2,19.263,617.303,19.282z"/>
<path fill="#747474" d="M554.285,19.574c-1.784,0-3.572,0.056-5.353-0.038c-0.463-0.024-0.899-0.52-1.349-0.798
	c0.452-0.435,0.919-1.26,1.354-1.243c3.979,0.145,7.953,0.427,11.927,0.709c0.231,0.016,0.438,0.372,0.658,0.57
	c-0.28,0.151-0.56,0.429-0.841,0.434c-2.132,0.037-4.265,0.021-6.396,0.021C554.286,19.344,554.286,19.459,554.285,19.574z"/>
<path fill="#868686" d="M310.456,18.107c-0.408,0.487-0.836,1.412-1.219,1.393c-3.519-0.172-7.031-0.497-10.541-0.827
	c-0.176-0.017-0.31-0.491-0.463-0.752c0.374-0.212,0.762-0.627,1.12-0.603c3.723,0.251,7.442,0.572,11.163,0.875L310.456,18.107z"/>
<path fill="#A1A1A1" d="M763.363,18.002c2.148,0,4.301-0.018,6.451,0.023c0.25,0.005,0.495,0.333,0.743,0.511
	c-0.237,0.198-0.459,0.541-0.717,0.571c-2.785,0.326-5.571,0.698-8.366,0.82c-0.607,0.026-1.258-0.889-1.889-1.369
	c0.597-0.18,1.183-0.446,1.79-0.513c0.651-0.07,1.323,0.049,1.984,0.085C763.361,18.088,763.363,18.045,763.363,18.002z"/>
<path fill="#8A8A8A" d="M660.994,19.693c-1.102-0.2-1.75-0.319-2.399-0.437c-1.207-0.219-2.414-0.436-3.621-0.653
	c1.076-1.623,2.743-1.319,4.294-1.247c0.639,0.03,1.262,0.364,1.893,0.556c1.151,0.35,2.302,0.696,3.453,1.044
	C663.257,19.232,661.902,19.509,660.994,19.693z"/>
<path fill="#EBEBEB" d="M16.473,85.393c0,1.804,0.022,3.609-0.023,5.413c-0.007,0.281-0.321,0.554-0.493,0.831
	c-0.18-0.268-0.514-0.533-0.518-0.802c-0.05-3.832-0.062-7.665-0.058-11.496c0-0.265,0.196-0.528,0.302-0.792
	c0.269,0.304,0.761,0.598,0.772,0.911c0.071,1.977,0.036,3.958,0.036,5.938C16.485,85.394,16.479,85.393,16.473,85.393z"/>
<path fill="#8C8C8C" d="M279.942,18.563c-1.068,0.145-2.682,0.484-4.305,0.533c-0.927,0.028-1.879-0.386-2.797-0.673
	c-0.273-0.086-0.54-0.388-0.665-0.657c-0.045-0.099,0.329-0.57,0.509-0.569c3.064,0.03,6.129,0.075,9.189,0.221
	c0.319,0.015,0.606,0.682,0.908,1.046c-0.432,0.154-0.855,0.376-1.301,0.441C281.176,18.949,280.84,18.776,279.942,18.563z"/>
<path fill="#7E7E7E" d="M594.946,19.681c-1.564-0.147-2.889-0.179-4.172-0.422c-0.966-0.184-1.878-0.641-2.813-0.976
	c1.056-0.347,2.111-0.968,3.168-0.97c1.284-0.003,2.573,0.506,3.857,0.809c0.886,0.21,1.766,0.445,2.647,0.67
	C596.678,19.108,595.72,19.425,594.946,19.681z"/>
<path fill="#1D1D1D" d="M18.256,33.882c-0.276,0.389-0.552,0.778-0.829,1.167c-0.291-0.256-0.833-0.512-0.833-0.768
	c0-3.389,0.075-6.778,0.132-10.167c0.178-0.015,0.355-0.012,0.532,0.009C17.591,27.376,17.924,30.628,18.256,33.882z"/>
<path fill="#7B7B7B" d="M423.161,17.066c2.325,0.565,4.352,1.059,6.378,1.552c-2.036,0.23-4.073,0.463-6.111,0.689
	c-0.162,0.018-0.338,0.029-0.492-0.013c-0.989-0.276-1.977-0.568-2.964-0.855C421.097,17.955,422.223,17.47,423.161,17.066z"/>
<path fill="#E9E9E9" d="M16.738,217.188c-0.239,1.353-0.579,3.274-0.919,5.197c-0.128-1.931-0.361-3.859-0.359-5.787
	c0.003-2.281-1.225-4.714,0.694-6.804C16.333,212.05,16.511,214.308,16.738,217.188z"/>
<path fill="#6B6B6B" d="M360.885,19.26c-0.286,0.063-0.844,0.377-1.224,0.229c-0.76-0.295-1.422-0.842-2.124-1.285
	c0.635-0.189,1.269-0.529,1.904-0.534c0.933-0.007,1.865,0.238,2.8,0.352c1.444,0.176,2.89,0.329,4.336,0.492
	c-1.668,0.249-3.334,0.5-5.002,0.743C361.415,19.28,361.248,19.26,360.885,19.26z"/>
<rect x="250.167" y="0.164" fill="#0C0C0C" width="297.333" height="2.333"/>
<rect x="243.502" y="284.166" fill="#040404" width="308.333" height="1.332"/>
</svg>
