<?xml version="1.0" encoding="utf-8"?>
<!-- Generator: Adobe Illustrator 16.0.3, SVG Export Plug-In . SVG Version: 6.00 Build 0)  -->
<!DOCTYPE svg PUBLIC "-//W3C//DTD SVG 1.1 Tiny//EN" "http://www.w3.org/Graphics/SVG/1.1/DTD/svg11-tiny.dtd">
<svg version="1.1" baseProfile="tiny" id="Layer_1" xmlns="http://www.w3.org/2000/svg" xmlns:xlink="http://www.w3.org/1999/xlink"
	 preserveAspectRatio="none" x="0px" y="0px" width="311px" height="33.23px" viewBox="0 0 311 33.23" xml:space="preserve">
<g>
	<path fill-rule="evenodd" fill="#0C0C0C" d="M2.334,0.132l0.541,0.472c0.938,0.438,1.231,1.139,2.117,1.339L4.852,1.815
		C7.834,0.23,7.837,0.23,7.965,3.464c0.026,0.66-0.059,1.334,0.044,1.98c0.551,3.457,3.635,6.313,7,6.428
		c0.589,0.02,1.192-0.363,1.789-0.56c-0.327-0.477-0.572-1.05-0.997-1.412c-1.164-0.996-1.221-2.313,0.092-2.686
		c2.637-0.748,5.414-1.051,8.154-1.348c0.572-0.062,1.397,0.583,1.783,1.13c0.196,0.277-0.246,1.111-0.546,1.604
		c-0.34,0.558-0.846,1.016-1.28,1.517c0.798-0.01,1.608-0.113,2.391-0.007c1.256,0.17,3.018,1.654,2.275-1.543
		c-0.525-2.258,0.348-0.27,1.592,2.086c0.206,0.389,0.726,0.611,1.1,0.911c0.206-0.351,0.637-0.737,0.585-1.044
		c-0.574-3.381,2.041-4.273,4.263-5.174c1.31-0.531,3.003-0.64,4.398-0.344c5.438,1.157,10.808,2.329,15.722,5.381
		c5.263,3.269,10.873,6.086,16.587,8.49c8.562,3.603,17.344,5.33,26.93,4.269c11.184-1.238,21.641-4.069,31.554-9.23
		c2.344-1.221,4.738-2.344,7.102-3.522c1.234-0.616,2.276-0.67,2.65,0.958c1.423,6.192,7.13,8.532,11.244,12.231
		c1.284,1.153,4.19,0.536,5.417,1.709c1.229,1.176,1.276,3.578,1.868,5.435c0.098,0.307,0.31,0.59,0.514,0.849
		c1.329,1.684,2.642,1.849,4.174,0.357c0.68-0.661,1.281-1.531,1.587-2.421c0.582-1.687,0.462-3.844,1.5-5.078
		c1.003-1.193,3.206-1.292,4.68-2.198c1.449-0.891,2.479-2.571,3.987-3.239c3.928-1.737,6.024-4.439,5.843-8.803
		c-0.019-0.438,0.226-0.888,0.348-1.331c0.352,0.319,0.718,0.625,1.054,0.96c11.316,11.27,24.963,11.485,39.207,7.964
		c5.719-1.414,11.136-4.065,16.861-5.434c12.369-2.955,24.211-2.297,34.32,6.771c0.443,0.397,1.641,0.558,2.071,0.249
		c1.06-0.758,2.063-1.741,2.738-2.85c0.627-1.028,0.798-2.334,1.169-3.518c1.375,0.519,2.723,1.369,4.133,1.49
		c3.628,0.311,7.314,0.659,10.92,0.34c7.977-0.707,12.347-4.812,14.364-12.707c0.155-0.609,0.659-1.334,1.097-1.959l0.084-0.034
		H2.334z"/>
	<path fill-rule="evenodd" fill="#040404" d="M30.932,14.82c-1.636-0.557-3.105-2.466-4.585-2.397
		c-1.749,0.081-3.414,1.675-5.15,2.541c-0.42,0.209-0.988,0.1-1.474,0.2C10.829,17.005,4.928,12.268,4.957,3.309
		c0.001-0.413-0.045-0.826-0.083-1.239c-2.666,2.752-2.664,6.04,0.046,9.291c4.753,5.705,11.534,8.316,19.466,4.822
		c2.19-0.965,4.187-1.094,6.011-0.033c2.914,1.695,4.72,0.191,6.48-1.701c0.46-0.495,0.526-1.357,0.773-2.052
		c-0.693,0.142-1.712,0.044-2.024,0.467C34.407,14.52,32.851,15.473,30.932,14.82z"/>
	<path fill-rule="evenodd" fill="#FDFDFD" d="M108,16.027c-0.004-0.044,0-0.089,0.009-0.136c-0.033,0.007-0.065,0.014-0.098,0.021
		L108,16.027z"/>
	<path fill-rule="evenodd" fill="#FDFDFD" d="M143.931,0.869c-2.321,0.11-4.659-0.104-6.974,0.057
		c-2.782,0.191-5.788,1.472-8.27,0.771c-4.813-1.359-9.558-0.328-14.301-0.748c-0.467-0.041-0.958,0.182-1.438,0.281
		c0.426,0.45,0.847,1.283,1.277,1.288c3.601,0.04,7.204-0.07,10.806-0.144c0.45-0.009,0.9-0.066,1.351-0.103
		c-0.342,0.395-0.683,1.129-1.025,1.13c-5.52,0.025-11.547,3.021-16.163-2.635c-0.162-0.198-1.152-0.1-1.318,0.151
		c-0.638,0.963-1.298,1.992-1.581,3.091c-0.519,2.026-1.443,2.005-3.256,1.455c-2.643-0.801-5.447-1.403-8.189-1.437
		c-2.466-0.029-5.24-1.2-7.456,0.996c2.125,1.504,4.236,3.028,6.387,4.492c0.386,0.263,0.963,0.225,1.408,0.422
		c0.486,0.216,0.922,0.545,1.38,0.824c-0.336,0.335-0.612,0.833-1.018,0.98c-2.293,0.839-1.624,1.457,0.009,2.363
		c2.547,1.413,5.129,0.813,7.736,0.449c1.469-0.204,2.96-0.665,4.403-0.548c1.991,0.161,0.454,1.183,0.31,1.885
		c3.454-0.724,6.912-1.433,10.354-2.205c0.265-0.06,0.427-0.572,0.636-0.875c-0.277-0.118-0.543-0.279-0.833-0.345
		c-0.644-0.146-1.298-0.244-1.947-0.361c0.547-0.39,1.052-1.018,1.649-1.125c2.419-0.439,4.871-0.702,7.304-1.072
		c0.46-0.069,0.893-0.329,1.338-0.501c-0.428-0.161-0.843-0.388-1.284-0.47c-1.174-0.22-2.358-0.377-3.539-0.559
		c1.127-0.154,2.26-0.274,3.378-0.478c0.641-0.116,1.245-0.428,1.884-0.551c5.799-1.122,11.471-3.382,17.519-2.372
		c1.699,0.283,3.3,1.241,4.896,1.998c0.305,0.145,0.371,0.793,0.548,1.209c-0.407,0.001-0.831,0.079-1.217-0.009
		c-1.969-0.449-4.042-0.079-4.612,1.768c-0.47,1.521-0.2,3.87,0.729,5.118c3.439,4.621,10.353,3.455,12.302-2.028
		c0.681-1.915,0.546-4.119,0.762-6.2c-0.383-0.183-0.807-0.326-1.081-0.611C153.282,2.562,149.087,0.622,143.931,0.869z"/>
	<path fill-rule="evenodd" fill="#FDFDFD" d="M89.077,18.003c-2.691-1.187-5.432-2.26-8.111-3.471
		c-0.57-0.257-0.948-0.941-1.415-1.429c0.775,0.094,1.608,0.036,2.314,0.309c1.966,0.759,3.853,1.725,5.832,2.448
		c0.509,0.187,1.236-0.221,1.863-0.355c-0.395-0.492-0.687-1.216-1.198-1.44c-3.396-1.488-6.561-3.186-7.395-7.236
		c-0.328-1.594-0.818-2.95-2.755-2.867c-2.261,0.097-3.761,1.056-3.707,3.606c0.008,0.378-0.218,0.761-0.336,1.142
		c-0.273-0.17-0.604-0.288-0.811-0.518c-0.773-0.856-1.54-1.724-2.249-2.634c-1.936-2.483-4.737-3.634-7.586-4.317
		c-0.844-0.202-2.139,1.476-3.227,2.291c-0.349-1.959-1.498-2.817-3.49-2.613c-1.311,0.134-2.631,0.186-3.948,0.273
		c1.069,0.588,2.134,1.181,3.207,1.763c0.86,0.466,1.748,0.887,2.575,1.406c0.152,0.095,0.163,0.604,0.062,0.848
		c-0.068,0.164-0.489,0.322-0.688,0.263c-0.632-0.187-1.295-0.383-1.837-0.741c-6.657-4.384-14.162-3.932-21.598-3.754
		c-1.107,0.027-2.225,0.546-3.297,0.945c-2.043,0.763,0.084,0.818,0.221,1.224c0.188,0.558,0.337,1.13,0.497,1.697
		c7.585-1.89,14.828-1.12,21.853,2.464c6.574,3.354,13.279,6.45,19.941,9.629c0.871,0.415,1.822,0.679,2.759,0.926
		c0.268,0.071,0.616-0.165,0.928-0.261c-0.18-0.215-0.328-0.472-0.546-0.637c-0.651-0.497-1.367-0.915-1.983-1.449
		c-0.344-0.298-0.541-0.766-0.805-1.156c0.589,0.025,1.229-0.092,1.759,0.1c4.271,1.545,8.519,3.154,12.786,4.713
		c0.241,0.089,0.582-0.093,0.877-0.148C89.408,18.672,89.34,18.118,89.077,18.003z"/>
	<path fill-rule="evenodd" fill="#FBFBFB" d="M162.368,16.687c-1.297-4.367-1.971-1.618-2.945-0.122
		c-1.434,2.201-3.075,3.952-6.158,3.235c-0.626,0.095-1.355,0.204-2.086,0.314c0.468,0.636,0.817,1.639,1.427,1.835
		c1.486,0.479,3.303,1.172,4.602,0.705c2.032-0.731,2.168,0.14,2.454,1.588c0.381,1.928,0.729,3.885,1.385,5.726
		c0.555,1.559,1.772,1.32,2.671,0.248c1.651-1.97,1.512-3.996-0.082-6.481c-0.372-0.581-0.307-1.443-0.442-2.176
		c0.552,0.116,1.104,0.321,1.658,0.332c1.565,0.031,3.15,0.114,4.69-0.095c0.691-0.094,1.295-0.834,1.938-1.281
		c-0.681-0.199-1.386-0.626-2.04-0.558C166.37,20.278,163.203,19.497,162.368,16.687z"/>
	<path fill-rule="evenodd" fill="#F4F4F4" d="M154.309,1.049c-0.279-0.052-0.604,0.142-0.908,0.222
		c0.191,0.386,0.281,0.955,0.591,1.127c1.881,1.046,3.901,1.922,4.044,4.513l-0.148-0.188c0.35,1.681,0.685,3.364,1.057,5.038
		c0.118,0.534,0.332,1.047,0.502,1.569c0.357-0.528,0.855-1.01,1.05-1.593C161.838,7.716,158.406,1.812,154.309,1.049z"/>
	<g>
		<path fill-rule="evenodd" fill="#FAFAFA" d="M261.898,1.988c0.023-0.037,0.049-0.069,0.072-0.107l-0.136,0.147
			C261.855,2.014,261.877,2.003,261.898,1.988z"/>
		<path fill-rule="evenodd" fill="#FAFAFA" d="M305.278,3.111c-0.275,0.175-0.467,0.475-0.725,0.683
			c-0.367,0.295-0.761,0.557-1.142,0.832c0.104-0.564,0.129-1.16,0.336-1.683c0.176-0.446,0.567-0.805,0.854-1.208
			c0.861-1.209-0.057-1.274-1.478-1.271c-6.941,0.022-13.258,0.035-20.197,0.143c-0.465,0.007-1.14,0.176-1.406,0.689
			c-0.15,0.291,0.104,1.088,0.409,1.275c4.772,2.932,9.503,6.107,15.575,4.091c0.611-0.203,1.183-0.575,1.804-0.677
			c0.371-0.06,0.802,0.255,1.206,0.401c-0.208,0.246-0.373,0.559-0.633,0.729c-3.285,2.149-6.906,2.558-10.476,1.214
			c-3.044-1.146-5.784-3.091-8.812-4.299c-1.483-0.592-1.819-0.838-1.089-2.341c0.58-1.195-0.56-1.749-1.757-1.038
			c-2.303,1.366-4.199,0.824-6.739,0.489c-2.975-0.392-6.249-1.104-9.112,0.847c-1.977,3.11-5.202,3.238-8.163,2.633
			c-2.971-0.607-5.688-1.095-8.59,0.146c-0.956,0.408-1.971,0.562-1.507-1.563c0.486-2.363-2.701-3.238-5.326-2.613
			c-4.532,1.227-7.591,0.008-11.909,2.326c-0.275,0.147-0.66,0.089-1.039,0.044c0.36-0.232,0.723-0.463,1.076-0.705
			c0.464-0.318,0.915-0.656,1.372-0.985c-0.505-0.316-1.03-0.926-1.513-0.894c-1.293,0.084-2.59,0.367-3.843,0.721
			c-0.849,0.239-2.103,0.546-2.338,1.148c-0.492,1.259-0.06,2.463,1.339,3.012c-1.12,1.027-2.175,2.153-3.428,2.979
			c-0.987,0.649-2.275,0.843-3.43,1.239c0.734-0.768,1.469-1.535,2.204-2.303c0.115-0.12,0.322-0.224,0.341-0.354
			c0.237-1.733,0.449-3.471,0.667-5.206c-1.415-0.176-2.833-0.505-4.245-0.487c-1.602,0.021-3.203,0.551-4.797,0.513
			c-6.596-0.157-13.188-0.459-19.782-0.658c-0.478-0.015-0.967,0.367-1.45,0.564c0.37,0.313,0.693,0.795,1.117,0.913
			c6.026,1.675,12.056,3.445,18.274,0.745c0.384-0.168,0.927,0.03,1.396,0.059c-0.289,0.251-0.538,0.621-0.874,0.734
			c-1.996,0.676-3.979,1.663-6.028,1.854c-5.367,0.502-10.485-0.657-15.287-3.16c-5.615-2.929-14.448-2.349-17.386-2.224
			c-2.488,0.277-4.978,1.19-5.063,4.188c-0.031,1.127-0.515,1.88-0.647,3.018c-0.865,7.361,1.926,10.38,9.397,10.256
			c0.333-0.006,0.667,0.016,0.999-0.006c4.559-0.304,7.177-3.575,6.487-8.097c-0.336-2.21-2.86-4.179-4.94-3.853
			c-1.709,0.269-3.303,2.226-2.73,4.458c0.49,1.91-0.601,1.619-1.302,1.37c-1.82-0.646-2.907-1.984-3.156-4.033
			c-0.26-2.134,0.59-3.747,2.425-4.41c2.22-0.803,4.44-1.603,7.048-0.522c4.684,1.939,9.56,3.415,14.338,5.135
			c0.244,0.088,0.32,0.642,0.475,0.978c-2.638,0.043-2.268,0.764-0.275,1.517c7.31,2.762,14.881,3.076,22.496,1.853
			c3.152-0.506,6.41-0.835,9.171-2.997c1.043-0.816,2.336-0.342,1.488,1.684c-0.429,1.025,2.657,0.884,1.378,2.729
			c0.929-0.191,1.942-0.207,2.767-0.609c1.751-0.854,3.344-2.042,5.117-2.831c0.986-0.438,2.441-1.89,3.218,0.492
			c0.068,0.213,1.306,0.244,1.9,0.053c6.056-1.952,12.06-2.635,18.414-1.003c5.902,1.514,11.805,2.692,16.421,7.086
			c0.323,0.308,1.268,0.451,1.564,0.217c1.601-1.268,1.938-4.25,0.758-5.786c-0.693-0.901-2.842-0.87-1.814-2.708
			c0.08-0.145,2.223,0.809,3.369,1.332c0.895,0.408,1.714,0.981,2.597,1.415c7.214,3.546,14.351,2.897,21.34-0.59
			c2.612-1.303,4.35-3.507,4.898-6.452c0.111-0.597-0.187-1.269-0.296-1.904C306.151,2.66,305.691,2.85,305.278,3.111z"/>
	</g>
	<path fill-rule="evenodd" fill="#F5F5F5" d="M95.577,17.15c0.279,0.242,0.563,0.698,0.838,0.694
		c3.284-0.051,6.574-0.092,9.845-0.344c0.55-0.042,1.037-0.907,1.546-1.472c-3.745,0.029-7.491,0.037-11.234,0.136
		C96.231,16.175,95.908,16.808,95.577,17.15z"/>
	<path fill-rule="evenodd" fill="#F5F5F5" d="M107.912,15.912c-0.036,0.036-0.071,0.077-0.106,0.117
		c0.065-0.001,0.13-0.001,0.195-0.002L107.912,15.912z"/>
</g>
</svg>
