<?xml version="1.0" encoding="utf-8"?>
<!-- Generator: Adobe Illustrator 16.0.3, SVG Export Plug-In . SVG Version: 6.00 Build 0)  -->
<!DOCTYPE svg PUBLIC "-//W3C//DTD SVG 1.1//EN" "http://www.w3.org/Graphics/SVG/1.1/DTD/svg11.dtd">
<svg version="1.1" id="Layer_1" xmlns="http://www.w3.org/2000/svg" xmlns:xlink="http://www.w3.org/1999/xlink" x="0px" y="0px"
	 width="512px" height="512px" viewBox="0 0 512 512" enable-background="new 0 0 512 512" xml:space="preserve">
<path fill="#A40000" d="M153.6,409.6c-28.287,0-50.943,22.913-50.943,51.2c0,28.288,22.656,51.199,50.943,51.199
	c28.288,0,51.2-22.911,51.2-51.199C204.8,432.513,181.888,409.6,153.6,409.6z M0,0v51.2h51.2l92.031,194.175L108.675,308.1
	c-3.969,7.426-6.274,15.737-6.274,24.699c0,28.288,22.912,51.2,51.199,51.2h307.2v-51.2H164.481c-3.588,0-6.4-2.812-6.4-6.398
	c0-1.15,0.257-2.176,0.769-3.075l22.913-41.726h190.711c19.2,0,35.977-10.625,44.802-26.368L508.8,89.088
	c2.05-3.582,3.2-7.807,3.2-12.288c0-14.205-11.525-25.6-25.6-25.6H107.906L83.581,0H0z M409.6,409.6
	c-28.286,0-50.948,22.913-50.948,51.2c0,28.288,22.662,51.199,50.948,51.199c28.288,0,51.2-22.911,51.2-51.199
	C460.8,432.513,437.888,409.6,409.6,409.6z"/>
</svg>
