<?xml version="1.0" encoding="utf-8"?>
<!-- Generator: Adobe Illustrator 16.0.0, SVG Export Plug-In . SVG Version: 6.00 Build 0)  -->
<!DOCTYPE svg PUBLIC "-//W3C//DTD SVG 1.1 Basic//EN" "http://www.w3.org/Graphics/SVG/1.1/DTD/svg11-basic.dtd">
<svg version="1.1" baseProfile="basic" id="menu-line_xA0_Image_1_"
	preserveAspectRatio="none" xmlns="http://www.w3.org/2000/svg" xmlns:xlink="http://www.w3.org/1999/xlink" x="0px" y="0px" width="940px" height="4px"
	 viewBox="0 1 940 4" xml:space="preserve">
<path d="M947.7,8c0,0.7,0,1.3,0,2C634.4,10,315.4,10,2,10c0-0.7-2-4.9-2-5.3c3.3-2.1,13-1,16.5-0.9c19.1,0.3,19,2,38.1,1.6
	C66.4,5.1,90.4,3.8,102,3.6c16.7-0.3,33.3,0.9,50,0.5c17-0.4,37,1.2,54,0.9c15.5-0.3,36.8,0.1,52.3,0.1c17.4,0,27.7-0.2,45-0.5
	c27.6-0.6,61.8-0.6,89.3-0.5c16.5,0.1,33.1,0.4,49.6,0.1c14.7-0.3,27.2-0.4,41.9-0.3c15.9,0.1,34,0.7,49.9,0.5
	c31.6-0.7,63.2-0.3,94.8-0.3c18.1,0,36.2,0.3,54.3,0.2C706.7,4.1,731.2,3,754.8,3c33-0.1,65,0.8,97.9,1c20.7,0.1,41.3,0.5,62,0.2
	c9.5-0.1,19.1-0.2,28.6-0.3c1.3,0,2.7-0.3,3.9,0.3c0,0.7,0,1.3,0,2"/>
</svg>
